<svg xmlns="http://www.w3.org/2000/svg" width="38.77" height="38.799" viewBox="0 0 38.77 38.799">
  <path id="mascot" d="M536.278,685.32a15.836,15.836,0,0,0,1.246-20.9l3.763-3.764a3.542,3.542,0,0,0,.785.088,3.524,3.524,0,1,0-2.5-6.016,3.533,3.533,0,0,0-.943,3.274l-3.754,3.753-.54.425-2.2,2.193.617.51c.307.253.6.516.862.781a12.033,12.033,0,0,1,0,17,11.9,11.9,0,0,1-3.794,2.561,19.481,19.481,0,0,1-15.4-16.536,11.982,11.982,0,0,1,10.692-6.535,12.1,12.1,0,0,1,5.453,1.3l.471.239,2.742-2.741-.826-.473a15.779,15.779,0,0,0-18.332,1.913,19.472,19.472,0,1,1,21.493,23.081Q536.2,685.4,536.278,685.32Zm-5.768-12.149A3.525,3.525,0,1,0,533,674.2,3.5,3.5,0,0,0,530.511,673.17Zm-7.765-7.765a3.526,3.526,0,1,0,2.492,1.032A3.5,3.5,0,0,0,522.746,665.405Z" transform="translate(-514.429 -646.676)" fill="#fff"/>
</svg>