<svg width="61" height="44" viewBox="0 0 61 44" fill="none" xmlns="http://www.w3.org/2000/svg">
<g clip-path="url(#clip0_4348_11935)">
<path d="M25.0721 1.48242C25.2151 1.56731 25.3646 1.64567 25.5011 1.74363C26.0732 2.16155 26.6517 2.58601 27.2238 3.00394C27.5228 3.21943 27.8413 3.42187 28.1338 3.65042C28.9724 4.29038 29.8304 4.88462 30.7015 5.4658C31.124 5.74659 31.553 6.02086 31.9496 6.33431C32.4306 6.71958 32.9376 7.05262 33.4317 7.40525C34.2832 8.01908 35.1543 8.59373 35.9993 9.23368C36.5909 9.68426 37.1824 10.1479 37.8259 10.5071C37.904 10.5528 37.969 10.6377 38.06 10.7226C37.9885 10.7095 37.9365 10.716 37.891 10.6964C37.7154 10.5985 37.5334 10.5136 37.3774 10.3895C36.7014 9.8671 35.9733 9.45571 35.2843 8.96595C34.9528 8.73086 34.6147 8.50884 34.2767 8.28681C33.4057 7.70563 32.5216 7.1571 31.67 6.5498C30.2334 5.51804 28.7644 4.5777 27.2888 3.63083C27.1457 3.53941 27.0027 3.44146 26.8597 3.37616C26.1707 3.07577 25.5206 2.65131 24.8641 2.23992C24.7471 2.16808 24.6366 2.10278 24.5196 2.02442C24.4481 1.97871 24.3831 1.96565 24.3766 2.01789C24.3701 2.05707 24.4026 2.13543 24.4416 2.16155C24.9096 2.50112 25.3906 2.80804 25.8392 3.16719C26.2682 3.50676 26.7037 3.82021 27.1587 4.12059C27.4448 4.30344 27.7113 4.49934 27.9648 4.72789C28.3678 5.09358 28.8034 5.41356 29.2649 5.70088C29.7199 5.98821 30.1684 6.28859 30.6105 6.59551C31.332 7.09833 32.0406 7.62727 32.7621 8.13009C33.6527 8.74392 34.5822 9.29245 35.3948 10.0304C36.0903 10.4287 36.6949 11.0164 37.4034 11.3952C37.4294 11.4082 37.4684 11.4343 37.4814 11.4605C37.5009 11.5062 37.5399 11.578 37.5204 11.5976C37.4944 11.6237 37.4229 11.6368 37.3774 11.6172C36.9939 11.4213 36.6364 11.1797 36.2918 10.8858C35.9278 10.5789 35.5638 10.2589 35.1673 10.0173C34.7122 9.7365 34.2637 9.42306 33.8087 9.15532C32.8791 8.61332 32.0016 7.9799 31.111 7.37913C30.8315 7.18975 30.5455 7.00691 30.279 6.80447C29.3364 6.06657 28.3223 5.47886 27.3473 4.81279C27.2823 4.76707 27.1847 4.7932 27.1002 4.78667L27.0937 4.7736C27.5618 5.10664 28.0298 5.44621 28.5043 5.77271C29.0309 6.1384 29.5639 6.49756 30.0904 6.86325C31.1435 7.60115 32.1836 8.36518 33.2496 9.08349C34.1727 9.71038 35.0958 10.3438 36.0058 10.9968C36.2593 11.1797 36.4869 11.3429 36.6364 11.6237C36.7014 11.7478 36.8639 11.8653 36.9939 11.9633C37.5139 12.3486 38.047 12.7077 38.5605 13.0995C39.1845 13.5697 39.8216 14.0268 40.4066 14.5492C40.6081 14.7255 40.8421 14.8692 41.0632 15.0259C41.4272 15.2741 41.7977 15.5157 42.0967 15.8487C42.1877 15.9467 42.2982 16.0315 42.4087 16.1099L45.3859 18.2648C46.0165 18.7285 46.6535 19.1921 47.2841 19.6558C47.6676 19.9366 48.0511 20.2435 48.4541 20.472C49.0847 20.8247 49.6242 21.2818 50.1573 21.765C50.2938 21.8891 50.4368 22.0131 50.5863 22.1372L50.9503 22.4376C51.1063 22.5682 51.2753 22.6857 51.4378 22.8163C51.8149 23.1102 52.1789 23.4106 52.5624 23.6849C52.6599 23.7502 52.7769 23.8155 52.9069 23.8742C52.9394 23.8873 53.0109 23.9003 53.0759 23.9069C53.1019 23.9069 53.1604 23.9069 53.18 23.9069C53.232 23.9003 53.3165 23.8938 53.31 23.8873C53.258 23.8546 53.206 23.7959 53.154 23.7436C53.1019 23.6914 53.0499 23.6326 52.9914 23.5738C52.9849 23.5673 53.0174 23.5543 53.0434 23.5477C53.0954 23.5347 53.1865 23.5412 53.1995 23.5673C53.2255 23.6326 53.271 23.6914 53.336 23.7502C53.3685 23.7763 53.4075 23.8024 53.4465 23.8285C53.492 23.8481 53.5375 23.8742 53.5895 23.8808C53.6025 23.8873 53.6025 23.9069 53.596 23.9134C53.596 23.9265 53.5895 23.9395 53.583 23.9461C53.57 23.9657 53.557 23.9918 53.544 24.0114C53.518 24.0505 53.4855 24.0963 53.453 24.1354C53.388 24.2138 53.3165 24.2922 53.2385 24.3705C53.0889 24.5207 52.9199 24.6709 52.7444 24.808C52.4194 25.0758 52.1269 25.337 51.8214 25.5851C51.6719 25.7092 51.5158 25.8267 51.3533 25.9312C51.3143 25.9573 51.2753 25.9835 51.2363 26.0096L51.1778 26.0488L51.1453 26.0684L51.1323 26.0749L51.1063 26.0945C50.9698 26.1924 50.8333 26.2838 50.6903 26.3753C50.6643 26.3949 50.6383 26.4144 50.6123 26.4406C49.9362 27.0022 49.2147 27.4789 48.4931 27.9621C48.1031 28.2233 47.7131 28.4649 47.3751 28.811C47.2776 28.909 47.1476 28.9285 47.0566 28.8371C47.1931 28.6608 47.3231 28.4649 47.4726 28.2951C47.6026 28.1449 47.7521 28.0013 47.9146 27.8837C48.3696 27.5442 48.8377 27.2177 49.2927 26.8781C49.3967 26.7997 49.5267 26.7083 49.5852 26.6104C49.7347 26.3753 49.9167 26.1794 50.1183 26.0161C50.2223 25.9312 50.3263 25.8529 50.4368 25.7745C50.4888 25.7353 50.5473 25.7027 50.5993 25.6635L50.6838 25.6112C50.7033 25.5982 50.7163 25.5982 50.7293 25.5917C50.8788 25.5329 51.0218 25.4611 51.1323 25.35C51.0933 25.4088 51.0413 25.4545 51.0023 25.5133C50.9633 25.5721 50.9308 25.6374 50.9243 25.7353C50.9243 25.768 50.9113 25.8006 50.8983 25.8267L50.8918 25.8398C50.8918 25.8463 50.8853 25.8529 50.8788 25.8529L50.8528 25.8855C50.8333 25.9051 50.8138 25.9312 50.7943 25.9508C50.7098 26.0357 50.6123 26.1075 50.5213 26.1859C50.4563 26.2381 50.4563 26.2838 50.5408 26.2969C50.6253 26.2381 50.7098 26.1728 50.7878 26.1075C50.8268 26.0749 50.8658 26.0422 50.9113 26.0096C50.9438 25.9835 50.9763 25.9508 51.0088 25.9247C51.0933 25.8529 51.1713 25.781 51.2558 25.7027C51.3923 25.5786 51.5353 25.448 51.6654 25.3239C51.7629 25.226 51.8734 25.1541 52.0619 25.0888C52.1919 25.0497 52.2894 24.9648 52.3739 24.8929C52.4714 24.808 52.5624 24.7101 52.6014 24.6252C52.6339 24.5599 52.7509 24.475 52.6144 24.4162C52.5299 24.4489 52.4324 24.475 52.3934 24.5011C52.2829 24.5795 52.1984 24.6578 52.1074 24.7362C51.9839 24.8472 51.8734 24.9582 51.7434 25.0627C51.7109 25.0888 51.6329 25.1019 51.5743 25.115C51.5613 25.1215 51.5223 25.1084 51.5028 25.0954C51.4833 25.0823 51.4703 25.0627 51.4703 25.0562C51.4963 24.9974 51.5613 24.9517 51.6329 24.9125C51.7044 24.8668 51.7824 24.8276 51.8344 24.7754C51.9384 24.6578 52.0619 24.5468 52.1789 24.4293C52.2829 24.3313 52.3804 24.2269 52.4779 24.1158C52.5039 24.0897 52.5234 24.0571 52.5429 24.031C52.5494 24.0244 52.5494 24.0179 52.5559 24.0048C52.5559 23.9983 52.5494 23.9852 52.5429 23.9852C52.5234 23.9852 52.5104 23.9787 52.4909 23.9722C52.4259 23.9395 52.3674 23.9003 52.3089 23.8612C52.0489 23.6849 51.8084 23.4955 51.5613 23.2996C51.3143 23.1037 51.0608 22.9078 50.8073 22.7249L50.7423 22.6792C50.7163 22.6596 50.7098 22.6596 50.6513 22.6139L50.3653 22.3984L49.7932 21.9609L48.6427 21.0924C47.8756 20.5177 47.1151 19.9431 46.3415 19.375C45.659 18.8722 44.9894 18.3301 44.2549 17.9122C44.0274 17.7816 43.8063 17.5988 43.6048 17.4225C43.1563 17.0241 42.6753 16.7564 42.1552 16.5801C42.1162 16.567 42.0707 16.5997 42.0057 16.6193C42.3697 16.9458 42.7663 17.207 43.1563 17.4812C43.8778 17.9906 44.6124 18.4803 45.3079 19.0289C46.9785 20.3349 48.7012 21.5626 50.3783 22.8816L50.4888 22.9665L50.5473 23.0123L50.6643 23.0971L50.9048 23.2735C51.0673 23.391 51.2233 23.5085 51.3793 23.6261C51.5418 23.7502 51.6979 23.8808 51.8604 23.9918C51.8799 24.0048 51.8994 24.0179 51.9254 24.0244C51.9319 24.0244 51.9384 24.031 51.9449 24.031C51.9514 24.031 51.9579 24.031 51.9644 24.0375C51.9709 24.0505 51.9579 24.0636 51.9514 24.0767C51.9189 24.1224 51.8864 24.1616 51.8474 24.2007C51.7759 24.2791 51.6979 24.3509 51.6198 24.4228C51.5223 24.5142 51.5028 24.6187 51.3858 24.7101C51.2558 24.808 51.0478 24.8603 50.9243 24.9386C50.7488 25.0497 50.5798 25.1476 50.4173 25.226C50.3978 25.2325 50.3718 25.2456 50.3523 25.2586L50.1833 25.3892L49.8387 25.6439C49.6112 25.8137 49.3772 25.9769 49.1432 26.1337C49.0002 26.2316 48.8897 26.3491 48.8312 26.4993C48.8117 26.5516 48.7727 26.6234 48.7272 26.6561C48.4346 26.8716 48.1486 27.1132 47.8106 27.1915C47.4141 27.2895 47.0631 27.4723 46.79 27.8707C46.5755 28.1776 46.2765 28.3931 45.9515 28.5694C45.6655 28.7261 45.3664 28.8698 45.0999 29.0722C44.8269 29.2746 44.5279 29.3661 44.2679 29.5946C44.0144 29.8101 43.7283 29.9864 43.4553 30.1823C43.3123 30.2868 43.1693 30.3456 43.0328 30.3325C42.6558 30.2999 42.3567 30.5611 42.0707 30.868C41.9797 31.1161 41.7522 31.2859 41.5442 31.4557C41.3622 31.6059 41.3167 31.7626 41.2972 31.9063C40.7706 32.285 40.2571 32.6768 39.7306 33.0295C39.3015 33.3168 38.9375 33.6564 38.606 34.0416C38.45 34.2179 38.437 34.3224 38.6125 34.4269C38.71 34.4857 38.7165 34.5706 38.658 34.6881C38.593 34.8253 38.502 34.9559 38.437 35.0799C38.5735 35.3411 38.749 35.5436 38.7945 35.8374C38.619 36.0986 38.502 36.3468 38.632 36.5492C38.723 36.6863 38.6515 36.8627 38.489 37.0063C38.047 37.4047 37.6894 37.8226 37.5074 38.3319C37.4684 38.4364 37.3774 38.554 37.2929 38.6519C37.1499 38.8282 37.1174 38.9784 37.1629 39.1221C37.2214 39.3114 37.1889 39.5269 37.0914 39.762C37.0459 39.873 36.9744 39.9841 36.8899 40.082C36.8054 40.18 36.6884 40.2649 36.5844 40.3497C36.3633 40.5391 36.2268 40.7481 36.2138 40.9832C36.2008 41.2248 36.1098 41.4729 35.9993 41.7341C35.8823 42.0149 35.7978 42.2957 35.7133 42.5765C35.7003 42.6288 35.7198 42.6745 35.7263 42.7463C35.8043 42.7659 35.9018 42.792 35.9863 42.8247C36.0643 42.8508 36.0643 42.9618 35.9863 43.0206C35.8563 43.1316 35.7198 43.2295 35.5963 43.3471C35.4468 43.4842 35.2973 43.6279 35.1608 43.7715C35.0893 43.8434 35.0438 43.9478 35.0958 44.0001C35.1413 44.0458 35.2193 44.0589 35.2973 44.0654C35.3428 44.0719 35.4143 44.0393 35.4728 44.0197C36.0058 43.7911 36.5389 43.5626 37.0719 43.3275C37.4229 43.1708 37.7739 42.9944 38.1315 42.8247C38.541 42.6288 38.931 42.348 39.3405 42.1455C39.7501 41.9431 40.1401 41.6688 40.5366 41.4207C40.9917 41.1399 41.4467 40.8591 41.9017 40.5718C42.1032 40.4412 42.2917 40.3563 42.5128 40.304C42.7078 40.2583 42.9223 40.1408 43.1238 40.0232C44.0209 39.5074 44.8984 38.9523 45.776 38.3907C46.881 37.6855 47.9601 36.9214 49.0197 36.1182C49.5852 35.6872 50.1573 35.2497 50.7618 34.884C50.9048 34.7991 51.0348 34.6881 51.1713 34.5836C51.3598 34.4334 51.5353 34.2702 51.7239 34.1265C52.3284 33.6825 52.9069 33.1927 53.4725 32.6964C53.8365 32.383 54.2135 32.0826 54.61 31.8149C54.8896 31.6255 55.1561 31.4035 55.4226 31.188C55.4616 31.1553 55.5071 31.1227 55.5461 31.09C55.5656 31.0704 55.5851 31.0574 55.6046 31.0378C55.6371 31.0051 55.6696 30.9725 55.6956 30.9398C56.0596 30.5219 56.5342 30.2933 56.9047 29.9081C57.3207 29.4771 57.6717 29.0265 58.0943 28.6347C58.3803 28.367 58.6403 28.0796 58.9068 27.7988C59.1798 27.518 59.4529 27.2503 59.7844 27.0152C59.8364 26.976 59.8949 26.9107 59.9534 26.8324C60.0054 26.754 60.0639 26.6691 60.1094 26.6038C60.5449 25.9443 60.7594 25.2847 60.8635 24.697C60.9155 24.4032 60.935 24.1158 60.9415 23.8416C60.9415 23.6979 60.9415 23.5673 60.9285 23.4106L60.922 23.3453C60.922 23.3192 60.9155 23.3061 60.9155 23.3061C60.9155 23.2996 60.9155 23.2996 60.909 23.293L60.9025 23.2669L60.8765 23.1233C60.896 23.058 60.896 23.0188 60.9155 22.9992C61 22.8359 61.052 22.6466 60.9025 22.3723C60.7269 22.0719 60.5709 21.7193 60.3434 21.3471C60.2069 21.1185 60.0379 20.8834 59.8234 20.6614C59.7779 20.6026 59.7129 20.5504 59.6544 20.4982L59.4724 20.3349C59.4464 20.3088 59.4074 20.2827 59.3749 20.2565L59.2709 20.1782L59.0628 20.028C58.9718 19.9692 58.8743 19.917 58.7833 19.8647C58.6858 19.8125 58.5948 19.7537 58.4973 19.708L58.1983 19.5643L58.0488 19.4925C57.9968 19.4664 57.9578 19.4403 57.9188 19.4142C57.5677 19.1987 57.2297 18.9897 56.8982 18.7742C56.5537 18.5522 56.2547 18.3171 56.0076 18.0494C55.7281 17.749 55.4161 17.4747 55.0846 17.2135L55.0196 17.1678L54.9871 17.1417L54.9221 17.096C54.8766 17.0633 54.8311 17.0372 54.7856 17.0111C54.6946 16.9588 54.597 16.9066 54.4995 16.8543C54.1225 16.6715 53.7455 16.4756 53.4335 16.1491C53.2905 15.9989 53.1084 15.9336 52.9264 15.9205C52.8094 15.914 52.6859 15.8422 52.6014 15.7312C52.3609 15.4177 52.0554 15.2283 51.7174 15.1434C51.4833 15.0847 51.3208 14.9606 51.1713 14.7647C51.0868 14.6537 50.9633 14.5949 50.8398 14.5623C50.6253 14.497 50.4303 14.4055 50.2353 14.2554C50.0792 14.1313 49.9037 14.0268 49.7282 13.9223C49.2147 13.6089 48.6882 13.3346 48.1811 13.0016C47.9016 12.8187 47.6026 12.662 47.3036 12.5771C47.2776 12.5706 47.2321 12.5706 47.2321 12.5771C47.2321 12.6293 47.2321 12.6946 47.2646 12.7273C47.4206 12.8971 47.5896 13.0603 47.7521 13.2367C47.7716 13.2562 47.7521 13.3085 47.7456 13.3477C47.1216 12.9363 46.504 12.5249 45.8865 12.1265C45.0414 11.578 44.1769 11.0621 43.4033 10.3895C43.0913 10.1218 42.7598 9.89975 42.4022 9.71038C42.1097 9.56019 41.8302 9.36428 41.5507 9.18144C40.8746 8.74392 40.1986 8.29987 39.5226 7.86236C39.126 7.60768 38.7295 7.35954 38.333 7.10486C37.9105 6.8306 37.4879 6.55633 37.0589 6.28859C36.9874 6.24288 36.9029 6.24941 36.7989 6.22329C37.1369 6.6151 37.4944 6.94161 37.8975 7.17669C38.333 7.42484 38.7425 7.71869 39.152 8.01908C39.5291 8.29987 39.9256 8.56108 40.3286 8.80269C41.2517 9.35122 42.1292 9.99118 43.0263 10.5854C43.0783 10.6246 43.1303 10.6768 43.1823 10.716C43.2668 10.7879 43.3058 10.8858 43.2668 10.938C43.2213 10.9968 43.1368 10.9968 43.0523 10.9707C42.9938 10.9511 42.9288 10.9315 42.8768 10.8989C42.3307 10.5789 41.7782 10.2589 41.2582 9.87363C41.0437 9.71038 40.8226 9.55366 40.5951 9.41C39.6071 8.77004 38.593 8.1758 37.6244 7.49667C37.4619 7.37913 37.2864 7.27464 37.1109 7.18322C36.6364 6.94161 36.1813 6.66734 35.7263 6.37349C35.2778 6.07963 34.8227 5.7923 34.3612 5.50498C34.1922 5.4005 34.0167 5.31561 33.8412 5.23071C33.8152 5.21765 33.7827 5.21765 33.7632 5.22418C33.7177 5.23724 33.7307 5.28949 33.8022 5.34173C33.9842 5.49192 34.1727 5.63558 34.3677 5.77271C34.5887 5.92291 34.8227 6.05351 35.0438 6.21023C35.4013 6.46491 35.7523 6.73264 36.1098 6.98732C36.7729 7.45749 37.4424 7.9146 38.112 8.37824C38.138 8.39783 38.177 8.41742 38.19 8.44354C38.216 8.48925 38.2485 8.54802 38.242 8.5872C38.2355 8.64597 38.1705 8.64597 38.1055 8.60679C37.2279 8.05173 36.3828 7.41178 35.4663 6.94161C34.1402 6.07963 32.8141 5.21112 31.4815 4.34915C31.085 4.09447 30.6755 3.87245 30.2725 3.63736C30.2399 3.61777 30.1944 3.65042 30.1554 3.66348C30.1749 3.6896 30.1814 3.72878 30.2074 3.74184C30.786 4.15977 31.358 4.58423 31.9431 4.98257C32.1706 5.13929 32.3851 5.29602 32.5801 5.48539C32.8726 5.77271 33.1846 6.02739 33.5227 6.25594C33.6592 6.34737 33.7697 6.47797 33.8932 6.58898C33.9062 6.60204 33.9062 6.63469 33.8932 6.64775C33.8737 6.66081 33.8412 6.66734 33.8152 6.66081C33.7242 6.62163 33.6332 6.58245 33.5552 6.53021C33.1911 6.28206 32.8401 6.00127 32.4761 5.77271C30.9355 4.81932 29.4209 3.80062 27.8998 2.80804C27.7763 2.72314 27.6658 2.72967 27.5553 2.72967L27.5488 2.72314C27.9778 2.91252 28.3093 3.22596 28.6148 3.60471C28.3743 3.59818 28.1793 3.46758 27.9908 3.33698L25.4166 1.59996C25.2671 1.44324 25.1696 1.46283 25.0721 1.48242ZM44.7944 30.3129C44.7749 30.326 44.7359 30.3195 44.7359 30.3129C44.7359 30.2672 44.7294 30.2085 44.7554 30.1693C44.8074 30.0909 44.8789 30.0125 44.9504 29.9538C45.3469 29.6273 45.763 29.4314 46.1985 29.464C45.724 29.7448 45.2559 30.0321 44.7944 30.3129Z" fill="#CEDE3F"/>
<path d="M40.1986 15.1826C40.0231 15.0977 39.8281 15.0455 39.6786 14.928C39.2496 14.5884 38.7946 14.3141 38.3525 14.0072C38.1315 13.857 37.9105 13.7003 37.7025 13.524C37.605 13.4456 37.54 13.3215 37.4815 13.2171C37.462 13.1779 37.4815 13.1256 37.501 13.093C37.5075 13.0799 37.553 13.0865 37.579 13.093C37.6375 13.1126 37.7025 13.1256 37.7545 13.1648C38.19 13.4783 38.6385 13.7852 38.9766 14.2096C39.2301 14.5231 39.5421 14.7843 39.8671 15.0259C39.9711 15.1043 40.0946 15.1435 40.2116 15.2022L40.1986 15.1826Z" fill="#CEDE3F"/>
<path d="M25.0722 1.48239C24.7342 1.18201 24.3182 0.966515 23.9996 0.574707C24.4092 0.862033 24.7732 1.1363 25.0722 1.48239Z" fill="#CEDE3F"/>
<path d="M40.2051 15.1956C40.5171 15.385 40.8161 15.5809 41.0762 15.8747C40.9527 15.8813 40.8811 15.7703 40.7966 15.718C40.6861 15.6397 40.5821 15.5548 40.4846 15.4699C40.3871 15.3785 40.2961 15.2805 40.1986 15.1891C40.1986 15.1826 40.2051 15.1956 40.2051 15.1956Z" fill="#CEDE3F"/>
<path d="M27.0873 4.77355C26.7948 4.55152 26.5087 4.32297 26.1317 4.03564C26.2682 4.08136 26.3137 4.08789 26.3397 4.11401C26.5932 4.33603 26.8468 4.55805 27.1003 4.78661L27.0873 4.77355Z" fill="#CEDE3F"/>
<path d="M34.9463 10.8466C35.1803 10.9314 35.2583 10.9576 35.3428 10.9902C35.4143 11.0163 35.4598 11.0686 35.4273 11.1078C35.4078 11.1339 35.3298 11.1274 35.2908 11.1078C35.2128 11.0621 35.1413 10.9968 34.9463 10.8466Z" fill="#CEDE3F"/>
<path d="M27.5358 2.65778C27.3603 2.47494 27.1003 2.39658 26.8728 2.08313C27.1978 2.28556 27.3668 2.47494 27.5423 2.66431L27.5358 2.65778Z" fill="#CEDE3F"/>
<path d="M25.0721 3.19976C25.1111 3.24547 25.1306 3.26506 25.1436 3.29118C25.1501 3.30424 25.1436 3.32383 25.1371 3.33689C25.0656 3.28465 24.9876 3.23894 24.9161 3.1867C24.8966 3.17364 24.8901 3.14099 24.8771 3.11487C24.9486 3.14752 25.0201 3.17364 25.0721 3.19976Z" fill="#CEDE3F"/>
<path d="M23.1935 0.0588148L23.239 0.130646C23.213 0.111056 23.1805 0.0979955 23.161 0.071875C23.083 -0.0195468 23.096 -0.0260769 23.1935 0.0588148Z" fill="#CEDE3F"/>
<path d="M32.8207 4.57764C32.8662 4.62335 32.9117 4.66906 32.9572 4.71477C32.9312 4.70171 32.8987 4.68865 32.8727 4.66906C32.8467 4.64947 32.8207 4.62335 32.7947 4.60376C32.7947 4.60376 32.8142 4.5907 32.8207 4.57764Z" fill="#CEDE3F"/>
<path d="M36.3569 11.7999L36.4154 11.8456L36.3829 11.8522L36.3569 11.7999Z" fill="#CEDE3F"/>
<path d="M25.9692 1.51501C25.9952 1.52807 26.0277 1.54114 26.0472 1.56073C26.0667 1.58032 26.0862 1.60644 26.0992 1.63256C26.0537 1.60644 26.0082 1.58685 25.9627 1.56073C25.9562 1.5542 25.9627 1.52807 25.9692 1.51501Z" fill="#CEDE3F"/>
<path d="M39.9582 14.7777L39.9322 14.8038L39.8997 14.7516L39.9582 14.7777Z" fill="#CEDE3F"/>
<path d="M14.6259 20.5373C14.7689 20.5046 14.8924 20.6418 14.9379 20.8181C14.9639 20.9356 14.8989 21.0532 14.7819 21.0923C14.5999 21.1446 14.5024 21.1119 14.4244 20.9421C14.3919 20.8703 14.3984 20.7724 14.3919 20.694C14.0604 20.9813 13.7029 21.1838 13.2738 21.1054C13.1308 21.0793 12.9813 21.0727 12.8383 21.0923C11.8177 21.2164 10.7972 21.334 9.77011 21.3666C9.49059 21.3731 9.30858 21.5952 9.12007 21.8041C9.04856 21.8825 9.08756 22.111 9.18507 22.1437C9.28908 22.1763 9.39958 22.1763 9.51009 22.2155C9.5621 22.2351 9.6011 22.2939 9.6531 22.3331C9.6011 22.3918 9.56209 22.4571 9.50359 22.4963C9.24357 22.6857 8.93155 22.6139 8.65204 22.6857C8.47652 22.7314 8.29451 22.7836 8.145 22.8881C8.0735 22.9338 8.054 23.1101 8.041 23.2342C8.03449 23.3387 8.19051 23.4889 8.26851 23.4954C8.30751 23.4954 8.34651 23.5281 8.37902 23.515C8.88605 23.3256 9.39958 23.4628 9.90012 23.5868C10.1601 23.6522 10.4072 23.6783 10.6607 23.6326C10.7257 23.6195 10.7972 23.6652 10.8622 23.6979C10.8817 23.7044 10.8947 23.7762 10.8882 23.8023C10.8427 23.9525 10.7192 23.9591 10.6152 23.9656C8.93805 24.0897 7.28045 24.3574 5.59684 24.3835C5.41482 24.3835 5.22631 24.3901 5.0573 24.4423C4.66077 24.5664 4.27075 24.5794 3.86122 24.4619C3.37369 24.3182 2.91866 24.4423 2.47013 24.6382C2.30112 24.71 2.12561 24.7688 1.9631 24.8602C1.87859 24.9059 1.88509 25.0039 1.9501 25.0692C1.9761 25.0953 2.0151 25.1149 2.0476 25.128C2.0801 25.141 2.11911 25.1475 2.15811 25.1606C2.15161 25.1933 2.14511 25.2259 2.13861 25.2651C1.70958 25.3304 1.28055 25.3892 0.845024 25.4545C0.819022 25.461 0.78652 25.5067 0.78652 25.5394C0.78002 25.5655 0.806021 25.6177 0.825523 25.6373C1.06604 25.8006 1.31956 25.7483 1.57307 25.7744C1.79409 25.8006 2.0021 25.9312 2.0216 26.2773C2.22961 26.0422 2.47013 26.1075 2.71065 26.2185C2.71715 26.2185 2.71065 26.3099 2.69765 26.323C2.47013 26.5319 2.24912 26.4862 2.0476 26.2381C1.87859 26.3099 1.70958 26.3883 1.53407 26.4536C1.37806 26.5189 1.21555 26.5711 1.04004 26.6364C1.33256 26.8127 1.59257 26.976 1.84609 27.1327C1.79409 28.1318 1.59907 27.9294 1.11804 27.9163C1.04654 27.9163 0.962032 27.9294 0.903528 27.8902C0.812522 27.8249 0.734517 27.7335 0.676013 27.6225C0.656512 27.5833 0.708515 27.4657 0.747518 27.407C0.799521 27.3286 0.825523 27.2437 0.760518 27.198C0.702015 27.1588 0.617509 27.1523 0.552505 27.1719C0.487501 27.1915 0.409495 27.2372 0.376993 27.3025C0.253485 27.518 0.149478 27.74 0.0324707 27.9816C0.116976 28.073 0.188481 28.1841 0.285987 28.2428C0.702015 28.4975 1.15054 28.4844 1.57307 28.4061C2.18411 28.2951 2.80165 28.3277 3.41919 28.2885C3.67271 28.2755 3.92623 28.2428 4.17324 28.2102C4.49826 28.171 4.81678 28.0926 5.14181 28.0796C6.05187 28.0404 6.96192 28.0339 7.87198 28.0143C8.60003 27.9947 9.32808 28.0273 10.0561 27.9229C10.8102 27.8184 11.5772 27.7204 12.3443 27.9163C12.5588 27.9686 12.7798 27.9359 13.0008 27.9294L16.7061 27.7727C17.5056 27.74 18.2987 27.6878 19.0982 27.6421C19.1697 27.6355 19.2477 27.6355 19.3127 27.5963C19.6833 27.3678 20.0928 27.4462 20.4893 27.4331C21.0679 27.42 21.6529 27.4853 22.2249 27.3351C22.4004 27.2894 22.6019 27.2502 22.7645 27.3156C23.239 27.4984 23.7005 27.4135 24.1686 27.3351C24.3441 27.3025 24.5326 27.3156 24.7146 27.3482C25.0786 27.4135 25.4361 27.3743 25.8002 27.3286C26.0862 27.2894 26.3787 27.2633 26.6647 27.2502C27.5358 27.2045 28.4068 27.2568 29.2714 27.2698C31.2605 27.309 33.2496 27.309 35.2323 27.3221C35.8758 27.3286 36.5194 27.2894 37.1694 27.2894C39.4316 27.3025 41.6872 27.2894 43.9168 27.3417C44.3394 27.3547 44.7684 27.3351 45.1909 27.3156C45.932 27.2698 46.6665 27.198 47.4011 27.1849C47.7196 27.1784 48.0316 27.1784 48.3371 27.1262C48.6427 27.0739 48.9417 26.976 49.2407 26.7801C49.6697 26.7083 50.0272 26.4536 50.3653 26.0748C50.5278 25.8855 50.7163 25.7614 50.9113 25.683C51.1128 25.5981 51.3208 25.572 51.5418 25.5589C51.6264 25.5589 51.7174 25.5524 51.8019 25.5589C51.8864 25.5589 51.9774 25.5655 52.0619 25.572C52.2309 25.5785 52.4064 25.5981 52.5754 25.6177C52.9134 25.6634 53.2515 25.7222 53.57 25.794C53.687 25.8202 53.804 25.8332 53.921 25.8463C54.038 25.8593 54.1485 25.8593 54.2655 25.8528C54.4995 25.8332 54.7206 25.7875 54.9546 25.7026C55.0521 25.6634 55.1496 25.5067 55.1236 25.4022C55.0066 24.9712 54.8701 24.5272 54.7271 24.1158C54.5515 24.0309 54.3825 23.9395 54.2135 23.8546C54.0445 23.7762 53.8755 23.7044 53.7065 23.6522C53.5115 23.5934 53.323 23.5281 53.1409 23.4432C53.0499 23.404 52.9589 23.3583 52.8679 23.3061C52.7769 23.2603 52.6859 23.2081 52.6014 23.1559C51.9254 22.7445 51.2038 22.4375 50.4173 22.3396C50.1833 22.3135 49.9492 22.2482 49.7152 22.1763C49.4812 22.1045 49.2472 22.0327 49.0132 21.9739C48.7077 21.8955 48.6232 21.6082 48.5517 21.2556C47.3621 21.014 46.1595 20.7071 44.9634 20.4263C44.7814 20.3806 44.5929 20.3544 44.4629 20.1781C44.4434 20.152 44.4239 20.0998 44.4369 20.0736C44.4499 20.0345 44.4954 19.9822 44.5214 19.9887C44.7034 20.0214 44.8854 20.0606 45.0609 20.1194C45.3534 20.2238 45.6395 20.2695 45.945 20.2173C46.0685 20.1977 46.14 20.0932 46.1855 19.9626C46.231 19.8451 46.166 19.6818 46.088 19.61C45.8085 19.3488 45.4704 19.2704 45.1454 19.2117C44.2939 19.0549 43.4358 18.9374 42.5778 18.8264C42.0577 18.7611 41.5312 18.7154 41.0112 18.6697C40.6016 18.637 40.1921 18.6044 39.7826 18.5913C38.437 18.5456 37.0979 18.526 35.7588 18.5129C35.2388 18.5129 34.7187 18.5586 34.2052 18.637C33.3277 18.7741 32.4436 18.8525 31.553 18.637C31.41 18.6044 31.254 18.5913 31.111 18.624C30.8185 18.6958 30.539 18.8133 30.253 18.8917C30.1619 18.9178 30.1164 18.9309 30.1229 19.0027C30.604 19.0941 31.0785 19.0941 31.5595 19.0027C32.3266 18.8525 33.1131 18.8786 33.8932 18.97C34.2377 19.0092 34.4002 19.3096 34.5367 19.6361C34.5627 19.6949 34.5237 19.8255 34.4782 19.8843C34.3027 20.1324 34.0817 20.3022 33.8022 20.2695C33.5032 20.2304 33.2171 20.2695 32.9246 20.3348C32.5996 20.4067 32.2616 20.4393 31.9366 20.4263C31.4555 20.4067 30.981 20.472 30.5065 20.5503C30.0709 20.6222 29.6289 20.7005 29.1934 20.7528C28.7189 20.8115 28.2443 20.903 27.7698 20.8834C26.5152 20.8311 25.2736 20.9944 24.0255 21.014C23.733 21.0205 23.447 21.1054 23.174 21.2621C22.979 21.3731 22.7645 21.4841 22.5499 21.4972C22.0429 21.5299 21.5294 21.5037 21.0028 21.5037C20.7428 20.9944 20.3983 20.805 19.9498 20.9813C19.8458 21.0205 19.7288 21.0336 19.6248 21.0205C18.8837 20.9487 18.1557 21.0466 17.4211 21.1119C16.8426 21.1576 16.2575 21.1642 15.6855 20.9552C15.5945 20.4916 16.017 20.4132 16.0755 20.0736C15.887 19.9039 15.666 19.8712 15.445 19.8647C14.9249 19.8516 14.4114 19.9104 13.9109 20.0606C13.8654 20.0736 13.8394 20.1847 13.8199 20.2565C13.8134 20.2761 13.8589 20.3414 13.8914 20.3479C14.0994 20.4263 14.3399 20.4197 14.4309 20.7528C14.4569 20.6614 14.5284 20.5634 14.6259 20.5373ZM36.8314 20.1194C36.7469 20.0671 36.6819 19.93 36.6429 19.8124C36.5974 19.6818 36.7014 19.401 36.7924 19.3488C36.8574 19.3161 36.9289 19.2704 36.9939 19.277C37.1759 19.2966 37.3514 19.3357 37.5269 19.3749C37.6764 19.4076 37.7934 19.5773 37.7934 19.7406C37.7934 19.93 37.7024 20.0998 37.5659 20.1455C37.4619 20.1781 37.3579 20.1977 37.2214 20.2304C37.1044 20.1977 36.9549 20.1912 36.8314 20.1194ZM42.6948 19.7994C42.7403 19.8451 42.7533 19.9496 42.7663 20.0279C42.7728 20.0541 42.7403 20.1194 42.7208 20.1259C42.6233 20.1781 42.5193 20.25 42.4152 20.25C42.3112 20.25 42.2007 20.1977 42.1097 20.1324C41.8757 19.9757 41.6287 19.943 41.3752 19.9496C41.3297 19.9496 41.2842 19.8451 41.2452 19.7863C41.3037 19.7406 41.3557 19.6557 41.4142 19.6492C41.5962 19.6296 41.7782 19.6427 41.9602 19.6427C42.2137 19.6492 42.4738 19.5969 42.6948 19.7994ZM12.3053 23.5934C12.2793 23.5999 12.2403 23.5542 12.2078 23.5281C12.2468 23.4693 12.2858 23.3714 12.3313 23.3648C12.7278 23.3126 13.1308 23.2734 13.5274 23.2408C13.5599 23.2408 13.5924 23.2734 13.7939 23.3648C13.1633 23.4628 12.7343 23.5346 12.3053 23.5934ZM5.23281 27.6616C4.81028 27.7857 4.40726 27.9163 3.82222 27.7792C4.37476 27.6225 4.79078 27.5963 5.23281 27.6616ZM17.2456 23.1232C17.2781 23.1363 17.3106 23.1755 17.3236 23.2081C17.3561 23.3061 17.3171 23.3648 17.2196 23.3714C17.0051 23.3909 16.7906 23.404 16.4655 23.4301C16.7516 23.0383 16.9791 22.9861 17.2456 23.1232ZM15.3215 23.2342C15.3345 23.2016 15.341 23.1493 15.354 23.1428C15.419 23.1297 15.484 23.1297 15.549 23.1363C15.562 23.1363 15.575 23.1885 15.601 23.2538C15.5035 23.2473 15.4125 23.2408 15.3215 23.2342Z" fill="#CEDE3F"/>
<path d="M7.38449 21.8368C7.38449 22.2155 7.20248 22.3919 6.92296 22.529C7.08547 22.5812 7.24798 22.6269 7.40399 22.6922C7.5275 22.738 7.62501 22.8947 7.586 22.9992C7.5405 23.1102 7.482 23.2408 7.39749 23.2865C7.23498 23.3779 7.05947 23.4432 6.88396 23.4759C6.23391 23.5934 5.58387 23.7044 4.92083 23.6652C4.5438 23.6391 4.19278 23.7305 3.83526 23.822L3.85476 23.8611C3.78975 23.7501 3.71175 23.6456 3.66625 23.5216C3.60774 23.3583 3.69225 23.1102 3.80926 23.071C3.91326 23.0318 4.01727 22.9796 4.12128 22.9665C4.4138 22.9469 4.70631 22.9339 5.00533 22.9404C5.29785 22.9469 5.55137 22.8359 5.86339 22.6139C5.64888 22.542 5.51237 22.5029 5.37586 22.4572C5.37586 22.4245 5.36286 22.3657 5.36936 22.3657C5.69438 22.3004 6.0194 22.1959 6.34442 22.1894C6.72145 22.1764 7.06597 22.0458 7.40399 21.876L7.38449 21.8368Z" fill="#CEDE3F"/>
<path d="M21.7959 19.1724C22.5044 19.0549 23.083 18.9504 23.6615 18.8655C23.8045 18.8459 23.954 18.8851 24.0906 18.9308C24.1296 18.9439 24.1556 19.0614 24.1751 19.1333C24.1816 19.1594 24.1361 19.2312 24.1101 19.2312C23.382 19.2573 22.6605 19.3096 21.7959 19.1724Z" fill="#CEDE3F"/>
<path d="M13.3973 19.5316C13.7094 19.4271 13.8069 19.3814 13.9109 19.3683C14.2749 19.3292 14.6324 19.3226 14.9574 19.0484C15.1135 18.9178 15.315 19.0026 15.4645 19.1724C15.484 19.1986 15.497 19.2443 15.5035 19.2834C15.5035 19.3226 15.497 19.3683 15.471 19.3945C15.445 19.4206 15.406 19.4467 15.3735 19.4467C14.7884 19.4793 14.2034 19.4989 13.3973 19.5316Z" fill="#CEDE3F"/>
<path d="M19.3582 19.8124C19.7092 19.7275 20.0602 19.721 20.4178 19.7798C20.4503 19.7863 20.4893 19.9038 20.5023 19.9757C20.5088 20.0083 20.4828 20.0671 20.4568 20.0867C20.3658 20.152 20.2618 20.263 20.1772 20.2434C19.9042 20.165 19.6052 20.1781 19.3582 19.9626C19.3452 19.943 19.3582 19.8777 19.3582 19.8124Z" fill="#CEDE3F"/>
<path d="M17.9022 19.9365C17.9022 19.9626 17.9087 20.0214 17.9022 20.0214C17.8047 20.041 17.7072 20.0802 17.6096 20.0671C17.5121 20.0541 17.5056 19.9692 17.6096 19.9235C17.6681 19.8973 17.7397 19.8973 17.8112 19.8973C17.8372 19.8973 17.8697 19.9235 17.9022 19.9365Z" fill="#CEDE3F"/>
<path d="M20.5804 19.1986C20.5674 19.2247 20.5544 19.2704 20.5414 19.2704C20.4699 19.2835 20.3983 19.2835 20.3203 19.277C20.3008 19.277 20.2813 19.2508 20.2618 19.2378L20.5804 19.1986Z" fill="#CEDE3F"/>
<path d="M12.0712 20.1063C12.0972 20.1063 12.1297 20.1259 12.1622 20.139C12.1557 20.1651 12.1427 20.2108 12.1362 20.2108C12.0387 20.2108 11.9477 20.1977 11.8502 20.1912C11.8632 20.1716 11.8697 20.1324 11.8827 20.1324C11.9412 20.1259 12.0062 20.1129 12.0712 20.1063Z" fill="#CEDE3F"/>
<path d="M24.4741 19.8582C24.3636 19.8517 24.2791 19.8451 24.1881 19.8386C24.2011 19.8125 24.2076 19.7668 24.2206 19.7603C24.2856 19.7472 24.3506 19.7472 24.4156 19.7472C24.4286 19.7537 24.4481 19.7994 24.4741 19.8582Z" fill="#CEDE3F"/>
<path d="M7.3974 21.8694L7.4039 21.791C7.4039 21.791 7.3844 21.8302 7.3844 21.8367L7.3974 21.8694Z" fill="#CEDE3F"/>
<path d="M3.84171 23.822L3.7832 23.8024L3.85471 23.8546C3.85471 23.8611 3.84171 23.822 3.84171 23.822Z" fill="#CEDE3F"/>
<path d="M37.2214 20.2304C37.1044 20.1977 36.9549 20.1912 36.8314 20.1194C36.7469 20.0671 36.6819 19.93 36.6429 19.8125C36.5974 19.6819 36.7014 19.4011 36.7924 19.3488C36.8574 19.3162 36.9289 19.2705 36.9939 19.277C37.1759 19.2966 37.3514 19.3358 37.5269 19.3749C37.6764 19.4076 37.7935 19.5774 37.7935 19.7406C37.7935 19.93 37.7025 20.0998 37.5659 20.1455C37.4619 20.1716 37.3579 20.1977 37.2214 20.2304Z" fill="#CEDE3F"/>
<path d="M41.9602 19.6427C42.2137 19.6492 42.4737 19.5905 42.6947 19.7994C42.7402 19.8451 42.7532 19.9496 42.7662 20.028C42.7727 20.0541 42.7402 20.1194 42.7207 20.1259C42.6232 20.1782 42.5192 20.25 42.4152 20.25C42.3112 20.25 42.2007 20.1978 42.1097 20.1325C41.8757 19.9757 41.6286 19.9431 41.3751 19.9496C41.3296 19.9496 41.2841 19.8451 41.2451 19.7864C41.3036 19.7406 41.3556 19.6558 41.4141 19.6492C41.5961 19.6296 41.7782 19.6427 41.9602 19.6427Z" fill="#CEDE3F"/>
<path d="M13.7939 23.3648C13.1633 23.4627 12.7343 23.5346 12.3053 23.5933C12.2793 23.5999 12.2403 23.5542 12.2078 23.528C12.2468 23.4693 12.2858 23.3713 12.3313 23.3648C12.7278 23.3126 13.1308 23.2734 13.5274 23.2407C13.5599 23.2407 13.5989 23.2734 13.7939 23.3648Z" fill="#CEDE3F"/>
<path d="M3.82874 27.7857C4.37477 27.6224 4.7908 27.5963 5.23933 27.6681C4.8103 27.7922 4.40727 27.9228 3.82874 27.7857Z" fill="#CEDE3F"/>
<path d="M16.4656 23.4302C16.7516 23.0383 16.9791 22.9861 17.2456 23.1232C17.2781 23.1363 17.3106 23.1755 17.3236 23.2081C17.3561 23.3061 17.3171 23.3649 17.2196 23.3714C17.0051 23.391 16.7906 23.404 16.4656 23.4302Z" fill="#CEDE3F"/>
<path d="M14.3724 20.7267C14.4569 20.6614 14.5349 20.5634 14.626 20.5373C14.769 20.5047 14.8925 20.6418 14.938 20.8181C14.964 20.9356 14.899 21.0532 14.782 21.0924C14.6 21.1446 14.5024 21.112 14.4244 20.9422C14.3919 20.8703 14.3984 20.7724 14.3919 20.694C14.3919 20.6875 14.3724 20.7267 14.3724 20.7267Z" fill="#CEDE3F"/>
<path d="M15.6076 23.2604C15.497 23.2539 15.4125 23.2473 15.3215 23.2408C15.3345 23.2081 15.341 23.1559 15.354 23.1494C15.419 23.1363 15.484 23.1363 15.549 23.1428C15.5685 23.1428 15.5816 23.1886 15.6076 23.2604Z" fill="#CEDE3F"/>
<path d="M1.99561 26.2708C2.20362 26.0357 2.44413 26.101 2.68465 26.212C2.69115 26.212 2.68465 26.3034 2.67165 26.3165C2.44413 26.5254 2.22312 26.4797 2.02161 26.2316C2.01511 26.2381 1.99561 26.2708 1.99561 26.2708Z" fill="#CEDE3F"/>
</g>
<defs>
<clipPath id="clip0_4348_11935">
<rect width="61" height="44" fill="white"/>
</clipPath>
</defs>
</svg>
