<svg width="431" height="83" viewBox="0 0 431 83" fill="none" xmlns="http://www.w3.org/2000/svg">
<g clip-path="url(#clip0_4274_7848)">
<path d="M74.479 73.2859L71.9469 68.8593H65.586L67.9945 73.04H21.9858L24.3943 68.8593H18.0333L15.5013 73.2859C14.1427 75.6222 15.8101 78.5118 18.5274 78.5118H71.4529C74.1702 78.5118 75.8376 75.6222 74.479 73.2859Z" fill="#CEDE3F"/>
<path d="M89.4862 47.4022L63.0543 1.72148C62.5603 0.860741 61.8192 0.368889 61.0164 0.122963C60.9546 0.122963 60.8928 0.0614815 60.8311 0.0614815C60.5223 0 60.2753 0 60.0283 0C59.7812 0 59.5342 0 59.2872 0.0614815C59.2254 0.0614815 59.1637 0.122963 59.1019 0.122963C58.2991 0.368889 57.558 0.922222 57.0639 1.72148L54.0996 6.88593L57.2492 12.3578L60.09 7.43926L83.1253 47.1563H77.4436L80.5932 52.6281H86.5836C89.1774 52.6281 90.8448 49.677 89.4862 47.4022Z" fill="#CEDE3F"/>
<path d="M29.9524 7.4393L32.7932 12.3578L35.9428 6.88597L32.9785 1.72152C32.9785 1.66004 32.9167 1.66004 32.9167 1.59856C32.855 1.53708 32.855 1.4756 32.7932 1.41412C32.7932 1.35263 32.7315 1.35263 32.7315 1.29115C32.6697 1.22967 32.608 1.16819 32.608 1.10671C32.5462 1.04523 32.4844 0.983746 32.4227 0.922264L32.3609 0.860783C32.3609 0.860783 32.2992 0.799301 32.2374 0.799301L32.1757 0.73782C32.1139 0.73782 32.1139 0.676338 32.0522 0.676338L31.9904 0.614857L31.9286 0.553375C31.9286 0.553375 31.8669 0.553375 31.8669 0.491894C31.8051 0.491894 31.8051 0.430412 31.7434 0.430412C31.7434 0.430412 31.6816 0.430412 31.6816 0.368931C31.6816 0.368931 31.6816 0.368931 31.6199 0.368931C31.6199 0.368931 31.6199 0.368931 31.5581 0.368931C31.5581 0.368931 31.4963 0.368931 31.4963 0.307449C31.4963 0.307449 31.4346 0.307449 31.4346 0.245968C31.4346 0.245968 31.3728 0.245968 31.3728 0.184486C31.3728 0.184486 31.3111 0.184486 31.3111 0.123005H31.2493H31.1876C31.1258 0.123005 31.1258 0.123005 31.064 0.123005C31.0023 0.123005 30.9405 0.0615234 30.8788 0.0615234C30.817 0.0615234 30.817 0.0615234 30.7553 0.0615234H30.6935H30.6317H30.57H30.5082H30.4465C30.4465 0.0615234 30.4465 0.0615234 30.3847 0.0615234C30.3847 0.0615234 30.3847 0.0615234 30.323 0.0615234H30.2612C30.1994 0.0615234 30.1994 0.0615234 30.1377 0.0615234C30.0759 0.0615234 30.0759 0.0615234 30.0142 0.0615234H29.9524C29.9524 0.0615234 29.9524 0.0615234 29.8907 0.0615234C29.8907 0.0615234 29.8907 0.0615234 29.8289 0.0615234H29.7672H29.7054H29.6436H29.5819H29.5201C29.4584 0.0615234 29.4584 0.0615234 29.3966 0.0615234C29.3349 0.0615234 29.2731 0.123005 29.2113 0.123005C29.1496 0.123005 29.1496 0.123005 29.0878 0.123005H29.0261H28.9643C28.9643 0.123005 28.9026 0.123005 28.9026 0.184486C28.9026 0.184486 28.8408 0.184486 28.8408 0.245968C28.8408 0.245968 28.779 0.245968 28.779 0.307449C28.779 0.307449 28.7173 0.307449 28.7173 0.368931C28.7173 0.368931 28.7173 0.368931 28.6555 0.368931C28.6555 0.368931 28.6555 0.368931 28.5938 0.368931C28.5938 0.368931 28.532 0.368931 28.532 0.430412C28.4703 0.430412 28.4703 0.491894 28.4085 0.491894C28.4085 0.491894 28.3467 0.491894 28.3467 0.553375L28.285 0.614857L28.2232 0.676338C28.1615 0.676338 28.1615 0.73782 28.0997 0.73782L28.038 0.799301C27.9762 0.799301 27.9762 0.860783 27.9145 0.860783L27.8527 0.922264C27.7909 0.983746 27.7292 1.04523 27.6674 1.10671C27.6057 1.16819 27.5439 1.22967 27.5439 1.29115C27.1734 1.35263 27.1734 1.41412 27.1734 1.41412C27.1116 1.4756 27.0499 1.53708 27.0499 1.59856C27.0499 1.66004 26.9881 1.66004 26.9881 1.72152L0.494475 47.4023C-0.864172 49.7386 0.803258 52.6282 3.52055 52.6282H9.51095L12.6605 47.1563H6.97893L29.9524 7.4393Z" fill="#CEDE3F"/>
<path d="M81.4572 60.4977L76.8872 52.6281L73.7376 47.1562L55.3341 15.4933L52.1845 10.0214L48.0468 2.88957C48.0468 2.82809 47.9851 2.82809 47.9851 2.76661C47.9233 2.70513 47.9233 2.64365 47.8616 2.58216C47.8616 2.52068 47.7998 2.52068 47.7998 2.4592C47.7381 2.39772 47.6763 2.33624 47.6763 2.27476C47.6145 2.21328 47.5528 2.15179 47.491 2.09031C47.4293 2.02883 47.3058 1.90587 47.244 1.84439C47.1823 1.78291 47.0587 1.72142 46.9352 1.65994C46.6264 1.4755 46.3177 1.35254 46.0089 1.22957C45.8854 1.22957 45.8236 1.22957 45.7618 1.22957C45.5148 1.16809 45.2678 1.16809 45.0208 1.16809C44.7737 1.16809 44.465 1.16809 44.2179 1.22957C44.1562 1.22957 44.0944 1.29105 44.0327 1.29105C43.6621 1.41402 43.3533 1.53698 43.0446 1.78291C42.9828 1.84439 42.921 1.84439 42.8593 1.90587C42.7975 1.96735 42.674 2.02883 42.6123 2.15179C42.3652 2.39772 42.18 2.64365 41.9947 2.88957L37.857 10.0214L34.7074 15.4933L16.3039 47.1562L13.1543 52.6281L8.58432 60.4977C7.22567 62.834 8.8931 65.7236 11.6104 65.7236H78.4311C81.0867 65.7236 82.7541 62.834 81.4572 60.4977ZM15.007 60.2518L19.4535 52.6281L22.6031 47.1562L37.7952 20.9651L40.9448 15.4933L44.959 8.60735L48.9732 15.4933L52.1228 20.9651L67.3149 47.1562L70.4645 52.6281L74.911 60.2518H15.007Z" fill="#CEDE3F"/>
<path d="M105.666 72.6096V41.5614H118.141C120.364 41.5614 122.155 41.9918 123.514 42.914C124.872 43.7747 125.86 44.8814 126.54 46.234C127.157 47.5866 127.466 48.9392 127.466 50.2918C127.466 52.0133 127.096 53.4888 126.293 54.657C125.49 55.8251 124.44 56.5629 123.081 56.9933V55.8866C125.058 56.317 126.478 57.1777 127.466 58.5918C128.454 60.0058 128.948 61.5429 128.948 63.2644C128.948 65.1088 128.578 66.7688 127.898 68.1829C127.219 69.597 126.169 70.7036 124.749 71.5029C123.328 72.3021 121.599 72.671 119.438 72.671H105.666V72.6096ZM111.656 53.6733H118.079C118.758 53.6733 119.314 53.5503 119.87 53.3044C120.364 53.0584 120.796 52.6896 121.105 52.2592C121.414 51.7673 121.537 51.1525 121.537 50.4147C121.537 49.4925 121.229 48.6933 120.673 48.017C120.055 47.3407 119.191 47.0333 118.079 47.0333H111.656V53.6733ZM111.656 67.0762H118.882C119.685 67.0762 120.364 66.8918 120.982 66.5844C121.599 66.277 122.093 65.7851 122.464 65.1703C122.834 64.5555 123.02 63.8177 123.02 63.0184C123.02 62.2807 122.896 61.6044 122.587 61.051C122.279 60.4977 121.846 60.0058 121.229 59.6984C120.611 59.391 119.87 59.2066 118.944 59.2066H111.718V67.0762H111.656Z" fill="#CEDE3F"/>
<path d="M139.818 73.2859C137.965 73.2859 136.483 72.9785 135.309 72.3637C134.136 71.7488 133.272 70.9496 132.592 70.0274C131.975 69.1051 131.481 68.06 131.234 67.0763C130.987 66.0311 130.801 65.1088 130.739 64.2481C130.678 63.3874 130.678 62.7726 130.678 62.4037V49.3081H136.668V60.3133C136.668 60.8666 136.668 61.5429 136.73 62.3422C136.792 63.1414 136.977 64.0022 137.286 64.8629C137.594 65.7237 138.089 66.4 138.768 66.9533C139.447 67.5066 140.435 67.814 141.67 67.814C142.164 67.814 142.72 67.7526 143.276 67.5681C143.832 67.3837 144.388 67.0763 144.882 66.6459C145.376 66.2155 145.808 65.5392 146.117 64.617C146.426 63.6948 146.611 62.5881 146.611 61.1126L150.008 62.7111C150.008 64.5555 149.637 66.277 148.896 67.8755C148.155 69.474 147.043 70.7651 145.499 71.8103C144.017 72.794 142.103 73.2859 139.818 73.2859ZM147.414 72.6096V64.8629H146.673V49.3081H152.601V72.6096H147.414Z" fill="#CEDE3F"/>
<path d="M156.06 46.0496V40.8851H161.926V46.0496H156.06ZM156.06 72.6096V49.3081H161.926V72.6096H156.06Z" fill="#CEDE3F"/>
<path d="M165.015 72.6096V40.8851H170.882V72.6096H165.015Z" fill="#CEDE3F"/>
<path d="M183.85 73.2858C181.689 73.2858 179.836 72.7325 178.169 71.6873C176.563 70.5807 175.266 69.1666 174.402 67.2607C173.475 65.4162 173.043 63.3258 173.043 60.9895C173.043 58.5918 173.475 56.5014 174.402 54.657C175.328 52.8125 176.625 51.337 178.292 50.2918C179.96 49.2466 181.936 48.6933 184.159 48.6933C186.382 48.6933 188.235 49.2466 189.779 50.2918C191.323 51.3984 192.435 52.8125 193.237 54.7184C194.04 56.5629 194.411 58.6533 194.411 60.9895C194.411 63.3258 194.04 65.4162 193.237 67.2607C192.435 69.1051 191.261 70.5807 189.717 71.6873C188.112 72.7325 186.197 73.2858 183.85 73.2858ZM184.838 68.0599C186.135 68.0599 187.185 67.7525 187.988 67.1992C188.791 66.6458 189.347 65.7851 189.717 64.7399C190.088 63.6947 190.211 62.4651 190.211 61.051C190.211 59.637 190.026 58.4073 189.717 57.3621C189.347 56.317 188.791 55.4562 188.05 54.9029C187.309 54.3496 186.321 54.0421 185.086 54.0421C183.789 54.0421 182.677 54.3496 181.874 55.0258C181.071 55.7021 180.392 56.5014 180.021 57.6081C179.589 58.6533 179.404 59.8829 179.404 61.174C179.404 62.4651 179.589 63.6947 179.96 64.7399C180.33 65.7851 180.948 66.6458 181.751 67.3221C182.492 67.7525 183.542 68.0599 184.838 68.0599ZM190.211 72.6096V56.6244H189.47V41.5614H195.399V72.671H190.211V72.6096Z" fill="#CEDE3F"/>
<path d="M209.294 73.2859C206.886 73.2859 204.786 72.794 202.933 71.7488C201.081 70.7036 199.66 69.2896 198.61 67.5066C197.56 65.7236 197.066 63.6333 197.066 61.297C197.066 58.7762 197.56 56.5629 198.61 54.657C199.598 52.7511 201.019 51.337 202.81 50.2918C204.601 49.2466 206.639 48.7548 208.924 48.7548C211.394 48.7548 213.494 49.3081 215.161 50.4762C216.89 51.6444 218.125 53.2429 218.99 55.3333C219.793 57.4236 220.102 59.8829 219.855 62.7111H214.049V60.5592C214.049 58.1614 213.679 56.5014 212.938 55.4562C212.197 54.4111 210.962 53.9192 209.232 53.9192C207.194 53.9192 205.774 54.534 204.786 55.7636C203.86 56.9933 203.366 58.7762 203.366 61.174C203.366 63.3259 203.86 65.0473 204.786 66.2155C205.712 67.3836 207.133 67.9985 208.985 67.9985C210.159 67.9985 211.147 67.7525 211.95 67.2607C212.753 66.7688 213.432 66.0311 213.864 65.1088L219.731 66.7688C218.867 68.9207 217.446 70.5807 215.532 71.7488C213.617 72.917 211.579 73.2859 209.294 73.2859ZM201.575 62.5881V58.2229H217.076V62.5881H201.575Z" fill="#CEDE3F"/>
<path d="M222.633 72.6095V49.308H227.82V55.0258L227.265 54.288C227.573 53.4888 227.944 52.751 228.5 52.0747C228.994 51.3984 229.611 50.8451 230.352 50.4147C230.908 50.0458 231.526 49.7999 232.205 49.6154C232.884 49.431 233.564 49.308 234.243 49.2466C234.922 49.1851 235.663 49.1851 236.343 49.308V54.7799C235.663 54.5955 234.922 54.534 234.058 54.5955C233.193 54.6569 232.39 54.8414 231.711 55.2103C231.032 55.5177 230.414 55.948 229.982 56.5014C229.55 57.0547 229.117 57.6695 228.87 58.3458C228.623 59.0836 228.5 59.8829 228.5 60.7436V72.671H222.633V72.6095Z" fill="#CEDE3F"/>
<path d="M119.808 29.4496H109.679L107.703 37.1963H105.604L113.632 6.94739H115.855L123.884 37.1963H121.784L119.808 29.4496ZM119.313 27.6052L116.164 15.1859C115.67 13.0955 115.114 10.8207 114.805 9.46813H114.744C114.373 10.8207 113.879 13.157 113.385 15.1859L110.235 27.6052H119.313Z" fill="white"/>
<path d="M125.428 5.96375H127.28V37.1963H125.428V5.96375Z" fill="white"/>
<path d="M144.881 14.5712V38.6105C144.881 42.7912 142.225 45.4349 138.087 45.4349C133.888 45.4349 131.232 42.9142 131.047 39.1023H132.838C133.085 41.9919 134.938 43.6519 138.087 43.6519C141.113 43.6519 142.966 41.869 142.966 38.6105V33.9379C141.854 35.5979 139.94 36.643 137.779 36.643C133.641 36.643 130.738 33.7534 130.738 28.9579V22.0719C130.738 16.969 133.641 14.0793 137.717 14.0793C140.002 14.0793 141.916 15.186 143.09 17.1534L143.275 14.5712H144.881ZM142.966 29.1423V21.5801C142.966 17.9527 140.743 15.8623 138.026 15.8623C134.752 15.8623 132.591 17.9527 132.591 22.0719V28.9579C132.591 32.7697 134.814 34.8601 138.026 34.8601C140.99 34.8601 142.966 32.7697 142.966 29.1423Z" fill="white"/>
<path d="M148.154 29.8801V21.826C148.154 16.969 150.933 14.0793 155.38 14.0793C159.765 14.0793 162.605 16.9075 162.605 21.826V29.8801C162.605 34.7371 159.765 37.6268 155.38 37.6268C150.933 37.6268 148.154 34.7986 148.154 29.8801ZM160.691 29.8801V21.826C160.691 18.0142 158.715 15.9238 155.38 15.9238C152.045 15.9238 150.069 18.0142 150.069 21.826V29.8801C150.069 33.6919 152.107 35.7823 155.38 35.7823C158.653 35.7823 160.691 33.7534 160.691 29.8801Z" fill="white"/>
<path d="M165.075 26.3756C165.075 25.146 165.878 24.4082 166.99 24.4082C168.225 24.4082 168.966 25.2075 168.966 26.3756C168.966 27.4823 168.163 28.2815 166.99 28.2815C165.816 28.2815 165.075 27.4823 165.075 26.3756Z" fill="white"/>
<path d="M188.234 28.9578C188.234 34.2452 184.961 37.1348 179.712 37.1348H172.486V6.94739H179.156C184.097 6.94739 186.999 9.77554 186.999 14.6941C186.999 18.26 185.579 20.7192 182.676 21.5185C186.382 22.2563 188.234 25.0844 188.234 28.9578ZM174.401 8.79183V20.6578H179.341C183.17 20.6578 184.961 18.26 184.961 14.6326C184.961 10.6978 182.985 8.73035 179.094 8.73035H174.401V8.79183ZM186.258 28.9578C186.258 25.0844 183.788 22.5022 179.465 22.5022H174.463V35.2904H179.774C183.973 35.2904 186.258 33.2 186.258 28.9578Z" fill="white"/>
<path d="M190.148 29.8801V21.826C190.148 16.969 192.927 14.0793 197.374 14.0793C201.759 14.0793 204.6 16.9075 204.6 21.826V29.8801C204.6 34.7371 201.759 37.6268 197.374 37.6268C192.927 37.6268 190.148 34.7986 190.148 29.8801ZM202.623 29.8801V21.826C202.623 18.0142 200.647 15.9238 197.312 15.9238C193.977 15.9238 192.001 18.0142 192.001 21.826V29.8801C192.001 33.6919 194.039 35.7823 197.312 35.7823C200.585 35.7823 202.623 33.7534 202.623 29.8801Z" fill="white"/>
<path d="M215.777 35.5363V37.3192H214.666C210.651 37.3192 208.552 35.0444 208.552 30.9252V16.2926H205.217V14.5711H208.552V9.28369H210.404V14.5711H215.283V16.2926H210.404V30.9252C210.404 34.0607 211.763 35.5363 214.666 35.5363H215.777Z" fill="white"/>
<path d="M241.901 16.0466C241.901 22.0718 238.813 25.3918 233.378 25.3918H228.5V37.1348H226.523V6.94739H233.378C238.813 6.94739 241.839 10.2674 241.901 16.0466ZM239.863 16.0466C239.925 11.3126 237.64 8.79183 233.317 8.79183H228.438V23.5474H233.317C237.701 23.5474 239.863 21.0266 239.863 16.0466Z" fill="white"/>
<path d="M242.58 29.8801V21.826C242.58 16.969 245.359 14.0793 249.806 14.0793C254.19 14.0793 257.031 16.9075 257.031 21.826V29.8801C257.031 34.7371 254.19 37.6268 249.806 37.6268C245.359 37.6268 242.58 34.7986 242.58 29.8801ZM255.055 29.8801V21.826C255.055 18.0142 253.079 15.9238 249.744 15.9238C246.409 15.9238 244.433 18.0142 244.433 21.826V29.8801C244.433 33.6919 246.471 35.7823 249.744 35.7823C253.017 35.7823 255.055 33.7534 255.055 29.8801Z" fill="white"/>
<path d="M270.618 14.3868V16.3542C269.815 16.1082 268.95 15.9853 267.901 15.9853C264.566 15.9853 262.219 18.8749 262.219 23.4245V37.1349H260.366V14.5712H261.972L262.219 17.3993V17.8912C263.454 15.5549 265.492 14.0793 268.271 14.0793C269.197 14.0793 270 14.2023 270.618 14.3868Z" fill="white"/>
<path d="M280.622 35.5363V37.3192H279.51C275.496 37.3192 273.396 35.0444 273.396 30.9252V16.2926H270.062V14.5711H273.396V9.28369H275.249V14.5711H280.128V16.2926H275.249V30.9252C275.249 34.0607 276.608 35.5363 279.51 35.5363H280.622Z" fill="white"/>
<path d="M285.439 12.2963V14.5711H290.379V16.2926H285.439V37.1348H283.524V16.2926H280.189V14.5711H283.524V12.2963C283.524 7.86966 285.809 5.4104 289.885 5.4104H290.812V7.13188H289.885C287.044 7.13188 285.439 8.7304 285.439 12.2963Z" fill="white"/>
<path d="M291.8 29.8801V21.826C291.8 16.969 294.579 14.0793 299.025 14.0793C303.41 14.0793 306.251 16.9075 306.251 21.826V29.8801C306.251 34.7371 303.41 37.6268 299.025 37.6268C294.579 37.6268 291.8 34.7986 291.8 29.8801ZM304.275 29.8801V21.826C304.275 18.0142 302.298 15.9238 298.964 15.9238C295.629 15.9238 293.653 18.0142 293.653 21.826V29.8801C293.653 33.6919 295.69 35.7823 298.964 35.7823C302.237 35.7823 304.275 33.7534 304.275 29.8801Z" fill="white"/>
<path d="M309.647 5.96375H311.5V37.1963H309.647V5.96375Z" fill="white"/>
<path d="M314.712 8.60739C314.712 7.62368 315.391 6.94739 316.379 6.94739C317.429 6.94739 318.047 7.62368 318.047 8.60739C318.047 9.65257 317.367 10.2674 316.379 10.2674C315.391 10.3289 314.712 9.65257 314.712 8.60739ZM315.453 14.5711H317.306V37.1348H315.453V14.5711Z" fill="white"/>
<path d="M320.641 29.8801V21.826C320.641 16.969 323.42 14.0793 327.866 14.0793C332.251 14.0793 335.092 16.9075 335.092 21.826V29.8801C335.092 34.7371 332.251 37.6268 327.866 37.6268C323.42 37.6268 320.641 34.7986 320.641 29.8801ZM333.115 29.8801V21.826C333.115 18.0142 331.139 15.9238 327.804 15.9238C324.47 15.9238 322.493 18.0142 322.493 21.826V29.8801C322.493 33.6919 324.531 35.7823 327.804 35.7823C331.077 35.7823 333.115 33.7534 333.115 29.8801Z" fill="white"/>
<path d="M248.571 73.2859C246.841 73.2859 245.236 73.0399 243.815 72.5481C242.395 72.0562 241.16 71.3185 240.172 70.2733C239.431 69.474 238.875 68.6133 238.504 67.5681C238.134 66.5844 237.948 65.5392 237.887 64.4325C237.887 63.3874 238.01 62.4036 238.319 61.297C238.628 60.2518 239.122 59.3296 239.801 58.4688C240.295 57.854 240.913 57.3007 241.53 56.9318C242.21 56.5014 242.889 56.194 243.568 55.9481C242.333 54.7185 241.407 53.6118 240.728 52.5666C240.048 51.5829 239.739 50.2918 239.739 48.8162C239.739 47.3407 240.11 45.9881 240.789 44.7585C241.469 43.5288 242.518 42.5451 243.754 41.9303C244.495 41.5614 245.236 41.3155 246.039 41.1311C246.841 40.9466 247.583 40.8851 248.385 40.8851C249.435 40.8851 250.485 41.0081 251.535 41.254C252.585 41.4999 253.449 41.9303 254.252 42.4836C254.746 42.8525 255.24 43.2214 255.673 43.7748C256.105 44.2666 256.414 44.8199 256.661 45.3733L254.993 46.1725C254.623 45.3118 254.005 44.574 253.202 44.0207C252.585 43.5903 251.844 43.2829 251.103 43.0985C250.362 42.914 249.497 42.7911 248.694 42.7911C247.274 42.7911 245.977 43.0985 244.742 43.6518C243.754 44.1437 243.013 44.8199 242.518 45.7422C242.024 46.6644 241.777 47.6481 241.777 48.8162C241.777 49.7999 241.901 50.6607 242.21 51.2755C242.518 51.9518 243.013 52.6896 243.692 53.4888C244.062 53.8577 244.433 54.2266 244.803 54.5955C245.236 54.9644 245.606 55.3333 246.039 55.7022L257.278 66.0925C257.34 65.6007 257.402 65.1703 257.464 64.7399C257.525 64.3096 257.525 63.8792 257.525 63.4488L257.464 58.4074H259.44V62.5881C259.44 63.9407 259.378 65.0474 259.255 65.7237C259.131 66.4614 259.008 67.0148 258.884 67.5066L263.022 71.3185L261.787 72.6711L258.081 69.1666C257.772 69.7199 257.278 70.2733 256.661 70.8266C256.043 71.3799 255.426 71.8103 254.808 72.1177C253.943 72.6096 252.955 72.917 251.905 73.1014C250.732 73.1629 249.62 73.2859 248.571 73.2859ZM248.509 71.4414C249.559 71.4414 250.547 71.3799 251.411 71.257C252.276 71.134 253.079 70.8266 253.82 70.3962C254.746 69.8429 255.364 69.3511 255.734 68.8592C256.105 68.4288 256.414 68.0599 256.599 67.7525L245.174 57.3622C244.433 57.6081 243.692 57.854 243.013 58.2844C242.333 58.6533 241.777 59.1451 241.283 59.6985C240.789 60.3133 240.357 61.0511 240.172 61.8503C239.925 62.6496 239.801 63.5103 239.863 64.3711C239.863 65.2318 240.048 66.0311 240.295 66.8303C240.542 67.6296 240.975 68.3059 241.53 68.9207C242.333 69.7814 243.321 70.4577 244.618 70.8266C245.853 71.257 247.15 71.4414 248.509 71.4414Z" fill="#CEDE3F"/>
<path d="M265.925 72.6096L275.435 41.5614H284.267L293.777 72.671H287.725L279.202 45.2503H280.314L271.915 72.671H265.925V72.6096ZM271.606 66.154V60.6821H288.095V66.154H271.606Z" fill="#CEDE3F"/>
<path d="M294.58 72.6096V49.3081H299.829V57.0548H300.57V72.6096H294.58ZM310.575 72.6096V61.6044C310.575 61.0511 310.575 60.3748 310.513 59.5755C310.452 58.7762 310.266 57.9155 309.957 57.0548C309.649 56.194 309.155 55.5177 308.475 54.9644C307.796 54.4111 306.808 54.1036 305.573 54.1036C305.079 54.1036 304.523 54.1651 303.967 54.3496C303.411 54.534 302.855 54.8414 302.361 55.2718C301.867 55.7022 301.435 56.3785 301.126 57.2392C300.818 58.0999 300.632 59.2681 300.632 60.7436L297.236 59.1451C297.236 57.3007 297.606 55.5792 298.347 53.9807C299.088 52.3822 300.2 51.0911 301.744 50.0459C303.226 49.0622 305.14 48.5703 307.487 48.5703C309.34 48.5703 310.822 48.8777 311.995 49.4925C313.169 50.1073 314.033 50.9066 314.713 51.8288C315.33 52.7511 315.824 53.7962 316.071 54.7799C316.318 55.8251 316.504 56.7473 316.565 57.6081C316.627 58.4688 316.627 59.0836 316.627 59.4525V72.5481H310.575V72.6096Z" fill="#CEDE3F"/>
<path d="M325.705 73.2859C324.038 73.2859 322.618 72.9785 321.444 72.3022C320.271 71.6874 319.406 70.8267 318.789 69.72C318.171 68.6748 317.862 67.4452 317.862 66.1541C317.862 65.0474 318.048 64.0637 318.356 63.2029C318.665 62.2807 319.221 61.5429 319.962 60.8667C320.703 60.1904 321.691 59.637 322.988 59.1452C323.853 58.8378 324.903 58.5304 326.076 58.2844C327.249 58.0385 328.608 57.7926 330.152 57.6081C331.696 57.3622 333.363 57.1163 335.154 56.8704L333.054 58.0385C333.054 56.6859 332.746 55.6407 332.066 54.9644C331.387 54.2881 330.275 53.9807 328.731 53.9807C327.867 53.9807 326.941 54.1652 326.014 54.5955C325.088 55.0259 324.409 55.7637 324.038 56.8089L318.727 55.1489C319.344 53.2429 320.456 51.6444 322.062 50.4148C323.667 49.1852 325.891 48.6318 328.731 48.6318C330.769 48.6318 332.622 48.9392 334.228 49.5541C335.834 50.1689 337.069 51.2755 337.871 52.8126C338.304 53.6733 338.613 54.5341 338.674 55.3948C338.736 56.2555 338.798 57.2392 338.798 58.2844V72.5481H333.61V67.7526L334.351 68.7363C333.24 70.3348 332.005 71.4415 330.646 72.1178C329.287 72.7941 327.743 73.2859 325.705 73.2859ZM326.941 68.6748C328.052 68.6748 328.917 68.4904 329.658 68.1215C330.399 67.7526 331.016 67.3222 331.449 66.8304C331.881 66.3385 332.19 65.9081 332.375 65.6007C332.684 64.9859 332.869 64.2481 332.931 63.3874C332.993 62.5267 332.993 61.8504 332.993 61.297L334.722 61.7274C332.993 62.0348 331.572 62.2807 330.461 62.4652C329.349 62.6496 328.484 62.8341 327.867 63.0185C327.188 63.2029 326.632 63.3259 326.138 63.5104C325.582 63.7563 325.088 64.0022 324.717 64.2481C324.347 64.4941 324.1 64.8015 323.914 65.1089C323.729 65.4163 323.667 65.7852 323.667 66.1541C323.667 66.7074 323.791 67.1378 324.038 67.5067C324.285 67.8755 324.656 68.1829 325.15 68.3674C325.705 68.5518 326.261 68.6748 326.941 68.6748Z" fill="#CEDE3F"/>
<path d="M341.021 72.6096V40.8851H346.887V72.6096H341.021Z" fill="#CEDE3F"/>
<path d="M354.237 83L358.745 70.6422L358.807 74.2696L348.617 49.3081H354.731L361.586 66.9533H360.227L367.021 49.3081H372.888L359.672 83H354.237Z" fill="#CEDE3F"/>
<path d="M372.455 72.6096V71.8718L383.942 54.4111H373.752V49.3081H393.02V50.0459L381.657 67.5066H392.65V72.6096H372.455Z" fill="#CEDE3F"/>
<path d="M404.816 73.2859C402.407 73.2859 400.307 72.794 398.455 71.7488C396.602 70.7036 395.182 69.2896 394.132 67.5066C393.082 65.7236 392.588 63.6333 392.588 61.297C392.588 58.7762 393.082 56.5629 394.132 54.657C395.12 52.7511 396.54 51.337 398.331 50.2918C400.122 49.2466 402.16 48.7548 404.445 48.7548C406.915 48.7548 409.015 49.3081 410.683 50.4762C412.412 51.6444 413.647 53.2429 414.512 55.3333C415.314 57.4236 415.623 59.8829 415.376 62.7111H409.571V60.5592C409.571 58.1614 409.2 56.5014 408.459 55.4562C407.718 54.4111 406.483 53.9192 404.754 53.9192C402.716 53.9192 401.296 54.534 400.307 55.7636C399.381 56.9933 398.887 58.7762 398.887 61.174C398.887 63.3259 399.381 65.0473 400.307 66.2155C401.234 67.3836 402.654 67.9985 404.507 67.9985C405.68 67.9985 406.668 67.7525 407.471 67.2607C408.274 66.7688 408.953 66.0311 409.386 65.1088L415.253 66.7688C414.388 68.9207 412.968 70.5807 411.053 71.7488C409.139 72.917 407.101 73.2859 404.816 73.2859ZM397.096 62.5881V58.2229H412.597V62.5881H397.096Z" fill="#CEDE3F"/>
<path d="M417.29 72.6095V49.308H422.478V55.0258L421.922 54.288C422.231 53.4888 422.601 52.751 423.157 52.0747C423.651 51.3984 424.269 50.8451 425.01 50.4147C425.565 50.0458 426.183 49.7999 426.862 49.6154C427.542 49.431 428.221 49.308 428.9 49.2466C429.58 49.1851 430.321 49.1851 431 49.308V54.7799C430.321 54.5955 429.58 54.534 428.715 54.5955C427.85 54.6569 427.048 54.8414 426.368 55.2103C425.689 55.5177 425.071 55.948 424.639 56.5014C424.207 57.0547 423.774 57.6695 423.527 58.3458C423.28 59.0836 423.157 59.8829 423.157 60.7436V72.671H417.29V72.6095Z" fill="#CEDE3F"/>
</g>
<defs>
<clipPath id="clip0_4274_7848">
<rect width="431" height="83" fill="white"/>
</clipPath>
</defs>
</svg>
