<svg xmlns="http://www.w3.org/2000/svg" width="274.986" height="41.035" viewBox="0 0 274.986 41.035">
  <g id="Group_184" data-name="Group 184" transform="translate(-169.212 -644.48)">
    <path id="Path_181" data-name="Path 181" d="M536.083,684.974a15.7,15.7,0,0,0,1.235-20.71l3.729-3.73a3.513,3.513,0,0,0,.778.088,3.493,3.493,0,1,0-2.474-5.962,3.5,3.5,0,0,0-.934,3.244l-3.72,3.72-.535.421-2.175,2.174.612.506c.3.251.591.511.854.774a11.926,11.926,0,0,1,0,16.845,11.8,11.8,0,0,1-3.76,2.538,19.307,19.307,0,0,1-15.264-16.388,11.875,11.875,0,0,1,10.6-6.477,12,12,0,0,1,5.4,1.288l.466.236,2.717-2.716-.818-.469a15.638,15.638,0,0,0-18.168,1.9,19.3,19.3,0,1,1,21.3,22.874Q536.007,685.052,536.083,684.974Zm-5.716-12.041a3.493,3.493,0,1,0,2.47,1.023A3.47,3.47,0,0,0,530.367,672.934Zm-7.7-7.7a3.494,3.494,0,1,0,2.47,1.023A3.472,3.472,0,0,0,522.671,665.238Z" transform="translate(-170.404 -1.084)" fill="#f5a623"/>
    <path id="Path_182" data-name="Path 182" d="M292.114,647.465a3.238,3.238,0,0,1,1.041,2.448v32.592a3.325,3.325,0,0,1-3.49,3.434,3.517,3.517,0,0,1-2.561-.957,3.3,3.3,0,0,1-.985-2.477V659.821l-9.288,14.185a4.817,4.817,0,0,1-1.295,1.1,2.613,2.613,0,0,1-1.52.366,2.5,2.5,0,0,1-1.463-.366,4.794,4.794,0,0,1-1.295-1.1l-9.288-14.691v23.191a3.47,3.47,0,0,1-.9,2.477,3.094,3.094,0,0,1-2.364.957,2.986,2.986,0,0,1-2.308-.985,3.49,3.49,0,0,1-.9-2.449V649.914a3.259,3.259,0,0,1,1.041-2.421,3.464,3.464,0,0,1,2.505-1.013,3.748,3.748,0,0,1,1.689.423,3.262,3.262,0,0,1,1.294,1.1L274.3,666.857,286.907,648a3.425,3.425,0,0,1,1.21-1.1,3.154,3.154,0,0,1,1.549-.423A3.454,3.454,0,0,1,292.114,647.465Z" transform="translate(-42.591 -0.987)" fill="#fff"/>
    <path id="Path_183" data-name="Path 183" d="M340.654,650.56a2.645,2.645,0,0,1-.788-2.2v-1.07a2.553,2.553,0,0,1,.844-2.2,6.328,6.328,0,0,1,5.461,0,2.648,2.648,0,0,1,.788,2.2v1.07a2.586,2.586,0,0,1-.816,2.224,4.924,4.924,0,0,1-2.787.591A4.467,4.467,0,0,1,340.654,650.56Zm5.179,33.408a3.467,3.467,0,0,1-4.842,0,3.372,3.372,0,0,1-.957-2.449V658.271a3.372,3.372,0,0,1,.957-2.448,3.466,3.466,0,0,1,4.842,0,3.377,3.377,0,0,1,.957,2.448v23.248A3.376,3.376,0,0,1,345.833,683.967Z" transform="translate(-84.237)" fill="#fff"/>
    <path id="Path_184" data-name="Path 184" d="M386.8,667.226q2.2,3.407,2.2,9.429v14.41a3.376,3.376,0,0,1-.957,2.449,3.466,3.466,0,0,1-4.841,0,3.373,3.373,0,0,1-.958-2.449v-14.41a8.117,8.117,0,0,0-1.294-4.869q-1.3-1.773-4.448-1.773a6.865,6.865,0,0,0-5.122,1.886,6.5,6.5,0,0,0-1.857,4.757v14.41a3.378,3.378,0,0,1-.957,2.449,3.467,3.467,0,0,1-4.841,0,3.372,3.372,0,0,1-.957-2.449V667.818a3.373,3.373,0,0,1,.957-2.448,3.466,3.466,0,0,1,4.841,0,3.379,3.379,0,0,1,.957,2.448v.957a13.6,13.6,0,0,1,3.968-3.49,10.287,10.287,0,0,1,5.375-1.464Q384.6,663.821,386.8,667.226Z" transform="translate(-95.54 -9.547)" fill="#fff"/>
    <path id="Path_185" data-name="Path 185" d="M424.245,650.56a2.643,2.643,0,0,1-.788-2.2v-1.07a2.553,2.553,0,0,1,.844-2.2,6.328,6.328,0,0,1,5.461,0,2.649,2.649,0,0,1,.787,2.2v1.07a2.587,2.587,0,0,1-.816,2.224,4.924,4.924,0,0,1-2.787.591A4.468,4.468,0,0,1,424.245,650.56Zm5.178,33.408a3.467,3.467,0,0,1-4.841,0,3.372,3.372,0,0,1-.957-2.449V658.271a3.372,3.372,0,0,1,.957-2.448,3.466,3.466,0,0,1,4.841,0,3.375,3.375,0,0,1,.957,2.448v23.248A3.374,3.374,0,0,1,429.424,683.967Z" transform="translate(-125.499)" fill="#fff"/>
    <path id="Path_186" data-name="Path 186" d="M475.977,667.757a9.874,9.874,0,0,1,1.885,6.248q0,6.7-3.827,9.344a15.638,15.638,0,0,1-9.119,2.646H450.9a3.365,3.365,0,0,1-3.434-3.434V650.026a3.365,3.365,0,0,1,3.434-3.434h14.185q10.694,0,10.695,10.019a8.284,8.284,0,0,1-1.21,4.475,8.382,8.382,0,0,1-3.462,3.068A11.346,11.346,0,0,1,475.977,667.757Zm-8.668-13.369a4.382,4.382,0,0,0-3.237-1.154h-9.288v8.781h9.456a4.308,4.308,0,0,0,2.956-1.126,3.861,3.861,0,0,0,1.266-3.039A4.708,4.708,0,0,0,467.309,654.388Zm1.744,23.726a5.382,5.382,0,0,0,1.492-4.109q0-3.322-1.745-4.334a8.387,8.387,0,0,0-4.277-1.014h-9.738v10.865h10.132A5.788,5.788,0,0,0,469.053,678.114Z" transform="translate(-137.35 -1.043)" fill="#fff"/>
    <path id="Path_187" data-name="Path 187" d="M619.431,647.492a3.1,3.1,0,0,1,.957,2.364,3.005,3.005,0,0,1-.957,2.336,3.532,3.532,0,0,1-2.477.872h-8.837v29.5a3.194,3.194,0,0,1-1.07,2.449,3.76,3.76,0,0,1-2.646.985,3.56,3.56,0,0,1-2.589-.985,3.275,3.275,0,0,1-1.013-2.449v-29.5h-8.838a3.466,3.466,0,0,1-2.476-.9,3.092,3.092,0,0,1-.958-2.364,2.987,2.987,0,0,1,.986-2.308,3.491,3.491,0,0,1,2.448-.9h24.993A3.471,3.471,0,0,1,619.431,647.492Z" transform="translate(-206.98 -1.043)" fill="#fff"/>
    <path id="Path_188" data-name="Path 188" d="M662.209,685a16.649,16.649,0,0,1-5.91-3.434,3.951,3.951,0,0,1-1.52-2.983,3.173,3.173,0,0,1,.957-2.28,3.1,3.1,0,0,1,2.308-.985,2.985,2.985,0,0,1,1.914.675,16.55,16.55,0,0,0,4.39,2.7,13.769,13.769,0,0,0,5.066.844,10.141,10.141,0,0,0,5.432-1.407,4.077,4.077,0,0,0,2.28-3.49,4.477,4.477,0,0,0-2.251-3.969,19.09,19.09,0,0,0-7.149-2.167Q655.4,666.7,655.4,657.02a10.372,10.372,0,0,1,1.858-6.164,11.736,11.736,0,0,1,5.066-4,17.937,17.937,0,0,1,7.149-1.378,20.469,20.469,0,0,1,6.67,1.07,16.193,16.193,0,0,1,5.207,2.814,3.758,3.758,0,0,1,1.633,2.984,3.173,3.173,0,0,1-.957,2.279,3.039,3.039,0,0,1-2.252.986,2.471,2.471,0,0,1-1.52-.507,14.883,14.883,0,0,0-4.081-2.167,13.544,13.544,0,0,0-4.7-.985,9.689,9.689,0,0,0-5.488,1.323,4.2,4.2,0,0,0,.056,7.12,18.927,18.927,0,0,0,6.276,2.027,32.562,32.562,0,0,1,7.74,2.167,9.878,9.878,0,0,1,4.362,3.6,11.07,11.07,0,0,1,1.463,6.051,10.106,10.106,0,0,1-2,6.22,12.85,12.85,0,0,1-5.319,4.109,17.827,17.827,0,0,1-7.149,1.435A23.516,23.516,0,0,1,662.209,685Z" transform="translate(-239.682 -0.494)" fill="#fff"/>
    <circle id="Ellipse_49" data-name="Ellipse 49" cx="6.097" cy="6.097" r="6.097" transform="translate(196.001 658.59)" fill="#f5a623"/>
    <g id="Group_183" data-name="Group 183" transform="translate(169.212 645.33)">
      <path id="Path_189" data-name="Path 189" d="M193.52,679.48a3.079,3.079,0,0,1,.968,2.24,2.936,2.936,0,0,1-.968,2.268,3.432,3.432,0,0,1-2.406.885H172.586a3.307,3.307,0,0,1-3.374-3.374V649.532a3.306,3.306,0,0,1,3.374-3.374h18.528a3.373,3.373,0,0,1,2.406.912,3.089,3.089,0,0,1,.968,2.351,2.891,2.891,0,0,1-.94,2.24,3.472,3.472,0,0,1-2.434.857H176.125v9.4h12.5a3.371,3.371,0,0,1,2.406.912,3.089,3.089,0,0,1,.968,2.351,2.889,2.889,0,0,1-.94,2.24,3.471,3.471,0,0,1-2.434.858h-12.5v10.232h14.989A3.271,3.271,0,0,1,193.52,679.48Z" transform="translate(-169.212 -646.158)" fill="#fff"/>
    </g>
  </g>
</svg>
