<svg id="Group_5" data-name="Group 5" xmlns="http://www.w3.org/2000/svg" xmlns:xlink="http://www.w3.org/1999/xlink" width="164.894" height="24.606" viewBox="0 0 164.894 24.606">
  <defs>
    <linearGradient id="linear-gradient" y1="0.5" x2="1" y2="0.5" gradientUnits="objectBoundingBox">
      <stop offset="0" stop-color="#ea2f3b"/>
      <stop offset="1" stop-color="#eaa23b"/>
    </linearGradient>
    <linearGradient id="linear-gradient-2" y1="0.5" x2="1" y2="0.5" gradientUnits="objectBoundingBox">
      <stop offset="0" stop-color="#ea2f3b"/>
      <stop offset="1" stop-color="#ea2f3b"/>
    </linearGradient>
  </defs>
  <path id="Path_16" data-name="Path 16" d="M1327.087,780.267a9.412,9.412,0,0,0,.74-12.419l2.236-2.237a2.1,2.1,0,0,0,.467.052,2.094,2.094,0,1,0-1.483-3.575,2.1,2.1,0,0,0-.56,1.945l-2.231,2.231-.321.253-1.3,1.3.367.3c.182.15.355.306.512.464a7.151,7.151,0,0,1,0,10.1,7.072,7.072,0,0,1-2.254,1.522,11.577,11.577,0,0,1-9.153-9.827,7.123,7.123,0,0,1,6.354-3.884,7.189,7.189,0,0,1,3.24.772l.28.142,1.629-1.629-.49-.281a9.378,9.378,0,0,0-10.895,1.137,11.572,11.572,0,1,1,12.773,13.717Zm-3.428-7.22a2.095,2.095,0,1,0,1.481.613A2.08,2.08,0,0,0,1323.659,773.046Zm-4.614-4.615a2.1,2.1,0,1,0,1.481.613A2.083,2.083,0,0,0,1319.045,768.432Z" transform="translate(-1209.276 -756.634)" fill="url(#linear-gradient)"/>
  <path id="Path_17" data-name="Path 17" d="M1077.128,757.7a1.941,1.941,0,0,1,.625,1.468v19.544a1.994,1.994,0,0,1-2.093,2.059,2.109,2.109,0,0,1-1.536-.574,1.979,1.979,0,0,1-.591-1.485V765.1l-5.57,8.506a2.88,2.88,0,0,1-.776.658,1.564,1.564,0,0,1-.911.219,1.5,1.5,0,0,1-.878-.219,2.87,2.87,0,0,1-.776-.658l-5.57-8.81v13.907a2.08,2.08,0,0,1-.54,1.485,1.855,1.855,0,0,1-1.417.574,1.79,1.79,0,0,1-1.384-.591,2.092,2.092,0,0,1-.54-1.469V759.164a1.954,1.954,0,0,1,.625-1.451,2.077,2.077,0,0,1,1.5-.608,2.247,2.247,0,0,1,1.013.253,1.965,1.965,0,0,1,.776.658l7.358,11.307,7.561-11.307a2.053,2.053,0,0,1,.726-.658,1.89,1.89,0,0,1,.928-.253A2.071,2.071,0,0,1,1077.128,757.7Z" transform="translate(-1028.97 -756.498)" fill="#fff"/>
  <path id="Path_18" data-name="Path 18" d="M1140.013,758.75a1.583,1.583,0,0,1-.473-1.316v-.641a1.531,1.531,0,0,1,.506-1.316,3.794,3.794,0,0,1,3.275,0,1.589,1.589,0,0,1,.472,1.316v.641a1.552,1.552,0,0,1-.489,1.333,2.953,2.953,0,0,1-1.671.354A2.676,2.676,0,0,1,1140.013,758.75Zm3.1,20.033a2.079,2.079,0,0,1-2.9,0,2.022,2.022,0,0,1-.574-1.468v-13.94a2.024,2.024,0,0,1,.574-1.468,2.079,2.079,0,0,1,2.9,0,2.024,2.024,0,0,1,.574,1.468v13.94A2.023,2.023,0,0,1,1143.118,778.784Z" transform="translate(-1087.721 -755.105)" fill="#fff"/>
  <path id="Path_19" data-name="Path 19" d="M1176.85,776.488a10.38,10.38,0,0,1,1.317,5.654v8.641a2.024,2.024,0,0,1-.574,1.468,2.078,2.078,0,0,1-2.9,0,2.021,2.021,0,0,1-.574-1.468v-8.641a4.869,4.869,0,0,0-.776-2.92,3.087,3.087,0,0,0-2.667-1.063,4.116,4.116,0,0,0-3.071,1.131,3.9,3.9,0,0,0-1.114,2.852v8.641a2.025,2.025,0,0,1-.574,1.468,2.079,2.079,0,0,1-2.9,0,2.022,2.022,0,0,1-.574-1.468v-13.94a2.023,2.023,0,0,1,.574-1.468,2.079,2.079,0,0,1,2.9,0,2.027,2.027,0,0,1,.574,1.468v.574a8.157,8.157,0,0,1,2.379-2.093,6.17,6.17,0,0,1,3.224-.878Q1175.534,774.446,1176.85,776.488Z" transform="translate(-1103.666 -768.573)" fill="#fff"/>
  <path id="Path_20" data-name="Path 20" d="M1223.6,758.75a1.585,1.585,0,0,1-.473-1.316v-.641a1.532,1.532,0,0,1,.506-1.316,3.794,3.794,0,0,1,3.275,0,1.587,1.587,0,0,1,.473,1.316v.641a1.552,1.552,0,0,1-.489,1.333,2.953,2.953,0,0,1-1.671.354A2.676,2.676,0,0,1,1223.6,758.75Zm3.105,20.033a2.079,2.079,0,0,1-2.9,0,2.022,2.022,0,0,1-.574-1.468v-13.94a2.023,2.023,0,0,1,.574-1.468,2.079,2.079,0,0,1,2.9,0,2.025,2.025,0,0,1,.574,1.468v13.94A2.023,2.023,0,0,1,1226.708,778.784Z" transform="translate(-1145.928 -755.105)" fill="#fff"/>
  <path id="Path_21" data-name="Path 21" d="M1264.236,769.908a5.923,5.923,0,0,1,1.131,3.747q0,4.017-2.295,5.6a9.379,9.379,0,0,1-5.468,1.586H1249.2a2.019,2.019,0,0,1-2.059-2.059v-19.51a2.018,2.018,0,0,1,2.059-2.059h8.506q6.413,0,6.413,6.008a4.967,4.967,0,0,1-.726,2.683,5.026,5.026,0,0,1-2.076,1.839A6.8,6.8,0,0,1,1264.236,769.908Zm-5.2-8.016a2.627,2.627,0,0,0-1.941-.692h-5.569v5.266h5.671a2.584,2.584,0,0,0,1.772-.675,2.315,2.315,0,0,0,.759-1.823A2.823,2.823,0,0,0,1259.038,761.892Zm1.047,14.227a3.228,3.228,0,0,0,.895-2.464q0-1.992-1.047-2.6a5.03,5.03,0,0,0-2.565-.608h-5.839v6.515h6.076A3.472,3.472,0,0,0,1260.084,776.119Z" transform="translate(-1162.647 -756.576)" fill="#fff"/>
  <path id="Path_22" data-name="Path 22" d="M1406.732,757.757a1.859,1.859,0,0,1,.574,1.418,1.8,1.8,0,0,1-.574,1.4,2.118,2.118,0,0,1-1.486.523h-5.3v17.687a1.916,1.916,0,0,1-.641,1.468,2.254,2.254,0,0,1-1.587.591,2.133,2.133,0,0,1-1.552-.591,1.962,1.962,0,0,1-.608-1.468V761.1h-5.3a2.077,2.077,0,0,1-1.485-.54,1.854,1.854,0,0,1-.574-1.418,1.791,1.791,0,0,1,.591-1.384,2.093,2.093,0,0,1,1.468-.54h14.987A2.082,2.082,0,0,1,1406.732,757.757Z" transform="translate(-1260.875 -756.576)" fill="#fff"/>
  <path id="Path_23" data-name="Path 23" d="M1458.907,779.8a9.986,9.986,0,0,1-3.544-2.059,2.369,2.369,0,0,1-.912-1.789,1.9,1.9,0,0,1,.574-1.367,1.86,1.86,0,0,1,1.384-.591,1.79,1.79,0,0,1,1.148.4,9.918,9.918,0,0,0,2.633,1.62,8.246,8.246,0,0,0,3.038.507,6.083,6.083,0,0,0,3.257-.844,2.446,2.446,0,0,0,1.367-2.093,2.684,2.684,0,0,0-1.35-2.38,11.44,11.44,0,0,0-4.287-1.3q-7.391-1.079-7.392-6.886a6.218,6.218,0,0,1,1.114-3.7,7.034,7.034,0,0,1,3.038-2.4,10.758,10.758,0,0,1,4.287-.826,12.275,12.275,0,0,1,4,.641,9.7,9.7,0,0,1,3.122,1.687,2.253,2.253,0,0,1,.979,1.789,1.9,1.9,0,0,1-.574,1.367,1.821,1.821,0,0,1-1.35.591,1.479,1.479,0,0,1-.911-.3,8.938,8.938,0,0,0-2.447-1.3,8.116,8.116,0,0,0-2.818-.591,5.808,5.808,0,0,0-3.291.793,2.52,2.52,0,0,0,.034,4.27,11.358,11.358,0,0,0,3.764,1.215,19.547,19.547,0,0,1,4.641,1.3,5.926,5.926,0,0,1,2.616,2.16,6.638,6.638,0,0,1,.878,3.629,6.059,6.059,0,0,1-1.2,3.729,7.7,7.7,0,0,1-3.19,2.465,10.69,10.69,0,0,1-4.287.86A14.1,14.1,0,0,1,1458.907,779.8Z" transform="translate(-1307.009 -755.802)" fill="#fff"/>
  <circle id="Ellipse_2" data-name="Ellipse 2" cx="3.656" cy="3.656" r="3.656" transform="translate(16.064 8.461)" fill="url(#linear-gradient-2)"/>
  <g id="Group_6" data-name="Group 6" transform="translate(0 0.51)">
    <path id="Path_24" data-name="Path 24" d="M983.462,776.764a1.847,1.847,0,0,1,.58,1.344,1.761,1.761,0,0,1-.58,1.36,2.059,2.059,0,0,1-1.443.531h-11.11a1.983,1.983,0,0,1-2.023-2.023V758.806a1.982,1.982,0,0,1,2.023-2.023h11.11a2.023,2.023,0,0,1,1.443.547,1.852,1.852,0,0,1,.58,1.409,1.733,1.733,0,0,1-.564,1.343,2.082,2.082,0,0,1-1.459.514h-8.987v5.638h7.5a2.022,2.022,0,0,1,1.443.547,1.852,1.852,0,0,1,.58,1.41,1.731,1.731,0,0,1-.564,1.343,2.08,2.08,0,0,1-1.459.514h-7.5v6.135h8.987A1.962,1.962,0,0,1,983.462,776.764Z" transform="translate(-968.886 -756.783)" fill="#fff"/>
  </g>
</svg>
