<svg xmlns="http://www.w3.org/2000/svg" width="110.297" height="46.389" viewBox="0 0 110.297 46.389">
  <g id="Group_173" data-name="Group 173" transform="translate(-148.435 -311.202)">
    <path id="Path_162" data-name="Path 162" d="M174.2,337.3a17.156,17.156,0,0,0,0,34.312H245.71a17.156,17.156,0,0,0,0-34.312Z" transform="translate(-5.595 -16.955)" fill="#fff"/>
    <path id="Path_163" data-name="Path 163" d="M243,370.367H171.495a18.617,18.617,0,0,1,0-37.235H243a18.617,18.617,0,0,1,0,37.235m-71.507-35.774a17.156,17.156,0,0,0,0,34.312H243a17.156,17.156,0,0,0,0-34.312Z" transform="translate(-2.886 -14.246)" fill="#babcbf"/>
    <path id="Path_164" data-name="Path 164" d="M376.283,356.531a5.027,5.027,0,1,0,5.027,5.029,5.028,5.028,0,0,0-5.027-5.029m0,7.607a2.579,2.579,0,1,1,2.58-2.578,2.579,2.579,0,0,1-2.58,2.578" transform="translate(-144.745 -29.446)" fill="#1a1818"/>
    <path id="Path_165" data-name="Path 165" d="M310.482,356.531a5.027,5.027,0,1,0,5.029,5.029,5.028,5.028,0,0,0-5.029-5.029m0,7.607a2.579,2.579,0,1,1,2.58-2.578,2.578,2.578,0,0,1-2.58,2.578" transform="translate(-102.001 -29.446)" fill="#1a1818"/>
    <path id="Path_166" data-name="Path 166" d="M348.107,359.613a5.007,5.007,0,0,1-.989.184c-.859,0-1.046-.3-1.046-1.118v-4.645h2.055v-1.941h-2.055v-2.744h-2.313l-.486,2.744h-1.742a3.317,3.317,0,0,0-2.949,2.069l-.8-2.07H336.12v9.646h2.834v-4.2c0-2.115,1.25-3.467,2.731-3.509h1.551v4.8c0,2.257,1.157,3.1,3.041,3.1a6.791,6.791,0,0,0,2.165-.354Z" transform="translate(-121.921 -24.78)" fill="#1a1818"/>
    <path id="Path_167" data-name="Path 167" d="M404.642,360.23v6.594h-2.756v-9.646h1.672l.56,1.473" transform="translate(-164.642 -29.866)" fill="#1a1818"/>
    <path id="Path_168" data-name="Path 168" d="M408.223,358.243a4.461,4.461,0,0,1,3.327-1.708,3.222,3.222,0,0,1,3.24,3.527v6.345h-2.838v-6.263a1.312,1.312,0,0,0-1.435-1.276,2.342,2.342,0,0,0-1.754.941" transform="translate(-168.759 -29.448)" fill="#1a1818"/>
    <path id="Path_169" data-name="Path 169" d="M273.9,347.213h3.159l4.337,8.261v-8.261h2.616v13.14h-2.862l-4.633-9.083v9.083H273.9Z" transform="translate(-81.504 -23.393)" fill="#1a1818"/>
    <path id="Path_170" data-name="Path 170" d="M447.328,333.133v.471h-.688v2.314H446.1V333.6h-.676v-.471Z" transform="translate(-192.927 -14.247)" fill="#96999c"/>
    <path id="Path_171" data-name="Path 171" d="M451.953,335.918v-2.785h.727l.483,1.824.491-1.824h.734v2.785h-.443V333.74h-.013l-.563,2.179h-.393l-.568-2.179H452.4v2.179Z" transform="translate(-197.166 -14.247)" fill="#96999c"/>
    <path id="Path_172" data-name="Path 172" d="M271.652,403.761l.656-1.02a3.9,3.9,0,0,0,2.307.759c.948,0,1.532-.429,1.532-1.175,0-.857-.739-1.084-1.953-1.507-1.089-.383-2.16-.932-2.16-2.475,0-1.446,1.14-2.233,2.674-2.233a4.536,4.536,0,0,1,2.376.557l-.525,1.085a3.912,3.912,0,0,0-1.827-.443c-.855,0-1.367.322-1.367,1,0,.8.594,1,1.711,1.366,1.165.378,2.447.917,2.447,2.626,0,1.446-1.034,2.4-2.888,2.4a4.84,4.84,0,0,1-2.983-.94" transform="translate(-80.042 -55.157)" fill="#96999c"/>
    <path id="Path_173" data-name="Path 173" d="M295.506,396.486h4.966v1.154h-3.553v2.279h2.806v1.129h-2.806v2.634h3.769v1.152h-5.182Z" transform="translate(-95.538 -55.401)" fill="#96999c"/>
    <path id="Path_174" data-name="Path 174" d="M316.062,400.428c0-2.436,1.166-4.311,3.495-4.311A3.057,3.057,0,0,1,322,397.123l-.824.953a2.081,2.081,0,0,0-1.6-.727c-1.367,0-2,1.118-2,3.185,0,1.939.666,2.922,2.01,2.922a2.333,2.333,0,0,0,1.731-.88l.832.927a3.134,3.134,0,0,1-2.575,1.2c-2.4,0-3.518-1.83-3.518-4.277" transform="translate(-108.891 -55.161)" fill="#96999c"/>
    <path id="Path_175" data-name="Path 175" d="M340.021,401.64v-5.154h1.424v5.384c0,1.148.284,1.9,1.5,1.9s1.5-.751,1.5-1.9v-5.384h1.438v5.154c0,2.069-.8,3.3-2.947,3.3-2.115,0-2.909-1.236-2.909-3.3" transform="translate(-124.455 -55.401)" fill="#96999c"/>
    <path id="Path_176" data-name="Path 176" d="M370.7,404.837h-1.545l-1.6-3.541H366.23v3.541h-1.414v-8.35h2.724c1.686,0,3,.6,3,2.435a2.174,2.174,0,0,1-1.582,2.173Zm-3.208-4.632c1.059,0,1.6-.344,1.6-1.308,0-.927-.555-1.258-1.52-1.258H366.23v2.566Z" transform="translate(-140.562 -55.401)" fill="#96999c"/>
    <path id="Path_177" data-name="Path 177" d="M388.5,396.486h4.965v1.154h-3.554v2.279h2.8v1.129h-2.8v2.634h3.766v1.152H388.5Z" transform="translate(-155.946 -55.401)" fill="#96999c"/>
    <path id="Path_178" data-name="Path 178" d="M410.09,396.486h2.085c2.722,0,4.03,1.473,4.03,4.145,0,2.722-1.331,4.206-3.958,4.206H410.09Zm2,7.2c1.949,0,2.616-.9,2.616-3.052,0-1.889-.523-2.992-2.44-2.992h-.759v6.044Z" transform="translate(-169.972 -55.401)" fill="#96999c"/>
    <path id="Path_179" data-name="Path 179" d="M168.523,369.113a20.087,20.087,0,1,1,20.086-20.088,20.112,20.112,0,0,1-20.086,20.088m0-33.82a13.731,13.731,0,1,0,9.71,4.021,13.655,13.655,0,0,0-9.71-4.021" transform="translate(0 -11.522)" fill="#ffb300"/>
    <rect id="Rectangle_153" data-name="Rectangle 153" width="1.566" height="1.566" transform="translate(190.404 314.323)" fill="#ffb300"/>
    <rect id="Rectangle_154" data-name="Rectangle 154" width="1.566" height="1.569" transform="translate(190.404 311.202)" fill="#ffb300"/>
    <rect id="Rectangle_155" data-name="Rectangle 155" width="1.463" height="1.529" transform="translate(185.997 315.878)" fill="#ffb300"/>
    <rect id="Rectangle_156" data-name="Rectangle 156" width="1.475" height="1.463" transform="translate(183.097 318.881)" fill="#1a1818"/>
    <rect id="Rectangle_157" data-name="Rectangle 157" width="1.64" height="1.473" transform="translate(187.459 317.408)" fill="#1a1818"/>
    <rect id="Rectangle_158" data-name="Rectangle 158" width="1.469" height="1.401" transform="translate(181.629 317.48)" fill="#1a1818"/>
    <rect id="Rectangle_159" data-name="Rectangle 159" width="1.463" height="1.463" transform="translate(185.997 318.881)" fill="#1a1818"/>
    <rect id="Rectangle_160" data-name="Rectangle 160" width="1.549" height="1.552" transform="translate(188.854 312.771)" fill="#1a1818"/>
    <rect id="Rectangle_161" data-name="Rectangle 161" width="2.857" height="1.555" transform="translate(185.997 314.323)" fill="#1a1818"/>
    <rect id="Rectangle_162" data-name="Rectangle 162" width="1.424" height="3.003" transform="translate(184.573 315.879)" fill="#1a1818"/>
    <path id="Path_180" data-name="Path 180" d="M205.569,337.292v1.474h-1.475v-1.474h-2.447v1.062h-1.312v1.31H201.8v1.46h-1.464v-1.46h-1.557v2.29h-1.472v1.461h-.977v1.467h-1.074a82.317,82.317,0,0,0-5.144,9.665c-3.3-4.586-5.854-6.4-7.869-7.061-1.086-.327-2.4.856-.591,2.719a33.632,33.632,0,0,1,6.712,11.346c.667,1.588,3.655,1.835,4.256.218a48.912,48.912,0,0,1,5.317-10.411v-1.634h1.17V348.25h1.23v-1.708H201.8V344.9h-1.486v-1.5H201.8v1.5h1.453l0-1.481h1.165v-1.788h1.312V340.4h1.262v-3.1Z" transform="translate(-20.997 -16.948)" fill="#1a1818"/>
  </g>
</svg>
