<svg width="248" height="22" viewBox="0 0 248 22" fill="none" xmlns="http://www.w3.org/2000/svg">
<g clip-path="url(#clip0_3280_9217)">
<path d="M40.2725 7.0887C38.6277 7.0887 37.0941 7.65705 35.8716 8.58915V0.33667H32.96V21.8204H35.8716V20.5018C37.0941 21.4567 38.6055 22.0023 40.2725 22.0023C44.2955 22.0023 47.5628 18.6604 47.5628 14.5455C47.5628 10.4306 44.2955 7.0887 40.2725 7.0887ZM40.2725 18.9786C37.8943 18.9786 35.9383 17.0008 35.9383 14.5455C35.9383 12.0902 37.872 10.1123 40.2725 10.1123C42.6507 10.1123 44.6067 12.0902 44.6067 14.5455C44.6067 17.0008 42.673 18.9786 40.2725 18.9786Z" fill="#CEDE3F"/>
<path d="M56.387 7.08887C52.364 7.08887 49.0967 10.4308 49.0967 14.5457C49.0967 18.6605 52.364 22.0024 56.387 22.0024C60.41 22.0024 63.6773 18.6605 63.6773 14.5457C63.6773 10.4308 60.41 7.08887 56.387 7.08887ZM53.7643 14.4092C52.9419 14.4092 52.2529 13.7272 52.2529 12.8633C52.2529 12.0222 52.9196 11.3174 53.7643 11.3174C54.5866 11.3174 55.2757 11.9994 55.2757 12.8633C55.2757 13.7272 54.5866 14.4092 53.7643 14.4092ZM59.0097 14.4092C58.1873 14.4092 57.4983 13.7272 57.4983 12.8633C57.4983 12.0222 58.1651 11.3174 59.0097 11.3174C59.8321 11.3174 60.5211 11.9994 60.5211 12.8633C60.5211 13.7272 59.8543 14.4092 59.0097 14.4092Z" fill="#CEDE3F"/>
<path d="M53.4311 5.6339C54.229 5.6339 54.8758 4.9723 54.8758 4.15618C54.8758 3.34006 54.229 2.67847 53.4311 2.67847C52.6332 2.67847 51.9863 3.34006 51.9863 4.15618C51.9863 4.9723 52.6332 5.6339 53.4311 5.6339Z" fill="#CEDE3F"/>
<path d="M24.0696 7.08887C20.0466 7.08887 16.7793 10.4308 16.7793 14.5457C16.7793 18.6605 20.0466 22.0024 24.0696 22.0024C28.0926 22.0024 31.3599 18.6605 31.3599 14.5457C31.3599 10.4308 28.0926 7.08887 24.0696 7.08887ZM24.0696 18.9788C21.6914 18.9788 19.7354 17.0009 19.7354 14.5457C19.7354 12.0904 21.6691 10.1125 24.0696 10.1125C26.4701 10.1125 28.4038 12.0904 28.4038 14.5457C28.4038 17.0009 26.4479 18.9788 24.0696 18.9788Z" fill="#CEDE3F"/>
<path d="M103.307 7.08887C99.2844 7.08887 96.0171 10.4308 96.0171 14.5457C96.0171 18.6605 99.2844 22.0024 103.307 22.0024C107.33 22.0024 110.598 18.6605 110.598 14.5457C110.598 10.4308 107.33 7.08887 103.307 7.08887ZM103.307 18.9788C100.929 18.9788 98.9732 17.0009 98.9732 14.5457C98.9732 12.0904 100.907 10.1125 103.307 10.1125C105.686 10.1125 107.642 12.0904 107.642 14.5457C107.642 17.0009 105.686 18.9788 103.307 18.9788Z" fill="white"/>
<path d="M150.028 7.08887C146.005 7.08887 142.737 10.4308 142.737 14.5457C142.737 18.6605 146.005 22.0024 150.028 22.0024C154.051 22.0024 157.318 18.6605 157.318 14.5457C157.318 10.4308 154.051 7.08887 150.028 7.08887ZM150.028 18.9788C147.649 18.9788 145.693 17.0009 145.693 14.5457C145.693 12.0904 147.627 10.1125 150.028 10.1125C152.428 10.1125 154.362 12.0904 154.362 14.5457C154.362 17.0009 152.428 18.9788 150.028 18.9788Z" fill="white"/>
<path d="M174.743 7.08887C170.72 7.08887 167.453 10.4308 167.453 14.5457C167.453 18.6605 170.72 22.0024 174.743 22.0024C178.766 22.0024 182.034 18.6605 182.034 14.5457C182.034 10.4308 178.766 7.08887 174.743 7.08887ZM174.743 18.9788C172.365 18.9788 170.409 17.0009 170.409 14.5457C170.409 12.0904 172.343 10.1125 174.743 10.1125C177.122 10.1125 179.078 12.0904 179.078 14.5457C179.078 17.0009 177.144 18.9788 174.743 18.9788Z" fill="white"/>
<path d="M13.6454 21.8886L9.08891 15.2502C8.53324 15.2957 8.08871 15.3184 7.75531 15.3184H2.5543V21.8886H-0.446289V0.33667H7.77754C10.5114 0.33667 12.6452 0.995959 14.2232 2.33727C15.7791 3.67858 16.5793 5.52005 16.5793 7.83892C16.5793 9.49851 16.1792 10.908 15.379 12.0902C14.5789 13.2496 13.4231 14.1135 11.9561 14.6364L16.9127 21.8886H13.6454ZM12.045 11.4309C13.0452 10.5898 13.5564 9.38484 13.5564 7.83892C13.5564 6.27027 13.0452 5.0881 12.045 4.24694C11.0448 3.40577 9.57789 2.99656 7.68863 2.99656H2.57652V12.704H7.68863C9.57789 12.704 11.0448 12.2948 12.045 11.4309Z" fill="#CEDE3F"/>
<path d="M74.991 20.9338C74.5687 21.2976 74.0575 21.5931 73.4352 21.775C72.8128 21.9796 72.1683 22.0705 71.5015 22.0705C69.9012 22.0705 68.6565 21.6386 67.7674 20.752C66.8783 19.8653 66.4338 18.615 66.4338 16.9554V9.72592H63.7222V7.29338H66.456V3.72412H69.3455V7.29338H73.9242V9.72592H69.3455V16.819C69.3455 17.7056 69.5678 18.3876 69.9901 18.8423C70.4124 19.3197 71.0347 19.5471 71.8349 19.5471C72.7239 19.5471 73.4796 19.297 74.102 18.7741L74.991 20.9338Z" fill="#CEDE3F"/>
<path d="M54.3981 4.45236L53.7065 5.15967L58.1229 9.67682L58.8144 8.96951L54.3981 4.45236Z" fill="#CEDE3F"/>
<path d="M185.568 0.33667H191.525V17.0462H201.571V21.8886H185.568V0.33667Z" fill="#CEDE3F"/>
<path d="M246.735 12.6586C247.424 13.5679 247.758 14.6819 247.758 15.955C247.758 17.8419 247.024 19.2969 245.535 20.3199C244.046 21.343 241.912 21.8659 239.089 21.8659H227.731V0.33667H238.489C241.179 0.33667 243.223 0.83682 244.624 1.85986C246.024 2.88289 246.735 4.24694 246.735 5.97473C246.735 6.99776 246.491 7.90713 246.002 8.72555C245.513 9.54398 244.824 10.1805 243.912 10.658C245.113 11.0899 246.046 11.7492 246.735 12.6586ZM233.621 4.74709V8.90743H237.711C239.712 8.90743 240.712 8.20267 240.712 6.81589C240.712 5.45184 239.712 4.74709 237.711 4.74709H233.621ZM241.734 15.2957C241.734 13.8407 240.69 13.1132 238.6 13.1132H233.599V17.4782H238.6C240.69 17.4782 241.734 16.7507 241.734 15.2957Z" fill="#CEDE3F"/>
<path d="M211.684 17.0464L209.995 21.3431C209.906 21.5932 210.084 21.866 210.35 21.866H218.93C219.197 21.866 219.374 21.5932 219.286 21.3431L217.596 17.0464H211.684Z" fill="white"/>
<path d="M217.618 0.33667H211.751L202.46 21.8886H208.528L213.351 9.58945V5.81559C213.129 5.81559 212.973 5.63372 212.973 5.42911V5.40638C212.973 5.17903 213.151 5.0199 213.351 5.0199H215.907C216.129 5.0199 216.285 5.20177 216.285 5.40638V5.42911C216.285 5.65645 216.107 5.81559 215.907 5.81559V9.56672L220.73 21.8886H226.931L217.618 0.33667ZM214.685 4.54248C214.329 4.54248 214.062 4.24694 214.062 3.90592C214.062 3.56491 214.351 3.26937 214.685 3.26937C215.018 3.26937 215.307 3.56491 215.307 3.90592C215.307 4.24694 215.04 4.54248 214.685 4.54248ZM215.618 3.04203C215.396 3.04203 215.218 2.86016 215.218 2.63281C215.218 2.40547 215.396 2.2236 215.618 2.2236C215.84 2.2236 216.018 2.40547 216.018 2.63281C216.018 2.86016 215.84 3.04203 215.618 3.04203Z" fill="#CEDE3F"/>
<path d="M59.3432 5.6339C60.1411 5.6339 60.7879 4.9723 60.7879 4.15618C60.7879 3.34006 60.1411 2.67847 59.3432 2.67847C58.5453 2.67847 57.8984 3.34006 57.8984 4.15618C57.8984 4.9723 58.5453 5.6339 59.3432 5.6339Z" fill="#CEDE3F"/>
<path d="M53.9618 8.96017L54.6533 9.66748L59.0696 5.15033L58.3781 4.44301L53.9618 8.96017Z" fill="#CEDE3F"/>
<path d="M93.6608 2.29186C95.2388 3.63317 96.0168 5.47464 96.0168 7.81625C96.0168 10.1579 95.2388 11.9993 93.6608 13.3406C92.0827 14.682 89.9267 15.3412 87.1928 15.3412H81.9696V21.8887H78.9468V0.29126H87.1928C89.9267 0.29126 92.0827 0.950549 93.6608 2.29186ZM91.4826 11.431C92.4828 10.5898 92.994 9.40764 92.994 7.83898C92.994 6.27033 92.4828 5.06542 91.4826 4.24699C90.4824 3.40583 89.0154 2.99662 87.1039 2.99662H81.9696V12.7041H87.1039C89.0154 12.6813 90.4824 12.2721 91.4826 11.431Z" fill="white"/>
<path d="M116.999 7.8845C117.977 7.38435 119.177 7.13428 120.6 7.13428V9.99878C120.444 9.97604 120.222 9.97604 119.933 9.97604C118.355 9.97604 117.132 10.4535 116.221 11.4083C115.332 12.3631 114.865 13.7272 114.865 15.5004V21.8887H111.954V7.31615H114.732V10.067C115.265 9.11214 116.021 8.38465 116.999 7.8845Z" fill="white"/>
<path d="M133.002 20.9566C132.579 21.3203 132.046 21.6159 131.424 21.7977C130.801 22.0023 130.157 22.0933 129.49 22.0933C127.867 22.0933 126.623 21.6613 125.734 20.7747C124.845 19.8881 124.4 18.615 124.4 16.9781V9.74866H121.688V7.31611H124.4V3.72412H127.312V7.31611H131.913V9.74866H127.312V16.8417C127.312 17.7283 127.534 18.4104 127.956 18.8878C128.379 19.3652 129.001 19.5925 129.823 19.5925C130.712 19.5925 131.468 19.3425 132.091 18.8196L133.002 20.9566Z" fill="white"/>
<path d="M138.514 5.88375V7.31599H143.16V9.74854H138.559V21.9113H135.647V9.74854H132.936V7.31599H135.647V5.86101C135.647 4.22416 136.114 2.95105 137.047 1.99621C137.981 1.04138 139.27 0.563965 140.937 0.563965C141.582 0.563965 142.182 0.654901 142.76 0.81404C143.315 0.973179 143.804 1.22325 144.204 1.5188L143.338 3.76947C142.671 3.24659 141.937 2.99651 141.093 2.99651C139.381 3.01925 138.514 3.97408 138.514 5.88375Z" fill="white"/>
<path d="M161.63 0.74585H158.718V21.9113H161.63V0.74585Z" fill="white"/>
<path d="M166.209 7.31592H163.297V21.9112H166.209V7.31592Z" fill="white"/>
<path d="M164.786 6.11132C165.817 6.11132 166.653 5.25634 166.653 4.20166C166.653 3.14698 165.817 2.29199 164.786 2.29199C163.755 2.29199 162.919 3.14698 162.919 4.20166C162.919 5.25634 163.755 6.11132 164.786 6.11132Z" fill="white"/>
</g>
<defs>
<clipPath id="clip0_3280_9217">
<rect width="248" height="22" fill="white"/>
</clipPath>
</defs>
</svg>
