<?xml version="1.0" encoding="utf-8"?>
<!-- Generator: Adobe Illustrator 24.0.1, SVG Export Plug-In . SVG Version: 6.00 Build 0)  -->
<svg version="1.1" id="Layer_1" xmlns="http://www.w3.org/2000/svg" xmlns:xlink="http://www.w3.org/1999/xlink" x="0px" y="0px"
	 width="1000px" height="187.8px" viewBox="0 0 1000 187.8" style="enable-background:new 0 0 1000 187.8;" xml:space="preserve">
<style type="text/css">
	.st0{fill:#FF555B;}
	.st1{fill:#FFFFFF;}
</style>
<g>
	<g>
		<g>
			<polygon class="st0" points="771.8,76.5 751.6,76.5 751.6,158 811,158 811,139.8 771.8,139.8 			"/>
			<path class="st0" d="M955.9,115.2c7.1-3.6,11.3-10.1,11.3-18.1c0-11.9-10.4-20.5-25.5-20.5h-42.6V158h44.1
				c16.1,0,27.6-9,27.6-22.1C970.8,127,965.2,119.3,955.9,115.2z M919.2,93.7h17.4c5.6,0,9.6,3.1,9.6,7.5c0,4.4-4,7.6-9.6,7.6h-17.4
				V93.7z M939.8,140.8h-20.5v-16.4h20.5c5.9,0,10.2,3.4,10.2,8.2C950,137.3,945.7,140.8,939.8,140.8z"/>
			<path class="st0" d="M843.6,76.5L811.4,158h22.8l15.6-39.5v-11.7c-0.8-0.1-1.5-0.8-1.5-1.7c0-0.8,0.6-1.5,1.5-1.7
				c0.1,0,0.2,0,0.2,0H860c0.1,0,0.2,0,0.2,0c0.8,0.1,1.4,0.8,1.4,1.7c0,0.8-0.6,1.6-1.4,1.7v11.7l15.6,39.5h22.8l-32.2-81.5H843.6z
				"/>
		</g>
	</g>
	<path class="st1" d="M849.7,103.4h0.2C849.9,103.4,849.8,103.4,849.7,103.4L849.7,103.4z"/>
	<path class="st1" d="M860.3,103.4L860.3,103.4c-0.1,0-0.2,0-0.2,0H860.3z"/>
	<path class="st1" d="M864.8,140.8h-19.5l-5.6,14.2c-0.6,1.4,0.5,3,2,3h26.7c1.5,0,2.6-1.6,2-3L864.8,140.8z"/>
</g>
<path class="st1" d="M29.9,145.3l13.4-12.7c6.5,6.6,15.6,9.8,23.4,9.8c10.1,0,15.4-5,15.4-9.8c0-3.2-2.8-4.2-12.9-6.6
	c-15.8-3.9-26.8-7.6-26.8-21.6c0-16.6,14.6-29.3,36.4-29.3c11.7,0,23,4,30.8,11.6l-12.4,13.5C90.8,94.4,82.4,92,76.9,92
	C68,92,63,97,63,101.8c0,3.4,3.4,4.5,13.2,6.9c18.5,4.3,26.6,9,26.6,21.3c0,17.7-16.4,29.4-37.6,29.4
	C51.1,159.4,38,153.9,29.9,145.3z"/>
<path class="st1" d="M115.1,96.7h20L122.4,158h-20L115.1,96.7z M118.2,79.5c0-6.4,5.7-11.5,11.6-11.5c5.5,0,9.5,4.4,9.5,9.7
	c0,6-5.5,11.4-11.3,11.4S118.2,84.8,118.2,79.5z"/>
<path class="st1" d="M206.5,96.7l-11.6,55.6c-3.3,16.1-19.1,26.1-37.9,26.1c-11.7,0-21.5-3.9-27-8.7l8.7-13c3.2,3.3,9.8,5,15.9,5
	c10.8,0,19.4-5.3,20.9-12l0.8-4c-5.8,5.2-13,7.8-20,7.8c-13.5,0-22.5-9.6-22.5-23.6c0-17.5,14-34.6,31.8-34.6
	c9,0,16.4,4.5,19.2,10.1l1.8-8.7H206.5z M180.7,124.2l0.4-1.9c0.1-0.6,0.1-1.1,0.1-1.7c0-5.5-3.6-8.7-9.5-8.7
	c-9.1,0-17.4,7.6-17.4,16c0,5.8,3.8,8.8,9.5,8.8C171.5,136.7,178.7,131,180.7,124.2z"/>
<path class="st1" d="M270.3,114.1c0,4.5-0.9,7.6-8.7,43.9h-19.2c7.4-34.7,7.8-36.5,7.8-38.6c0-4.6-2.8-7.4-7.4-7.4
	c-6.9,0-13.2,5.5-14.3,11.5v-0.1l-7.2,34.6h-20l12.8-61.3h20l-1.2,5.8c4.5-4.6,10.9-7.2,17.9-7.2
	C262.9,95.2,270.3,103.1,270.3,114.1z"/>
<path class="st1" d="M347.5,96.7L334.7,158h-20l1.4-7.1c-5.6,5.3-12.7,8.5-20.6,8.5c-14,0-23.4-10.4-23.4-25
	c0-20.3,14.7-39.1,34.4-39.1c8.5,0,15.3,4,19.1,10.7l1.9-9.2H347.5z M321.7,122.2c0-6-4.3-10.2-10.4-10.2
	c-10.8,0-19.8,9.6-19.8,20.3c0,6.2,4.3,10.4,11,10.4C313,142.7,321.7,132.4,321.7,122.2z"/>
<path class="st1" d="M360.3,75.1l21.3-5.3L362.9,158h-20.2L360.3,75.1z"/>
<path class="st1" d="M408.7,88H384l3.7-18.1l126.7,1L499.8,89l-70.9-1l-14.6,70H394L408.7,88z"/>
<path class="st1" d="M490.9,95.2l-2.1,16.7c-12.4,0-22.4,7.8-24.8,19.2v-0.2l-5.7,27h-20L451,96.7h20l-2.1,10.4
	C474.3,99.6,482.1,95.2,490.9,95.2z"/>
<path class="st1" d="M563.9,96.7L551.1,158h-20l1.4-7.1c-5.6,5.3-12.7,8.5-20.6,8.5c-14,0-23.4-10.4-23.4-25
	c0-20.3,14.7-39.1,34.4-39.1c8.5,0,15.3,4,19.1,10.7l1.9-9.2H563.9z M538,122.2c0-6-4.3-10.2-10.4-10.2c-10.8,0-19.8,9.6-19.8,20.3
	c0,6.2,4.3,10.4,11,10.4C529.4,142.7,538,132.4,538,122.2z"/>
<path class="st1" d="M639.4,75.1L622.2,158h-20.2l1.4-7c-5.6,5.2-12.7,8.4-20.6,8.4c-14,0-23.4-10.4-23.4-25
	c0-20.3,14.7-39.1,34.4-39.1c8.4,0,15.2,4,19,10.6l6.4-30.7H639.4z M609.1,122.2c0-6-4.3-10.2-10.4-10.2c-10.8,0-19.8,9.6-19.8,20.3
	c0,6.2,4.3,10.4,11,10.4C600.4,142.7,609.1,132.4,609.1,122.2z"/>
<path class="st1" d="M650.4,132.8v0.2c0,6.6,3.6,10.1,10,10.1c5.7,0,11.5-2.4,16.1-5.8l10.2,13c-6.5,5.7-17,9-26.3,9
	c-17,0-27.6-10.6-27.6-26.1c0-21.1,17-38.1,37.8-38.1c13.8,0,23.5,6.9,23.5,16.7c0,13.6-11.1,21.5-30.1,20.9H650.4z M654,120.6h12.3
	c6.3,0,10.1-2,10.1-5.3c0-2.3-2.7-3.9-6.5-3.9C663.1,111.4,657.4,115.2,654,120.6z"/>
<path class="st1" d="M743.1,95.2L741,112c-12.4,0-22.4,7.8-24.8,19.2v-0.2l-5.7,27h-20l12.8-61.3h20l-2.1,10.4
	C726.5,99.6,734.4,95.2,743.1,95.2z"/>
<g>
	<g>
		<path class="st0" d="M162.6,51.4l-18.3,13.7c2.9,3.8,4.6,8.6,4.6,13.7h22.9C171.7,68.6,168.3,59.1,162.6,51.4z"/>
		<path class="st0" d="M190,30.9l-18.3,13.7c7.2,9.6,11.4,21.5,11.4,34.3H206C206,60.9,200.1,44.3,190,30.9z"/>
		<path class="st0" d="M217.5,10.3L199.2,24c11.5,15.3,18.3,34.3,18.3,54.9h22.9C240.4,53.2,231.8,29.4,217.5,10.3z"/>
		<path class="st0" d="M162.6,51.4c5.7,7.7,9.2,17.2,9.2,27.5h-22.9c0-5.1-1.7-9.9-4.6-13.7L162.6,51.4z"/>
		<path class="st0" d="M190,30.9c10.1,13.4,16,30,16,48h-22.9c0-12.9-4.3-24.8-11.4-34.3L190,30.9z"/>
		<path class="st0" d="M240.4,78.9h-22.9c0-20.6-6.8-39.6-18.3-54.9l18.3-13.7C231.8,29.4,240.4,53.2,240.4,78.9z"/>
	</g>
</g>
</svg>
