<svg width="73" height="80" viewBox="0 0 73 80" fill="none" xmlns="http://www.w3.org/2000/svg">
<path d="M36.1012 3.81915C26.6412 3.82948 17.5716 7.592 10.8823 14.2812C4.19305 20.9705 0.430588 30.0402 0.420265 39.5002C0.41127 45.6548 2.00963 51.705 5.05723 57.0521C5.54889 57.9431 6.08594 58.8082 6.66624 59.6442C8.39845 62.1584 10.439 64.4456 12.7402 66.4521C17.0924 70.2244 22.2932 72.887 27.8982 74.2121C33.5032 75.5372 39.3457 75.4856 44.9264 74.0616C50.5071 72.6377 55.6601 69.8837 59.9449 66.0351C64.2298 62.1865 67.5192 57.3577 69.532 51.9614C71.5447 46.565 72.221 40.7615 71.503 35.0469C70.7851 29.3324 68.6941 23.8766 65.409 19.1459C62.1239 14.4151 57.7423 10.5501 52.6385 7.88104C47.5348 5.21201 41.8607 3.81834 36.1012 3.81915ZM36.1012 72.5262C31.0354 72.5317 26.0375 71.3609 21.5012 69.1061C19.9416 68.3552 18.4521 67.4667 17.0503 66.4512C13.6048 64.0139 10.6577 60.9396 8.36826 57.3942C7.86716 56.657 7.41324 55.8888 7.00925 55.0942C4.41744 50.3036 3.06469 44.9409 3.0742 39.4941C3.0742 32.9622 5.01117 26.577 8.64011 21.1459C12.2691 15.7148 17.4271 11.4818 23.4618 8.98212C29.4965 6.48246 36.1369 5.82841 42.5433 7.10272C48.9497 8.37704 54.8343 11.5225 59.4531 16.1412C64.0719 20.76 67.2174 26.6447 68.4917 33.0511C69.766 39.4575 69.1119 46.0979 66.6123 52.1326C64.1126 58.1673 59.8796 63.3253 54.4485 66.9543C49.0174 70.5832 42.6321 72.5201 36.1002 72.5201L36.1012 72.5262Z" fill="#C352FF"/>
<path d="M58.8573 45.7142C58.6642 45.5329 58.4219 45.4125 58.1609 45.368C57.8998 45.3236 57.6314 45.357 57.3892 45.4642C53.5382 47.2605 49.2368 47.8603 45.0412 47.1859C40.8456 46.5116 36.9488 44.594 33.8546 41.6814C30.7604 38.7687 28.6111 34.9949 27.6845 30.8477C26.758 26.7005 27.0969 22.3707 28.6573 18.4182C28.7505 18.1705 28.769 17.9011 28.7107 17.6431C28.6524 17.385 28.5199 17.1497 28.3293 16.9662C28.1369 16.7838 27.8946 16.6626 27.6333 16.618C27.3719 16.5735 27.1032 16.6077 26.8613 16.7162C22.7131 18.6397 19.1993 21.7063 16.7324 25.5562C14.2654 29.4061 12.9476 33.8797 12.9333 38.4521C12.9304 40.3042 13.1451 42.1502 13.5732 43.9521C13.7976 44.9101 14.0791 45.8538 14.4162 46.7781C15.0462 46.08 15.8114 45.5171 16.6653 45.1232C16.3797 44.2697 16.1502 43.3985 15.9782 42.5151C15.1743 38.3783 15.6179 34.0959 17.2528 30.2117C18.8876 26.3276 21.64 23.0169 25.1602 20.7001C24.1966 24.7865 24.3257 29.0547 25.5348 33.0753C26.7438 37.096 28.9901 40.7275 32.0477 43.6047C35.1053 46.4819 38.8665 48.5034 42.9532 49.466C47.0399 50.4286 51.3079 50.2982 55.3282 49.0881C53.8187 51.7212 51.7604 53.9988 49.2931 55.7664C46.8257 57.5339 44.0071 58.75 41.0283 59.3322C40.1466 59.5074 39.2549 59.6273 38.3582 59.6912C38.5654 60.2454 38.6714 60.8324 38.6712 61.4241C38.6718 61.7336 38.6403 62.0422 38.5772 62.3452C39.4886 62.2736 40.3956 62.1538 41.2943 61.9861C45.2946 61.2491 49.0397 59.5003 52.1729 56.9063C55.3062 54.3124 57.7234 50.9596 59.1943 47.1672C59.2866 46.9186 59.3038 46.6484 59.2439 46.3901C59.184 46.1318 59.0495 45.8968 58.8573 45.7142Z" fill="#C352FF"/>
<path d="M35.9501 54.1152C35.5982 52.4033 34.6733 50.8625 33.3281 49.7469C31.9828 48.6313 30.2975 48.0074 28.5501 47.9782C27.8629 46.1608 26.6387 44.5956 25.0403 43.491C23.4419 42.3863 21.5451 41.7945 19.6021 41.7942C18.3586 41.7892 17.1268 42.0333 15.9792 42.5122C16.1512 43.3955 16.3807 44.2667 16.6662 45.1202C17.5806 44.6747 18.585 44.4451 19.6021 44.4492C21.1514 44.4473 22.6564 44.9669 23.8745 45.9243C25.0925 46.8818 25.953 48.2213 26.3172 49.7272L26.7542 50.8511L27.9721 50.6792C28.1311 50.6432 28.2932 50.6225 28.4561 50.6172C29.7204 50.6297 30.9339 51.1165 31.8564 51.9812C32.7788 52.8458 33.343 54.0253 33.4372 55.2861L33.5152 56.3172L34.5302 56.4892C35.3903 56.646 36.1949 57.0233 36.8655 57.5842C37.5362 58.1451 38.0497 58.8704 38.3561 59.6892C39.2528 59.6253 40.1445 59.5054 41.0262 59.3302C40.6891 58.1031 40.0467 56.9814 39.1591 56.0695C38.2715 55.1577 37.1676 54.4853 35.9501 54.1152ZM41.0262 59.3302C40.6891 58.1031 40.0467 56.9814 39.1591 56.0695C38.2715 55.1577 37.1676 54.4853 35.9501 54.1152C35.5982 52.4033 34.6733 50.8625 33.3281 49.7469C31.9828 48.6313 30.2975 48.0074 28.5501 47.9782C27.8629 46.1608 26.6387 44.5956 25.0403 43.491C23.4419 42.3863 21.5451 41.7945 19.6021 41.7942C17.4043 41.7955 15.2747 42.5568 13.5742 43.9492C12.4667 44.8383 11.5731 45.9649 10.9595 47.2457C10.3459 48.5266 10.028 49.929 10.0291 51.3492C10.0274 52.1825 10.1378 53.0123 10.3571 53.8162C9.15561 53.9648 8.00856 54.4041 7.0152 55.0961C6.24209 55.6116 5.57864 56.2751 5.06317 57.0482C5.55484 57.9391 6.09189 58.8042 6.67218 59.6402C7.01024 58.7423 7.60055 57.9613 8.37213 57.3912C9.23217 56.7459 10.28 56.4003 11.3552 56.4072C11.5801 56.412 11.8043 56.433 12.0262 56.4702L14.6961 56.8762L13.4782 54.5491C12.9511 53.565 12.6762 52.4656 12.6782 51.3492C12.6712 50.0375 13.0433 48.7517 13.7497 47.6465C14.4561 46.5413 15.4667 45.6636 16.6601 45.1192C17.5745 44.6737 18.579 44.4441 19.5961 44.4482C21.1455 44.4463 22.6504 44.9659 23.8685 45.9234C25.0866 46.8808 25.9469 48.2202 26.3111 49.7261L26.7481 50.8502L27.9661 50.6782C28.1251 50.6422 28.2872 50.6215 28.4501 50.6162C29.7144 50.6287 30.928 51.1155 31.8504 51.9802C32.7729 52.8448 33.337 54.0243 33.4312 55.2852L33.5091 56.3162L34.5241 56.4882C35.3842 56.645 36.1889 57.0223 36.8596 57.5832C37.5302 58.1441 38.0437 58.8694 38.3502 59.6882C38.5573 60.2425 38.6633 60.8294 38.6631 61.4212C38.6637 61.7306 38.6322 62.0392 38.5692 62.3422C38.357 63.4958 37.7471 64.5384 36.8456 65.2888C35.9442 66.0392 34.8081 66.4498 33.6352 66.4492H12.7421C13.8426 67.404 15.0005 68.2907 16.2092 69.1042H33.6362C35.5743 69.1009 37.4395 68.3653 38.8583 67.045C40.2771 65.7247 41.1447 63.917 41.2872 61.9841C41.3131 61.798 41.3234 61.6101 41.3182 61.4222C41.3236 60.7146 41.2249 60.0101 41.0252 59.3312L41.0262 59.3302Z" fill="#C352FF"/>
<path d="M48.5972 35.4161L44.9382 29.0991L38.6232 25.4431L44.9382 21.7861L48.5942 15.4711L52.2491 21.7861L58.5642 25.4431L52.2491 29.0991L48.5972 35.4161ZM43.2972 25.4461L46.6511 27.3892L48.5942 30.7421L50.5361 27.3892L53.8901 25.4461L50.5382 23.4991L48.5962 20.1461L46.6532 23.4991L43.2972 25.4461Z" fill="#C352FF"/>
<path d="M48.5982 35.7281L44.8282 29.2161L38.3151 25.4451L44.8282 21.6741L48.5982 15.1621L52.3692 21.6741L58.8812 25.4451L52.3692 29.2161L48.5982 35.7281ZM38.9401 25.4451L45.0572 28.9871L45.0772 29.0241L48.5982 35.1052L52.1392 28.9871L52.1752 28.9651L58.2571 25.4451L52.1392 21.9022L52.1192 21.8661L48.5982 15.7841L45.0562 21.9022L45.0202 21.9241L38.9401 25.4451ZM48.5982 31.0511L46.5412 27.5021L42.9892 25.4451L46.5412 23.3871L48.5982 19.8381L50.6552 23.3871L54.2072 25.4451L50.6552 27.5021L48.5982 31.0511ZM43.6142 25.4451L46.7712 27.2741L46.7922 27.3101L48.5992 30.4301L50.4262 27.2741L50.4622 27.2521L53.5842 25.4451L50.4262 23.6171L50.4062 23.5801L48.5992 20.4601L46.7722 23.6171L46.7361 23.6371L43.6142 25.4451Z" fill="#C352FF"/>
</svg>
