<svg id="after_party" data-name="after party" xmlns="http://www.w3.org/2000/svg" width="64.716" height="70.376" viewBox="0 0 64.716 70.376">
  <path id="Path_448" data-name="Path 448" d="M1672.3,2598.363h0a15.973,15.973,0,0,0-4.275-10.887,3.48,3.48,0,0,0-2.553-1.118h-18.429a3.481,3.481,0,0,0-2.553,1.118,15.975,15.975,0,0,0-4.275,10.887v.008a.787.787,0,0,0,.787.787h30.5A.794.794,0,0,0,1672.3,2598.363Zm-23.025-3.473a2.327,2.327,0,1,1,2.327-2.327A2.328,2.328,0,0,1,1649.278,2594.89Zm13.964,0a2.327,2.327,0,1,1,2.327-2.327A2.327,2.327,0,0,1,1663.242,2594.89Z" transform="translate(-1628.331 -2562.114)" fill="#fff"/>
  <path id="Path_449" data-name="Path 449" d="M1673.936,2559.458a1.211,1.211,0,0,0-.856-2.067h-10.723a1.211,1.211,0,0,0-.856,2.067l5.422,5.422v5.239h-1.491a4.574,4.574,0,0,0-4.568-4.562h-.273c-.018-.263-.036-.524-.058-.78a1.686,1.686,0,0,0-1.677-1.548h-.755c.065-.987.1-2.025.1-3.123a20.611,20.611,0,0,0-4.719-13.156.882.882,0,0,0,.4-.673l1.709-21.455a.892.892,0,0,0-.894-.965.874.874,0,0,0-.589.23l-16.034,14.358a.887.887,0,0,0-.24.971c-.111,0-.22-.008-.331-.008a20.6,20.6,0,0,0-9.3,2.209l-.7-.726a4.085,4.085,0,0,0-5.769-.112l-.414.4-1.568-1.63a2.327,2.327,0,1,0-1.677,1.614l1.568,1.63-.414.4a4.081,4.081,0,0,0-.112,5.769l.578.6a20.594,20.594,0,0,0-2.89,10.546c0,1.1.035,2.136.1,3.123h-.755a1.686,1.686,0,0,0-1.677,1.548c-.022.255-.04.517-.058.78h-.273a4.574,4.574,0,0,0-4.569,4.569v2.5a4.574,4.574,0,0,0,4.569,4.569h.7c2.336,16.8,12.086,17.042,21.816,17.042h1.689c9.73,0,19.48-.239,21.816-17.042h.7a4.574,4.574,0,0,0,4.569-4.569v-.915h5.468a.8.8,0,0,0,0-1.591h-2.386v-5.239Zm-21.764-21.018-8.523-1.861,3.049-2.73,5.741,1.254Zm.453-5.678-3.789-.828,4.151-3.717Zm-11.114,5.732,10.475,2.288-.255,3.2-10.523-5.213Zm-20.716,8.852a1.755,1.755,0,0,1,.048-2.478l2.505-2.41a1.754,1.754,0,0,1,2.478.048l.3.313a20.79,20.79,0,0,0-5.1,4.768Zm-1.661,12.76a18.37,18.37,0,1,1,36.74,0c0,1.088-.035,2.135-.1,3.123h-36.531C1619.169,2562.242,1619.134,2561.195,1619.134,2560.107Zm-4.99,14.759a2.244,2.244,0,0,1-2.241-2.241v-2.5a2.244,2.244,0,0,1,2.241-2.242h.18c0,.263-.008.526-.008.8,0,2.257.091,4.311.262,6.187Zm38.139,14.215c-3.663,2.826-8.884,2.826-13.934,2.826h-1.689c-5.049,0-10.271,0-13.934-2.827-4.092-3.157-6.082-9.83-6.082-20.4,0-1.087.035-2.135.1-3.123h41.512c.069.988.1,2.035.1,3.123C1658.364,2579.251,1656.375,2585.925,1652.283,2589.081Zm10.822-16.456a2.244,2.244,0,0,1-2.241,2.241h-.434c.171-1.875.262-3.93.262-6.187,0-.27,0-.533-.008-.8h.18a2.244,2.244,0,0,1,2.241,2.242Zm9.057-13.643-1.92,1.92h-5.047l-1.92-1.92Z" transform="translate(-1609.575 -2523.859)" fill="#fff"/>
</svg>
