<svg id="average_joe_cool" data-name="average joe cool" xmlns="http://www.w3.org/2000/svg" width="67.009" height="57.651" viewBox="0 0 67.009 57.651">
  <path id="Path_450" data-name="Path 450" d="M1859.789,2584.167h30.5a.794.794,0,0,0,.794-.794h0a15.974,15.974,0,0,0-4.275-10.887,3.481,3.481,0,0,0-2.553-1.118H1865.83a3.482,3.482,0,0,0-2.553,1.118,15.974,15.974,0,0,0-4.275,10.887v.008A.787.787,0,0,0,1859.789,2584.167Zm5.2-10.1a1.155,1.155,0,0,1,.846-.372h18.429a1.155,1.155,0,0,1,.846.372,13.664,13.664,0,0,1,3.57,7.774h-27.26A13.665,13.665,0,0,1,1864.984,2574.065Z" transform="translate(-1841.484 -2559.848)" fill="#fff"/>
  <circle id="Ellipse_132" data-name="Ellipse 132" cx="2.327" cy="2.327" r="2.327" transform="translate(24.252 15.397)" fill="#fff"/>
  <circle id="Ellipse_133" data-name="Ellipse 133" cx="2.327" cy="2.327" r="2.327" transform="translate(38.216 15.397)" fill="#fff"/>
  <path id="Path_451" data-name="Path 451" d="M1879.512,2567.73l-1.768-1.768a4.578,4.578,0,0,0-6.477.016l-2.275,2.365a1.683,1.683,0,0,0-.24-.023H1868c.066-.987.1-2.025.1-3.123a20.6,20.6,0,0,0-2.89-10.546l.578-.6a4.079,4.079,0,0,0-.112-5.769l-.414-.4,1.569-1.63a2.328,2.328,0,1,0-1.677-1.614l-1.569,1.631-.414-.4a4.082,4.082,0,0,0-5.769.111l-.7.727a20.684,20.684,0,0,0-18.6,0l-.7-.727a4.082,4.082,0,0,0-5.77-.111l-.414.4-1.568-1.631a2.327,2.327,0,1,0-1.677,1.614l1.568,1.63-.414.4a4.08,4.08,0,0,0-.112,5.769l.577.6a20.6,20.6,0,0,0-2.889,10.546c0,1.1.035,2.136.1,3.123h-.755a1.677,1.677,0,0,0-1.574,1.113l0,0-9.3,9.2a4.573,4.573,0,0,0,0,6.46l1.767,1.768a4.568,4.568,0,0,0,6.446.015l1.843-1.777c3,14.018,12.17,14.232,21.325,14.232h1.689c9.472,0,18.961-.227,21.614-15.736l9.654-9.4A4.573,4.573,0,0,0,1879.512,2567.73Zm-57.755,17.479a2.244,2.244,0,0,1-3.17,0l-1.768-1.768a2.243,2.243,0,0,1,0-3.165l7.4-7.323c0,.27-.008.54-.008.817a61.955,61.955,0,0,0,.533,8.558Zm37.319-37.613a1.74,1.74,0,0,1,1.229-.537,1.691,1.691,0,0,1,1.249.489l2.506,2.41a1.752,1.752,0,0,1,.048,2.478l-.23.24a20.8,20.8,0,0,0-5.1-4.768Zm-28.337,2.363,2.506-2.41a1.7,1.7,0,0,1,1.249-.489,1.741,1.741,0,0,1,1.229.537l.3.313a20.816,20.816,0,0,0-5.1,4.768l-.23-.24a1.752,1.752,0,0,1,.047-2.478Zm16.661-3.132a18.391,18.391,0,0,1,18.37,18.37c0,1.087-.036,2.135-.1,3.123h-36.531c-.069-.988-.1-2.036-.1-3.123A18.39,18.39,0,0,1,1847.4,2546.827Zm14.779,47.344c-3.663,2.826-8.885,2.826-13.934,2.826h-1.689c-5.049,0-10.27,0-13.934-2.827-4.092-3.157-6.081-9.831-6.081-20.4,0-1.088.035-2.136.1-3.123h41.512c.069.987.1,2.034.1,3.123C1868.26,2584.341,1866.271,2591.014,1862.179,2594.171Zm15.7-21.638-7.545,7.346c.167-1.855.255-3.884.255-6.11,0-1.273-.047-2.464-.135-3.588l2.476-2.574a2.244,2.244,0,0,1,3.17,0l1.768,1.768A2.241,2.241,0,0,1,1877.877,2572.533Z" transform="translate(-1813.839 -2541.674)" fill="#fff"/>
  <path id="Path_452" data-name="Path 452" d="M1884.263,2623.232l-1.332-.888-1.332.888c-9.6,6.4-9.713,18.762-9.713,19.285l4.8.006a22.151,22.151,0,0,1,.591-4.292,19.958,19.958,0,0,0,11.3,0,22.154,22.154,0,0,1,.591,4.286h4.8C1893.976,2641.994,1893.865,2629.634,1884.263,2623.232Zm-1.332,11.015a15.978,15.978,0,0,1-4.085-.563,16.243,16.243,0,0,1,4.085-5.45,16.24,16.24,0,0,1,4.085,5.45A16,16,0,0,1,1882.931,2634.247Z" transform="translate(-1849.37 -2591.052)" fill="#fff"/>
  <path id="Path_453" data-name="Path 453" d="M1925.223,2630.1l-5.9,2.492a24.936,24.936,0,0,1,3.2,6.517l1.071-.452a2.42,2.42,0,0,0,1.282-3.169l-1.114.471a2.416,2.416,0,0,0,1.287-3.165l-1.114.47A2.415,2.415,0,0,0,1925.223,2630.1Z" transform="translate(-1878.408 -2595.803)" fill="#fff"/>
  <path id="Path_454" data-name="Path 454" d="M1871.785,2632.6l-5.9-2.492a2.415,2.415,0,0,0,1.282,3.165l-1.114-.47a2.416,2.416,0,0,0,1.287,3.165l-1.114-.471a2.42,2.42,0,0,0,1.282,3.169l1.071.452A24.918,24.918,0,0,1,1871.785,2632.6Z" transform="translate(-1845.581 -2595.803)" fill="#fff"/>
</svg>
