<svg id="back_to_the_futures" data-name="back to the futures" xmlns="http://www.w3.org/2000/svg" width="46.375" height="57.651" viewBox="0 0 46.375 57.651">
  <path id="Path_460" data-name="Path 460" d="M2773.044,2566.237a1.686,1.686,0,0,0-1.677-1.548h-.756c.066-.987.1-2.025.1-3.123a20.594,20.594,0,0,0-2.89-10.546l.577-.6a4.08,4.08,0,0,0-.112-5.77l-.414-.4,1.568-1.63a2.327,2.327,0,1,0-1.677-1.614l-1.569,1.63-.414-.4a4.086,4.086,0,0,0-5.769.112l-.7.726a20.686,20.686,0,0,0-18.6,0l-.7-.726a4.087,4.087,0,0,0-5.769-.112l-.414.4-1.568-1.63a2.328,2.328,0,1,0-1.677,1.614l1.568,1.63-.414.4a4.079,4.079,0,0,0-.112,5.769l.577.6a20.592,20.592,0,0,0-2.889,10.546c0,1.1.035,2.136.1,3.123h-.756a1.686,1.686,0,0,0-1.677,1.548q-.157,1.819-.158,3.9c0,25.244,11.186,25.556,22.343,25.556h1.689c11.158,0,22.343-.31,22.343-25.556Q2773.2,2568.053,2773.044,2566.237Zm-2.169,3.9c0,1.136-.024,2.223-.071,3.27l-5.7,5.962a2.245,2.245,0,0,1-3.17,0l-1.767-1.768a2.242,2.242,0,0,1-.006-3.164l7.517-7.422h3.1C2770.84,2568,2770.875,2569.052,2770.875,2570.139Zm-12.356,2.649a4.57,4.57,0,0,0-1.047,4.821h-14.914a4.574,4.574,0,0,0-1.052-4.826l-5.839-5.766h28.7Zm-17.426,7.148h17.844v6.207h-17.844Zm20.6-35.97a1.754,1.754,0,0,1,2.478-.048l2.505,2.41a1.754,1.754,0,0,1,.048,2.479l-.23.239a20.812,20.812,0,0,0-5.1-4.768Zm-28.385,4.84a1.752,1.752,0,0,1,.048-2.479l2.505-2.41a1.755,1.755,0,0,1,2.478.048l.3.313a20.808,20.808,0,0,0-5.1,4.768Zm-1.662,12.76a18.37,18.37,0,1,1,36.74,0c0,1.088-.035,2.135-.1,3.123h-36.531C2731.68,2563.7,2731.645,2562.655,2731.645,2561.567Zm-2.386,5.45h3.095l7.511,7.417a2.244,2.244,0,0,1,0,3.169l-1.768,1.768a2.239,2.239,0,0,1-3.152.018l-5.721-5.98c-.046-1.046-.071-2.134-.071-3.27C2729.155,2569.052,2729.19,2568,2729.259,2567.017Zm35.535,23.524c-3.663,2.826-8.885,2.826-13.934,2.826h-1.689c-5.049,0-10.271,0-13.934-2.826-3.113-2.4-5.008-6.84-5.737-13.478l3.783,3.954a4.564,4.564,0,0,0,5.483.739v4.746a1.968,1.968,0,0,0,1.969,1.968H2759.3a1.968,1.968,0,0,0,1.969-1.968v-4.746a4.572,4.572,0,0,0,5.5-.757l3.765-3.936C2769.8,2583.7,2767.906,2588.14,2764.794,2590.541Z" transform="translate(-2726.827 -2538.043)" fill="#fff"/>
  <path id="Path_461" data-name="Path 461" d="M2762.575,2577.815l3.37,2.722h10.594a.793.793,0,0,0,.793-.794h0a15.976,15.976,0,0,0-4.275-10.888,3.48,3.48,0,0,0-2.553-1.118h-18.429a3.481,3.481,0,0,0-2.553,1.118,15.976,15.976,0,0,0-4.275,10.888v.008a.787.787,0,0,0,.787.787h10.6l3.37-2.722a2.045,2.045,0,0,1,2.57,0Zm-4.033-1.811-2.729,2.205h-8.153a13.658,13.658,0,0,1,3.569-7.774,1.156,1.156,0,0,1,.846-.372H2770.5a1.156,1.156,0,0,1,.846.372,13.666,13.666,0,0,1,3.569,7.774h-8.153l-2.729-2.205a4.372,4.372,0,0,0-5.5,0Z" transform="translate(-2738.102 -2556.219)" fill="#fff"/>
  <path id="Path_462" data-name="Path 462" d="M2782.932,2620.043a2.326,2.326,0,0,0-1.164,4.341v3.417h2.327v-3.417a2.326,2.326,0,0,0-1.164-4.341Z" transform="translate(-2759.745 -2588.235)" fill="#fff"/>
  <circle id="Ellipse_138" data-name="Ellipse 138" cx="1.552" cy="1.552" r="1.552" transform="translate(27.067 43.445)" fill="#fff"/>
  <circle id="Ellipse_139" data-name="Ellipse 139" cx="1.552" cy="1.552" r="1.552" transform="translate(22.8 43.445)" fill="#fff"/>
</svg>
