<svg width="510" height="526" viewBox="0 0 510 526" fill="none" xmlns="http://www.w3.org/2000/svg">
<g clip-path="url(#clip0_4194_146)">
<path d="M255.302 47.4358C347.596 47.4358 422.917 122.403 422.917 215.051C422.917 224.952 422.563 234.5 421.856 243.34H255.302H88.7474C88.0402 234.5 87.6866 224.952 87.6866 215.051C87.6866 122.403 163.007 47.4358 255.302 47.4358ZM255.302 26.2188C150.984 26.2188 66.4695 110.733 66.4695 215.051C66.4695 227.781 66.8231 239.45 67.884 250.766C68.5912 258.899 75.3099 264.911 83.0895 264.911H255.302H427.16C435.293 264.911 441.658 258.899 442.366 250.766C443.426 239.804 443.78 227.781 443.78 215.051C444.134 110.733 359.619 26.2188 255.302 26.2188Z" fill="white"/>
<path d="M444.487 264.553C445.195 273.393 445.548 282.941 445.548 292.842C445.548 389.38 427.514 450.203 390.03 478.846C356.79 504.66 309.052 504.66 263.081 504.66H259.191H255.302H251.412H247.522C201.552 504.66 153.813 504.66 120.573 478.846C83.0897 450.203 65.0551 389.38 65.0551 292.842C65.0551 282.941 65.4087 273.393 66.116 264.553H255.302H444.487ZM449.792 243.336H255.302H60.8117C52.6785 243.336 46.3134 249.347 45.6061 257.481C44.5453 268.443 44.1917 280.466 44.1917 293.196C44.1917 523.401 146.034 526.23 247.876 526.23C250.351 526.23 253.18 526.23 255.655 526.23C258.131 526.23 260.96 526.23 263.435 526.23C365.277 526.23 467.119 523.401 467.119 293.196C467.119 280.466 466.765 268.796 465.704 257.481C464.644 249.347 457.925 243.336 449.792 243.336Z" fill="white"/>
<path d="M339.463 126.643C342.292 126.643 345.121 127.704 347.242 130.179C365.631 149.982 376.946 174.735 379.775 200.903H131.182C134.011 174.381 145.326 149.628 163.715 130.179C165.836 128.057 168.665 126.643 171.494 126.643H339.463ZM339.463 105.426H171.141C162.3 105.426 153.813 108.962 147.802 115.681C123.756 141.848 108.904 176.503 108.904 215.047C108.904 218.937 112.086 222.12 115.976 222.12H393.92C397.81 222.12 400.992 218.937 400.992 215.047C400.992 176.857 386.14 141.848 362.094 115.681C356.436 108.962 348.303 105.426 339.463 105.426Z" fill="white"/>
<path d="M191.65 183.215C203.368 183.215 212.868 173.716 212.868 161.998C212.868 150.28 203.368 140.781 191.65 140.781C179.933 140.781 170.433 150.28 170.433 161.998C170.433 173.716 179.933 183.215 191.65 183.215Z" fill="white"/>
<path d="M318.953 183.215C330.671 183.215 340.17 173.716 340.17 161.998C340.17 150.28 330.671 140.781 318.953 140.781C307.235 140.781 297.736 150.28 297.736 161.998C297.736 173.716 307.235 183.215 318.953 183.215Z" fill="white"/>
<path d="M98.6487 124.521L87.6866 113.205C80.9678 106.133 77.078 96.5854 77.4316 86.684C77.7852 76.7827 81.675 67.5887 88.7474 60.5163L111.733 38.592C126.585 24.4473 149.923 24.8009 164.422 39.6528L175.384 50.9686L159.825 65.8206L148.862 54.5048C142.851 48.1397 132.596 47.7861 126.231 54.1512L103.246 76.0755C100.063 78.9044 98.2951 83.1479 98.2951 87.3913C98.2951 91.6347 99.7096 95.8781 102.892 98.7071L113.854 110.023L98.6487 124.521Z" fill="white"/>
<path d="M85.7013 19.548L70.4102 34.2578L99.8298 64.8401L115.121 50.1303L85.7013 19.548Z" fill="white"/>
<path d="M73.1883 42.8326C84.9062 42.8326 94.4054 33.3334 94.4054 21.6155C94.4054 9.89765 84.9062 0.398438 73.1883 0.398438C61.4704 0.398438 51.9712 9.89765 51.9712 21.6155C51.9712 33.3334 61.4704 42.8326 73.1883 42.8326Z" fill="white"/>
<path d="M468.18 370.64H453.328V349.423H468.18C479.496 349.423 488.69 340.229 488.69 328.913V306.282C488.69 294.966 479.496 285.772 468.18 285.772H449.792V264.555H468.18C491.165 264.555 509.907 283.296 509.907 306.282V328.913C509.907 351.898 491.165 370.64 468.18 370.64Z" fill="white"/>
<path d="M57.2754 370.64H42.4235C19.4383 370.64 0.696533 351.898 0.696533 328.913V306.282C0.696533 283.296 19.4383 264.555 42.4235 264.555H60.8116V285.772H42.4235C31.1077 285.772 21.9136 294.966 21.9136 306.282V328.913C21.9136 340.229 31.1077 349.423 42.4235 349.423H57.2754V370.64Z" fill="white"/>
<path d="M411.954 124.521L396.749 110.023L407.711 98.7071C410.54 95.5245 412.308 91.6347 412.308 87.3913C412.308 83.1479 410.54 79.2581 407.357 76.0755L384.372 54.1512C378.007 48.1397 367.752 48.1397 361.741 54.5048L350.778 65.8206L335.573 50.9686L346.535 39.6528C360.68 24.8009 384.372 24.4473 399.224 38.592L422.209 60.5163C429.282 67.2351 433.525 76.7827 433.525 86.684C433.879 96.5854 429.989 106.133 423.27 113.205L411.954 124.521Z" fill="white"/>
<path d="M425.073 19.3712L395.654 49.9492L410.943 64.659L440.362 34.081L425.073 19.3712Z" fill="white"/>
<path d="M437.415 42.8326C449.133 42.8326 458.632 33.3334 458.632 21.6155C458.632 9.89765 449.133 0.398438 437.415 0.398438C425.697 0.398438 416.198 9.89765 416.198 21.6155C416.198 33.3334 425.697 42.8326 437.415 42.8326Z" fill="white"/>
<path d="M356.083 381.953L301.979 362.504L326.733 310.522L274.751 335.275L255.302 281.172L235.853 335.275L183.871 310.522L208.624 362.504L154.521 381.953L208.624 401.402L183.871 453.384L235.853 428.631L255.302 482.734L274.751 428.631L326.733 453.384L301.979 401.402L356.083 381.953ZM283.945 410.596L263.081 400.695L255.302 422.619L247.522 400.695L226.659 410.596L236.56 389.733L214.636 381.953L236.56 374.173L226.659 353.31L247.522 363.211L255.302 341.287L263.081 363.211L283.945 353.31L274.043 374.173L295.968 381.953L274.043 389.733L283.945 410.596Z" fill="white"/>
<path d="M291.017 473.541C288.542 473.541 286.42 472.127 285.359 469.652L275.458 445.959C274.043 442.777 275.811 439.24 278.64 437.826C281.823 436.411 285.359 438.18 286.774 441.009L296.675 464.701C298.089 467.884 296.321 471.42 293.492 472.834C292.431 473.188 291.724 473.541 291.017 473.541Z" fill="white"/>
<path d="M341.231 423.326C340.524 423.326 339.463 423.326 338.756 422.972L315.063 413.071C311.881 411.657 310.466 408.12 311.881 404.938C313.295 401.755 316.831 400.341 320.014 401.755L343.706 411.657C346.889 413.071 348.303 416.607 346.889 419.79C345.828 421.912 343.706 423.326 341.231 423.326Z" fill="white"/>
<path d="M317.539 361.805C315.063 361.805 312.941 360.39 311.881 357.915C310.466 354.733 312.234 351.196 315.063 349.782L338.756 339.881C341.938 338.466 345.474 340.234 346.889 343.063C348.303 346.246 346.535 349.782 343.706 351.196L320.014 361.098C319.307 361.805 318.246 361.805 317.539 361.805Z" fill="white"/>
<path d="M281.116 325.387C280.408 325.387 279.348 325.387 278.64 325.033C275.458 323.619 274.043 320.082 275.458 316.9L285.359 293.207C286.774 290.025 290.31 288.61 293.492 290.025C296.675 291.439 298.089 294.975 296.675 298.158L286.774 321.85C285.713 323.972 283.591 325.387 281.116 325.387Z" fill="white"/>
<path d="M229.487 325.385C227.012 325.385 224.89 323.971 223.829 321.495L213.928 297.803C212.514 294.62 214.282 291.084 217.111 289.67C220.293 288.255 223.829 290.023 225.244 292.852L235.145 316.545C236.56 319.727 234.792 323.263 231.963 324.678C231.255 325.385 230.195 325.385 229.487 325.385Z" fill="white"/>
<path d="M193.065 361.806C192.358 361.806 191.297 361.806 190.59 361.453L166.897 351.552C163.715 350.137 162.3 346.601 163.715 343.418C165.129 340.236 168.665 338.821 171.848 340.236L195.54 350.137C198.723 351.552 200.137 355.088 198.723 358.27C197.662 360.392 195.54 361.806 193.065 361.806Z" fill="white"/>
<path d="M169.373 423.328C166.897 423.328 164.775 421.914 163.715 419.439C162.3 416.256 164.068 412.72 166.897 411.305L190.59 401.404C193.772 399.99 197.308 401.758 198.723 404.587C200.137 407.769 198.369 411.305 195.54 412.72L171.848 422.621C171.141 422.975 170.433 423.328 169.373 423.328Z" fill="white"/>
<path d="M219.586 473.543C218.879 473.543 217.818 473.543 217.111 473.189C213.928 471.775 212.514 468.239 213.928 465.056L223.829 441.364C225.244 438.181 228.78 436.767 231.963 438.181C235.145 439.596 236.56 443.132 235.145 446.314L225.244 470.007C224.537 472.128 222.061 473.543 219.586 473.543Z" fill="white"/>
</g>
<defs>
<clipPath id="clip0_4194_146">
<rect width="509.21" height="525.477" fill="white" transform="translate(0.696533 0.40625)"/>
</clipPath>
</defs>
</svg>
