<svg xmlns="http://www.w3.org/2000/svg" width="55.857" height="62.624" viewBox="0 0 55.857 62.624">
  <path id="break_dancer" data-name="break dancer" d="M2340.116,2568.083h-.273c-.017-.263-.036-.524-.058-.78a1.685,1.685,0,0,0-1.677-1.547h-.756c.065-.987.1-2.025.1-3.123a20.588,20.588,0,0,0-2.889-10.547l.577-.6a4.081,4.081,0,0,0-.112-5.769l-.414-.4,1.568-1.63a2.327,2.327,0,1,0-1.678-1.614l-1.569,1.63-.414-.4a4.085,4.085,0,0,0-5.769.112l-.7.727c-.039-.02-.078-.042-.118-.061l.041.14h0l-1-3.444a9.217,9.217,0,0,0-11.424-6.274l-9.863,2.87a9.216,9.216,0,0,0-6.274,11.424l.46,1.58-4.1,1.192a1.164,1.164,0,1,0,.65,2.235l4.238-1.233a20.593,20.593,0,0,0-2.609,10.059c0,1.1.035,2.136.1,3.123h-.756a1.685,1.685,0,0,0-1.677,1.547c-.022.256-.041.517-.058.78h-.273a4.574,4.574,0,0,0-4.568,4.569v2.5a4.573,4.573,0,0,0,4.568,4.568h.7c2.336,16.8,12.086,17.042,21.816,17.042h1.689c9.73,0,19.48-.238,21.816-17.042h.7a4.574,4.574,0,0,0,4.569-4.568v-2.5A4.575,4.575,0,0,0,2340.116,2568.083Zm-11.683-23.05a1.753,1.753,0,0,1,2.478-.048l2.506,2.41a1.755,1.755,0,0,1,.048,2.478l-.232.241a20.819,20.819,0,0,0-5.1-4.767Zm-5.229.4a18.451,18.451,0,0,1,7.44,5.194h-25.286Zm7.182,15.667h-27.259a13.645,13.645,0,0,1,.851-3.42l7.18,1.995a2.142,2.142,0,0,0,1.76-.281l2.652-1.769a2.14,2.14,0,0,1,2.374,0l2.653,1.769a2.14,2.14,0,0,0,1.759.281l7.18-1.995A13.608,13.608,0,0,1,2330.386,2561.1Zm-16.5-19.554c3.291-.958,6.477.044,7.115,2.239l-11.918,3.469C2308.448,2545.06,2310.6,2542.5,2313.889,2541.547Zm-15.5,21.087a18.269,18.269,0,0,1,1.083-6.2l2.251.625a15.94,15.94,0,0,0-1.007,5.58v.008a.788.788,0,0,0,.788.787h30.5a.794.794,0,0,0,.794-.794h0a15.94,15.94,0,0,0-1.007-5.58l2.253-.626a18.285,18.285,0,0,1,1.081,6.206c0,1.088-.035,2.135-.1,3.123H2298.49C2298.422,2564.769,2298.386,2563.722,2298.386,2562.634Zm34.921,6.408-1.232,1.921a1.138,1.138,0,0,1-.963.525,1.125,1.125,0,0,1-.428-.087l.51-.426a.57.57,0,1,0-.732-.875l-.473.4a1.133,1.133,0,0,1,.165-.764l1.056-1.647h2.218A1.135,1.135,0,0,1,2333.307,2569.042Zm-6.2,5.809a1.131,1.131,0,0,1-.578.654l-2.051,1a1.136,1.136,0,0,1-1.264-.18l.7-.119a.57.57,0,0,0-.192-1.125l-.85.146a1.133,1.133,0,0,1,.606-.773l2.051-1a1.126,1.126,0,0,1,.5-.116,1.144,1.144,0,0,1,.45.092l-.393.328a.57.57,0,0,0,.366,1.008.564.564,0,0,0,.365-.133l.342-.286A1.127,1.127,0,0,1,2327.11,2574.851Zm.291-2.191a2.289,2.289,0,0,0-1.371-.462,2.265,2.265,0,0,0-1,.232l-2.05,1a2.279,2.279,0,0,0-1.279,2l-1.533.263a2.281,2.281,0,0,0-2.082-1.351H2315.8a2.281,2.281,0,0,0-2.082,1.351l-1.533-.263a2.279,2.279,0,0,0-1.279-2l-2.051-1a2.264,2.264,0,0,0-1-.232,2.29,2.29,0,0,0-1.371.462l-1.638-1.37a2.276,2.276,0,0,0-.155-2.175l-.661-1.032h25.821l-.661,1.032a2.277,2.277,0,0,0-.155,2.175Zm-9.766,4.044a.57.57,0,0,0,.659.466l.856-.147a1.141,1.141,0,0,1-1.064.74H2315.8a1.141,1.141,0,0,1-1.064-.74l.857.147a.57.57,0,1,0,.193-1.124l-.859-.147a1.133,1.133,0,0,1,.874-.417h2.282a1.134,1.134,0,0,1,.875.417l-.859.147A.57.57,0,0,0,2317.635,2576.7Zm-7.469-1.621a.57.57,0,0,0-.192,1.125l.7.119a1.136,1.136,0,0,1-1.264.18l-2.051-1a1.126,1.126,0,0,1-.629-1.157l.343.286a.563.563,0,0,0,.365.133.57.57,0,0,0,.367-1.008l-.393-.328a1.144,1.144,0,0,1,.449-.092,1.126,1.126,0,0,1,.5.116l2.051,1a1.135,1.135,0,0,1,.606.773Zm-6.739-4.983a.57.57,0,1,0-.731.875l.51.426a1.127,1.127,0,0,1-.428.087,1.138,1.138,0,0,1-.963-.525l-1.231-1.921a1.133,1.133,0,0,1-.122-.958h2.218l1.056,1.647a1.133,1.133,0,0,1,.165.764Zm-10.031,7.293a2.243,2.243,0,0,1-2.241-2.241v-2.5a2.244,2.244,0,0,1,2.241-2.242h.18c0,.263-.008.526-.008.8,0,2.257.091,4.311.262,6.187Zm38.139,14.216c-3.663,2.826-8.885,2.826-13.934,2.826h-1.689c-5.049,0-10.27,0-13.934-2.827-4.092-3.157-6.082-9.831-6.082-20.4,0-1.088.035-2.135.1-3.122h3.289a2.274,2.274,0,0,0,.333,1.574l1.231,1.921a2.281,2.281,0,0,0,3.153.689c.044-.028.085-.06.127-.091l1.644,1.375a2.28,2.28,0,0,0,1.081,2.979l2.051,1a2.274,2.274,0,0,0,3.017-.99l1.607.275a2.28,2.28,0,0,0,2.272,2.087h2.282a2.281,2.281,0,0,0,2.272-2.087l1.607-.275a2.274,2.274,0,0,0,3.017.99l2.05-1a2.28,2.28,0,0,0,1.081-2.979l1.644-1.375c.041.031.083.063.126.091a2.281,2.281,0,0,0,3.153-.689l1.232-1.921a2.273,2.273,0,0,0,.333-1.574h2.912c.07.988.1,2.035.1,3.122C2337.617,2581.778,2335.627,2588.451,2331.535,2591.608Zm10.823-16.456a2.243,2.243,0,0,1-2.242,2.241h-.434c.171-1.876.262-3.93.262-6.187,0-.27,0-.532-.008-.8h.18a2.244,2.244,0,0,1,2.242,2.242Z" transform="translate(-2288.828 -2534.138)" fill="#fff"/>
</svg>
