<svg id="brunch_ranger" data-name="brunch ranger" xmlns="http://www.w3.org/2000/svg" width="65.906" height="65.43" viewBox="0 0 65.906 65.43">
  <path id="Path_506" data-name="Path 506" d="M4689.191,2495.225a9.247,9.247,0,0,0-5.383,1.715,4.566,4.566,0,0,0-3.84-2.1h-.273c-.018-.263-.036-.525-.058-.78a1.686,1.686,0,0,0-1.677-1.548h-.755c.065-.986.1-2.025.1-3.122a20.607,20.607,0,0,0-2.432-9.736l4.871-5.142a3.2,3.2,0,0,0,.4-3.874l-4.237-6.884a3.2,3.2,0,0,0-1.947-1.426l-16.58-4.145a3.2,3.2,0,0,0-1.551,0l-16.579,4.145a3.2,3.2,0,0,0-1.948,1.426l-4.236,6.884a3.2,3.2,0,0,0,.4,3.874l4.872,5.141a20.6,20.6,0,0,0-2.432,9.736c0,1.1.035,2.136.1,3.122h-.755a1.686,1.686,0,0,0-1.677,1.548q-.157,1.819-.159,3.9c0,25.244,11.186,25.555,22.343,25.555h1.689c9.731,0,19.48-.238,21.816-17.041h.7c.04,0,.079-.005.12-.006a9.308,9.308,0,1,0,9.1-11.243Zm-37.238-29.868,4.616-1.539v-.013l.019.007.02-.007v.013l4.616,1.539a7.509,7.509,0,0,1-4.616,7.74v.018l-.02-.009-.019.009v-.018A7.511,7.511,0,0,1,4651.953,2465.357Zm-7.012,9.851c1.3,2.363,6.032,4.113,11.667,4.113s10.363-1.75,11.667-4.113a18.494,18.494,0,0,1,4.6,5.665H4640.34A18.493,18.493,0,0,1,4644.94,2475.208Zm-6.7,14.179a18.27,18.27,0,0,1,1.373-6.963h5.374a.9.9,0,0,0-.013.136v1.625a3.224,3.224,0,0,0,1.672,2.863l.224.118a5.865,5.865,0,0,0,5.516,0l.225-.118a3.224,3.224,0,0,0,1.672-2.863v-1.625a.9.9,0,0,0-.013-.136h4.682a.9.9,0,0,0-.014.136v1.625a3.224,3.224,0,0,0,1.672,2.863l.224.118a5.865,5.865,0,0,0,5.516,0l.225-.118a3.225,3.225,0,0,0,1.672-2.863v-1.625a.9.9,0,0,0-.013-.136h5.373a18.26,18.26,0,0,1,1.373,6.963c0,1.087-.035,2.135-.1,3.122h-36.531C4638.272,2491.523,4638.237,2490.475,4638.237,2489.387Zm-2.385,5.45h3.5l-.146.146,6.863,6.863a2.244,2.244,0,0,1,0,3.17l-1.768,1.768a2.244,2.244,0,0,1-3.169,0l-5.3-5.3q-.081-1.683-.082-3.52C4635.747,2496.873,4635.782,2495.825,4635.852,2494.837Zm14.143,12.951h-.237a2.08,2.08,0,0,1-1.915-1.268,4.56,4.56,0,0,0,1.152-3.776,2.073,2.073,0,0,1,.762-.15h.237Zm21.392,10.573c-3.664,2.826-8.885,2.826-13.935,2.826h-1.689c-5.049,0-10.27,0-13.934-2.826-3.086-2.382-4.976-6.764-5.719-13.309l3.377,3.377a4.574,4.574,0,0,0,6.461,0l.194-.194a4.4,4.4,0,0,0,3.615,1.88h.569a4.2,4.2,0,0,0,3.871,2.564h4.008a4.2,4.2,0,0,0,4.2-4.2v-9.762h-12.413v1.552h-.237a4.393,4.393,0,0,0-1.688.334,4.6,4.6,0,0,0-.353-.4l-5.364-5.364h35.011c.07.987.1,2.035.1,3.123C4677.468,2508.531,4675.478,2515.2,4671.386,2518.362Zm-19.065-9.884v-7.435h7.758v7.435a1.877,1.877,0,0,1-1.875,1.875H4654.2A1.878,1.878,0,0,1,4652.321,2508.478Zm27.466-11.314h.181a2.243,2.243,0,0,1,2.241,2.241v2.5a2.243,2.243,0,0,1-2.241,2.241h-.434c.17-1.876.261-3.93.261-6.187C4679.795,2497.69,4679.791,2497.427,4679.787,2497.164Zm9.4,14.353a6.945,6.945,0,0,1-6.864-5.706,4.565,4.565,0,0,0,2.209-3.905v-2.5c0-.021,0-.041,0-.061a6.979,6.979,0,1,1,4.658,12.173Z" transform="translate(-4632.594 -2458.085)" fill="#fff"/>
  <path id="Path_507" data-name="Path 507" d="M4772.378,2567.831a3.879,3.879,0,1,0,3.879,3.879A3.883,3.883,0,0,0,4772.378,2567.831Zm0,5.431a1.552,1.552,0,1,1,1.552-1.552A1.552,1.552,0,0,1,4772.378,2573.262Z" transform="translate(-4715.782 -2525.26)" fill="#fff"/>
</svg>
