<svg id="chaos_theory" data-name="chaos theory" xmlns="http://www.w3.org/2000/svg" width="55.857" height="57.651" viewBox="0 0 55.857 57.651">
  <path id="Path_518" data-name="Path 518" d="M5561.226,2519.838h0a15.975,15.975,0,0,0-4.275-10.888,3.481,3.481,0,0,0-2.553-1.118h-18.429a3.483,3.483,0,0,0-2.554,1.118,15.979,15.979,0,0,0-4.274,10.888v.008a.787.787,0,0,0,.787.787h30.5A.794.794,0,0,0,5561.226,2519.838Zm-29.672-1.533a13.664,13.664,0,0,1,3.569-7.774,1.157,1.157,0,0,1,.846-.372H5554.4a1.161,1.161,0,0,1,.847.372,13.67,13.67,0,0,1,3.568,7.774Z" transform="translate(-5517.255 -2496.314)" fill="#fff"/>
  <circle id="Ellipse_152" data-name="Ellipse 152" cx="2.327" cy="2.327" r="2.327" transform="translate(18.619 15.396)" fill="#fff"/>
  <circle id="Ellipse_153" data-name="Ellipse 153" cx="2.327" cy="2.327" r="2.327" transform="translate(32.584 15.396)" fill="#fff"/>
  <path id="Path_519" data-name="Path 519" d="M5549.788,2507.112h-.272c-.018-.263-.036-.524-.058-.78a1.686,1.686,0,0,0-1.677-1.548h-.755c.065-.986.1-2.025.1-3.123a20.6,20.6,0,0,0-2.889-10.546l.577-.6a4.085,4.085,0,0,0-.111-5.769l-.414-.4,1.567-1.63a2.328,2.328,0,1,0-1.677-1.614l-1.568,1.63-.415-.4a4,4,0,0,0-2.908-1.139,4.057,4.057,0,0,0-2.861,1.251l-.7.726a20.688,20.688,0,0,0-18.6,0l-.7-.726a4.084,4.084,0,0,0-5.769-.112l-.415.4-1.568-1.63a2.327,2.327,0,1,0-1.677,1.614l1.568,1.63-.414.4a4.079,4.079,0,0,0-.111,5.769l.577.6a20.6,20.6,0,0,0-2.889,10.546c0,1.1.035,2.136.1,3.123h-.755a1.686,1.686,0,0,0-1.677,1.548c-.021.255-.041.517-.058.78h-.273a4.573,4.573,0,0,0-4.568,4.568v2.5a4.574,4.574,0,0,0,4.568,4.569h.7c2.336,16.8,12.086,17.041,21.817,17.041h1.688c9.731,0,19.481-.238,21.816-17.041h.7a4.574,4.574,0,0,0,4.568-4.569v-2.5A4.573,4.573,0,0,0,5549.788,2507.112Zm-11.684-23.051a1.754,1.754,0,0,1,2.478-.048l2.506,2.41a1.755,1.755,0,0,1,.048,2.478l-.231.239a20.792,20.792,0,0,0-5.1-4.767Zm-28.386,4.841a1.754,1.754,0,0,1,.048-2.478l2.506-2.41a1.751,1.751,0,0,1,2.478.048l.3.313a20.813,20.813,0,0,0-5.1,4.767Zm-1.661,12.76a18.37,18.37,0,1,1,36.74,0c0,1.088-.035,2.135-.1,3.123h-36.532C5508.092,2503.8,5508.058,2502.75,5508.058,2501.662Zm-4.99,14.76a2.243,2.243,0,0,1-2.241-2.241v-2.5a2.243,2.243,0,0,1,2.241-2.241h.18c0,.262-.007.525-.007.795,0,2.257.091,4.311.262,6.187Zm38.139,14.215c-3.663,2.826-8.885,2.826-13.935,2.826h-1.688c-5.05,0-10.27,0-13.935-2.827-4.092-3.157-6.082-9.831-6.082-20.4,0-1.086.035-2.134.1-3.123h41.512c.069.987.1,2.035.1,3.123C5547.288,2520.806,5545.3,2527.48,5541.207,2530.637Zm10.822-16.456a2.244,2.244,0,0,1-2.241,2.241h-.434c.17-1.876.262-3.93.262-6.187,0-.27,0-.532-.008-.795h.181a2.244,2.244,0,0,1,2.241,2.241Z" transform="translate(-5498.499 -2478.139)" fill="#fff"/>
  <path id="Path_520" data-name="Path 520" d="M5560.7,2568.491c1.734-3.386,4.133-9.116.513-9.116-5.352,0-9.2,6.038-10.915,9.38-1.719-3.342-5.563-9.38-10.915-9.38-3.62,0-1.221,5.73.513,9.116a1.656,1.656,0,0,1,0,3.293c-1.734,3.385-3.312,5.4.309,5.4,5.176,0,8.538-3.827,10.093-6.128,1.555,2.3,4.917,6.128,10.093,6.128,3.62,0,2.042-2.013.309-5.4a1.656,1.656,0,0,1,0-3.293Zm-19.422-.707c-2.3-4.5-2.347-6.439-2.17-6.827a1,1,0,0,1,.276-.03c4.187,0,7.69,4.972,9.491,8.43h-4.9l-.085,0A3.019,3.019,0,0,1,5541.279,2567.783Zm-1.072,7.847c-.21,0-.378-.008-.511-.02.206-.519.623-1.3.951-1.918.2-.379.416-.78.632-1.2a3.018,3.018,0,0,1,2.616-1.576l.085,0h4.5C5546.936,2572.947,5544.146,2575.631,5540.207,2575.631Zm19.114-3.14c.216.422.43.824.632,1.2.328.616.746,1.4.951,1.918-.132.011-.3.02-.51.02-3.94,0-6.73-2.684-8.275-4.713h4.5l.084,0A3.019,3.019,0,0,1,5559.32,2572.491Zm-2.616-3.131-.084,0h-4.9c1.8-3.459,5.3-8.43,9.491-8.43a1,1,0,0,1,.276.03c.177.388.132,2.331-2.17,6.827A3.02,3.02,0,0,1,5556.7,2569.36Z" transform="translate(-5522.371 -2527.864)" fill="#fff"/>
</svg>
