<svg width="510" height="526" viewBox="0 0 510 526" fill="none" xmlns="http://www.w3.org/2000/svg">
<g clip-path="url(#clip0_4194_201)">
<path d="M254.793 47.4358C347.087 47.4358 422.408 122.403 422.408 215.051C422.408 224.952 422.055 234.5 421.347 243.34H254.793H88.239C87.5318 234.5 87.1782 224.952 87.1782 215.051C87.1782 122.403 162.499 47.4358 254.793 47.4358ZM254.793 26.2188C150.476 26.2188 65.9611 110.733 65.9611 215.051C65.9611 227.781 66.3147 239.45 67.3755 250.766C68.0828 258.899 74.8015 264.911 82.5811 264.911H254.793H426.652C434.785 264.911 441.15 258.899 441.857 250.766C442.918 239.804 443.272 227.781 443.272 215.051C443.625 110.733 359.11 26.2188 254.793 26.2188Z" fill="white"/>
<path d="M443.979 264.553C444.686 273.393 445.04 282.941 445.04 292.842C445.04 389.38 427.005 450.203 389.522 478.846C356.282 504.66 308.543 504.66 262.573 504.66H258.683H254.793H250.903H247.014C201.043 504.66 153.305 504.66 120.065 478.846C82.5812 450.203 64.5466 389.38 64.5466 292.842C64.5466 282.941 64.9003 273.393 65.6075 264.553H254.793H443.979ZM449.283 243.336H254.793H60.3032C52.17 243.336 45.8049 249.347 45.0976 257.481C44.0368 268.443 43.6832 280.466 43.6832 293.196C43.6832 523.401 145.525 526.23 247.367 526.23C249.843 526.23 252.671 526.23 255.147 526.23C257.622 526.23 260.451 526.23 262.926 526.23C364.768 526.23 466.61 523.401 466.61 293.196C466.61 280.466 466.257 268.796 465.196 257.481C464.135 249.347 457.416 243.336 449.283 243.336Z" fill="white"/>
<path d="M98.1405 124.521L87.1783 113.205C80.4596 106.133 76.5698 96.5854 76.9234 86.684C77.277 76.7827 81.1668 67.5887 88.2392 60.5163L111.224 38.592C126.076 24.4473 149.415 24.8009 163.913 39.6528L174.876 50.9686L159.316 65.8206L148.354 54.5048C142.343 48.1397 132.088 47.7861 125.723 54.1512L102.738 76.0755C99.555 78.9044 97.7869 83.1479 97.7869 87.3913C97.7869 91.6347 99.2013 95.8781 102.384 98.7071L113.346 110.023L98.1405 124.521Z" fill="white"/>
<path d="M85.1929 19.548L69.9018 34.2578L99.3214 64.8401L114.613 50.1303L85.1929 19.548Z" fill="white"/>
<path d="M72.68 42.8326C84.3978 42.8326 93.897 33.3334 93.897 21.6155C93.897 9.89765 84.3978 0.398438 72.68 0.398438C60.9621 0.398438 51.4629 9.89765 51.4629 21.6155C51.4629 33.3334 60.9621 42.8326 72.68 42.8326Z" fill="white"/>
<path d="M467.671 370.64H452.819V349.423H467.671C478.987 349.423 488.181 340.229 488.181 328.913V306.282C488.181 294.966 478.987 285.772 467.671 285.772H449.283V264.555H467.671C490.656 264.555 509.398 283.296 509.398 306.282V328.913C509.398 351.898 490.656 370.64 467.671 370.64Z" fill="white"/>
<path d="M56.7671 370.64H41.9151C18.9299 370.64 0.188183 351.898 0.188183 328.913V306.282C0.188183 283.296 18.9299 264.555 41.9151 264.555H60.3033V285.772H41.9151C30.5993 285.772 21.4053 294.966 21.4053 306.282V328.913C21.4053 340.229 30.5993 349.423 41.9151 349.423H56.7671V370.64Z" fill="white"/>
<path d="M411.446 124.521L396.241 110.023L407.203 98.7071C410.032 95.5245 411.8 91.6347 411.8 87.3913C411.8 83.1479 410.032 79.2581 406.849 76.0755L383.864 54.1512C377.499 48.1397 367.244 48.1397 361.232 54.5048L350.27 65.8206L335.065 50.9686L346.027 39.6528C360.171 24.8009 383.864 24.4473 398.716 38.592L421.701 60.5163C428.773 67.2351 433.017 76.7827 433.017 86.684C433.37 96.5854 429.481 106.133 422.762 113.205L411.446 124.521Z" fill="white"/>
<path d="M424.565 19.3712L395.146 49.9492L410.435 64.659L439.854 34.081L424.565 19.3712Z" fill="white"/>
<path d="M436.907 42.8326C448.624 42.8326 458.124 33.3334 458.124 21.6155C458.124 9.89765 448.624 0.398438 436.907 0.398438C425.189 0.398438 415.689 9.89765 415.689 21.6155C415.689 33.3334 425.189 42.8326 436.907 42.8326Z" fill="white"/>
<path d="M337.894 125.584C340.723 125.584 343.551 126.645 345.673 129.12C364.061 148.923 375.377 173.676 378.206 199.844H303.946L279.193 179.688C272.121 174.03 263.28 170.847 254.086 170.847C244.892 170.847 236.052 174.03 228.979 179.688L204.226 199.844H129.966C132.795 173.323 144.111 148.569 162.499 129.12C164.621 126.999 167.45 125.584 170.279 125.584H337.894ZM337.894 104.367H169.925C161.085 104.367 152.598 107.903 146.586 114.622C122.54 140.79 107.688 175.444 107.688 213.989C107.688 217.879 110.871 221.061 114.761 221.061H211.298L242.063 196.308C245.599 193.479 249.489 192.064 253.732 192.064C257.976 192.064 261.866 193.479 265.402 196.308L296.167 221.061H392.704C396.594 221.061 399.777 217.879 399.777 213.989C399.777 175.798 384.925 140.79 360.879 114.622C355.221 107.903 346.734 104.367 337.894 104.367Z" fill="white"/>
<path d="M254.793 308.051C287.326 308.051 313.847 334.572 313.847 367.105C313.847 399.638 287.326 426.159 254.793 426.159C222.26 426.159 195.739 399.638 195.739 367.105C195.739 334.926 222.26 308.051 254.793 308.051ZM254.793 293.906C214.127 293.906 181.594 326.793 181.594 367.105C181.594 407.771 214.481 440.304 254.793 440.304C295.106 440.304 327.992 407.418 327.992 367.105C327.992 326.793 295.459 293.906 254.793 293.906Z" fill="white"/>
<path d="M181.594 309.118L220.139 375.951H143.05L181.594 309.118ZM181.594 280.828L118.65 390.096H244.892L181.594 280.828Z" fill="white"/>
<path d="M360.171 372.77V435.714H297.227V372.77H360.171ZM374.316 358.625H283.083V449.858H374.316V358.625Z" fill="white"/>
</g>
<defs>
<clipPath id="clip0_4194_201">
<rect width="509.21" height="525.477" fill="white" transform="translate(0.188232 0.40625)"/>
</clipPath>
</defs>
</svg>
