<svg id="countertrend_majestro" data-name="countertrend majestro" xmlns="http://www.w3.org/2000/svg" width="55.857" height="65.84" viewBox="0 0 55.857 65.84">
  <circle id="Ellipse_124" data-name="Ellipse 124" cx="2.327" cy="2.327" r="2.327" transform="translate(18.619 23.585)" fill="#fff"/>
  <circle id="Ellipse_125" data-name="Ellipse 125" cx="2.327" cy="2.327" r="2.327" transform="translate(32.584 23.585)" fill="#fff"/>
  <path id="Path_434" data-name="Path 434" d="M740.758,2562.607h-.273c-.017-.263-.036-.525-.058-.78a1.686,1.686,0,0,0-1.677-1.548h-.756c.066-.986.1-2.025.1-3.123a20.7,20.7,0,0,0-14.879-19.863v-1.175a4.085,4.085,0,0,0-4.08-4.08h-.575v-2.253a2.327,2.327,0,1,0-2.327,0v2.253h-.574a4.085,4.085,0,0,0-4.08,4.08v1.175a20.7,20.7,0,0,0-14.879,19.863c0,1.1.035,2.136.1,3.123h-.755a1.686,1.686,0,0,0-1.677,1.548c-.022.255-.04.516-.058.78h-.273a4.574,4.574,0,0,0-4.569,4.568v2.5a4.574,4.574,0,0,0,4.569,4.569h.7c2.336,16.8,12.086,17.041,21.816,17.041h1.689c9.73,0,19.48-.238,21.816-17.041h.7a4.574,4.574,0,0,0,4.568-4.569v-2.5A4.573,4.573,0,0,0,740.758,2562.607Zm-26.851-26.488a1.755,1.755,0,0,1,1.753-1.753h3.477a1.755,1.755,0,0,1,1.753,1.753v.639a20.525,20.525,0,0,0-6.982,0Zm-19.869,35.8a2.244,2.244,0,0,1-2.241-2.241v-2.5a2.244,2.244,0,0,1,2.241-2.241h.18c0,.263-.008.526-.008.8,0,2.256.091,4.311.262,6.187Zm38.139,14.216c-3.663,2.826-8.885,2.826-13.934,2.826h-1.689c-5.049,0-10.27,0-13.934-2.826-4.092-3.157-6.082-9.831-6.082-20.4,0-1.088.035-2.136.1-3.123h7.812v-1.031a3.752,3.752,0,0,1,.234-1.3h-5.555c-.069-.987-.1-2.035-.1-3.123a18.37,18.37,0,0,1,36.74,0c0,1.088-.035,2.135-.1,3.123h-5.555a3.744,3.744,0,0,1,.234,1.3v1.031h7.812c.069.988.1,2.035.1,3.123C738.258,2576.3,736.269,2582.975,732.177,2586.132ZM743,2569.675a2.244,2.244,0,0,1-2.241,2.241h-.434c.171-1.875.262-3.93.262-6.187,0-.27,0-.533-.008-.8h.18a2.244,2.244,0,0,1,2.241,2.241Z" transform="translate(-689.469 -2525.445)" fill="#fff"/>
  <path id="Path_435" data-name="Path 435" d="M752.2,2588.255v0a15.975,15.975,0,0,0-4.275-10.887,3.48,3.48,0,0,0-2.553-1.118H726.939a3.481,3.481,0,0,0-2.553,1.118,15.977,15.977,0,0,0-4.275,10.887v.008a.787.787,0,0,0,.787.787h30.5A.794.794,0,0,0,752.2,2588.255Zm-29.672-1.534a13.668,13.668,0,0,1,3.57-7.774,1.159,1.159,0,0,1,.846-.372h18.429a1.16,1.16,0,0,1,.846.372,13.668,13.668,0,0,1,3.569,7.774Z" transform="translate(-708.225 -2556.542)" fill="#fff"/>
  <path id="Path_436" data-name="Path 436" d="M770,2615.015l-8.526,4.263,8.526,4.263a1.445,1.445,0,0,0,2.091-1.292v-5.941A1.445,1.445,0,0,0,770,2615.015Z" transform="translate(-733.54 -2580.177)" fill="#fff"/>
  <path id="Path_437" data-name="Path 437" d="M734.1,2616.307v5.941a1.445,1.445,0,0,0,2.091,1.292l8.526-4.263-8.526-4.263A1.445,1.445,0,0,0,734.1,2616.307Z" transform="translate(-716.787 -2580.177)" fill="#fff"/>
</svg>
