<svg width="63" height="66" viewBox="0 0 63 66" fill="none" xmlns="http://www.w3.org/2000/svg">
<path d="M49.277 27.0024C49.277 22.31 47.4654 18.0086 44.5323 14.7934C43.7991 14.0114 42.7639 13.5334 41.6855 13.5334H21.154C20.0757 13.5334 19.0405 13.9679 18.3072 14.7934C15.3741 18.0086 13.5625 22.2665 13.5625 27.0024C13.5625 27.4803 13.9507 27.8714 14.4252 27.8714H48.3281C48.8457 27.9148 49.277 27.5238 49.277 27.0024ZM16.2799 25.3079C16.625 22.0493 18.0052 19.0079 20.2482 16.6183C20.507 16.3576 20.8521 16.1838 21.1971 16.1838H41.6855C42.0306 16.1838 42.3757 16.3141 42.6345 16.6183C44.8774 19.0514 46.2577 22.0927 46.6027 25.3079H16.2799Z" fill="white"/>
<path d="M23.6557 23.1355C25.085 23.1355 26.2437 21.9684 26.2437 20.5286C26.2437 19.0889 25.085 17.9218 23.6557 17.9218C22.2264 17.9218 21.0677 19.0889 21.0677 20.5286C21.0677 21.9684 22.2264 23.1355 23.6557 23.1355Z" fill="white"/>
<path d="M39.1838 23.1355C40.6131 23.1355 41.7718 21.9684 41.7718 20.5286C41.7718 19.0889 40.6131 17.9218 39.1838 17.9218C37.7545 17.9218 36.5958 19.0889 36.5958 20.5286C36.5958 21.9684 37.7545 23.1355 39.1838 23.1355Z" fill="white"/>
<path d="M57.3861 33.1285H57.0842C57.0842 32.8244 57.041 32.5202 57.041 32.2595C56.9548 31.2602 56.1352 30.5216 55.1863 30.5216H54.3668C54.453 29.4354 54.4962 28.2623 54.4962 27.0458C54.4962 22.7444 53.3316 18.7037 51.3043 15.2279L51.9513 14.5761C53.6766 12.7513 53.6335 9.84028 51.8219 8.10235L51.3474 7.66787L53.0728 5.84305C53.9354 6.06029 54.8844 5.84305 55.5314 5.14787C56.5234 4.10512 56.4803 2.45409 55.4451 1.45478C54.4099 0.455469 52.7708 0.498918 51.7788 1.54167C51.1318 2.23685 50.9161 3.19271 51.1749 4.06167L49.4496 5.88649L48.9751 5.45201C47.1635 3.71408 44.2735 3.75753 42.5482 5.58236L41.7718 6.32098C38.6662 4.75684 35.1292 3.84443 31.4198 3.84443C27.7103 3.84443 24.1733 4.75684 21.0677 6.32098L20.2913 5.49546C18.566 3.67064 15.676 3.62719 13.8644 5.36512L13.39 5.7996L11.6646 3.97477C11.9234 3.10581 11.7078 2.14995 11.0608 1.45478C10.0687 0.412021 8.42961 0.368573 7.39441 1.36788C6.3592 2.36719 6.31607 4.01822 7.30814 5.06098C7.95514 5.75615 8.90408 5.97339 9.76675 5.75615L11.4921 7.58097L11.0176 8.01546C9.20601 9.75338 9.16288 12.6644 10.8882 14.4892L11.5352 15.141C9.50795 18.6168 8.34334 22.6575 8.34334 26.9589C8.34334 28.1754 8.38648 29.3485 8.47274 30.4347H7.69634C6.70427 30.4347 5.92787 31.1733 5.8416 32.1727C5.79847 32.4768 5.79847 32.7375 5.79847 33.0416H5.49653C2.64972 33.1285 0.363647 35.4313 0.363647 38.2554V41.0361C0.363647 43.8602 2.64972 46.163 5.4534 46.163H6.2298C8.81781 64.976 19.6875 65.2367 30.4708 65.2367C30.7728 65.2367 31.1178 65.2367 31.4198 65.2367C31.7217 65.2367 32.0668 65.2367 32.3687 65.2367C43.1952 65.2367 54.0217 64.976 56.6097 46.163H57.3861C60.1898 46.163 62.4759 43.8602 62.4759 41.0361V38.2554C62.4759 35.4313 60.1898 33.1285 57.3861 33.1285ZM44.4029 7.32028C45.1362 6.53822 46.3871 6.49477 47.1635 7.27684L49.9672 9.97062C50.7436 10.7092 50.7867 11.9692 50.0103 12.7513L49.7515 13.012C48.1555 10.9265 46.2577 9.10166 44.0579 7.66787L44.4029 7.32028ZM12.8292 12.7079C12.096 11.9258 12.096 10.6658 12.8724 9.92718L15.676 7.23339C16.4524 6.49477 17.7033 6.49477 18.4366 7.27684L18.7816 7.62442C16.625 9.05821 14.684 10.883 13.088 12.9685L12.8292 12.7079ZM10.9745 27.0023C10.9745 15.6623 20.1188 6.40787 31.4198 6.40787C42.7207 6.40787 51.865 15.6189 51.865 27.0023C51.865 28.2189 51.8219 29.392 51.7356 30.4782H31.4198H11.1039C11.0176 29.392 10.9745 28.2189 10.9745 27.0023ZM5.4534 43.5561C4.07313 43.5561 2.95166 42.4264 2.95166 41.0361V38.2554C2.95166 36.8651 4.07313 35.7354 5.4534 35.7354H5.66907C5.66907 36.0395 5.66907 36.3437 5.66907 36.6478C5.66907 39.1678 5.75533 41.4706 5.971 43.5561H5.4534ZM47.8536 59.4581C43.7991 62.6298 37.976 62.6298 32.3687 62.6298H31.8942H31.4198H30.9453H30.4708C24.8635 62.6298 19.0404 62.6298 14.9859 59.4581C10.4138 55.9388 8.21394 48.4657 8.21394 36.6044C8.21394 35.3878 8.25708 34.2147 8.34334 33.0851H10.4569H31.4198H52.3826H54.4962C54.5824 34.1713 54.6256 35.3444 54.6256 36.6044C54.6256 48.4657 52.3826 55.9388 47.8536 59.4581ZM59.8879 41.0361C59.8879 42.4264 58.7664 43.5561 57.3861 43.5561H56.9116C57.0842 41.4706 57.2136 39.1678 57.2136 36.6478C57.2136 36.3437 57.2136 36.0395 57.2136 35.7354H57.4292C58.8095 35.7354 59.931 36.8651 59.931 38.2554V41.0361H59.8879Z" fill="white"/>
</svg>
