<svg xmlns="http://www.w3.org/2000/svg" width="51.116" height="57.651" viewBox="0 0 51.116 57.651">
  <g id="early_birdie" data-name="early birdie" transform="translate(0)">
    <circle id="Ellipse_140" data-name="Ellipse 140" cx="2.327" cy="2.327" r="2.327" transform="translate(13.878 15.397)" fill="#fff"/>
    <circle id="Ellipse_141" data-name="Ellipse 141" cx="2.327" cy="2.327" r="2.327" transform="translate(27.843 15.397)" fill="#fff"/>
    <path id="Path_463" data-name="Path 463" d="M2968.017,2565.026h-.273c-.017-.263-.036-.524-.058-.78a1.685,1.685,0,0,0-1.677-1.547h-.755c.065-.987.1-2.025.1-3.123a20.594,20.594,0,0,0-2.889-10.546l.577-.6a4.085,4.085,0,0,0-.112-5.769l-.414-.4,1.569-1.63a2.327,2.327,0,1,0-1.678-1.614l-1.568,1.631-.414-.4a4.1,4.1,0,0,0-2.908-1.139,4.05,4.05,0,0,0-2.861,1.25l-.7.726a20.686,20.686,0,0,0-18.6,0l-.7-.725a4.08,4.08,0,0,0-5.769-.112l-.414.4-1.569-1.631a2.327,2.327,0,1,0-1.677,1.614l1.569,1.63-.414.4a4.086,4.086,0,0,0-.112,5.769l.578.6a20.594,20.594,0,0,0-2.889,10.546c0,1.1.035,2.136.1,3.123h-.756a1.685,1.685,0,0,0-1.677,1.547q-.157,1.819-.158,3.9c0,25.244,11.186,25.556,22.343,25.556h1.689c9.73,0,19.48-.239,21.816-17.042h.7a4.574,4.574,0,0,0,4.569-4.568v-2.5A4.574,4.574,0,0,0,2968.017,2565.026Zm-11.683-23.051a1.741,1.741,0,0,1,1.229-.537,1.718,1.718,0,0,1,1.249.489l2.506,2.41a1.755,1.755,0,0,1,.048,2.478l-.231.239a20.809,20.809,0,0,0-5.1-4.768Zm-28.386,4.841a1.755,1.755,0,0,1,.048-2.478l2.505-2.41a1.753,1.753,0,0,1,2.479.048l.3.312a20.813,20.813,0,0,0-5.1,4.768Zm-1.661,12.76a18.37,18.37,0,1,1,36.74,0c0,1.088-.035,2.135-.1,3.123h-36.532C2926.322,2561.712,2926.287,2560.664,2926.287,2559.577Zm-2.385,5.45h3.583l6.741,6.741a2.244,2.244,0,0,1,0,3.17l-1.767,1.768a2.246,2.246,0,0,1-3.17,0l-5.427-5.427c-.042-1-.064-2.044-.064-3.129S2923.832,2566.014,2923.9,2565.027Zm14.549,12.683h-.237a2.083,2.083,0,0,1-2.006-1.505,4.565,4.565,0,0,0,.962-3.4,2.07,2.07,0,0,1,1.044-.285h.237Zm20.985,10.842c-3.663,2.826-8.885,2.826-13.934,2.826h-1.689c-5.049,0-10.27,0-13.934-2.826-3.152-2.432-5.055-6.951-5.764-13.728l3.527,3.528a4.574,4.574,0,0,0,6.461,0l.372-.372a4.41,4.41,0,0,0,3.738,2.059h.568a4.2,4.2,0,0,0,3.871,2.564h4.009a4.2,4.2,0,0,0,4.2-4.2v-9.762H2938.45v1.552h-.237a4.4,4.4,0,0,0-1.914.437,4.534,4.534,0,0,0-.429-.5l-5.1-5.1h34.638c.069.988.1,2.035.1,3.122C2965.517,2578.72,2963.528,2585.394,2959.436,2588.551Zm-18.658-10.152v-7.435h7.758v7.435a1.877,1.877,0,0,1-1.875,1.875h-4.009A1.877,1.877,0,0,1,2940.778,2578.4Zm29.48-6.3a2.244,2.244,0,0,1-2.241,2.241h-.434c.171-1.876.262-3.93.262-6.187,0-.269,0-.532-.008-.8h.18a2.244,2.244,0,0,1,2.241,2.241Z" transform="translate(-2921.469 -2536.053)" fill="#fff"/>
    <path id="Path_464" data-name="Path 464" d="M2960.543,2578.5l.043.051h10.594a.794.794,0,0,0,.794-.794h0a15.974,15.974,0,0,0-4.275-10.888,3.482,3.482,0,0,0-2.553-1.118h-18.429a3.482,3.482,0,0,0-2.553,1.118,15.977,15.977,0,0,0-4.275,10.888v.008a.787.787,0,0,0,.787.787h10.6l.043-.051,4.612,1.665Zm-18.241-2.277a13.664,13.664,0,0,1,3.57-7.774,1.156,1.156,0,0,1,.845-.372h18.429a1.156,1.156,0,0,1,.846.372,13.665,13.665,0,0,1,3.57,7.774h-7.9l-3.958-4.618-1.767-2.062-1.768,2.062-3.958,4.618Zm13.63-3.1,2.992,3.491-2.992,1.08-2.992-1.08Z" transform="translate(-2932.744 -2554.229)" fill="#fff"/>
  </g>
</svg>
