<svg id="energizer_bunny" data-name="energizer bunny" xmlns="http://www.w3.org/2000/svg" width="55.857" height="71.347" viewBox="0 0 55.857 71.347">
  <circle id="Ellipse_146" data-name="Ellipse 146" cx="2.327" cy="2.327" r="2.327" transform="translate(18.619 25.989)" fill="#fff"/>
  <circle id="Ellipse_147" data-name="Ellipse 147" cx="2.327" cy="2.327" r="2.327" transform="translate(32.584 25.989)" fill="#fff"/>
  <path id="Path_503" data-name="Path 503" d="M4505.788,2485.5h-.272c-.018-.263-.036-.524-.058-.78a1.686,1.686,0,0,0-1.677-1.548h-.755q.1-1.479.1-3.123a20.619,20.619,0,0,0-5.569-14.118v-12.426a4.085,4.085,0,0,0-4.081-4.081h-.574v-2.253a2.327,2.327,0,1,0-2.328,0v2.253H4490a4.085,4.085,0,0,0-4.08,4.081v6.146a20.543,20.543,0,0,0-6.982,0v-6.146a4.085,4.085,0,0,0-4.08-4.081h-.575v-2.253a2.327,2.327,0,1,0-2.328,0v2.253h-.574a4.086,4.086,0,0,0-4.081,4.081v12.426a20.619,20.619,0,0,0-5.569,14.118q0,1.646.1,3.123h-.755a1.686,1.686,0,0,0-1.677,1.548c-.021.255-.041.517-.058.78h-.273a4.573,4.573,0,0,0-4.568,4.568v2.5a4.573,4.573,0,0,0,4.568,4.568h.7c2.336,16.8,12.086,17.041,21.816,17.041h1.689c9.731,0,19.481-.238,21.816-17.041h.7a4.573,4.573,0,0,0,4.568-4.568v-2.5A4.573,4.573,0,0,0,4505.788,2485.5Zm-17.542-31.994a1.756,1.756,0,0,1,1.753-1.753h3.476a1.755,1.755,0,0,1,1.753,1.753v10.286a20.635,20.635,0,0,0-6.983-3.6Zm-16.866-1.753h3.477a1.755,1.755,0,0,1,1.752,1.753v6.682a20.63,20.63,0,0,0-6.982,3.6v-10.286A1.755,1.755,0,0,1,4471.38,2451.752Zm-7.322,28.3a18.37,18.37,0,1,1,36.74,0c0,1.088-.035,2.135-.1,3.123h-36.532C4464.092,2482.186,4464.058,2481.138,4464.058,2480.05Zm-4.99,14.76a2.243,2.243,0,0,1-2.241-2.241v-2.5a2.243,2.243,0,0,1,2.241-2.241h.18c0,.262-.007.525-.007.795,0,2.257.091,4.311.262,6.187Zm38.139,14.215c-3.663,2.826-8.885,2.826-13.935,2.826h-1.689c-5.049,0-10.27,0-13.934-2.827-4.092-3.157-6.082-9.831-6.082-20.4,0-1.086.035-2.134.1-3.123h41.512c.069.987.1,2.035.1,3.123C4503.288,2499.194,4501.3,2505.868,4497.207,2509.025Zm10.823-16.456a2.244,2.244,0,0,1-2.241,2.241h-.434c.17-1.876.262-3.93.262-6.187,0-.27,0-.533-.008-.795h.181a2.244,2.244,0,0,1,2.241,2.241Z" transform="translate(-4454.499 -2442.831)" fill="#fff"/>
  <path id="Path_504" data-name="Path 504" d="M4552.317,2560.831h-3.1v2.715H4546.5v3.1h2.715v2.716h3.1v-2.716h2.715v-3.1h-2.715Z" transform="translate(-4510.812 -2515.059)" fill="#fff"/>
  <rect id="Rectangle_349" data-name="Rectangle 349" width="8.534" height="3.103" transform="translate(10.085 48.487)" fill="#fff"/>
  <path id="Path_505" data-name="Path 505" d="M4512.2,2529.2h6.073l2.167-2.167a.776.776,0,0,0-1.1-1.1l-1.712,1.712h-4.788l-1.485-1.485v-2.006l1.711-1.712a.36.36,0,0,0-.255-.615h-4.464a.361.361,0,0,0-.255.615l1.712,1.712v2.006l-1.485,1.485h-4.789l-1.712-1.712a.776.776,0,0,0-1.1,1.1l2.167,2.167h6.073l1.618-1.618Z" transform="translate(-4482.655 -2491.187)" fill="#fff"/>
</svg>
