<svg id="equalizer" xmlns="http://www.w3.org/2000/svg" width="55.858" height="57.651" viewBox="0 0 55.858 57.651">
  <path id="Path_513" data-name="Path 513" d="M5393.226,2519.838h0a15.977,15.977,0,0,0-4.274-10.888,3.481,3.481,0,0,0-2.553-1.118h-18.43a3.482,3.482,0,0,0-2.553,1.118,15.977,15.977,0,0,0-4.275,10.888v.008a.787.787,0,0,0,.787.787h30.5A.793.793,0,0,0,5393.226,2519.838Zm-29.672-1.533a13.668,13.668,0,0,1,3.569-7.774,1.158,1.158,0,0,1,.845-.372h18.43a1.159,1.159,0,0,1,.846.372,13.671,13.671,0,0,1,3.569,7.774Z" transform="translate(-5349.255 -2496.314)" fill="#fff"/>
  <circle id="Ellipse_150" data-name="Ellipse 150" cx="2.327" cy="2.327" r="2.327" transform="translate(18.619 15.396)" fill="#fff"/>
  <circle id="Ellipse_151" data-name="Ellipse 151" cx="2.327" cy="2.327" r="2.327" transform="translate(32.584 15.396)" fill="#fff"/>
  <path id="Path_514" data-name="Path 514" d="M5381.789,2507.112h-.273c-.017-.263-.036-.524-.058-.78a1.686,1.686,0,0,0-1.677-1.548h-.755c.065-.986.1-2.025.1-3.123a20.592,20.592,0,0,0-2.889-10.546l.577-.6a4.085,4.085,0,0,0-.111-5.769l-.415-.4,1.568-1.63a2.327,2.327,0,1,0-1.677-1.614l-1.568,1.63-.415-.4a4,4,0,0,0-2.908-1.139,4.056,4.056,0,0,0-2.861,1.251l-.7.726a20.688,20.688,0,0,0-18.6,0l-.7-.726a4.085,4.085,0,0,0-5.77-.112l-.414.4-1.568-1.63a2.328,2.328,0,1,0-1.677,1.614l1.568,1.63-.414.4a4.079,4.079,0,0,0-.112,5.769l.578.6a20.592,20.592,0,0,0-2.889,10.546c0,1.1.035,2.136.1,3.123h-.755a1.686,1.686,0,0,0-1.677,1.548c-.022.255-.041.517-.058.78h-.272a4.574,4.574,0,0,0-4.569,4.568v2.5a4.574,4.574,0,0,0,4.569,4.569h.7c2.336,16.8,12.086,17.041,21.816,17.041h1.689c9.731,0,19.481-.238,21.816-17.041h.7a4.574,4.574,0,0,0,4.568-4.569v-2.5A4.573,4.573,0,0,0,5381.789,2507.112Zm-11.684-23.051a1.754,1.754,0,0,1,2.478-.048l2.506,2.41a1.755,1.755,0,0,1,.047,2.478l-.23.239a20.794,20.794,0,0,0-5.1-4.767Zm-28.385,4.841a1.752,1.752,0,0,1,.048-2.478l2.505-2.41a1.752,1.752,0,0,1,2.478.048l.3.313a20.794,20.794,0,0,0-5.1,4.767Zm-1.662,12.76a18.37,18.37,0,0,1,36.741,0c0,1.088-.035,2.135-.1,3.123h-36.532C5340.093,2503.8,5340.058,2502.75,5340.058,2501.662Zm-4.99,14.76a2.244,2.244,0,0,1-2.241-2.241v-2.5a2.244,2.244,0,0,1,2.241-2.241h.18c0,.262-.007.525-.007.795,0,2.257.091,4.311.262,6.187Zm38.139,14.215c-3.664,2.826-8.885,2.826-13.935,2.826h-1.689c-5.049,0-10.27,0-13.934-2.827-4.092-3.157-6.082-9.831-6.082-20.4,0-1.086.035-2.134.1-3.123h41.512c.069.987.1,2.035.1,3.123C5379.289,2520.806,5377.3,2527.48,5373.207,2530.637Zm10.822-16.456a2.244,2.244,0,0,1-2.241,2.241h-.435c.171-1.876.262-3.93.262-6.187,0-.27,0-.532-.008-.795h.181a2.244,2.244,0,0,1,2.241,2.241Z" transform="translate(-5330.499 -2478.139)" fill="#fff"/>
  <path id="Path_515" data-name="Path 515" d="M5421.671,2559.8a3.085,3.085,0,0,0-.792,6.067v10.235a.776.776,0,1,0,1.551,0V2565.88a3.085,3.085,0,0,0-.759-6.076Zm0,4.622a1.535,1.535,0,1,1,1.535-1.535A1.537,1.537,0,0,1,5421.671,2564.427Z" transform="translate(-5384.416 -2528.127)" fill="#fff"/>
  <path id="Path_516" data-name="Path 516" d="M5398.43,2570.2v-3.589a.776.776,0,1,0-1.551,0v3.6a3.082,3.082,0,0,0,0,5.96v3.631a.776.776,0,1,0,1.551,0v-3.622a3.083,3.083,0,0,0,0-5.978Zm-.759,4.524a1.535,1.535,0,1,1,1.535-1.535A1.537,1.537,0,0,1,5397.671,2574.72Z" transform="translate(-5369.726 -2531.815)" fill="#fff"/>
  <path id="Path_517" data-name="Path 517" d="M5374.378,2576.832v-10.225a.776.776,0,0,0-1.552,0v10.217a3.087,3.087,0,1,0,1.552.009Zm-.792,4.515a1.535,1.535,0,1,1,1.535-1.535A1.537,1.537,0,0,1,5373.585,2581.347Z" transform="translate(-5354.983 -2531.815)" fill="#fff"/>
</svg>
