<svg xmlns="http://www.w3.org/2000/svg" width="55.857" height="57.651" viewBox="0 0 55.857 57.651">
  <g id="eternal_edge" data-name="eternal edge" transform="translate(0)">
    <path id="Path_444" data-name="Path 444" d="M1482.364,2594.713h0a15.978,15.978,0,0,0-4.275-10.888,3.483,3.483,0,0,0-2.553-1.118h-18.429a3.483,3.483,0,0,0-2.553,1.118,15.977,15.977,0,0,0-4.275,10.888v.008a.787.787,0,0,0,.787.787h30.5A.794.794,0,0,0,1482.364,2594.713Zm-29.673-1.534a13.668,13.668,0,0,1,3.569-7.774,1.159,1.159,0,0,1,.846-.372h18.429a1.159,1.159,0,0,1,.846.372,13.665,13.665,0,0,1,3.569,7.774Z" transform="translate(-1438.392 -2571.189)" fill="#fff"/>
    <circle id="Ellipse_130" data-name="Ellipse 130" cx="2.327" cy="2.327" r="2.327" transform="translate(18.619 15.396)" fill="#fff"/>
    <circle id="Ellipse_131" data-name="Ellipse 131" cx="2.327" cy="2.327" r="2.327" transform="translate(32.584 15.396)" fill="#fff"/>
    <path id="Path_445" data-name="Path 445" d="M1470.924,2581.987h-.273c-.017-.263-.036-.524-.058-.78a1.686,1.686,0,0,0-1.677-1.548h-.755c.066-.986.1-2.025.1-3.123a20.6,20.6,0,0,0-2.889-10.546l.578-.6a4.081,4.081,0,0,0-.112-5.769l-.414-.4,1.568-1.63a2.328,2.328,0,1,0-1.677-1.614l-1.568,1.631-.414-.4a4.081,4.081,0,0,0-5.769.112l-.7.726a20.689,20.689,0,0,0-18.6,0l-.7-.726a4.086,4.086,0,0,0-5.769-.112l-.414.4-1.568-1.63a2.328,2.328,0,1,0-1.678,1.614l1.568,1.63-.414.4a4.085,4.085,0,0,0-.112,5.769l.578.6a20.6,20.6,0,0,0-2.889,10.546c0,1.1.035,2.136.1,3.123h-.755a1.686,1.686,0,0,0-1.677,1.548c-.022.255-.04.517-.058.78h-.273a4.574,4.574,0,0,0-4.569,4.568v2.5a4.574,4.574,0,0,0,4.569,4.568h.7c2.336,16.8,12.087,17.041,21.816,17.041h1.689c9.731,0,19.481-.239,21.816-17.041h.7a4.573,4.573,0,0,0,4.568-4.568v-2.5A4.574,4.574,0,0,0,1470.924,2581.987Zm-11.683-23.051a1.754,1.754,0,0,1,2.478-.048l2.506,2.411a1.754,1.754,0,0,1,.048,2.478l-.23.239a20.822,20.822,0,0,0-5.1-4.768Zm-28.385,4.841a1.754,1.754,0,0,1,.048-2.478l2.505-2.411a1.755,1.755,0,0,1,2.478.048l.3.312a20.84,20.84,0,0,0-5.1,4.768Zm-1.661,12.76a18.37,18.37,0,0,1,36.74,0c0,1.088-.035,2.135-.1,3.123H1429.3C1429.229,2578.672,1429.194,2577.625,1429.194,2576.537Zm-4.99,14.76a2.244,2.244,0,0,1-2.242-2.241v-2.5a2.244,2.244,0,0,1,2.242-2.241h.18c0,.263-.008.526-.008.8,0,2.257.091,4.311.262,6.187Zm38.139,14.215c-3.663,2.826-8.885,2.826-13.934,2.826h-1.689c-5.049,0-10.27,0-13.934-2.826-4.093-3.157-6.082-9.83-6.082-20.4,0-1.088.035-2.135.1-3.123h41.512c.069.987.1,2.035.1,3.123C1468.424,2595.681,1466.435,2602.355,1462.343,2605.512Zm10.822-16.456a2.244,2.244,0,0,1-2.241,2.241h-.434c.171-1.876.261-3.93.261-6.187,0-.269,0-.532-.008-.8h.18a2.244,2.244,0,0,1,2.241,2.241Z" transform="translate(-1419.635 -2553.014)" fill="#fff"/>
    <path id="Path_446" data-name="Path 446" d="M1495.862,2640.189l-1.5,1.5h1.452l1.308,0v2.775l1.508-1.508a3.917,3.917,0,1,1,0,5.539l-1.846-1.846-2.769,2.77,1.846,1.846a7.834,7.834,0,1,0,0-11.078Z" transform="translate(-1465.164 -2604.97)" fill="#fff"/>
    <path id="Path_447" data-name="Path 447" d="M1468.887,2643l-2.76,0-5.5,5.5a3.917,3.917,0,1,1,0-5.539l1.846,1.846,2.77-2.769-1.846-1.846a7.833,7.833,0,1,0,0,11.078l5.493-5.493Z" transform="translate(-1438.235 -2604.97)" fill="#fff"/>
  </g>
</svg>
