<svg xmlns="http://www.w3.org/2000/svg" width="55.857" height="78.927" viewBox="0 0 55.857 78.927">
  <g id="golden_parachute" data-name="golden parachute" transform="translate(0)">
    <path id="Path_432" data-name="Path 432" d="M575.549,2586.8h0a15.977,15.977,0,0,0-4.275-10.888,3.482,3.482,0,0,0-2.553-1.117h-18.43a3.481,3.481,0,0,0-2.553,1.117,15.975,15.975,0,0,0-4.275,10.888v.008a.787.787,0,0,0,.787.788h30.5A.794.794,0,0,0,575.549,2586.8Zm-29.672-1.533a13.66,13.66,0,0,1,3.569-7.774,1.157,1.157,0,0,1,.845-.372h18.43a1.157,1.157,0,0,1,.846.372,13.664,13.664,0,0,1,3.569,7.774Z" transform="translate(-531.578 -2541.997)" fill="#fff"/>
    <circle id="Ellipse_122" data-name="Ellipse 122" cx="2.327" cy="2.327" r="2.327" transform="translate(18.619 36.672)" fill="#fff"/>
    <circle id="Ellipse_123" data-name="Ellipse 123" cx="2.327" cy="2.327" r="2.327" transform="translate(32.583 36.672)" fill="#fff"/>
    <path id="Path_433" data-name="Path 433" d="M564.111,2540.5h-.273c-.017-.263-.036-.525-.058-.78a1.686,1.686,0,0,0-1.677-1.547h-.755c.066-.986.1-2.025.1-3.123a20.665,20.665,0,0,0-8.665-16.835l11.749-9.138a2.6,2.6,0,0,0,2.227-3.9,30.122,30.122,0,0,0-52.016,0,2.6,2.6,0,0,0,2.227,3.9l11.748,9.138a20.666,20.666,0,0,0-8.664,16.835c0,1.1.035,2.136.1,3.123H519.4a1.686,1.686,0,0,0-1.677,1.547c-.022.255-.04.517-.058.78h-.273a4.574,4.574,0,0,0-4.568,4.568v2.5a4.574,4.574,0,0,0,4.568,4.568h.7c2.336,16.8,12.086,17.042,21.816,17.042H541.6c9.731,0,19.481-.239,21.816-17.042h.7a4.574,4.574,0,0,0,4.569-4.568v-2.5A4.574,4.574,0,0,0,564.111,2540.5Zm-33.772-23.335-.9-8.084h9.619l-8.682,8.062Zm21.722-8.084-.9,8.084-.039-.022-8.682-8.062Zm1.171,0h9.4l-10.291,8Zm-11.317-2.327v-12.489c3.354,1.64,8.97,5.372,8.97,11.991a1.157,1.157,0,0,0,.115.5Zm-2.327-12.92v12.92H529.56a1.156,1.156,0,0,0,.115-.5C529.675,2498.988,536.485,2495.186,539.587,2493.831Zm-11.317,15.248.889,8-10.291-8Zm12.481.018,6.95,6.454a20.729,20.729,0,0,0-13.9,0Zm24-2.745a.22.22,0,0,1,0,.248.279.279,0,0,1-.256.152H553.1a1.15,1.15,0,0,0,.116-.5c0-7.152-5.209-11.344-9.052-13.465a27.692,27.692,0,0,1,10.618,3.583A27.978,27.978,0,0,1,564.75,2506.352Zm-48,0a27.979,27.979,0,0,1,9.973-9.979,27.663,27.663,0,0,1,9.344-3.4c-3.8,2.177-8.72,6.334-8.72,13.28a1.156,1.156,0,0,0,.115.5H517.011a.28.28,0,0,1-.256-.152A.22.22,0,0,1,516.751,2506.352Zm5.63,28.7a18.37,18.37,0,1,1,36.74,0c0,1.087-.035,2.135-.1,3.123H522.485C522.416,2537.183,522.381,2536.135,522.381,2535.048Zm-4.99,14.76a2.244,2.244,0,0,1-2.241-2.241v-2.5a2.244,2.244,0,0,1,2.241-2.241h.18c0,.262-.008.526-.008.8,0,2.257.091,4.311.262,6.187Zm38.139,14.215c-3.663,2.826-8.885,2.826-13.934,2.826h-1.689c-5.049,0-10.27,0-13.934-2.827-4.093-3.157-6.082-9.831-6.082-20.4,0-1.087.035-2.135.1-3.122h41.512c.069.987.1,2.035.1,3.122C561.611,2554.192,559.622,2560.865,555.53,2564.023Zm10.822-16.456a2.244,2.244,0,0,1-2.241,2.241h-.434c.171-1.876.262-3.93.262-6.187,0-.269,0-.533-.008-.8h.18a2.244,2.244,0,0,1,2.241,2.241Z" transform="translate(-512.822 -2490.249)" fill="#fff"/>
  </g>
</svg>
