<svg id="iron_man" data-name="iron man" xmlns="http://www.w3.org/2000/svg" width="55.857" height="57.651" viewBox="0 0 55.857 57.651">
  <path id="Path_499" data-name="Path 499" d="M4157.788,2507.112h-.272c-.018-.263-.036-.524-.059-.78a1.685,1.685,0,0,0-1.677-1.548h-.755c.065-.986.1-2.025.1-3.123a20.6,20.6,0,0,0-2.889-10.546l.577-.6a4.085,4.085,0,0,0-.111-5.769l-.414-.4,1.568-1.63a2.327,2.327,0,1,0-1.678-1.614l-1.568,1.63-.414-.4a4.007,4.007,0,0,0-2.908-1.139,4.057,4.057,0,0,0-2.861,1.251l-.7.726a20.688,20.688,0,0,0-18.6,0l-.7-.726a4.084,4.084,0,0,0-5.769-.112l-.414.4-1.568-1.63a2.328,2.328,0,1,0-1.678,1.614l1.568,1.63-.414.4a4.08,4.08,0,0,0-.111,5.769l.577.6a20.6,20.6,0,0,0-2.889,10.546c0,1.1.034,2.136.1,3.123h-.755a1.686,1.686,0,0,0-1.677,1.548c-.022.255-.041.517-.058.78h-.273a4.574,4.574,0,0,0-4.568,4.568v2.5a4.574,4.574,0,0,0,4.568,4.569h.7c2.336,16.8,12.087,17.041,21.816,17.041h1.689c9.73,0,19.48-.238,21.815-17.041h.7a4.574,4.574,0,0,0,4.568-4.569v-2.5A4.573,4.573,0,0,0,4157.788,2507.112Zm-38.035-16.486,3.485,1.162-.244,1.375a.7.7,0,0,0,.391.863l6.018,2.534a1.018,1.018,0,0,0,1.229-.354l1.521-3.057h4.161l1.522,3.057a1.016,1.016,0,0,0,1.228.354l6.019-2.534a.7.7,0,0,0,.391-.863l-.244-1.375,3.793-1.264a18.3,18.3,0,0,1,3.365,7.279h-8.859l-4.655,2.715h-8.89l-4.654-2.715h-8.859A18.294,18.294,0,0,1,4119.753,2490.626Zm10.613,11.444h8.124l.741,2.715h-9.605Zm10.473,2.715-.851-3.121,3.959-2.31h8.7a18.37,18.37,0,0,1,.15,2.308c0,1.088-.035,2.135-.1,3.123Zm5.266-20.723a1.754,1.754,0,0,1,2.478-.048l2.506,2.41a1.754,1.754,0,0,1,.047,2.478l-.23.239a20.792,20.792,0,0,0-5.1-4.767Zm1.846,5.183-4.077,1.359-5.954.992h-7.37l-5.954-.992-3.782-1.26a18.339,18.339,0,0,1,27.138-.1Zm-30.231-.343a1.753,1.753,0,0,1,.049-2.478l2.505-2.41a1.751,1.751,0,0,1,2.478.048l.3.313a20.822,20.822,0,0,0-5.1,4.767Zm-1.661,12.76a18.37,18.37,0,0,1,.15-2.308h8.7l3.96,2.31-.852,3.121h-11.854C4116.093,2503.8,4116.058,2502.749,4116.058,2501.662Zm-4.99,14.76a2.244,2.244,0,0,1-2.241-2.241v-2.5a2.244,2.244,0,0,1,2.241-2.241h.181c0,.262-.008.525-.008.795,0,2.257.091,4.311.262,6.187Zm38.139,14.215c-3.664,2.826-8.885,2.826-13.934,2.826h-1.689c-5.049,0-10.27,0-13.934-2.827-4.092-3.157-6.082-9.831-6.082-20.4,0-1.088.035-2.135.1-3.123h41.512c.07.987.1,2.035.1,3.123C4155.288,2520.806,4153.3,2527.48,4149.207,2530.637Zm10.823-16.456a2.244,2.244,0,0,1-2.241,2.241h-.434c.17-1.876.262-3.93.262-6.187,0-.27,0-.532-.008-.795h.181a2.244,2.244,0,0,1,2.241,2.241Z" transform="translate(-4106.499 -2478.139)" fill="#fff"/>
  <path id="Path_500" data-name="Path 500" d="M4166.869,2559.831a7.37,7.37,0,1,0,7.37,7.37A7.378,7.378,0,0,0,4166.869,2559.831Zm0,13.189a5.818,5.818,0,1,1,5.818-5.818A5.825,5.825,0,0,1,4166.869,2573.02Z" transform="translate(-4138.94 -2528.143)" fill="#fff"/>
</svg>
