<svg width="510" height="573" viewBox="0 0 510 573" fill="none" xmlns="http://www.w3.org/2000/svg">
<g clip-path="url(#clip0_4194_218)">
<path d="M255.276 72.9297C150.959 72.9297 66.444 157.444 66.444 261.762C66.444 271.663 66.7976 281.211 67.5049 290.051C67.5049 292.527 67.8585 294.648 67.8585 297.124C68.5657 305.257 75.2845 311.268 83.0641 311.268H182.431L170.408 290.405H88.722C88.0147 281.564 87.6611 271.663 87.6611 262.115C87.6611 169.821 162.982 94.5004 255.276 94.5004C347.57 94.5004 422.891 169.821 422.891 262.115C422.891 272.017 422.537 281.564 421.83 290.405H340.144L327.768 311.622H427.135C435.268 311.622 441.633 305.61 442.34 297.477C442.694 295.002 442.694 292.88 442.694 290.405C443.401 281.564 443.755 272.017 443.755 262.115C444.108 157.444 359.593 72.9297 255.276 72.9297Z" fill="white"/>
<path d="M465.325 304.188C464.618 296.054 457.899 290.043 450.12 290.043H340.144L327.768 311.26L255.276 435.38L182.784 311.614L170.408 290.397H60.7861C52.6529 290.397 46.2877 296.408 45.5805 304.541C44.5196 315.503 44.166 327.526 44.166 340.257C44.166 576.12 151.312 573.291 255.63 573.291C359.947 573.291 467.093 576.12 467.093 340.257C466.74 327.173 466.032 315.503 465.325 304.188Z" fill="white"/>
<path d="M468.154 417.703H453.302V396.486H468.154C479.47 396.486 488.664 387.291 488.664 375.976V353.344C488.664 342.028 479.47 332.834 468.154 332.834H449.766V311.617H468.154C491.139 311.617 509.881 330.359 509.881 353.344V375.976C509.881 398.961 491.139 417.703 468.154 417.703Z" fill="white"/>
<path d="M57.25 417.703H42.3981C19.4129 417.703 0.671143 398.961 0.671143 375.976V353.344C0.671143 330.005 19.4129 311.617 42.3981 311.617H60.7862V332.834H42.3981C31.0823 332.834 21.8882 341.675 21.8882 352.99V375.622C21.8882 386.938 31.0823 396.132 42.3981 396.132H57.25V417.703Z" fill="white"/>
<path d="M244.668 173.711H152.727L157.324 211.548C159.092 226.046 172.53 237.362 188.442 237.362H208.952C224.865 237.362 238.303 226.4 240.071 211.548L244.668 173.711Z" fill="white"/>
<path d="M357.825 173.711H265.885L270.482 211.548C272.25 226.046 285.687 237.362 301.6 237.362H322.11C338.023 237.362 351.46 226.4 353.228 211.548L357.825 173.711Z" fill="white"/>
<path d="M414.404 173.703H96.148V187.848H414.404V173.703Z" fill="white"/>
<path d="M285.334 5.03097L263.056 22.3583C258.459 25.8944 252.094 25.8944 247.497 22.3583L225.219 5.03097C214.964 -3.10224 199.758 -0.273298 193.393 11.3961L124.438 131.273H255.276H386.115L317.159 11.3961C310.794 -0.273298 295.589 -3.10224 285.334 5.03097Z" fill="white"/>
<path d="M252.801 139.759C237.242 139.759 222.036 139.052 206.831 137.637L84.8323 127.382C78.8208 127.029 74.5774 121.724 75.2846 116.066C75.6382 110.055 80.9425 105.812 86.6004 106.519L208.599 116.774C237.242 119.249 266.592 119.249 295.589 116.774L424.659 106.165C430.671 105.811 435.621 110.055 435.975 115.713C436.329 121.724 432.085 126.675 426.427 127.029L297.357 137.637C282.151 139.405 267.299 139.759 252.801 139.759Z" fill="white"/>
<path d="M273.311 329.3L279.322 326.825C284.627 324.703 287.455 319.399 286.395 313.741L281.798 290.402H228.755L224.158 314.095C223.097 319.399 225.926 325.057 231.23 327.179L237.242 329.654L204.002 495.501L255.276 521.315L306.551 495.501L273.311 329.3Z" fill="white"/>
</g>
<defs>
<clipPath id="clip0_4194_218">
<rect width="509.21" height="572.508" fill="white" transform="translate(0.671143 0.4375)"/>
</clipPath>
</defs>
</svg>
