<svg width="73" height="80" viewBox="0 0 73 80" fill="none" xmlns="http://www.w3.org/2000/svg">
<path d="M71.4866 39.388C71.4866 30.0045 67.7591 21.0053 61.1239 14.3702C54.4888 7.73505 45.4896 4.00745 36.1061 4.00745C26.7226 4.00745 17.7236 7.73505 11.0884 14.3702C4.45329 21.0053 0.725629 30.0045 0.725629 39.388C0.715846 45.6646 2.38936 51.8289 5.5717 57.239C5.9717 57.939 6.40761 58.602 6.85661 59.267C11.107 65.5266 17.2528 70.2582 24.391 72.7668C31.5293 75.2755 39.2839 75.4288 46.5158 73.2044C53.7477 70.98 60.0756 66.4951 64.5701 60.4084C69.0646 54.3218 71.4889 46.9543 71.4866 39.388ZM36.1066 72.136C30.6304 72.1321 25.2427 70.7553 20.436 68.1316C15.6292 65.5079 11.557 61.7209 8.59172 57.117L15.9777 42.33L22.5426 55.46C22.6615 55.6671 22.8329 55.8392 23.0396 55.9589C23.2463 56.0786 23.4808 56.1416 23.7196 56.1416C23.9585 56.1416 24.193 56.0786 24.3997 55.9589C24.6064 55.8392 24.7778 55.6671 24.8966 55.46L31.4617 42.33L38.0267 55.46C38.1455 55.6671 38.3169 55.8392 38.5236 55.9589C38.7303 56.0786 38.9648 56.1416 39.2037 56.1416C39.4425 56.1416 39.677 56.0786 39.8837 55.9589C40.0904 55.8392 40.2618 55.6671 40.3807 55.46L47.8067 40.6C47.9675 40.6672 48.1403 40.7012 48.3146 40.7H53.1987C53.5475 40.7 53.8821 40.5614 54.1288 40.3147C54.3755 40.068 54.5142 39.7334 54.5142 39.3845C54.5142 39.0356 54.3755 38.701 54.1288 38.4543C53.8821 38.2076 53.5475 38.069 53.1987 38.069H49.0707L54.4706 27.261L58.4777 29.261L57.7836 17.702L48.1187 24.0829L52.1187 26.0829L39.2046 51.924L33.5906 40.698H33.6667C34.0156 40.698 34.3501 40.5594 34.5968 40.3127C34.8435 40.066 34.9822 39.7313 34.9822 39.3824C34.9822 39.0336 34.8435 38.699 34.5968 38.4523C34.3501 38.2056 34.0156 38.067 33.6667 38.067H28.7836C28.4347 38.067 28.1001 38.2056 27.8534 38.4523C27.6067 38.699 27.4682 39.0336 27.4682 39.3824C27.4682 39.7313 27.6067 40.066 27.8534 40.3127C28.1001 40.5594 28.4347 40.698 28.7836 40.698H29.3346L23.7217 51.924L17.1567 38.794C17.0435 38.582 16.8733 38.4059 16.6653 38.2855C16.4573 38.1652 16.2198 38.1054 15.9797 38.113C15.6431 38.1116 15.3181 38.2352 15.0677 38.46C14.9456 38.3359 14.8001 38.2373 14.6396 38.17C14.479 38.1027 14.3067 38.068 14.1326 38.068H9.2487C8.89981 38.068 8.56523 38.2065 8.31852 38.4532C8.07182 38.7 7.93315 39.0346 7.93315 39.3835C7.93315 39.7324 8.07182 40.067 8.31852 40.3137C8.56523 40.5604 8.89981 40.699 9.2487 40.699H13.8487L7.01262 54.371C4.81287 50.1365 3.57832 45.4673 3.39763 40.699H4.36564C4.71454 40.699 5.04911 40.5604 5.29582 40.3137C5.54252 40.067 5.68119 39.7324 5.68119 39.3835C5.68119 39.0346 5.54252 38.7 5.29582 38.4532C5.04911 38.2065 4.71454 38.068 4.36564 38.068H3.4257C3.75291 29.6193 7.33922 21.6256 13.4324 15.7638C19.5256 9.90201 27.6522 6.62769 36.1072 6.62769C44.5622 6.62769 52.6887 9.90201 58.7819 15.7638C64.8751 21.6256 68.4614 29.6193 68.7886 38.068H67.8487C67.4998 38.068 67.1652 38.2065 66.9185 38.4532C66.6718 38.7 66.5331 39.0346 66.5331 39.3835C66.5331 39.7324 66.6718 40.067 66.9185 40.3137C67.1652 40.5604 67.4998 40.699 67.8487 40.699H68.7886C68.4469 49.1433 64.8555 57.1289 58.7647 62.9877C52.6739 68.8465 44.5549 72.1253 36.1037 72.139L36.1066 72.136Z" fill="#2EEF49"/>
<path d="M23.8976 38.0769H19.0135C18.6647 38.0769 18.3301 38.2155 18.0834 38.4622C17.8367 38.7089 17.6981 39.0435 17.6981 39.3924C17.6981 39.7413 17.8367 40.0759 18.0834 40.3226C18.3301 40.5693 18.6647 40.7079 19.0135 40.7079H23.8976C24.2465 40.7079 24.5811 40.5693 24.8278 40.3226C25.0745 40.0759 25.2131 39.7413 25.2131 39.3924C25.2131 39.0435 25.0745 38.7089 24.8278 38.4622C24.5811 38.2155 24.2465 38.0769 23.8976 38.0769Z" fill="#2EEF49"/>
<path d="M62.9626 38.0769H58.0786C57.7297 38.0769 57.3951 38.2155 57.1484 38.4622C56.9017 38.7089 56.7632 39.0435 56.7632 39.3924C56.7632 39.7413 56.9017 40.0759 57.1484 40.3226C57.3951 40.5693 57.7297 40.7079 58.0786 40.7079H62.9626C63.3115 40.7079 63.6461 40.5693 63.8928 40.3226C64.1395 40.0759 64.2782 39.7413 64.2782 39.3924C64.2782 39.0435 64.1395 38.7089 63.8928 38.4622C63.6461 38.2155 63.3115 38.0769 62.9626 38.0769Z" fill="#2EEF49"/>
<path d="M43.4296 38.0769H38.5455C38.1966 38.0769 37.8621 38.2155 37.6154 38.4622C37.3687 38.7089 37.2301 39.0435 37.2301 39.3924C37.2301 39.7413 37.3687 40.0759 37.6154 40.3226C37.8621 40.5693 38.1966 40.7079 38.5455 40.7079H43.4296C43.7785 40.7079 44.113 40.5693 44.3597 40.3226C44.6064 40.0759 44.7451 39.7413 44.7451 39.3924C44.7451 39.0435 44.6064 38.7089 44.3597 38.4622C44.113 38.2155 43.7785 38.0769 43.4296 38.0769Z" fill="#2EEF49"/>
</svg>
