<svg xmlns="http://www.w3.org/2000/svg" width="55.857" height="60.005" viewBox="0 0 55.857 60.005">
  <g id="low_volatility_rider" data-name="low volatility rider" transform="translate(0)">
    <path id="Path_442" data-name="Path 442" d="M1277.293,2587.236l1.789,1.417a1.837,1.837,0,0,0,1.14.4h11.18a.794.794,0,0,0,.793-.794v0a15.975,15.975,0,0,0-4.275-10.887,3.48,3.48,0,0,0-2.553-1.118h-18.429a3.481,3.481,0,0,0-2.553,1.118,15.977,15.977,0,0,0-4.275,10.887v.008a.787.787,0,0,0,.787.787h11.187a1.836,1.836,0,0,0,1.14-.4l1.79-1.417A1.836,1.836,0,0,1,1277.293,2587.236Zm5.843-4.781a2.327,2.327,0,1,1-2.327,2.327A2.327,2.327,0,0,1,1283.136,2582.455Zm-13.965,4.655a2.327,2.327,0,1,1,2.328-2.327A2.328,2.328,0,0,1,1269.171,2587.109Z" transform="translate(-1248.225 -2564.731)" fill="#fff"/>
    <path id="Path_443" data-name="Path 443" d="M1280.758,2587.166a4.573,4.573,0,0,0,4.568-4.568v-2.5a4.573,4.573,0,0,0-4.568-4.568h-.273c-.017-.263-.036-.524-.058-.78a1.686,1.686,0,0,0-1.677-1.548h-.756c.066-.986.1-2.025.1-3.123a20.6,20.6,0,0,0-2.889-10.546l.578-.6a4.081,4.081,0,0,0-.112-5.769l-.414-.4,1.569-1.63a2.327,2.327,0,1,0-1.678-1.614l-1.568,1.63-.414-.4a4.08,4.08,0,0,0-5.769.112l-.7.726a20.687,20.687,0,0,0-18.6,0l-.7-.726a4.08,4.08,0,0,0-5.769-.112l-.414.4-1.568-1.63a2.328,2.328,0,1,0-1.677,1.614l1.568,1.63-.414.4a4.08,4.08,0,0,0-.112,5.769l.578.6a20.592,20.592,0,0,0-2.89,10.546c0,1.1.035,2.136.1,3.123h-.755a1.686,1.686,0,0,0-1.677,1.548c-.022.255-.04.517-.058.78h-.273a4.574,4.574,0,0,0-4.569,4.568v2.5a4.573,4.573,0,0,0,4.569,4.568h.7a36.876,36.876,0,0,0,.8,4.145h-2.911a3.107,3.107,0,0,0-3.107,3.106v9.037a3.107,3.107,0,0,0,3.107,3.106h8.084a3.106,3.106,0,0,0,3.106-3.106v-1c3.764,1.7,8.25,1.748,12.732,1.748h1.689c4.5,0,9.012-.052,12.787-1.772v1.019a3.107,3.107,0,0,0,3.107,3.106h8.084a3.106,3.106,0,0,0,3.106-3.106v-9.037a3.106,3.106,0,0,0-3.106-3.106h-2.967a36.872,36.872,0,0,0,.805-4.145Zm0-9.31A2.244,2.244,0,0,1,1283,2580.1v2.5a2.244,2.244,0,0,1-2.241,2.241h-.433c.171-1.875.261-3.931.261-6.187,0-.27,0-.532-.008-.8Zm-11.684-25.378a1.754,1.754,0,0,1,2.478-.048l2.505,2.411a1.751,1.751,0,0,1,.048,2.478l-.23.239a20.811,20.811,0,0,0-5.1-4.768Zm-28.385,4.84a1.752,1.752,0,0,1,.048-2.478l2.505-2.411a1.754,1.754,0,0,1,2.478.048l.3.312a20.8,20.8,0,0,0-5.1,4.768Zm-1.662,12.76a18.37,18.37,0,1,1,36.74,0c0,1.088-.035,2.135-.1,3.123h-36.531C1239.063,2572.214,1239.028,2571.167,1239.028,2570.079Zm-4.99,14.76a2.244,2.244,0,0,1-2.241-2.241v-2.5a2.244,2.244,0,0,1,2.241-2.241h.18c0,.263-.008.526-.008.8,0,2.256.09,4.312.261,6.187Zm1.917,8.8h1.475v10.6h-1.475Zm-4.1,9.816v-9.037a.78.78,0,0,1,.779-.779h1.125v10.6h-1.125A.78.78,0,0,1,1231.851,2603.455Zm9.643,0a.78.78,0,0,1-.779.779h-1.163v-10.6h1.163a.78.78,0,0,1,.779.779Zm31.863,0v-9.037a.78.78,0,0,1,.779-.779h1.125v10.6h-1.125A.78.78,0,0,1,1273.357,2603.455Zm5.578.779h-1.475v-10.6h1.475Zm4.065-9.816v9.037a.78.78,0,0,1-.779.779h-1.163v-10.6h1.163A.78.78,0,0,1,1283,2594.417Zm-8.863-3.106a3.107,3.107,0,0,0-3.107,3.106v5.4c-3.562,2.061-8.242,2.067-12.787,2.067h-1.689c-4.521,0-9.177-.006-12.732-2.036v-5.427a3.106,3.106,0,0,0-3.106-3.106h-2.763a47.242,47.242,0,0,1-1.415-12.659c0-1.088.035-2.135.1-3.123h41.512c.069.987.1,2.035.1,3.123a47.249,47.249,0,0,1-1.415,12.659Z" transform="translate(-1229.469 -2546.556)" fill="#fff"/>
  </g>
</svg>
