<svg id="meme_squeezer" data-name="meme squeezer" xmlns="http://www.w3.org/2000/svg" width="55.857" height="68.632" viewBox="0 0 55.857 68.632">
  <path id="Path_521" data-name="Path 521" d="M5729.227,2519.838h0a15.977,15.977,0,0,0-4.275-10.888,3.481,3.481,0,0,0-2.553-1.118H5703.97a3.482,3.482,0,0,0-2.554,1.118,15.977,15.977,0,0,0-4.275,10.888v.008a.787.787,0,0,0,.787.787h30.5A.794.794,0,0,0,5729.227,2519.838Zm-29.672-1.533a13.668,13.668,0,0,1,3.569-7.774,1.159,1.159,0,0,1,.846-.372H5722.4a1.159,1.159,0,0,1,.846.372,13.668,13.668,0,0,1,3.569,7.774Z" transform="translate(-5685.255 -2485.333)" fill="#fff"/>
  <circle id="Ellipse_154" data-name="Ellipse 154" cx="2.327" cy="2.327" r="2.327" transform="translate(18.619 26.377)" fill="#fff"/>
  <circle id="Ellipse_155" data-name="Ellipse 155" cx="2.327" cy="2.327" r="2.327" transform="translate(32.584 26.377)" fill="#fff"/>
  <path id="Path_522" data-name="Path 522" d="M5717.788,2489.785h-.272c-.018-.263-.036-.525-.059-.78a1.685,1.685,0,0,0-1.677-1.548h-.755c.065-.986.1-2.025.1-3.123a20.616,20.616,0,0,0-5.467-14.01,3.09,3.09,0,0,0,1.361-1.711l2.027-6.369h-5.7c-1.85-8.173-12.921-12.413-12.921-12.413s-11.071,4.24-12.921,12.413h-5.7l2.027,6.369a3.092,3.092,0,0,0,1.36,1.711,20.62,20.62,0,0,0-5.466,14.01c0,1.1.034,2.136.1,3.123h-.756A1.685,1.685,0,0,0,5671.4,2489c-.022.255-.041.517-.059.78h-.272a4.574,4.574,0,0,0-4.568,4.568v2.5a4.574,4.574,0,0,0,4.568,4.568h.7c2.336,16.8,12.087,17.041,21.816,17.041h1.688c9.731,0,19.481-.238,21.816-17.041h.7a4.574,4.574,0,0,0,4.568-4.568v-2.5A4.574,4.574,0,0,0,5717.788,2489.785Zm-12.836-27.541H5701.7a23.381,23.381,0,0,0-2.44-7.092C5701.647,2456.87,5704.08,2459.259,5704.952,2462.244Zm-11.687,0h-3.735a19.541,19.541,0,0,1,3.735-8.374Zm2.326-8.374a19.545,19.545,0,0,1,3.736,8.374h-3.736Zm-5.99,1.283a23.363,23.363,0,0,0-2.441,7.092H5683.9C5684.775,2459.259,5687.208,2456.87,5689.6,2455.152Zm-8.361,9.419h28.624l-1.061,3.336a.777.777,0,0,1-.742.543h-27.266a.776.776,0,0,1-.742-.543l-1.062-3.336Zm-5.182,19.763a18.32,18.32,0,0,1,6-13.557h24.75a18.32,18.32,0,0,1,6,13.557c0,1.088-.035,2.135-.1,3.123h-36.531C5676.093,2486.47,5676.058,2485.423,5676.058,2484.335Zm-4.99,14.76a2.243,2.243,0,0,1-2.241-2.241v-2.5a2.243,2.243,0,0,1,2.241-2.241h.18c0,.263-.007.526-.007.8,0,2.257.091,4.311.262,6.187Zm38.139,14.215c-3.663,2.826-8.884,2.826-13.935,2.826h-1.688c-5.049,0-10.27,0-13.934-2.827-4.093-3.157-6.082-9.831-6.082-20.4,0-1.086.035-2.134.1-3.122h41.512c.069.987.1,2.035.1,3.122C5715.288,2503.479,5713.3,2510.153,5709.206,2513.31Zm10.823-16.456a2.244,2.244,0,0,1-2.241,2.241h-.435c.171-1.876.262-3.93.262-6.187,0-.27,0-.532-.008-.8h.181a2.244,2.244,0,0,1,2.241,2.241Z" transform="translate(-5666.499 -2449.831)" fill="#fff"/>
</svg>
