<svg id="midas_touch" data-name="midas touch" xmlns="http://www.w3.org/2000/svg" width="55.857" height="65.258" viewBox="0 0 55.857 65.258">
  <path id="Path_425" data-name="Path 425" d="M212.2,2588.255v0a15.975,15.975,0,0,0-4.275-10.887,3.48,3.48,0,0,0-2.553-1.118H186.939a3.48,3.48,0,0,0-2.553,1.118,15.977,15.977,0,0,0-4.275,10.887v.008a.787.787,0,0,0,.787.787h30.5A.794.794,0,0,0,212.2,2588.255Zm-29.672-1.534a13.668,13.668,0,0,1,3.569-7.774,1.159,1.159,0,0,1,.846-.372h18.429a1.159,1.159,0,0,1,.846.372,13.665,13.665,0,0,1,3.569,7.774Z" transform="translate(-168.225 -2557.124)" fill="#fff"/>
  <circle id="Ellipse_120" data-name="Ellipse 120" cx="2.327" cy="2.327" r="2.327" transform="translate(18.619 23.004)" fill="#fff"/>
  <circle id="Ellipse_121" data-name="Ellipse 121" cx="2.327" cy="2.327" r="2.327" transform="translate(32.584 23.004)" fill="#fff"/>
  <path id="Path_426" data-name="Path 426" d="M200.758,2563.525h-.273c-.017-.263-.036-.524-.058-.78a1.686,1.686,0,0,0-1.677-1.548h-.756c.066-.986.1-2.025.1-3.123a20.6,20.6,0,0,0-2.889-10.546l.578-.6a4.081,4.081,0,0,0-.112-5.77l-.414-.4,1.569-1.63a2.328,2.328,0,1,0-1.678-1.614l-1.568,1.63-.414-.4a4.08,4.08,0,0,0-5.769.112l-.7.726c-.379-.191-.763-.374-1.156-.542v-10.818l-4.45,3.338-3.7-4.62-3.7,4.62-4.451-3.338v10.818c-.392.168-.776.351-1.156.542l-.7-.726a4.08,4.08,0,0,0-5.769-.112l-.414.4-1.568-1.63a2.328,2.328,0,1,0-1.677,1.614l1.568,1.63-.414.4a4.08,4.08,0,0,0-.112,5.77l.578.6a20.6,20.6,0,0,0-2.889,10.546c0,1.1.035,2.137.1,3.123h-.755a1.687,1.687,0,0,0-1.677,1.548c-.022.255-.04.517-.058.78h-.273a4.573,4.573,0,0,0-4.569,4.568v2.5a4.573,4.573,0,0,0,4.569,4.568h.7c2.336,16.8,12.086,17.041,21.816,17.041h1.689c9.73,0,19.48-.238,21.816-17.041h.7a4.573,4.573,0,0,0,4.568-4.568v-2.5A4.573,4.573,0,0,0,200.758,2563.525Zm-11.684-23.051a1.754,1.754,0,0,1,2.478-.048l2.505,2.41a1.752,1.752,0,0,1,.048,2.478l-.23.24a20.811,20.811,0,0,0-5.1-4.768Zm-17.5-7.594,2.532,1.9,3.287-4.109,3.287,4.109,2.531-1.9v5.332a20.685,20.685,0,0,0-11.637,0Zm-10.89,12.434a1.752,1.752,0,0,1,.048-2.478l2.505-2.41a1.754,1.754,0,0,1,2.478.048l.3.312a20.8,20.8,0,0,0-5.1,4.768Zm-1.662,12.76a18.37,18.37,0,0,1,36.74,0c0,1.088-.035,2.135-.1,3.123H159.132C159.063,2560.21,159.028,2559.163,159.028,2558.075Zm-4.99,14.76a2.244,2.244,0,0,1-2.241-2.241v-2.5a2.244,2.244,0,0,1,2.241-2.241h.18c0,.262-.008.525-.008.8,0,2.257.091,4.311.262,6.187Zm38.139,14.215c-3.663,2.826-8.885,2.826-13.934,2.826h-1.689c-5.049,0-10.27,0-13.934-2.827-4.092-3.157-6.082-9.83-6.082-20.4,0-1.088.035-2.135.1-3.123h41.512c.069.988.1,2.035.1,3.123C198.258,2577.219,196.269,2583.893,192.177,2587.05ZM203,2570.594a2.244,2.244,0,0,1-2.241,2.241h-.434c.171-1.876.262-3.93.262-6.187,0-.27,0-.533-.008-.8h.18a2.244,2.244,0,0,1,2.241,2.241Z" transform="translate(-149.469 -2526.945)" fill="#fff"/>
</svg>
