<svg id="mother_gusher" data-name="mother gusher" xmlns="http://www.w3.org/2000/svg" width="55.857" height="83.771" viewBox="0 0 55.857 83.771">
  <path id="Path_525" data-name="Path 525" d="M6065.227,2519.838h0a15.976,15.976,0,0,0-4.275-10.888,3.481,3.481,0,0,0-2.553-1.118H6039.97a3.483,3.483,0,0,0-2.554,1.118,15.977,15.977,0,0,0-4.275,10.888v.008a.788.788,0,0,0,.788.787h30.5A.794.794,0,0,0,6065.227,2519.838Zm-29.672-1.533a13.664,13.664,0,0,1,3.569-7.774,1.159,1.159,0,0,1,.846-.372H6058.4a1.159,1.159,0,0,1,.846.372,13.668,13.668,0,0,1,3.569,7.774Z" transform="translate(-6021.255 -2470.193)" fill="#fff"/>
  <circle id="Ellipse_158" data-name="Ellipse 158" cx="2.327" cy="2.327" r="2.327" transform="translate(18.619 41.517)" fill="#fff"/>
  <circle id="Ellipse_159" data-name="Ellipse 159" cx="2.327" cy="2.327" r="2.327" transform="translate(32.584 41.517)" fill="#fff"/>
  <path id="Path_526" data-name="Path 526" d="M6053.788,2507.112h-.272c-.018-.263-.036-.524-.059-.78a1.686,1.686,0,0,0-1.677-1.548h-.755c.065-.986.1-2.025.1-3.123a20.6,20.6,0,0,0-2.889-10.546l.577-.6a4.085,4.085,0,0,0-.111-5.769l-.415-.4,1.568-1.63a2.328,2.328,0,1,0-1.677-1.614l-1.569,1.63-.414-.4a4,4,0,0,0-2.908-1.139,4.058,4.058,0,0,0-2.861,1.251l-.7.726a20.55,20.55,0,0,0-4.646-1.677v-.5a2.026,2.026,0,0,0-2.026-2.026H6027.8a2.026,2.026,0,0,0-2.025,2.026v.5a20.521,20.521,0,0,0-4.646,1.677l-.7-.726a4.084,4.084,0,0,0-5.769-.112l-.415.4-1.568-1.63a2.327,2.327,0,1,0-1.677,1.614l1.569,1.63-.415.4a4.079,4.079,0,0,0-.111,5.769l.577.6a20.592,20.592,0,0,0-2.889,10.546c0,1.1.035,2.136.1,3.123h-.755a1.686,1.686,0,0,0-1.677,1.548c-.022.255-.041.517-.058.78h-.273a4.573,4.573,0,0,0-4.568,4.568v2.5a4.574,4.574,0,0,0,4.568,4.569h.7c2.336,16.8,12.086,17.041,21.816,17.041h1.689c9.731,0,19.481-.238,21.816-17.041h.7a4.574,4.574,0,0,0,4.568-4.569v-2.5A4.573,4.573,0,0,0,6053.788,2507.112Zm-11.684-23.051a1.754,1.754,0,0,1,2.478-.048l2.506,2.41a1.755,1.755,0,0,1,.047,2.478l-.23.239a20.8,20.8,0,0,0-5.1-4.767Zm-28.386,4.841a1.754,1.754,0,0,1,.048-2.478l2.506-2.41a1.751,1.751,0,0,1,2.478.048l.3.313a20.813,20.813,0,0,0-5.1,4.767Zm-1.661,12.76a18.37,18.37,0,1,1,36.74,0c0,1.088-.035,2.135-.1,3.123h-36.531C6012.092,2503.8,6012.058,2502.75,6012.058,2501.662Zm-4.99,14.76a2.244,2.244,0,0,1-2.241-2.241v-2.5a2.244,2.244,0,0,1,2.241-2.241h.18c0,.262-.007.525-.007.795,0,2.257.091,4.311.262,6.187Zm38.139,14.215c-3.664,2.826-8.885,2.826-13.935,2.826h-1.689c-5.049,0-10.27,0-13.934-2.827-4.092-3.157-6.082-9.831-6.082-20.4,0-1.086.036-2.134.1-3.123h41.512c.069.987.1,2.035.1,3.123C6051.288,2520.806,6049.3,2527.48,6045.207,2530.637Zm10.823-16.456a2.244,2.244,0,0,1-2.241,2.241h-.434c.17-1.876.262-3.93.262-6.187,0-.27,0-.532-.008-.795h.181a2.244,2.244,0,0,1,2.241,2.241Z" transform="translate(-6002.499 -2452.019)" fill="#fff"/>
  <path id="Path_527" data-name="Path 527" d="M6062.667,2559.644l1.41,5.117-13.672,3.767-1.41-5.117-2.046.564a20.141,20.141,0,0,0,3.383,12.28l2.047-.564-1.41-5.117,5.72-1.576-4.487,9.284h10.615l-4.962-9.605,6.787-1.87,1.41,5.116,2.047-.563a20.142,20.142,0,0,0-3.384-12.28Zm-7.992,17.087,2.7-5.594,2.89,5.594Z" transform="translate(-6029.689 -2501.563)" fill="#fff"/>
  <path id="Path_528" data-name="Path 528" d="M6082.945,2440.958a2.074,2.074,0,0,0-1.063-.2l-.026,0a3.8,3.8,0,0,0-2.892,1.96,23.508,23.508,0,0,0-2.265,6.037,32.145,32.145,0,0,0-.837,6.04,31.094,31.094,0,0,1,2.969-5.1,19.928,19.928,0,0,1,3.763-4.058,3.529,3.529,0,0,0,1.343-2.215,3.186,3.186,0,0,0,.013-.985,2.233,2.233,0,0,0-.32-.866A1.714,1.714,0,0,0,6082.945,2440.958Z" transform="translate(-6047.405 -2429.135)" fill="#fff"/>
  <path id="Path_529" data-name="Path 529" d="M6051.649,2438.408a3.529,3.529,0,0,0,1.176,2.367,19.967,19.967,0,0,1,3.447,4.323,30.986,30.986,0,0,1,2.579,5.305,32.308,32.308,0,0,0-.393-6.11,23.531,23.531,0,0,0-1.829-6.207,3.812,3.812,0,0,0-2.677-2.151h0a2.1,2.1,0,0,0-1.085.094,1.713,1.713,0,0,0-.743.542,2.191,2.191,0,0,0-.4.831,3.106,3.106,0,0,0-.076.982Z" transform="translate(-6032.578 -2426.167)" fill="#fff"/>
  <path id="Path_530" data-name="Path 530" d="M6074.07,2427.9c.536-1.3,1.126-2.572,1.77-3.791a28.325,28.325,0,0,1,4.533-6.475,5.04,5.04,0,0,0,1.465-3.4h0a4.512,4.512,0,0,0-.174-1.4,3.2,3.2,0,0,0-.624-1.165,2.464,2.464,0,0,0-1.089-.734,2.96,2.96,0,0,0-1.543-.075l-.038.007a4.04,4.04,0,0,0-1.133.409,6.08,6.08,0,0,0-.548.331,5.912,5.912,0,0,0-2.031,2.6,29.916,29.916,0,0,0-1.342,4.524,37.7,37.7,0,0,0-.681,4.464c-.139,1.476-.2,2.941-.2,4.394a42.019,42.019,0,0,0,.209,4.317A41.727,41.727,0,0,1,6074.07,2427.9Z" transform="translate(-6045.306 -2410.801)" fill="#fff"/>
</svg>
