<svg width="510" height="614" viewBox="0 0 510 614" fill="none" xmlns="http://www.w3.org/2000/svg">
<g clip-path="url(#clip0_4194_186)">
<path d="M444.322 352.209C445.029 361.05 445.382 370.597 445.382 380.499C445.382 477.036 427.348 537.859 389.864 566.502C356.624 592.316 308.886 592.316 262.915 592.316H259.026H255.136H251.246H247.356C201.386 592.316 153.648 592.316 120.407 566.502C82.9239 537.859 64.8894 477.036 64.8894 380.499C64.8894 370.597 65.243 361.05 65.9502 352.209H255.136H444.322ZM449.626 330.992H255.136H60.6459C52.5127 330.992 46.1476 337.004 45.4404 345.137C44.3795 356.099 44.0259 368.122 44.0259 380.852C44.0259 611.058 145.868 613.887 247.71 613.887C250.185 613.887 253.014 613.887 255.49 613.887C257.965 613.887 260.794 613.887 263.269 613.887C365.111 613.887 466.953 611.058 466.953 380.852C466.953 368.122 466.6 356.453 465.539 345.137C464.478 337.004 457.759 330.992 449.626 330.992Z" fill="white"/>
<path d="M191.485 270.876C203.202 270.876 212.702 261.376 212.702 249.658C212.702 237.941 203.202 228.441 191.485 228.441C179.767 228.441 170.268 237.941 170.268 249.658C170.268 261.376 179.767 270.876 191.485 270.876Z" fill="white"/>
<path d="M318.787 270.876C330.505 270.876 340.004 261.376 340.004 249.658C340.004 237.941 330.505 228.441 318.787 228.441C307.069 228.441 297.57 237.941 297.57 249.658C297.57 261.376 307.069 270.876 318.787 270.876Z" fill="white"/>
<path d="M468.014 458.296H453.162V437.079H468.014C479.33 437.079 488.524 427.885 488.524 416.569V393.938C488.524 382.622 479.33 373.428 468.014 373.428H449.626V352.211H468.014C490.999 352.211 509.741 370.953 509.741 393.938V416.569C509.741 439.555 490.999 458.296 468.014 458.296Z" fill="white"/>
<path d="M57.1097 458.296H42.2578C19.2726 458.296 0.530823 439.555 0.530823 416.569V393.938C0.530823 370.953 19.2726 352.211 42.2578 352.211H60.6459V373.428H42.2578C30.942 373.428 21.7479 382.622 21.7479 393.938V416.569C21.7479 427.885 30.942 437.079 42.2578 437.079H57.1097V458.296Z" fill="white"/>
<path d="M185.119 405.96C169.56 432.835 163.549 461.479 166.024 486.939C191.131 477.038 215.177 456.528 231.797 427.885C247.356 401.01 253.368 372.367 250.892 346.906C225.786 356.808 201.74 377.317 185.119 405.96Z" fill="white"/>
<path d="M276.353 420.1C290.498 440.61 309.593 455.462 328.688 462.534C330.456 440.61 323.738 415.857 308.532 393.579C294.387 373.069 275.292 358.217 256.197 351.145C254.429 373.069 261.147 397.822 276.353 420.1Z" fill="white"/>
<path d="M254.075 374.841C270.675 374.841 284.133 365.025 284.133 352.917C284.133 340.808 270.675 330.992 254.075 330.992C237.475 330.992 224.018 340.808 224.018 352.917C224.018 365.025 237.475 374.841 254.075 374.841Z" fill="white"/>
<path d="M423.812 178.936H85.3992C79.3877 178.936 74.7906 174.339 74.7906 168.327C74.7906 162.316 79.3877 157.719 85.3992 157.719H423.812C429.823 157.719 434.42 162.316 434.42 168.327C434.42 174.339 429.823 178.936 423.812 178.936Z" fill="white"/>
<path d="M392.34 178.931H117.932V118.108C117.932 53.0427 170.975 0 236.041 0H274.231C339.297 0 392.34 53.0427 392.34 118.108V178.931ZM139.149 157.714H371.123V118.108C371.123 64.7121 327.981 21.2171 274.585 21.2171H236.041C182.644 21.2171 139.149 64.7121 139.149 118.108V157.714Z" fill="white"/>
<path d="M383.499 164.081V170.093H357.685C397.29 200.857 422.751 248.596 422.751 302.346C422.751 312.247 422.397 321.795 421.69 330.635H255.136H88.5818C87.8746 321.795 87.5209 312.247 87.5209 302.346C87.5209 248.596 112.981 200.504 152.587 170.093H131.37V160.191C91.7644 194.846 66.6575 245.767 66.6575 302.346C66.6575 315.076 67.0111 326.746 68.0719 338.061C68.7792 346.195 75.4979 352.206 83.2775 352.206H255.136H426.994C435.128 352.206 441.493 346.195 442.2 338.061C443.261 327.099 443.614 315.076 443.614 302.346C443.968 247.889 420.629 198.736 383.499 164.081Z" fill="white"/>
<path d="M200.679 306.24L209.165 291.034C215.177 280.779 226.139 274.414 238.162 274.414H272.463C284.486 274.414 295.448 280.779 301.46 291.034L309.947 306.24H277.414C269.281 306.24 261.147 303.057 255.489 297.046C249.832 302.704 241.698 306.24 233.565 306.24H200.679Z" fill="white"/>
</g>
<defs>
<clipPath id="clip0_4194_186">
<rect width="509.21" height="613.527" fill="white" transform="translate(0.530823)"/>
</clipPath>
</defs>
</svg>
