<svg id="natural_einstein" data-name="natural einstein" xmlns="http://www.w3.org/2000/svg" width="57.409" height="59.274" viewBox="0 0 57.409 59.274">
  <path id="Path_491" data-name="Path 491" d="M3959.355,2572.172h2.733v-1.785h-2.733V2568.4h3.008v-1.853h-4.957v9.609h5.094V2574.3h-3.145Z" transform="translate(-3944.642 -2530.629)" fill="#fff"/>
  <rect id="Rectangle_347" data-name="Rectangle 347" width="5.491" height="1.688" transform="translate(19.159 39.032)" fill="#fff"/>
  <rect id="Rectangle_348" data-name="Rectangle 348" width="5.491" height="1.674" transform="translate(19.159 41.955)" fill="#fff"/>
  <path id="Path_492" data-name="Path 492" d="M3997.146,2570.181c-.192.48-.521,1.318-.63,1.675h-.056c-.111-.357-.44-1.194-.632-1.675l-1.509-3.638h-1.964v9.609h1.9v-2.361c-.043-1.167-.1-2.334-.139-3.5l.071-.028.865,2.526.48,1.3h1.921l.481-1.3.865-2.526.068.028c-.055,1.167-.1,2.333-.152,3.5v2.361h1.908v-9.609h-1.962Z" transform="translate(-3966.034 -2530.628)" fill="#fff"/>
  <path id="Path_493" data-name="Path 493" d="M4021.005,2574.12c-.6,0-.935-.385-.935-1.208v-3.734c0-.851.344-1.235.935-1.235.741,0,1.069.356,1.125,1.235h1.949c-.068-2.031-1.14-3.13-3.061-3.13-1.881,0-2.978,1.1-2.978,3.13v3.734c0,2.018,1.1,3.1,2.965,3.1a2.832,2.832,0,0,0,3.1-3.1h-1.949C4022.1,2573.762,4021.759,2574.12,4021.005,2574.12Z" transform="translate(-3981.756 -2530.326)" fill="#fff"/>
  <path id="Path_494" data-name="Path 494" d="M4040.105,2565.422a1.272,1.272,0,0,0-1.371-1.3c-.806,0-1.284.486-1.327,1.436h.914c.014-.336.171-.522.428-.522a.393.393,0,0,1,.393.435c0,.836-1.785,1.55-1.785,3.134v.6h2.77v-.9h-1.75C4038.378,2567.549,4040.105,2566.7,4040.105,2565.422Z" transform="translate(-3993.58 -2529.147)" fill="#fff"/>
  <circle id="Ellipse_142" data-name="Ellipse 142" cx="2.327" cy="2.327" r="2.327" transform="translate(20.946 13.916)" fill="#fff"/>
  <circle id="Ellipse_143" data-name="Ellipse 143" cx="2.327" cy="2.327" r="2.327" transform="translate(31.808 13.916)" fill="#fff"/>
  <path id="Path_495" data-name="Path 495" d="M3989.305,2527.535,3985,2526.4a4.544,4.544,0,0,0-2.371.016l-4.172,1.159a4.541,4.541,0,0,0-2.563,1.857l-1.391,2.086h6.594l1.365-1.365a1.91,1.91,0,0,1,2.7,0l1.365,1.365h6.594l-1-1.8A4.541,4.541,0,0,0,3989.305,2527.535Z" transform="translate(-3955.104 -2505.966)" fill="#fff"/>
  <path id="Path_496" data-name="Path 496" d="M3980.676,2490.551l1.2-6.508a1.717,1.717,0,0,0-1.374-2l-5.743-1.062.258-4.036a1.713,1.713,0,0,0-1.6-1.82l-16.44-1.053a59.707,59.707,0,0,0-7.553,0l-16.44,1.053a1.716,1.716,0,0,0-1.6,1.819l.258,4.037-5.742,1.062a1.717,1.717,0,0,0-1.374,2l1.2,6.508a1.707,1.707,0,0,0,2,1.374l.186-.035-1.644.688a1.714,1.714,0,0,0-.919,2.242l2.555,6.1a1.714,1.714,0,0,0,2.242.92l2.389-1q.025.706.069,1.379h-.755a1.686,1.686,0,0,0-1.677,1.548c-.022.255-.041.517-.058.78h-.273a4.574,4.574,0,0,0-4.569,4.568v2.5a4.574,4.574,0,0,0,4.569,4.568h.7c2.336,16.8,12.086,17.041,21.816,17.041h1.689c9.73,0,19.48-.238,21.816-17.041h.7a4.573,4.573,0,0,0,4.568-4.568v-2.5a4.573,4.573,0,0,0-4.568-4.568h-.273c-.017-.263-.036-.525-.058-.78a1.686,1.686,0,0,0-1.677-1.548h-.756q.045-.672.069-1.379l2.389,1a1.714,1.714,0,0,0,2.242-.92l2.555-6.1a1.715,1.715,0,0,0-.919-2.242l-1.644-.688.188.035A1.714,1.714,0,0,0,3980.676,2490.551ZM3953.2,2478.4a20.694,20.694,0,0,0-20.679,19.962.382.382,0,0,0-.159.027l-2.549,1.067-2.081-4.972,4.415-1.848a1.94,1.94,0,0,0-.748-3.729,1.915,1.915,0,0,0-.354.032l-3.141.581-.98-5.3,5.478-1.013a1.941,1.941,0,0,0,1.583-2.031l-.241-3.769,15.828-1.013a57.122,57.122,0,0,1,7.257,0l15.827,1.013-.241,3.769a1.941,1.941,0,0,0,1.583,2.031l5.478,1.013-.98,5.3-3.14-.58a1.888,1.888,0,0,0-.355-.033,1.94,1.94,0,0,0-.748,3.729l4.415,1.848-2.081,4.972-2.549-1.067a.383.383,0,0,0-.159-.027A20.694,20.694,0,0,0,3953.2,2478.4Zm-23.36,35.457a2.244,2.244,0,0,1-2.241-2.241v-2.5a2.244,2.244,0,0,1,2.241-2.241h.18c0,.263-.008.526-.008.8,0,2.257.091,4.311.262,6.187Zm46.72-6.982a2.244,2.244,0,0,1,2.241,2.241v2.5a2.244,2.244,0,0,1-2.241,2.241h-.434c.171-1.876.262-3.93.262-6.187,0-.269,0-.532-.008-.8Zm-2.5.8c0,10.572-1.989,17.245-6.081,20.4-3.664,2.826-8.885,2.826-13.934,2.826h-1.689c-5.049,0-10.27,0-13.934-2.826-4.092-3.158-6.082-9.831-6.082-20.4,0-1.088.035-2.135.1-3.122h41.512C3974.029,2505.539,3974.064,2506.586,3974.064,2507.674Zm-20.86-5.45h-18.266c-.069-.988-.1-2.035-.1-3.123a18.37,18.37,0,0,1,36.74,0c0,1.087-.035,2.135-.1,3.123Z" transform="translate(-3924.499 -2473.956)" fill="#fff"/>
  <path id="Path_497" data-name="Path 497" d="M3978.528,2501.927a.776.776,0,1,0-.537-1.455l-4.985,1.838a.776.776,0,1,0,.537,1.456Z" transform="translate(-3953.88 -2490.157)" fill="#fff"/>
  <path id="Path_498" data-name="Path 498" d="M4013.676,2502.31l-4.985-1.838a.776.776,0,1,0-.537,1.455l4.985,1.839a.776.776,0,0,0,.537-1.456Z" transform="translate(-3975.394 -2490.157)" fill="#fff"/>
</svg>
