<svg width="73" height="80" viewBox="0 0 73 80" fill="none" xmlns="http://www.w3.org/2000/svg">
<path d="M46.2691 4.60712L45.5191 7.15216C46.3664 7.39618 47.2008 7.68288 48.0191 8.01117L48.7691 5.45013C47.9551 5.13813 47.1121 4.85712 46.2691 4.60712ZM26.4071 4.48212L25.892 7.40216C26.8235 7.08728 27.7725 6.82651 28.7341 6.62115L29.2181 3.79517C28.2697 3.97614 27.3321 4.20539 26.4071 4.48212ZM50.22 6.04413L49.47 8.62115C56.3944 11.6846 62.0556 17.035 65.5046 23.7756C68.9536 30.5163 69.9809 38.2376 68.4145 45.6456C66.8481 53.0536 62.783 59.6981 56.9006 64.4656C51.0182 69.2331 43.6759 71.8339 36.1041 71.8322C35.2291 71.8322 34.371 71.8011 33.527 71.7231L31.7471 74.2061C33.1918 74.3945 34.6472 74.4884 36.1041 74.4871C44.3159 74.4889 52.277 71.6577 58.6437 66.4713C65.0105 61.2849 69.3932 54.061 71.0522 46.0184C72.7112 37.9759 71.5449 29.6073 67.7501 22.3248C63.9553 15.0424 57.7644 9.29202 50.2221 6.04413H50.22ZM3.07807 38.8051C3.08597 32.1366 5.10929 25.6262 8.88252 20.1279C12.6557 14.6295 18.0027 10.4 24.2221 7.99414L24.7371 4.99414C17.6498 7.37322 11.4893 11.9195 7.12653 17.9905C2.76375 24.0615 0.419191 31.35 0.424386 38.826C0.429582 46.3021 2.78424 53.5874 7.15547 59.6523C11.5267 65.7172 17.6935 70.2549 24.7841 72.6241L25.5341 70.0792C18.9942 67.8635 13.3119 63.6561 9.28462 58.0471C5.2573 52.4382 3.08696 45.7101 3.07807 38.8051Z" fill="#FF555B"/>
<path d="M59.6831 31.6682C59.6119 31.5356 59.506 31.4248 59.3767 31.3478C59.2474 31.2709 59.0996 31.2305 58.9491 31.2311H41.2571L48.0181 8.01118L48.7681 5.45014L50.0331 1.12513C50.0723 0.992993 50.08 0.853545 50.0555 0.717902C50.031 0.582258 49.975 0.454259 49.8921 0.344183C49.8138 0.235663 49.7104 0.147678 49.5908 0.0877747C49.4712 0.0278714 49.3388 -0.00222585 49.2051 0.0001282H27.9051C27.7004 -0.000432137 27.5018 0.0713074 27.3447 0.202643C27.1876 0.333978 27.0819 0.516508 27.0461 0.718146L26.4061 4.48115L25.8911 7.40113L19.0831 46.9862C19.0601 47.1014 19.0636 47.2203 19.0934 47.334C19.1232 47.4477 19.1785 47.553 19.2551 47.6422C19.3312 47.7346 19.4266 47.8093 19.5345 47.8611C19.6425 47.9129 19.7604 47.9406 19.8801 47.9421H33.6211L27.0161 70.5532L26.2821 73.0982L24.8921 77.8452C24.8216 78.0675 24.8351 78.308 24.93 78.521C25.025 78.734 25.1947 78.9049 25.4071 79.0012C25.615 79.1106 25.856 79.1393 26.0839 79.0817C26.3117 79.0241 26.5102 78.8843 26.6411 78.6892L30.0142 73.9732L31.7471 71.5372L59.6201 32.5302C59.707 32.4054 59.7587 32.2595 59.7698 32.1078C59.7809 31.9561 59.751 31.8043 59.6831 31.6682ZM30.2021 69.1451L37.102 45.4882L37.165 45.2882H22.0651L28.732 6.62513L29.2161 3.79914L29.4161 2.65919H46.8271L46.2651 4.61115L45.5151 7.15613L37.7701 33.6862L37.7081 33.8862H55.3842L30.2021 69.1451Z" fill="#FF555B"/>
</svg>
