<svg id="profit_sniper" data-name="profit sniper" xmlns="http://www.w3.org/2000/svg" width="64.306" height="57.651" viewBox="0 0 64.306 57.651">
  <path id="Path_427" data-name="Path 427" d="M386.453,2583.405l1.646,2.606a1.565,1.565,0,0,0,1.323.729h10.957a.794.794,0,0,0,.794-.793h0a15.977,15.977,0,0,0-4.275-10.888,3.483,3.483,0,0,0-2.553-1.118H375.915a3.483,3.483,0,0,0-2.553,1.118,15.978,15.978,0,0,0-4.275,10.888v.008a.787.787,0,0,0,.787.787h10.963a1.565,1.565,0,0,0,1.324-.729l1.646-2.606A1.565,1.565,0,0,1,386.453,2583.405Zm5.659-5.586a2.327,2.327,0,1,1-2.327,2.327A2.327,2.327,0,0,1,392.112,2577.819Zm-13.964,4.655a2.327,2.327,0,1,1,2.327-2.327A2.327,2.327,0,0,1,378.148,2582.474Z" transform="translate(-348.752 -2562.423)" fill="#fff"/>
  <path id="Path_428" data-name="Path 428" d="M376.4,2573.221h-.273c-.017-.263-.036-.524-.058-.78a1.685,1.685,0,0,0-1.677-1.548h-.755c.065-.987.1-2.025.1-3.122a20.6,20.6,0,0,0-2.889-10.546l.578-.6a4.085,4.085,0,0,0-.112-5.77l-.414-.4,1.568-1.631a2.327,2.327,0,1,0-1.678-1.613l-1.568,1.63-.414-.4a4.081,4.081,0,0,0-5.769.112l-.7.726a20.682,20.682,0,0,0-18.6,0l-.7-.726a4.085,4.085,0,0,0-5.769-.112l-.414.4-1.569-1.63a2.328,2.328,0,1,0-1.677,1.614l1.568,1.63-.414.4a4.086,4.086,0,0,0-.111,5.77l.578.6a20.6,20.6,0,0,0-2.889,10.546c0,1.1.035,2.136.1,3.122h-.755a1.686,1.686,0,0,0-1.677,1.548c-.022.256-.041.517-.058.78h-.273a4.575,4.575,0,0,0-4.569,4.569v1.456l-.8.577,0,0a1.957,1.957,0,0,0-1.78-1.151h-1.775a1.951,1.951,0,0,0-.784.166l-2.036-1.264a.58.58,0,0,0-.8.187l-.389.627a.58.58,0,0,0,.187.8l1.889,1.173a1.981,1.981,0,0,0-.028.273v4.385a1.954,1.954,0,0,0,1.424,1.877v5.779h2.848V2590.3h.312a2.773,2.773,0,0,0,2.773-2.773v-4.338a4.561,4.561,0,0,0,3.526,1.667h.7c2.336,16.8,12.087,17.042,21.816,17.042h1.689c9.731,0,19.481-.239,21.817-17.042h.7a4.573,4.573,0,0,0,4.569-4.568v-2.5A4.574,4.574,0,0,0,376.4,2573.221Zm-11.684-23.05a1.754,1.754,0,0,1,2.479-.048l2.505,2.41a1.755,1.755,0,0,1,.048,2.478l-.23.24a20.811,20.811,0,0,0-5.1-4.768Zm-28.385,4.84a1.755,1.755,0,0,1,.048-2.478l2.506-2.41a1.754,1.754,0,0,1,2.478.048l.3.312a20.791,20.791,0,0,0-5.1,4.767Zm-1.662,12.76a18.37,18.37,0,1,1,36.74,0c0,1.087-.035,2.135-.1,3.122H334.776C334.707,2569.907,334.671,2568.859,334.671,2567.771Zm-11.289,21.5h-.312V2586.9a1.955,1.955,0,0,0,1.424-1.877v-.719h0l.625-.456v3.685A1.741,1.741,0,0,1,323.383,2589.268Zm6.3-6.737a2.244,2.244,0,0,1-2.241-2.241v-2.5a2.244,2.244,0,0,1,2.241-2.242h.18c0,.262-.008.526-.008.795,0,2.257.091,4.311.261,6.187Zm38.139,14.215c-3.663,2.826-8.885,2.826-13.934,2.826H352.2c-5.049,0-10.27,0-13.934-2.827-4.092-3.157-6.081-9.83-6.081-20.4,0-1.087.035-2.135.1-3.123H373.8c.069.988.1,2.035.1,3.123C373.9,2586.916,371.913,2593.589,367.82,2596.746Zm10.822-16.456a2.244,2.244,0,0,1-2.241,2.241h-.434c.171-1.876.261-3.93.261-6.187,0-.269,0-.533-.008-.795h.18a2.244,2.244,0,0,1,2.241,2.242Z" transform="translate(-316.664 -2544.248)" fill="#fff"/>
  <path id="Path_429" data-name="Path 429" d="M392.694,2622.94a11.249,11.249,0,0,0,0,22.5h0a11.249,11.249,0,0,0,0-22.5Zm1.164,19.7v-1.858a1.164,1.164,0,0,0-2.327,0v1.858a8.549,8.549,0,0,1-7.289-7.289H386.1a1.164,1.164,0,1,0,0-2.327h-1.858a8.55,8.55,0,0,1,7.289-7.289v1.858a1.164,1.164,0,1,0,2.327,0v-1.858a8.549,8.549,0,0,1,7.289,7.289h-1.858a1.164,1.164,0,1,0,0,2.327h1.858A8.548,8.548,0,0,1,393.858,2642.641Z" transform="translate(-356.316 -2592.416)" fill="#fff"/>
  <path id="Path_430" data-name="Path 430" d="M405.977,2642.5c0-.348.239-.566.643-.566.446,0,.675.25.675.751h1.59a2.024,2.024,0,0,0-1.6-2.178v-.84h-1.307v.84a1.909,1.909,0,0,0-1.568,1.949c0,2.321,2.985,2.473,2.985,3.737a.667.667,0,0,1-.763.675c-.491,0-.8-.262-.8-.871h-1.59a2.131,2.131,0,0,0,1.732,2.321v.827h1.307v-.839a2.054,2.054,0,0,0,1.721-2.1C409.006,2643.774,405.977,2643.7,405.977,2642.5Z" transform="translate(-370.272 -2602.654)" fill="#fff"/>
  <path id="Path_431" data-name="Path 431" d="M326.686,2670.315h-2.848l-1.251,5.006a.555.555,0,0,0,.538.69H327.4a.555.555,0,0,0,.538-.69Z" transform="translate(-320.279 -2621.414)" fill="#fff"/>
</svg>
