<svg id="pullback_artist" data-name="pullback artist" xmlns="http://www.w3.org/2000/svg" width="55.857" height="65.84" viewBox="0 0 55.857 65.84">
  <path id="Path_440" data-name="Path 440" d="M1112.2,2588.255v0a15.975,15.975,0,0,0-4.275-10.887,3.48,3.48,0,0,0-2.553-1.118h-18.429a3.48,3.48,0,0,0-2.553,1.118,15.977,15.977,0,0,0-4.275,10.887v.008a.787.787,0,0,0,.787.787h30.5A.794.794,0,0,0,1112.2,2588.255Zm-29.672-1.534a13.668,13.668,0,0,1,3.569-7.774,1.159,1.159,0,0,1,.846-.372h18.429a1.159,1.159,0,0,1,.846.372,13.666,13.666,0,0,1,3.569,7.774Z" transform="translate(-1068.225 -2556.542)" fill="#fff"/>
  <circle id="Ellipse_128" data-name="Ellipse 128" cx="2.327" cy="2.327" r="2.327" transform="translate(18.619 23.585)" fill="#fff"/>
  <circle id="Ellipse_129" data-name="Ellipse 129" cx="2.327" cy="2.327" r="2.327" transform="translate(32.584 23.585)" fill="#fff"/>
  <path id="Path_441" data-name="Path 441" d="M1100.758,2562.607h-.273c-.017-.263-.036-.525-.058-.78a1.686,1.686,0,0,0-1.677-1.548h-.756c.066-.986.1-2.025.1-3.123a20.642,20.642,0,0,0-6.835-15.367l1.813-1.813a2.345,2.345,0,0,0-.917-3.883l-8.163-2.721a20.836,20.836,0,0,0-5.432-1.034v-2.553a2.327,2.327,0,1,0-2.327,0v2.553a20.84,20.84,0,0,0-5.432,1.034l-8.163,2.721a2.345,2.345,0,0,0-.917,3.883l1.813,1.813a20.642,20.642,0,0,0-6.835,15.367c0,1.1.035,2.136.1,3.123h-.755a1.686,1.686,0,0,0-1.677,1.548c-.022.255-.04.516-.058.78h-.273a4.573,4.573,0,0,0-4.569,4.568v2.5a4.574,4.574,0,0,0,4.569,4.569h.7c2.336,16.8,12.086,17.041,21.816,17.041h1.689c9.73,0,19.48-.238,21.816-17.041h.7a4.574,4.574,0,0,0,4.568-4.569v-2.5A4.573,4.573,0,0,0,1100.758,2562.607Zm-41.73-5.45a18.327,18.327,0,0,1,6.2-13.744h24.341a18.326,18.326,0,0,1,6.2,13.744c0,1.088-.035,2.135-.1,3.123h-36.531C1059.063,2559.292,1059.028,2558.245,1059.028,2557.157Zm-4.99,14.759a2.243,2.243,0,0,1-2.241-2.241v-2.5a2.244,2.244,0,0,1,2.241-2.241h.18c0,.263-.008.526-.008.8,0,2.256.091,4.311.262,6.187Zm38.139,14.216c-3.663,2.826-8.885,2.826-13.934,2.826h-1.689c-5.049,0-10.27,0-13.934-2.826-4.092-3.157-6.082-9.831-6.082-20.4,0-1.088.035-2.136.1-3.123h41.512c.069.988.1,2.035.1,3.123C1098.258,2576.3,1096.269,2582.975,1092.177,2586.132ZM1103,2569.675a2.244,2.244,0,0,1-2.241,2.241h-.434c.171-1.875.262-3.93.262-6.187,0-.27,0-.533-.008-.8h.18a2.244,2.244,0,0,1,2.241,2.241Z" transform="translate(-1049.469 -2525.445)" fill="#fff"/>
</svg>
