<svg width="510" height="606" viewBox="0 0 510 606" fill="none" xmlns="http://www.w3.org/2000/svg">
<g clip-path="url(#clip0_4194_232)">
<path d="M389.308 162.57C382.236 155.144 374.456 148.426 365.97 142.414C365.97 142.768 365.97 142.768 365.97 143.121H325.304C337.68 148.779 348.996 155.852 359.251 164.338C397.442 195.103 422.195 242.134 422.195 295.177C422.195 305.078 421.841 314.626 421.134 323.467H88.3794C87.6721 314.626 87.3185 304.725 87.3185 295.177C87.3185 242.488 112.072 195.103 150.263 164.338C160.517 155.852 172.187 148.779 184.21 143.121H143.897C143.897 142.768 143.897 142.768 143.897 142.414C135.764 148.426 127.631 155.144 120.559 162.57C86.9649 196.518 66.1014 243.549 66.1014 295.177C66.1014 307.907 66.4551 319.577 67.5159 330.893C68.2231 339.026 74.9419 345.037 82.7215 345.037H426.792C434.925 345.037 441.29 339.026 441.998 330.893C443.058 319.93 443.412 307.907 443.412 295.177C443.766 243.549 422.902 196.518 389.308 162.57Z" fill="white"/>
<path d="M444.119 344.682C444.826 353.522 445.18 363.07 445.18 372.971C445.18 469.509 427.146 530.331 389.662 558.974C356.422 584.789 308.683 584.789 262.713 584.789H258.823H254.934H251.044H247.154C201.184 584.789 153.445 584.789 120.205 558.974C82.7215 530.331 64.687 469.509 64.687 372.971C64.687 363.07 65.0406 353.522 65.7478 344.682H254.934H444.119ZM449.423 323.465H254.934H60.4435C52.3103 323.465 45.9452 329.476 45.238 337.61C44.1771 348.572 43.8235 360.595 43.8235 373.325C43.8235 603.53 145.666 606.359 247.508 606.359C249.983 606.359 252.812 606.359 255.287 606.359C257.762 606.359 260.591 606.359 263.067 606.359C364.909 606.359 466.751 603.53 466.751 373.325C466.751 360.595 466.397 348.925 465.336 337.61C464.275 329.476 457.557 323.465 449.423 323.465Z" fill="white"/>
<path d="M191.282 263.348C203 263.348 212.499 253.849 212.499 242.131C212.499 230.413 203 220.914 191.282 220.914C179.565 220.914 170.065 230.413 170.065 242.131C170.065 253.849 179.565 263.348 191.282 263.348Z" fill="white"/>
<path d="M318.585 263.348C330.303 263.348 339.802 253.849 339.802 242.131C339.802 230.413 330.303 220.914 318.585 220.914C306.867 220.914 297.368 230.413 297.368 242.131C297.368 253.849 306.867 263.348 318.585 263.348Z" fill="white"/>
<path d="M467.812 450.769H452.96V429.552H467.812C479.127 429.552 488.322 420.358 488.322 409.042V386.411C488.322 375.095 479.127 365.901 467.812 365.901H449.424V344.684H467.812C490.797 344.684 509.539 363.425 509.539 386.411V409.042C509.539 432.027 490.797 450.769 467.812 450.769Z" fill="white"/>
<path d="M56.9074 450.769H42.0554C19.0703 450.769 0.328491 432.027 0.328491 409.042V386.411C0.328491 363.425 19.0703 344.684 42.0554 344.684H60.4436V365.901H42.0554C30.7396 365.901 21.5456 375.095 21.5456 386.411V409.042C21.5456 420.358 30.7396 429.552 42.0554 429.552H56.9074V450.769Z" fill="white"/>
<path d="M389.308 162.562C388.601 99.9714 345.106 47.9895 286.759 33.8448C279.687 32.0767 272.615 31.0158 265.189 30.3086C265.542 31.0158 265.542 31.7231 265.542 32.4303V51.5257C272.968 52.2329 280.04 53.6474 286.759 55.7691C326.718 67.4385 357.836 101.032 365.97 142.406C365.97 142.759 365.97 142.759 365.97 143.113H143.898C143.898 142.759 143.898 142.759 143.898 142.406C152.031 101.032 183.149 67.4385 223.108 55.7691C229.827 53.6474 236.899 52.2329 244.325 51.5257V32.4303C244.325 31.7231 244.325 31.0158 244.679 30.3086C237.253 31.0158 230.18 32.0767 223.108 33.8448C164.761 47.9895 121.266 99.9714 120.559 162.562C120.559 163.269 120.559 163.623 120.559 164.33H389.308C389.308 163.623 389.308 163.269 389.308 162.562Z" fill="white"/>
<path d="M252.812 0.605501C235.838 1.66636 223.108 16.5183 223.108 33.492V65.3176C223.108 71.3291 227.705 75.9262 233.716 75.9262C239.728 75.9262 244.325 71.3291 244.325 65.3176V32.4311C244.325 31.7239 244.325 31.0167 244.679 30.3094C245.386 25.3588 249.983 21.8226 254.934 21.8226C259.884 21.8226 264.481 25.3588 265.188 30.3094C265.542 31.0167 265.542 31.7239 265.542 32.4311V65.3176C265.542 71.3291 270.139 75.9262 276.151 75.9262C282.162 75.9262 286.759 71.3291 286.759 65.3176V32.4311C286.759 14.043 271.2 -0.455354 252.812 0.605501Z" fill="white"/>
<path d="M254.934 196.165C220.279 196.165 191.282 176.716 191.282 153.73H170.065C170.065 188.739 207.902 217.382 254.934 217.382C301.965 217.382 339.802 188.739 339.802 153.73H318.585C318.585 176.716 289.588 196.165 254.934 196.165Z" fill="white"/>
<path d="M254.933 380.045L281.455 426.016L307.976 471.986H254.933H201.891L228.412 426.016L254.933 380.045ZM254.933 358.121C250.336 358.121 245.739 360.243 243.264 364.84L213.207 417.175L183.149 469.511C177.845 478.705 184.563 489.667 194.818 489.667H254.933H315.402C325.657 489.667 332.376 478.351 327.072 469.511L297.014 417.175L266.603 364.84C264.128 360.243 259.531 358.121 254.933 358.121Z" fill="white"/>
<path d="M254.933 500.27C245.032 500.27 237.252 508.049 237.252 517.95V556.848C237.252 566.75 245.032 574.529 254.933 574.529C264.835 574.529 272.614 566.75 272.614 556.848V517.95C272.614 508.049 264.835 500.27 254.933 500.27Z" fill="white"/>
<path d="M254.933 514.421C251.044 514.421 247.861 511.238 247.861 507.349V443.697C247.861 439.808 251.044 436.625 254.933 436.625C258.823 436.625 262.006 439.808 262.006 443.697V507.349C262.006 511.238 258.823 514.421 254.933 514.421Z" fill="white"/>
</g>
<defs>
<clipPath id="clip0_4194_232">
<rect width="509.21" height="605.394" fill="white" transform="translate(0.328369 0.605469)"/>
</clipPath>
</defs>
</svg>
