<svg width="73" height="80" viewBox="0 0 73 80" fill="none" xmlns="http://www.w3.org/2000/svg">
<path fill-rule="evenodd" clip-rule="evenodd" d="M16.193 49.56L16.3351 49.6089L31.6121 6.05197C32.1801 5.97297 32.7651 5.90996 33.3501 5.87796C34.2636 5.78794 35.1811 5.74584 36.099 5.75192C43.6284 5.75716 50.9356 8.30432 56.8368 12.9807C62.7379 17.6572 66.8874 24.1889 68.613 31.5179L71.583 32.5619C70.0349 24.2794 65.6414 16.7981 59.1621 11.4115C52.6828 6.02483 44.525 3.07142 36.099 3.06192C34.4497 3.05721 32.8023 3.17386 31.17 3.41091C30.1125 3.54335 29.0629 3.73332 28.026 3.97995C26.5268 4.30831 25.0539 4.74647 23.619 5.29092C22.4732 5.71101 21.3501 6.19036 20.254 6.72695C19.337 7.18695 18.437 7.66095 17.568 8.19595C16.794 8.65595 16.0361 9.14494 15.3091 9.66494C14.4721 10.2509 13.6821 10.8649 12.9091 11.5309C12.4821 11.8609 12.056 12.2399 11.645 12.6209C11.171 13.0629 10.713 13.5209 10.27 13.9799C9.65402 14.6099 9.053 15.2599 8.5 15.9389C6.48313 18.3213 4.78401 20.9553 3.44507 23.7749C2.16361 26.463 1.22912 29.3031 0.664062 32.227C0.225725 34.513 0.00335004 36.8352 0 39.1629V39.3529C0 39.9219 0.0159971 40.4889 0.0469971 41.0429C0.0939971 42.0429 0.189055 43.0339 0.331055 43.9969L3.20605 45.008L16.193 49.56ZM18.7841 10.6179C18.6489 10.9712 18.4043 11.272 18.0861 11.4764C17.7678 11.6808 17.3925 11.778 17.015 11.7539C17.583 11.3579 18.1831 10.9629 18.7841 10.6169V10.6179ZM11.327 18.201C12.2528 18.2038 13.1715 18.3634 14.0441 18.6729C17.4571 19.8729 19.494 22.9399 18.594 25.5309C18.3479 26.1556 17.9646 26.717 17.4723 27.1736C16.98 27.6302 16.3914 27.9704 15.75 28.1689C14.1217 28.7003 12.3609 28.6608 10.7581 28.0569C9.77113 27.7465 8.86237 27.2278 8.09326 26.5358C7.32415 25.8438 6.71262 24.9947 6.30005 24.0459C7.3294 22.0151 8.56951 20.0982 10 18.3269C10.4375 18.2444 10.8818 18.2022 11.327 18.201ZM2.71606 40.3189C2.70847 40.3102 2.70422 40.299 2.70422 40.2874C2.70422 40.2759 2.70847 40.2647 2.71606 40.2559C2.68506 39.8909 2.68506 39.5289 2.68506 39.1659C2.68097 36.9425 2.90308 34.7244 3.34802 32.5459C3.60107 31.2726 3.93509 30.0167 4.34802 28.7859C4.53702 28.2009 4.74299 27.6329 4.96399 27.0619C6.21282 28.7044 7.92361 29.9367 9.87708 30.6009C11.0337 31.0081 12.2509 31.2164 13.4771 31.2169C14.5522 31.223 15.6206 31.0471 16.6371 30.6969C17.6598 30.3953 18.597 29.8571 19.3729 29.1258C20.1488 28.3944 20.7415 27.4907 21.103 26.4876C21.4645 25.4845 21.5846 24.4103 21.4536 23.3521C21.3226 22.294 20.9442 21.2816 20.349 20.3969C19.0866 18.3945 17.1729 16.888 14.9301 16.1309C14.1316 15.8552 13.3048 15.6697 12.4651 15.5779C13.1291 14.8989 13.824 14.2669 14.551 13.6499C14.8832 13.8806 15.2443 14.0665 15.625 14.2029C16.1033 14.3661 16.6048 14.4516 17.1101 14.456C17.7737 14.4551 18.4288 14.3079 19.0289 14.0247C19.629 13.7415 20.1593 13.3294 20.5818 12.8178C21.0043 12.3061 21.3088 11.7075 21.4734 11.0647C21.638 10.4219 21.6587 9.75071 21.5341 9.09896C22.0081 8.86396 22.4981 8.64192 22.9871 8.43692C23.7397 8.10103 24.5099 7.80566 25.2941 7.55197C26.1471 7.25197 27 6.99892 27.885 6.77792L28.4541 6.98294L14.693 46.1829L2.81201 42.0279C2.76401 41.4569 2.71606 40.8859 2.71606 40.3189ZM16.635 57.208L32.165 12.924L32.307 12.9719L55.563 21.1229L40.033 65.408L39.891 65.359L16.635 57.208ZM33.808 16.3489L20.047 55.549L38.389 61.979L52.15 22.7789L33.808 16.3489ZM71.866 34.332C72.009 35.295 72.104 36.286 72.151 37.286C72.183 37.837 72.199 38.406 72.196 38.979V39.169C72.1926 41.4967 71.9702 43.8189 71.532 46.105C70.9596 49.0218 70.0254 51.8557 68.751 54.541C67.4224 57.3643 65.7338 60.0036 63.7271 62.393C63.1431 63.072 62.559 63.72 61.927 64.352C61.485 64.811 61.027 65.267 60.553 65.711C60.1699 66.0643 59.7738 66.4027 59.376 66.7426L59.3759 66.7427L59.3759 66.7427L59.3758 66.7428L59.3758 66.7428L59.3757 66.7429L59.2889 66.817C58.5159 67.463 57.711 68.081 56.889 68.648C56.1674 69.1823 55.4183 69.6787 54.645 70.135C53.7617 70.657 52.8616 71.1464 51.9449 71.603C50.8492 72.1412 49.726 72.6215 48.58 73.042C47.1445 73.5854 45.6713 74.0232 44.172 74.352C43.1351 74.599 42.0855 74.7893 41.028 74.922C39.3955 75.1572 37.7483 75.2735 36.099 75.27C27.673 75.2605 19.5152 72.3071 13.0359 66.9205C6.55659 61.5338 2.16309 54.0526 0.61499 45.77L3.58496 46.811C5.30972 54.1406 9.45894 60.6732 15.3602 65.3501C21.2615 70.027 28.5692 72.5742 36.099 72.579C37.0169 72.5854 37.9345 72.5437 38.848 72.454C39.433 72.423 40.0171 72.36 40.5861 72.279L55.863 28.724L56.005 28.771L68.991 33.321L71.866 34.332ZM54.0479 66.8964C53.7429 67.111 53.5109 67.4137 53.3831 67.764C53.9991 67.3833 54.601 66.989 55.189 66.581C55.1579 66.5661 55.1233 66.5603 55.089 66.564C54.7161 66.5659 54.3528 66.6819 54.0479 66.8964ZM53.604 52.803C52.703 55.392 54.7411 58.458 58.1541 59.658V59.655C59.441 60.125 60.828 60.2521 62.179 60.024C63.6237 58.2516 64.8649 56.3225 65.879 54.273C65.4673 53.3282 64.8582 52.4824 64.0925 51.7925C63.3269 51.1026 62.4224 50.5845 61.4399 50.273C60.5674 49.9634 59.6488 49.8039 58.723 49.801C57.9502 49.7988 57.182 49.9211 56.448 50.163C55.8063 50.3617 55.2175 50.702 54.7252 51.159C54.2329 51.616 53.8498 52.1779 53.604 52.803ZM67.238 51.268C67.4739 50.7061 67.6795 50.1319 67.854 49.548V49.546C68.2666 48.3128 68.6003 47.0546 68.853 45.779C69.2977 43.6005 69.5198 41.3824 69.516 39.159V39.1585C69.516 38.7937 69.516 38.4319 69.484 38.069C69.4918 38.06 69.496 38.0484 69.496 38.0365C69.496 38.0246 69.4918 38.0131 69.484 38.004C69.484 37.4533 69.4383 36.8996 69.3924 36.3441L69.3923 36.3439L69.389 36.304L57.5081 32.149L43.7469 71.349L44.316 71.554C45.201 71.333 46.054 71.08 46.907 70.78C47.6905 70.5242 48.4604 70.2289 49.214 69.895C49.703 69.69 50.193 69.469 50.667 69.23C50.519 68.453 50.578 67.6507 50.8383 66.9037C51.0985 66.1567 51.5507 65.4915 52.1495 64.9746C52.7483 64.4578 53.4726 64.1076 54.2496 63.9594C55.0266 63.8111 55.829 63.87 56.576 64.13C56.9564 64.2664 57.3174 64.4517 57.65 64.681C58.375 64.066 59.071 63.419 59.75 62.755C58.1567 62.5936 56.6198 62.0769 55.2526 61.2429C53.8854 60.4089 52.7226 59.2788 51.85 57.936C51.2548 57.0513 50.8764 56.0388 50.7455 54.9806C50.6146 53.9224 50.7347 52.8482 51.0963 51.8451C51.4579 50.842 52.0508 49.9382 52.8268 49.2069C53.6028 48.4756 54.5402 47.9375 55.563 47.636C57.7628 46.9016 60.1466 46.9351 62.325 47.731C64.2779 48.3952 65.9885 49.6267 67.238 51.268ZM38.6271 31.9299C36.4475 31.1411 34.066 31.1077 31.8651 31.835C30.8423 32.1364 29.9049 32.6746 29.1289 33.4059C28.3529 34.1372 27.76 35.041 27.3984 36.0441C27.0368 37.0472 26.9167 38.1213 27.0476 39.1795C27.1785 40.2377 27.5569 41.2502 28.1521 42.135C29.4149 44.1367 31.3285 45.6424 33.571 46.3989C34.7276 46.8061 35.945 47.0144 37.1711 47.015C38.2462 47.021 39.3145 46.8452 40.331 46.4949C41.3538 46.1935 42.2912 45.6554 43.0672 44.9241C43.8433 44.1928 44.4361 43.289 44.7977 42.2859C45.1593 41.2828 45.2795 40.2086 45.1485 39.1504C45.0176 38.0922 44.6392 37.0797 44.0441 36.195C42.7819 34.1932 40.8691 32.6871 38.6271 31.9299ZM42.2921 41.33C42.0459 41.9546 41.6625 42.516 41.1703 42.9726C40.678 43.4292 40.0895 43.7694 39.4481 43.968C37.8198 44.4994 36.0589 44.4599 34.456 43.856C31.043 42.656 29.0051 39.59 29.9061 37.001C30.1519 36.3759 30.5352 35.814 31.0275 35.3571C31.5197 34.9001 32.1085 34.5597 32.7501 34.361C33.4841 34.119 34.2523 33.9968 35.0251 33.999C35.951 34.0018 36.8695 34.1614 37.7421 34.471C41.1551 35.674 43.1921 38.739 42.2921 41.33ZM31.1366 48.0842C31.7269 48.0508 32.318 48.134 32.8761 48.329C33.7164 48.6234 34.4507 49.1601 34.9863 49.8715C35.5219 50.5828 35.8349 51.4369 35.8856 52.3259C35.9363 53.2149 35.7225 54.0989 35.2712 54.8665C34.82 55.6341 34.1515 56.2509 33.3501 56.639C32.7393 56.9337 32.0692 57.0845 31.3911 57.08C30.8852 57.084 30.3826 56.999 29.9061 56.829C29.348 56.634 28.8337 56.331 28.3927 55.9372C27.9517 55.5434 27.5926 55.0667 27.3358 54.5341C27.0791 54.0016 26.9298 53.4237 26.8964 52.8334C26.8629 52.2432 26.9461 51.6521 27.1411 51.094C27.3361 50.5359 27.6391 50.0216 28.0328 49.5806C28.4266 49.1396 28.9034 48.7805 29.4359 48.5238C29.9685 48.267 30.5463 48.1176 31.1366 48.0842ZM32.1831 54.2192C32.6186 54.0092 32.953 53.6351 33.113 53.179C33.1929 52.9539 33.2263 52.7152 33.213 52.4767C33.1997 52.2382 33.1391 52.0047 33.0347 51.7899C32.9302 51.5751 32.7841 51.3832 32.6047 51.2255C32.4254 51.0677 32.2165 50.9472 31.9901 50.871C31.7971 50.8031 31.5947 50.7656 31.3901 50.76C31.0142 50.7595 30.6475 50.8766 30.3415 51.095C30.0356 51.3135 29.8056 51.6222 29.6841 51.978C29.5991 52.2023 29.5622 52.4419 29.5758 52.6814C29.5894 52.9209 29.6532 53.1548 29.7631 53.368C29.8621 53.5848 30.0042 53.7791 30.1808 53.9392C30.3573 54.0992 30.5646 54.2217 30.79 54.299C31.2466 54.4579 31.7476 54.4291 32.1831 54.2192ZM39.324 30.003C39.8023 30.1661 40.3037 30.2516 40.8091 30.256C41.8741 30.2588 42.9055 29.8838 43.72 29.1976C44.5345 28.5115 45.0793 27.5588 45.2574 26.5088C45.4356 25.4588 45.2356 24.3797 44.693 23.4633C44.1504 22.5469 43.3004 21.8526 42.2941 21.504C41.7365 21.3034 41.1443 21.2169 40.5527 21.2495C39.9611 21.2822 39.382 21.4333 38.85 21.694C38.0485 22.082 37.3801 22.6988 36.9288 23.4664C36.4776 24.2341 36.2639 25.1182 36.3146 26.0072C36.3653 26.8961 36.6781 27.7502 37.2137 28.4615C37.7493 29.1728 38.4836 29.7086 39.324 30.003ZM42.515 26.353C42.4366 26.5773 42.3145 26.7838 42.1559 26.9606C41.9972 27.1375 41.8052 27.2812 41.5907 27.3835C41.3762 27.4858 41.1435 27.5445 40.9062 27.5565C40.6689 27.5684 40.4316 27.5332 40.208 27.453C39.8682 27.3355 39.5709 27.1196 39.3541 26.8328C39.1373 26.546 39.0107 26.2012 38.9903 25.8422C38.97 25.4832 39.0567 25.1263 39.2397 24.8168C39.4227 24.5073 39.6937 24.2591 40.0181 24.104C40.264 23.9846 40.5347 23.9256 40.808 23.932C41.0117 23.9327 41.2141 23.9648 41.4081 24.027C41.6337 24.1042 41.8411 24.2267 42.0177 24.387C42.1943 24.5472 42.3364 24.7419 42.4351 24.959C42.5454 25.1728 42.6095 25.4074 42.6229 25.6477C42.6364 25.8879 42.5989 26.1282 42.5131 26.353H42.515ZM62.5489 37.4967C63.6244 36.9781 64.8619 36.9081 65.989 37.3019C66.9953 37.6506 67.8454 38.3458 68.388 39.2622C68.9306 40.1786 69.1306 41.2577 68.9524 42.3077C68.7743 43.3577 68.2295 44.3104 67.4149 44.9965C66.6004 45.6827 65.569 46.0577 64.5041 46.0549C63.9987 46.0504 63.4974 45.965 63.0191 45.8019C61.8919 45.4081 60.9673 44.5826 60.4488 43.507C59.9302 42.4315 59.8602 41.1941 60.2541 40.0669C60.6479 38.9397 61.4733 38.0152 62.5489 37.4967ZM65.8496 42.7581C66.0084 42.5817 66.1309 42.3757 66.21 42.1519H66.2111C66.2955 41.9275 66.3318 41.688 66.3177 41.4487C66.3035 41.2094 66.2393 40.9757 66.1291 40.7629C66.0305 40.5459 65.8886 40.3513 65.7122 40.1911C65.5358 40.0308 65.3285 39.9082 65.1031 39.8309C64.9091 39.7687 64.7068 39.7367 64.5031 39.7359C64.2298 39.7296 63.9589 39.7886 63.713 39.9079C63.277 40.1196 62.9421 40.4947 62.781 40.9519C62.7024 41.1765 62.6691 41.4145 62.683 41.6521C62.6969 41.8896 62.7578 42.1221 62.8621 42.336C62.9664 42.5499 63.1123 42.741 63.2909 42.8982C63.4696 43.0554 63.6777 43.1756 63.9031 43.2519C64.1268 43.3313 64.3639 43.3658 64.601 43.3535C64.838 43.3412 65.0703 43.2823 65.2846 43.1801C65.4988 43.078 65.6908 42.9346 65.8496 42.7581ZM5.73893 32.7257C6.81445 32.2071 8.05194 32.1371 9.17911 32.5309C10.0195 32.8253 10.7537 33.3621 11.2893 34.0734C11.825 34.7847 12.1379 35.6388 12.1886 36.5278C12.2393 37.4168 12.0255 38.3008 11.5743 39.0684C11.123 39.8361 10.4545 40.4528 9.65311 40.8409C9.04237 41.1356 8.37224 41.2864 7.69413 41.2819C7.18824 41.2859 6.6856 41.201 6.20914 41.0309C5.08197 40.6371 4.15737 39.8116 3.63883 38.736C3.12029 37.6605 3.05028 36.4231 3.44413 35.2959C3.83797 34.1688 4.6634 33.2442 5.73893 32.7257ZM8.48612 38.4211C8.92159 38.2111 9.25598 37.8371 9.41605 37.3809C9.49594 37.1558 9.52933 36.9171 9.51603 36.6786C9.50272 36.4401 9.44211 36.2067 9.33768 35.9918C9.23325 35.777 9.08708 35.5852 8.90775 35.4274C8.72842 35.2696 8.51949 35.1491 8.29313 35.0729C8.10011 35.0049 7.8977 34.9675 7.69315 34.9619C7.31721 34.9614 6.95053 35.0785 6.64457 35.297C6.3386 35.5154 6.10865 35.8241 5.98709 36.1799C5.90204 36.4042 5.86509 36.6438 5.8787 36.8833C5.89231 37.1228 5.95616 37.3567 6.06607 37.5699C6.16508 37.7867 6.30723 37.981 6.4838 38.1411C6.66037 38.3011 6.86762 38.4236 7.09305 38.5009C7.54965 38.6598 8.05065 38.6311 8.48612 38.4211Z" fill="#52A1FF"/>
</svg>
