<svg xmlns="http://www.w3.org/2000/svg" width="55.857" height="71.416" viewBox="0 0 55.857 71.416">
  <g id="breakout_unicorn" data-name="breakout unicorn" transform="translate(0)">
    <path id="Path_438" data-name="Path 438" d="M932.2,2588.255v0a15.976,15.976,0,0,0-4.275-10.887,3.48,3.48,0,0,0-2.553-1.118H906.939a3.48,3.48,0,0,0-2.553,1.118,15.977,15.977,0,0,0-4.275,10.887v.008a.787.787,0,0,0,.787.787h30.5A.794.794,0,0,0,932.2,2588.255Zm-29.672-1.534a13.668,13.668,0,0,1,3.569-7.774,1.159,1.159,0,0,1,.846-.372h18.429a1.159,1.159,0,0,1,.846.372,13.668,13.668,0,0,1,3.569,7.774Z" transform="translate(-888.225 -2550.966)" fill="#fff"/>
    <circle id="Ellipse_126" data-name="Ellipse 126" cx="2.327" cy="2.327" r="2.327" transform="translate(18.619 29.161)" fill="#fff"/>
    <circle id="Ellipse_127" data-name="Ellipse 127" cx="2.327" cy="2.327" r="2.327" transform="translate(32.584 29.161)" fill="#fff"/>
    <path id="Path_439" data-name="Path 439" d="M920.758,2553.808h-.273c-.018-.263-.036-.525-.058-.78a1.686,1.686,0,0,0-1.677-1.548H918c.065-.986.1-2.025.1-3.123a20.593,20.593,0,0,0-2.889-10.545l.578-.6a4.08,4.08,0,0,0-.112-5.769l-.414-.4,1.569-1.63a2.327,2.327,0,1,0-1.678-1.614l-1.568,1.631-.414-.4a4.081,4.081,0,0,0-5.769.112l-.7.726a20.514,20.514,0,0,0-3.531-1.387l-4.009-16.036a1.816,1.816,0,0,0-3.524,0l-4.009,16.036a20.536,20.536,0,0,0-3.531,1.387l-.7-.726a4.081,4.081,0,0,0-5.769-.112l-.414.4-1.568-1.631a2.328,2.328,0,1,0-1.677,1.614l1.568,1.63-.414.4a4.079,4.079,0,0,0-.112,5.769l.578.6a20.594,20.594,0,0,0-2.889,10.545c0,1.1.035,2.137.1,3.123h-.755a1.686,1.686,0,0,0-1.677,1.548c-.022.255-.04.517-.058.78h-.273a4.573,4.573,0,0,0-4.569,4.568v2.5a4.574,4.574,0,0,0,4.569,4.569h.7c2.336,16.8,12.086,17.041,21.816,17.041h1.689c9.731,0,19.48-.238,21.816-17.041h.7a4.573,4.573,0,0,0,4.568-4.569v-2.5A4.573,4.573,0,0,0,920.758,2553.808Zm-11.684-23.051a1.754,1.754,0,0,1,2.478-.048l2.505,2.41a1.752,1.752,0,0,1,.048,2.478l-.23.239a20.807,20.807,0,0,0-5.1-4.768ZM897.4,2514.994l3.23,12.918a20.805,20.805,0,0,0-6.459,0Zm-16.708,20.6a1.752,1.752,0,0,1,.048-2.478l2.505-2.41a1.754,1.754,0,0,1,2.478.048l.3.312a20.807,20.807,0,0,0-5.1,4.768Zm-1.662,12.76a18.37,18.37,0,1,1,36.74,0c0,1.088-.035,2.135-.1,3.123H879.132C879.063,2550.493,879.028,2549.446,879.028,2548.358Zm-4.99,14.76a2.244,2.244,0,0,1-2.241-2.241v-2.5a2.244,2.244,0,0,1,2.241-2.241h.18c0,.263-.008.526-.008.8,0,2.257.091,4.311.261,6.187Zm38.139,14.215c-3.663,2.826-8.885,2.826-13.934,2.826h-1.689c-5.049,0-10.27,0-13.934-2.826-4.092-3.157-6.081-9.831-6.081-20.4,0-1.088.035-2.135.1-3.123h41.512c.069.987.1,2.035.1,3.123C918.258,2567.5,916.269,2574.176,912.177,2577.333ZM923,2560.876a2.244,2.244,0,0,1-2.241,2.241h-.434c.171-1.876.261-3.93.261-6.187,0-.27,0-.532-.008-.8h.18a2.244,2.244,0,0,1,2.241,2.241Z" transform="translate(-869.469 -2511.07)" fill="#fff"/>
  </g>
</svg>
