<svg width="73" height="80" viewBox="0 0 73 80" fill="none" xmlns="http://www.w3.org/2000/svg">
<path d="M36.0972 3.5977C30.1544 3.58853 24.3038 5.06771 19.0794 7.90025C13.855 10.7328 9.42317 14.8285 6.18817 19.8137C6.16805 19.8444 6.15323 19.8781 6.14423 19.9137C6.10167 19.9923 6.06802 20.0755 6.04413 20.1617C6.01578 20.2512 5.99637 20.3433 5.98615 20.4367C5.97623 20.4691 5.97116 20.5028 5.97113 20.5367C5.97255 20.5812 5.98036 20.6253 5.9942 20.6677C6.00279 20.7573 6.02053 20.8457 6.04718 20.9317C6.07336 21.0106 6.10681 21.087 6.14716 21.1597C6.18734 21.2337 6.23489 21.3033 6.28912 21.3677C6.35235 21.4435 6.4224 21.5135 6.49823 21.5767C6.51986 21.6034 6.54505 21.627 6.57318 21.6467C6.60553 21.6677 6.64142 21.6826 6.67914 21.6907C6.75773 21.7326 6.84059 21.7661 6.92621 21.7907C7.01667 21.8194 7.10977 21.8388 7.20416 21.8487C7.23656 21.8587 7.27021 21.8641 7.30414 21.8647H9.64618C9.97967 21.8645 10.3009 21.7388 10.5458 21.5125C10.7908 21.2862 10.9416 20.976 10.9682 20.6435C10.9948 20.3111 10.8953 19.9808 10.6894 19.7185C10.4835 19.4561 10.1863 19.2809 9.85712 19.2277C12.9239 15.1757 16.892 11.8934 21.4472 9.64085C26.0024 7.38826 31.0195 6.22722 36.1011 6.24968C44.8571 6.25973 53.2515 9.74248 59.4429 15.9339C65.6343 22.1253 69.1171 30.5197 69.1271 39.2757C69.1435 44.4951 67.909 49.6424 65.5272 54.2867C65.3732 54.5994 65.3485 54.9602 65.4582 55.2911C65.5679 55.6219 65.8033 55.8965 66.1136 56.0553C66.4239 56.2141 66.7842 56.2446 67.1168 56.1401C67.4493 56.0356 67.7275 55.8045 67.8912 55.4967C70.4639 50.4777 71.7978 44.9157 71.7812 39.2757C71.7701 29.8157 68.0068 20.7463 61.317 14.0577C54.6271 7.36897 45.5573 3.60723 36.0972 3.5977Z" fill="#FF8B00"/>
<path d="M57.1752 21.8658H59.5172C59.869 21.8658 60.2064 21.726 60.4551 21.4772C60.7039 21.2285 60.8437 20.8911 60.8437 20.5392C60.8437 20.1874 60.7039 19.85 60.4551 19.6013C60.2064 19.3525 59.869 19.2128 59.5172 19.2128H57.1752C56.8234 19.2128 56.486 19.3525 56.2372 19.6013C55.9885 19.85 55.8487 20.1874 55.8487 20.5392C55.8487 20.8911 55.9885 21.2285 56.2372 21.4772C56.486 21.726 56.8234 21.8658 57.1752 21.8658Z" fill="#FF8B00"/>
<path d="M22.6052 21.8658H26.9272C27.279 21.8658 27.6164 21.726 27.8652 21.4772C28.1139 21.2285 28.2537 20.8911 28.2537 20.5392C28.2537 20.1874 28.1139 19.85 27.8652 19.6013C27.6164 19.3525 27.279 19.2128 26.9272 19.2128H22.6052C22.2534 19.2128 21.9159 19.3525 21.6672 19.6013C21.4184 19.85 21.2787 20.1874 21.2787 20.5392C21.2787 20.8911 21.4184 21.2285 21.6672 21.4772C21.9159 21.726 22.2534 21.8658 22.6052 21.8658Z" fill="#FF8B00"/>
<path d="M44.2122 19.2128H39.8912C39.5394 19.2128 39.202 19.3525 38.9532 19.6013C38.7045 19.85 38.5647 20.1874 38.5647 20.5392C38.5647 20.8911 38.7045 21.2285 38.9532 21.4772C39.202 21.726 39.5394 21.8658 39.8912 21.8658H44.2122C44.564 21.8658 44.9014 21.726 45.1501 21.4772C45.3989 21.2285 45.5387 20.8911 45.5387 20.5392C45.5387 20.1874 45.3989 19.85 45.1501 19.6013C44.9014 19.3525 44.564 19.2128 44.2122 19.2128Z" fill="#FF8B00"/>
<path d="M52.8542 19.2128H48.5322C48.1804 19.2128 47.8429 19.3525 47.5942 19.6013C47.3454 19.85 47.2057 20.1874 47.2057 20.5392C47.2057 20.8911 47.3454 21.2285 47.5942 21.4772C47.8429 21.726 48.1804 21.8658 48.5322 21.8658H52.8542C53.206 21.8658 53.5434 21.726 53.7922 21.4772C54.0409 21.2285 54.1807 20.8911 54.1807 20.5392C54.1807 20.1874 54.0409 19.85 53.7922 19.6013C53.5434 19.3525 53.206 19.2128 52.8542 19.2128Z" fill="#FF8B00"/>
<path d="M35.5692 19.2128H31.2512C30.8994 19.2128 30.562 19.3525 30.3132 19.6013C30.0645 19.85 29.9247 20.1874 29.9247 20.5392C29.9247 20.8911 30.0645 21.2285 30.3132 21.4772C30.562 21.726 30.8994 21.8658 31.2512 21.8658H35.5721C35.924 21.8658 36.2614 21.726 36.5101 21.4772C36.7589 21.2285 36.8987 20.8911 36.8987 20.5392C36.8987 20.1874 36.7589 19.85 36.5101 19.6013C36.2614 19.3525 35.924 19.2128 35.5721 19.2128H35.5692Z" fill="#FF8B00"/>
<path d="M18.2831 19.2128H13.9622C13.6104 19.2128 13.273 19.3525 13.0242 19.6013C12.7755 19.85 12.6357 20.1874 12.6357 20.5392C12.6357 20.8911 12.7755 21.2285 13.0242 21.4772C13.273 21.726 13.6104 21.8658 13.9622 21.8658H18.2831C18.635 21.8658 18.9724 21.726 19.2211 21.4772C19.4699 21.2285 19.6097 20.8911 19.6097 20.5392C19.6097 20.1874 19.4699 19.85 19.2211 19.6013C18.9724 19.3525 18.635 19.2128 18.2831 19.2128Z" fill="#FF8B00"/>
<path d="M66.1962 57.8857C66.1867 57.7941 66.1683 57.7036 66.1413 57.6156C66.1146 57.5388 66.0811 57.4645 66.0412 57.3937C66.0023 57.318 65.9547 57.2472 65.8992 57.1827C65.8383 57.1105 65.7715 57.0435 65.6993 56.9826C65.6758 56.9557 65.6497 56.9313 65.6213 56.9096C65.5883 56.8898 65.5525 56.875 65.5152 56.8656C65.4356 56.8237 65.3518 56.7902 65.2652 56.7657C65.1758 56.7367 65.0837 56.7169 64.9903 56.7066C64.9578 56.6972 64.924 56.6925 64.8902 56.6927H62.5483C62.2139 56.6912 61.8913 56.8161 61.6452 57.0424C61.399 57.2687 61.2474 57.5795 61.2207 57.9128C61.1941 58.2461 61.2942 58.5772 61.5013 58.8397C61.7083 59.1022 62.0069 59.2769 62.3372 59.3286C59.2703 63.3806 55.3022 66.6629 50.7471 68.9156C46.192 71.1684 41.1749 72.3297 36.0932 72.3077C27.337 72.2973 18.9424 68.8142 12.751 62.6225C6.55962 56.4307 3.07698 48.0359 3.06718 39.2796C3.05145 34.0609 4.28598 28.9144 6.66728 24.2707C6.74673 24.1155 6.79473 23.9462 6.80876 23.7724C6.82279 23.5987 6.80248 23.4239 6.74895 23.258C6.69541 23.0921 6.60981 22.9384 6.49687 22.8056C6.38393 22.6729 6.2459 22.5636 6.09074 22.4842C5.93559 22.4047 5.76632 22.3566 5.59257 22.3426C5.41882 22.3285 5.24394 22.3488 5.07805 22.4024C4.91216 22.4559 4.75843 22.5416 4.62566 22.6546C4.49288 22.7675 4.38369 22.9055 4.30424 23.0606C1.73013 28.0788 0.395892 33.6408 0.413253 39.2807C0.413487 46.9724 2.89918 54.4582 7.4998 60.6224C12.1004 66.7866 18.5697 71.2992 25.9435 73.4877C33.3174 75.6762 41.201 75.4234 48.4195 72.7671C55.638 70.1107 61.805 65.1929 66.0013 58.7467C66.0224 58.7132 66.0376 58.6763 66.0462 58.6377C66.0884 58.561 66.1221 58.4798 66.1463 58.3957C66.1746 58.3044 66.194 58.2106 66.2043 58.1156C66.2146 58.0833 66.2199 58.0496 66.2203 58.0157C66.22 57.9797 66.2143 57.9439 66.2033 57.9096L66.1962 57.8857Z" fill="#FF8B00"/>
<path d="M58.2292 56.6897H53.9081C53.5563 56.6897 53.2189 56.8294 52.9702 57.0782C52.7214 57.327 52.5817 57.6644 52.5817 58.0162C52.5817 58.368 52.7214 58.7054 52.9702 58.9542C53.2189 59.2029 53.5563 59.3427 53.9081 59.3427H58.2292C58.581 59.3427 58.9184 59.2029 59.1672 58.9542C59.4159 58.7054 59.5557 58.368 59.5557 58.0162C59.5557 57.6644 59.4159 57.327 59.1672 57.0782C58.9184 56.8294 58.581 56.6897 58.2292 56.6897Z" fill="#FF8B00"/>
<path d="M49.5912 56.6897H45.2692C44.9174 56.6897 44.5799 56.8294 44.3312 57.0782C44.0824 57.327 43.9427 57.6644 43.9427 58.0162C43.9427 58.368 44.0824 58.7054 44.3312 58.9542C44.5799 59.2029 44.9174 59.3427 45.2692 59.3427H49.5912C49.943 59.3427 50.2804 59.2029 50.5292 58.9542C50.7779 58.7054 50.9177 58.368 50.9177 58.0162C50.9177 57.6644 50.7779 57.327 50.5292 57.0782C50.2804 56.8294 49.943 56.6897 49.5912 56.6897Z" fill="#FF8B00"/>
<path d="M36.6232 56.6897C36.2714 56.6897 35.9339 56.8294 35.6852 57.0782C35.4364 57.327 35.2966 57.6644 35.2966 58.0162C35.2966 58.368 35.4364 58.7054 35.6852 58.9542C35.9339 59.2029 36.2714 59.3427 36.6232 59.3427H40.9452C41.297 59.3427 41.6344 59.2029 41.8832 58.9542C42.1319 58.7054 42.2716 58.368 42.2716 58.0162C42.2716 57.6644 42.1319 57.327 41.8832 57.0782C41.6344 56.8294 41.297 56.6897 40.9452 56.6897H36.6232Z" fill="#FF8B00"/>
<path d="M18.0103 58.0128C18.0105 58.3646 18.1504 58.702 18.3992 58.9508C18.648 59.1996 18.9853 59.3395 19.3372 59.3397H23.6592C24.011 59.3397 24.3484 59.2 24.5972 58.9512C24.8459 58.7025 24.9857 58.3651 24.9857 58.0132C24.9857 57.6614 24.8459 57.324 24.5972 57.0753C24.3484 56.8265 24.011 56.6868 23.6592 56.6868H19.3372C18.9854 56.6868 18.6481 56.8264 18.3993 57.0751C18.1505 57.3237 18.0105 57.661 18.0103 58.0128Z" fill="#FF8B00"/>
<path d="M26.6522 58.0128C26.6527 58.3645 26.7927 58.7018 27.0414 58.9505C27.2902 59.1992 27.6274 59.3392 27.9792 59.3397H32.3012C32.653 59.3397 32.9904 59.2 33.2392 58.9512C33.488 58.7025 33.6277 58.3651 33.6277 58.0132C33.6277 57.6614 33.488 57.324 33.2392 57.0753C32.9904 56.8265 32.653 56.6868 32.3012 56.6868H27.9752C27.6242 56.6881 27.288 56.8283 27.0401 57.0768C26.7922 57.3253 26.6527 57.6618 26.6522 58.0128Z" fill="#FF8B00"/>
<path d="M15.0172 56.6897H12.6722C12.3204 56.6897 11.983 56.8294 11.7343 57.0782C11.4855 57.327 11.3457 57.6644 11.3457 58.0162C11.3457 58.368 11.4855 58.7054 11.7343 58.9542C11.983 59.2029 12.3204 59.3427 12.6722 59.3427H15.0142C15.366 59.3427 15.7034 59.2029 15.9521 58.9542C16.2009 58.7054 16.3407 58.368 16.3407 58.0162C16.3407 57.6644 16.2009 57.327 15.9521 57.0782C15.7034 56.8294 15.366 56.6897 15.0142 56.6897H15.0172Z" fill="#FF8B00"/>
<path d="M36.0972 25.5607C35.7724 25.5607 35.4609 25.6895 35.231 25.919C35.0012 26.1485 34.8717 26.4599 34.8712 26.7847V30.2446H34.2712C33.6036 30.2452 32.9635 30.5104 32.4913 30.9823C32.019 31.4542 31.7533 32.0941 31.7523 32.7617V45.7906C31.7531 46.4583 32.0187 47.0983 32.491 47.5703C32.9633 48.0422 33.6035 48.3074 34.2712 48.3077H34.8712V51.7676C34.8712 52.0925 35.0003 52.4041 35.23 52.6339C35.4598 52.8636 35.7714 52.9927 36.0963 52.9927C36.4211 52.9927 36.7327 52.8636 36.9625 52.6339C37.1922 52.4041 37.3212 52.0925 37.3212 51.7676V48.3077H37.9272C38.5946 48.3071 39.2344 48.0418 39.7064 47.5699C40.1783 47.098 40.4437 46.458 40.4443 45.7906V32.7626C40.4435 32.0953 40.178 31.4556 39.7061 30.9838C39.2343 30.5119 38.5945 30.2465 37.9272 30.2457H37.3212V26.7856C37.321 26.461 37.1919 26.1498 36.9625 25.9201C36.733 25.6905 36.4219 25.5612 36.0972 25.5607ZM37.9973 45.7916C37.9974 45.8006 37.9957 45.8094 37.9924 45.8177C37.9891 45.826 37.9842 45.8336 37.978 45.84C37.9717 45.8464 37.9643 45.8516 37.9561 45.8551C37.9479 45.8586 37.9392 45.8605 37.9302 45.8607H34.2702C34.2611 45.8608 34.252 45.8591 34.2436 45.8557C34.2352 45.8522 34.2276 45.8472 34.2211 45.8408C34.2147 45.8343 34.2097 45.8267 34.2062 45.8182C34.2028 45.8098 34.2011 45.8007 34.2012 45.7916V32.7626C34.2012 32.7443 34.2084 32.7268 34.2214 32.7139C34.2343 32.7009 34.2519 32.6937 34.2702 32.6937H37.9302C37.9482 32.6942 37.9652 32.7017 37.9777 32.7145C37.9902 32.7274 37.9973 32.7447 37.9973 32.7626V45.7916Z" fill="#FF8B00"/>
<path d="M20.8172 48.9147C20.818 49.5823 21.0837 50.2224 21.556 50.6943C22.0283 51.1663 22.6686 51.4314 23.3362 51.4317H23.9362V54.1987C23.9362 54.5236 24.0653 54.8351 24.295 55.0649C24.5247 55.2946 24.8363 55.4237 25.1612 55.4237C25.4861 55.4237 25.7977 55.2946 26.0274 55.0649C26.2571 54.8351 26.3862 54.5236 26.3862 54.1987V51.4317H26.9921C27.6595 51.4312 28.2995 51.1658 28.7714 50.6939C29.2433 50.222 29.5087 49.5821 29.5092 48.9147V35.8857C29.5084 35.2184 29.2429 34.5787 28.7711 34.1068C28.2992 33.635 27.6594 33.3695 26.9921 33.3687H26.3862V29.9087C26.3862 29.5838 26.2571 29.2722 26.0274 29.0425C25.7977 28.8127 25.4861 28.6837 25.1612 28.6837C24.8363 28.6837 24.5247 28.8127 24.295 29.0425C24.0653 29.2722 23.9362 29.5838 23.9362 29.9087V33.3687H23.3362C22.6687 33.3692 22.0284 33.6345 21.5562 34.1064C21.084 34.5782 20.8183 35.2181 20.8172 35.8857V48.9147ZM27.0632 48.9147C27.0633 48.9236 27.0617 48.9325 27.0584 48.9408C27.0551 48.9491 27.0502 48.9567 27.044 48.9631C27.0378 48.9695 27.0304 48.9746 27.0222 48.9781C27.014 48.9817 27.0051 48.9836 26.9962 48.9837H23.3362C23.3271 48.9838 23.3181 48.9821 23.3096 48.9787C23.3012 48.9753 23.2935 48.9702 23.287 48.9638C23.2806 48.9574 23.2756 48.9497 23.2722 48.9413C23.2687 48.9329 23.267 48.9238 23.2672 48.9147V35.8857C23.2672 35.8674 23.2745 35.8499 23.2874 35.8369C23.3004 35.824 23.3179 35.8167 23.3362 35.8167H26.9962C27.0141 35.8172 27.0311 35.8247 27.0436 35.8376C27.0562 35.8505 27.0632 35.8677 27.0632 35.8857V48.9147Z" fill="#FF8B00"/>
<path d="M9.88721 29.6397V42.6688C9.888 43.3364 10.1537 43.9764 10.626 44.4484C11.0983 44.9203 11.7386 45.1855 12.4062 45.1857H13.0062V48.6458C13.0062 48.9706 13.1353 49.2822 13.365 49.512C13.5947 49.7417 13.9063 49.8707 14.2312 49.8707C14.5561 49.8707 14.8677 49.7417 15.0974 49.512C15.3271 49.2822 15.4562 48.9706 15.4562 48.6458V45.1857H16.0621C16.7295 45.1852 17.3695 44.9199 17.8414 44.4479C18.3133 43.976 18.5787 43.3361 18.5792 42.6688V29.6397C18.5784 28.9724 18.3129 28.3327 17.8411 27.8608C17.3692 27.389 16.7294 27.1235 16.0621 27.1227H15.4562V24.2418C15.4562 23.9169 15.3271 23.6053 15.0974 23.3755C14.8677 23.1458 14.5561 23.0167 14.2312 23.0167C13.9063 23.0167 13.5947 23.1458 13.365 23.3755C13.1353 23.6053 13.0062 23.9169 13.0062 24.2418V27.1227H12.4062C11.7387 27.1233 11.0985 27.3886 10.6262 27.8604C10.154 28.3323 9.88827 28.9721 9.88721 29.6397ZM16.1332 42.6688C16.1333 42.6777 16.1317 42.6865 16.1284 42.6948C16.1251 42.7031 16.1202 42.7107 16.114 42.7171C16.1078 42.7235 16.1004 42.7286 16.0922 42.7322C16.084 42.7357 16.0751 42.7376 16.0662 42.7377H12.4062C12.3972 42.7379 12.3881 42.7362 12.3796 42.7328C12.3712 42.7294 12.3635 42.7243 12.3571 42.7178C12.3506 42.7114 12.3456 42.7037 12.3422 42.6953C12.3387 42.6869 12.337 42.6779 12.3372 42.6688V29.6397C12.3372 29.6214 12.3445 29.6039 12.3574 29.5909C12.3704 29.578 12.3879 29.5707 12.4062 29.5707H16.0662C16.0841 29.5713 16.1011 29.5787 16.1136 29.5916C16.1262 29.6045 16.1332 29.6218 16.1332 29.6397V42.6688Z" fill="#FF8B00"/>
<path d="M53.6092 35.8857V48.9147C53.61 49.5823 53.8757 50.2224 54.348 50.6943C54.8203 51.1663 55.4606 51.4314 56.1282 51.4317H56.7282V54.1987C56.7282 54.5236 56.8572 54.8351 57.087 55.0649C57.3167 55.2946 57.6283 55.4237 57.9532 55.4237C58.2781 55.4237 58.5897 55.2946 58.8194 55.0649C59.0491 54.8351 59.1782 54.5236 59.1782 54.1987V51.4317H59.7841C60.4515 51.4312 61.0915 51.1658 61.5634 50.6939C62.0353 50.222 62.3007 49.5821 62.3012 48.9147V35.8857C62.3004 35.2184 62.0349 34.5787 61.563 34.1068C61.0912 33.635 60.4514 33.3695 59.7841 33.3687H59.1782V29.9087C59.1782 29.5838 59.0491 29.2722 58.8194 29.0425C58.5897 28.8127 58.2781 28.6837 57.9532 28.6837C57.6283 28.6837 57.3167 28.8127 57.087 29.0425C56.8572 29.2722 56.7282 29.5838 56.7282 29.9087V33.3687H56.1282C55.4607 33.3692 54.8204 33.6345 54.3482 34.1064C53.876 34.5782 53.6103 35.2181 53.6092 35.8857ZM59.8552 48.9147C59.8553 48.9236 59.8537 48.9325 59.8504 48.9408C59.8471 48.9491 59.8422 48.9567 59.836 48.9631C59.8298 48.9695 59.8223 48.9746 59.8141 48.9781C59.8059 48.9817 59.7971 48.9836 59.7881 48.9837H56.1282C56.1191 48.9838 56.1101 48.9821 56.1016 48.9787C56.0932 48.9753 56.0855 48.9702 56.079 48.9638C56.0726 48.9574 56.0676 48.9497 56.0641 48.9413C56.0607 48.9329 56.059 48.9238 56.0591 48.9147V35.8857C56.0591 35.8674 56.0665 35.8499 56.0794 35.8369C56.0923 35.824 56.1099 35.8167 56.1282 35.8167H59.7881C59.8061 35.8172 59.8231 35.8247 59.8356 35.8376C59.8481 35.8505 59.8552 35.8677 59.8552 35.8857V48.9147Z" fill="#FF8B00"/>
<path d="M45.8011 24.2418V27.1227H45.2012C44.5336 27.1233 43.8935 27.3886 43.4213 27.8604C42.949 28.3323 42.6833 28.9721 42.6823 29.6397V42.6688C42.683 43.3364 42.9487 43.9764 43.421 44.4484C43.8933 44.9203 44.5335 45.1855 45.2012 45.1857H45.8011V48.6458C45.8011 48.9706 45.9303 49.2822 46.16 49.512C46.3898 49.7417 46.7014 49.8707 47.0262 49.8707C47.3511 49.8707 47.6627 49.7417 47.8925 49.512C48.1222 49.2822 48.2512 48.9706 48.2512 48.6458V45.1857H48.8572C49.5246 45.1852 50.1644 44.9199 50.6364 44.4479C51.1083 43.976 51.3737 43.3361 51.3743 42.6688V29.6397C51.3735 28.9724 51.108 28.3327 50.6361 27.8608C50.1643 27.389 49.5245 27.1235 48.8572 27.1227H48.2512V24.2418C48.2512 23.9169 48.1222 23.6053 47.8925 23.3755C47.6627 23.1458 47.3511 23.0167 47.0262 23.0167C46.7014 23.0167 46.3898 23.1458 46.16 23.3755C45.9303 23.6053 45.8011 23.9169 45.8011 24.2418ZM48.9242 42.6697C48.9243 42.6787 48.9227 42.6876 48.9194 42.6959C48.9161 42.7042 48.9113 42.7117 48.905 42.7181C48.8988 42.7245 48.8914 42.7296 48.8832 42.7332C48.875 42.7367 48.8661 42.7386 48.8572 42.7387H45.1973C45.1882 42.7388 45.1791 42.7372 45.1707 42.7338C45.1622 42.7303 45.1545 42.7252 45.1481 42.7188C45.1416 42.7124 45.1366 42.7047 45.1332 42.6963C45.1298 42.6879 45.128 42.6788 45.1282 42.6697V29.6397C45.1282 29.6214 45.1355 29.6039 45.1484 29.5909C45.1614 29.578 45.179 29.5707 45.1973 29.5707H48.8572C48.8751 29.5713 48.8922 29.5787 48.9047 29.5916C48.9172 29.6045 48.9242 29.6218 48.9242 29.6397V42.6697Z" fill="#FF8B00"/>
</svg>
