<svg id="sigmund_freud" data-name="sigmund freud" xmlns="http://www.w3.org/2000/svg" width="67.881" height="57.651" viewBox="0 0 67.881 57.651">
  <path id="Path_487" data-name="Path 487" d="M3779.688,2517.874v-1.552h-4.655v.774a4.267,4.267,0,1,0-4.267,4.269,4.267,4.267,0,0,0,4.267-4.269v.774Zm-8.922,1.939a2.715,2.715,0,1,1,2.715-2.715A2.718,2.718,0,0,1,3770.766,2519.813Z" transform="translate(-3749.432 -2499.374)" fill="#fff"/>
  <path id="Path_488" data-name="Path 488" d="M3772.538,2501.208v.948a1.075,1.075,0,0,0,.922,1.062l-1.523,1.582c-.052,0-.1-.015-.157-.015h-.756c.066-.986.1-2.025.1-3.123a20.594,20.594,0,0,0-2.889-10.546l.577-.6a4.084,4.084,0,0,0-.111-5.769l-.414-.4,1.568-1.63a2.327,2.327,0,1,0-1.677-1.614l-1.568,1.63-.414-.4a4,4,0,0,0-2.907-1.139,4.055,4.055,0,0,0-2.862,1.251l-.7.726a20.687,20.687,0,0,0-18.6,0l-.7-.726a4.085,4.085,0,0,0-5.77-.112l-.414.4-1.568-1.63a2.327,2.327,0,1,0-1.677,1.614l1.568,1.63-.414.4a4.08,4.08,0,0,0-.112,5.769l.577.6a20.594,20.594,0,0,0-2.889,10.546c0,1.1.035,2.136.1,3.123h-.755a1.686,1.686,0,0,0-1.677,1.548c-.022.255-.04.517-.058.78h-.272a4.574,4.574,0,0,0-4.569,4.568v2.5a4.574,4.574,0,0,0,4.569,4.569h.7c2.336,16.8,12.086,17.041,21.816,17.041h1.689c9.493,0,19-.228,21.631-15.841l9.545-9.293a4.568,4.568,0,0,0,0-6.461l-.962-.962h5.4v-3.1h-13.275A1.078,1.078,0,0,0,3772.538,2501.208Zm-10.433-17.146a1.753,1.753,0,0,1,2.478-.048l2.506,2.41a1.755,1.755,0,0,1,.048,2.478l-.23.239a20.8,20.8,0,0,0-5.1-4.767Zm-28.385,4.841a1.752,1.752,0,0,1,.048-2.478l2.505-2.41a1.752,1.752,0,0,1,2.478.048l.3.313a20.8,20.8,0,0,0-5.1,4.767Zm-1.662,12.76a18.309,18.309,0,0,1,.7-5.023h6.8v-1.551h-6.287a18.364,18.364,0,0,1,34.3,0h-6.288v.773a4.267,4.267,0,1,0-4.267,4.269,4.267,4.267,0,0,0,4.267-4.269v.774h6.8a18.3,18.3,0,0,1,.7,5.023c0,1.087-.035,2.135-.1,3.123h-36.532C3732.093,2503.8,3732.058,2502.749,3732.058,2501.662Zm27.68-5.8a2.715,2.715,0,1,1-2.715-2.715A2.718,2.718,0,0,1,3759.738,2495.863Zm-32.67,20.559a2.244,2.244,0,0,1-2.241-2.241v-2.5a2.244,2.244,0,0,1,2.241-2.241h.18c0,.262-.008.525-.008.795,0,2.257.092,4.311.262,6.187Zm38.139,14.215c-3.664,2.826-8.885,2.826-13.934,2.826h-1.689c-5.049,0-10.27,0-13.934-2.827-4.093-3.157-6.082-9.831-6.082-20.4,0-1.088.035-2.135.1-3.123h41.512c.069.987.1,2.035.1,3.123C3771.288,2520.806,3769.3,2527.48,3765.207,2530.637ZM3780.814,2509l-7.445,7.249c.161-1.829.247-3.825.247-6.013,0-1.305-.049-2.527-.141-3.675l2.392-2.487a2.245,2.245,0,0,1,3.169,0l1.768,1.768a2.242,2.242,0,0,1,.011,3.158Z" transform="translate(-3722.499 -2478.139)" fill="#fff"/>
  <path id="Path_489" data-name="Path 489" d="M3891.361,2534.831h-.862v3.1h.862a1.078,1.078,0,0,0,1.078-1.078v-.948A1.078,1.078,0,0,0,3891.361,2534.831Z" transform="translate(-3825.332 -2512.84)" fill="#fff"/>
  <path id="Path_490" data-name="Path 490" d="M3890.46,2511.589a2.5,2.5,0,0,1-.737,1.779.776.776,0,1,0,1.1,1.1,4.071,4.071,0,0,0,0-5.751,2.514,2.514,0,0,1,0-3.558.776.776,0,0,0-1.1-1.1,4.073,4.073,0,0,0,0,5.752A2.5,2.5,0,0,1,3890.46,2511.589Z" transform="translate(-3824.129 -2493.865)" fill="#fff"/>
</svg>
