<svg xmlns="http://www.w3.org/2000/svg" width="57.707" height="63.201" viewBox="0 0 57.707 63.201">
  <g id="sleeper_cell" data-name="sleeper cell" transform="translate(0)">
    <path id="Path_511" data-name="Path 511" d="M5210.4,2517.765l2.947,2.456a1.773,1.773,0,0,0,1.134.411h9.953a.794.794,0,0,0,.793-.794h0a15.975,15.975,0,0,0-4.275-10.888,3.481,3.481,0,0,0-2.553-1.118h-18.429a3.481,3.481,0,0,0-2.553,1.118,15.977,15.977,0,0,0-4.275,10.888v.008a.788.788,0,0,0,.788.787h9.959a1.772,1.772,0,0,0,1.134-.411l2.947-2.456A1.9,1.9,0,0,1,5210.4,2517.765Z" transform="translate(-5180.484 -2490.764)" fill="#fff"/>
    <path id="Path_512" data-name="Path 512" d="M5215.739,2499.637a50.591,50.591,0,0,0-.1-31.605,1.4,1.4,0,0,0,.536-1.082,1.539,1.539,0,0,0-1.606-1.462,1.637,1.637,0,0,0-1.381.721l-12.114-1.606a89.122,89.122,0,0,0-23.41,0l-12.114,1.606a1.642,1.642,0,0,0-1.381-.721,1.539,1.539,0,0,0-1.605,1.462,1.389,1.389,0,0,0,.535,1.082,50.587,50.587,0,0,0-.171,31.388,4.559,4.559,0,0,0-1.641,3.5v2.5a4.574,4.574,0,0,0,4.569,4.568h.7c2.336,16.8,12.086,17.041,21.817,17.041h1.688c9.731,0,19.481-.238,21.816-17.041h.7a4.573,4.573,0,0,0,4.568-4.568v-2.5A4.552,4.552,0,0,0,5215.739,2499.637Zm-50.438-30.876.063-.182.485-.062,12.118-1.606a86.711,86.711,0,0,1,22.8,0l12.114,1.606.488.062.063.182a48.18,48.18,0,0,1,.232,29.729,4.532,4.532,0,0,0-1.088-.137h-.273c-.017-.263-.036-.524-.058-.78a1.686,1.686,0,0,0-1.677-1.548h-.755c.065-.986.1-2.025.1-3.123a20.6,20.6,0,0,0-2.889-10.546l.577-.6a4.085,4.085,0,0,0-.111-5.769l-.414-.4,1.568-1.63a2.327,2.327,0,1,0-1.677-1.614l-1.568,1.63-.414-.4a4.014,4.014,0,0,0-2.908-1.139,4.056,4.056,0,0,0-2.861,1.251l-.7.726a20.688,20.688,0,0,0-18.6,0l-.7-.726a4.085,4.085,0,0,0-5.77-.112l-.415.4-1.568-1.63a2.328,2.328,0,1,0-1.678,1.614l1.569,1.63-.414.4a4.079,4.079,0,0,0-.112,5.769l.578.6a20.592,20.592,0,0,0-2.89,10.546c0,1.1.035,2.136.1,3.123h-.755a1.686,1.686,0,0,0-1.677,1.548c-.022.255-.041.517-.058.78h-.272a4.6,4.6,0,0,0-.8.075A48.182,48.182,0,0,1,5165.3,2468.761Zm5.541,24.143a18.37,18.37,0,0,1,36.741,0c0,1.088-.036,2.135-.1,3.123h-36.532C5170.876,2495.04,5170.842,2493.992,5170.842,2492.9Zm1.662-12.76a1.753,1.753,0,0,1,.048-2.478l2.506-2.41a1.752,1.752,0,0,1,2.478.048l.3.313a20.8,20.8,0,0,0-5.1,4.767Zm33.369-2.478a1.755,1.755,0,0,1,.048,2.478l-.231.239a20.783,20.783,0,0,0-5.1-4.767l.3-.312a1.754,1.754,0,0,1,2.478-.048Zm-40.021,30a2.244,2.244,0,0,1-2.241-2.241v-2.5a2.244,2.244,0,0,1,2.241-2.241h.18c0,.262-.007.525-.007.795,0,2.257.091,4.311.262,6.187Zm38.139,14.215c-3.664,2.826-8.885,2.826-13.935,2.826h-1.688c-5.049,0-10.27,0-13.934-2.827-4.092-3.157-6.082-9.831-6.082-20.4,0-1.086.036-2.134.1-3.123h41.512c.069.987.1,2.035.1,3.123C5210.072,2512.048,5208.083,2518.722,5203.991,2521.879Zm10.822-16.456a2.244,2.244,0,0,1-2.241,2.241h-.435c.17-1.876.262-3.93.262-6.187,0-.27,0-.532-.008-.795h.181a2.244,2.244,0,0,1,2.241,2.241Z" transform="translate(-5160.513 -2463.831)" fill="#fff"/>
  </g>
</svg>
