<svg width="510" height="574" viewBox="0 0 510 574" fill="none" xmlns="http://www.w3.org/2000/svg">
<g clip-path="url(#clip0_4194_173)">
<path d="M444.405 311.979C445.112 320.819 445.465 330.367 445.465 340.268C445.465 436.806 427.431 497.628 389.947 526.271C356.707 552.085 308.969 552.085 262.998 552.085H259.109H255.219H251.329H247.439C201.469 552.085 153.731 552.085 120.49 526.271C83.0069 497.628 64.9724 436.806 64.9724 340.268C64.9724 330.367 65.326 320.819 66.0332 311.979H255.219H444.405ZM449.709 290.762H255.219H60.7289C52.5957 290.762 46.2306 296.773 45.5234 304.906C44.4625 315.869 44.1089 327.892 44.1089 340.622C44.1089 570.827 145.951 573.656 247.793 573.656C250.268 573.656 253.097 573.656 255.573 573.656C258.048 573.656 260.877 573.656 263.352 573.656C365.194 573.656 467.036 570.827 467.036 340.622C467.036 327.892 466.683 316.222 465.622 304.906C464.561 297.127 457.842 290.762 449.709 290.762Z" fill="white"/>
<path d="M98.5661 172.302L87.6039 160.987C80.8852 153.914 76.9954 144.367 77.349 134.465C77.7026 124.564 81.5924 115.37 88.6648 108.298L111.65 86.3732C126.502 72.2285 149.841 72.5821 164.339 87.4341L175.301 98.7499L159.742 113.602L148.78 102.286C142.768 95.9209 132.513 95.5673 126.148 101.932L103.163 123.503C99.9805 126.332 98.2125 130.575 98.2125 134.819C98.2125 139.062 99.6269 143.306 102.809 146.135L113.772 157.45L98.5661 172.302Z" fill="white"/>
<path d="M85.4899 67.0246L70.1987 81.7344L99.6183 112.317L114.909 97.6069L85.4899 67.0246Z" fill="white"/>
<path d="M73.1055 90.6139C84.8234 90.6139 94.3226 81.1146 94.3226 69.3968C94.3226 57.6789 84.8234 48.1797 73.1055 48.1797C61.3876 48.1797 51.8884 57.6789 51.8884 69.3968C51.8884 81.1146 61.3876 90.6139 73.1055 90.6139Z" fill="white"/>
<path d="M468.097 418.066H453.245V396.849H468.097C479.413 396.849 488.607 387.655 488.607 376.339V353.707C488.607 342.392 479.413 333.198 468.097 333.198H449.709V311.98H468.097C491.082 311.98 509.824 330.722 509.824 353.707V376.339C509.824 399.678 491.082 418.066 468.097 418.066Z" fill="white"/>
<path d="M57.1927 418.066H42.3407C19.3555 418.066 0.61377 399.324 0.61377 376.339V353.707C0.61377 330.722 19.3555 311.98 42.3407 311.98H60.7288V333.198H42.3407C31.0249 333.198 21.8309 342.392 21.8309 353.707V376.339C21.8309 387.655 31.0249 396.849 42.3407 396.849H57.1927V418.066Z" fill="white"/>
<path d="M182.727 228.162C154.791 228.162 134.988 208.713 133.928 208.005C130.391 204.469 130.391 198.811 133.928 195.629C137.464 192.093 143.122 192.093 146.304 195.629C146.658 195.982 161.863 210.834 182.373 210.834C203.237 210.834 218.442 195.982 218.442 195.629C221.978 192.093 227.636 192.093 230.819 195.629C234.001 199.165 234.355 204.823 230.819 208.005C230.465 208.713 210.663 228.162 182.727 228.162Z" fill="white"/>
<path d="M327.71 228.162C299.775 228.162 279.972 208.713 278.911 208.005C275.375 204.469 275.375 198.811 278.911 195.629C282.447 192.093 288.105 192.093 291.288 195.629C291.641 195.982 306.847 210.834 327.357 210.834C348.22 210.834 363.426 195.982 363.426 195.629C366.962 192.093 372.62 192.093 375.802 195.629C378.985 199.165 379.339 204.823 375.802 208.005C375.449 208.713 355.646 228.162 327.71 228.162Z" fill="white"/>
<path d="M425.663 202.353L202.53 87.0739L311.09 19.8865C331.954 7.15624 355.646 0.4375 380.046 0.4375H486.131C492.143 0.4375 497.447 3.97368 499.569 9.63157C501.691 15.2895 499.922 21.6546 495.325 25.5444L433.089 78.2335L425.663 202.353ZM238.245 85.6595L409.396 174.064L415.761 69.393L476.937 18.1184H380.046C358.829 18.1184 338.319 24.1299 320.284 35.0921L238.245 85.6595Z" fill="white"/>
<path d="M424.248 82.4702C423.188 82.4702 422.127 82.4702 421.419 82.1165L389.594 71.1544C384.997 69.3863 382.521 64.4356 384.29 59.8386C386.058 55.2416 391.008 52.7662 395.605 54.5343L427.431 65.4965C432.028 67.2646 434.503 72.2152 432.735 76.8123C431.321 80.3485 428.138 82.4702 424.248 82.4702Z" fill="white"/>
<path d="M421.773 173.709L408.689 181.135L398.788 176.184C413.993 201.291 422.834 230.995 422.834 262.467C422.834 272.368 422.48 281.916 421.773 290.756H255.219H88.6645C87.9573 281.916 87.6037 272.368 87.6037 262.467C87.6037 175.477 154.438 103.692 239.306 95.9126L228.697 83.536L243.549 73.9883C144.536 79.9998 66.3866 162.039 66.3866 262.467C66.3866 275.197 66.7402 286.866 67.8011 298.182C68.5083 306.315 75.227 312.327 83.0066 312.327H255.219H427.077C435.21 312.327 441.575 306.315 442.283 298.182C443.344 287.22 443.697 275.197 443.697 262.467C444.051 230.287 435.918 199.876 421.773 173.709Z" fill="white"/>
</g>
<defs>
<clipPath id="clip0_4194_173">
<rect width="509.21" height="573.215" fill="white" transform="translate(0.61377 0.4375)"/>
</clipPath>
</defs>
</svg>
