<svg id="spike" xmlns="http://www.w3.org/2000/svg" width="55.857" height="57.651" viewBox="0 0 55.857 57.651">
  <path id="Path_501" data-name="Path 501" d="M4349.227,2519.838h0a15.977,15.977,0,0,0-4.275-10.888,3.481,3.481,0,0,0-2.553-1.118h-18.429a3.482,3.482,0,0,0-2.553,1.118,15.977,15.977,0,0,0-4.275,10.888v.008a.787.787,0,0,0,.787.787h30.5A.794.794,0,0,0,4349.227,2519.838Zm-29.672-1.533a13.668,13.668,0,0,1,3.569-7.774,1.158,1.158,0,0,1,.846-.372H4342.4a1.16,1.16,0,0,1,.846.372,13.674,13.674,0,0,1,3.569,7.774Z" transform="translate(-4305.255 -2496.314)" fill="#fff"/>
  <circle id="Ellipse_144" data-name="Ellipse 144" cx="2.327" cy="2.327" r="2.327" transform="translate(18.619 15.396)" fill="#fff"/>
  <circle id="Ellipse_145" data-name="Ellipse 145" cx="2.327" cy="2.327" r="2.327" transform="translate(32.584 15.396)" fill="#fff"/>
  <path id="Path_502" data-name="Path 502" d="M4337.788,2507.112h-.272c-.018-.263-.036-.524-.059-.78a1.685,1.685,0,0,0-1.677-1.548h-.755c.065-.986.1-2.025.1-3.123a20.6,20.6,0,0,0-2.889-10.546l.577-.6a4.085,4.085,0,0,0-.111-5.769l-.414-.4,1.567-1.63a2.327,2.327,0,1,0-1.677-1.614l-1.568,1.63-.415-.4a4,4,0,0,0-2.908-1.139,4.057,4.057,0,0,0-2.861,1.251l-.7.726a20.687,20.687,0,0,0-18.6,0l-.7-.726a4.084,4.084,0,0,0-5.769-.112l-.414.4-1.568-1.63a2.328,2.328,0,1,0-1.678,1.614l1.568,1.63-.414.4a4.08,4.08,0,0,0-.111,5.769l.577.6a20.6,20.6,0,0,0-2.889,10.546c0,1.1.034,2.136.1,3.123h-.755a1.686,1.686,0,0,0-1.677,1.548c-.022.255-.041.517-.058.78h-.273a4.573,4.573,0,0,0-4.568,4.568v2.5a4.574,4.574,0,0,0,4.568,4.569h.7c2.336,16.8,12.087,17.041,21.816,17.041h1.689c9.73,0,19.48-.238,21.815-17.041h.7a4.574,4.574,0,0,0,4.568-4.569v-2.5A4.573,4.573,0,0,0,4337.788,2507.112Zm-11.684-23.051a1.754,1.754,0,0,1,2.478-.048l2.506,2.41a1.754,1.754,0,0,1,.047,2.478l-.23.239a20.792,20.792,0,0,0-5.1-4.767Zm-28.386,4.841a1.753,1.753,0,0,1,.049-2.478l2.505-2.41a1.751,1.751,0,0,1,2.478.048l.3.313a20.813,20.813,0,0,0-5.1,4.767Zm-1.661,12.76a18.37,18.37,0,0,1,36.74,0c0,1.088-.035,2.135-.1,3.123h-36.531C4296.093,2503.8,4296.058,2502.75,4296.058,2501.662Zm-4.99,14.76a2.244,2.244,0,0,1-2.241-2.241v-2.5a2.244,2.244,0,0,1,2.241-2.241h.18c0,.262-.008.525-.008.795,0,2.257.091,4.311.262,6.187Zm38.139,14.215c-3.664,2.826-8.885,2.826-13.934,2.826h-1.689c-5.049,0-10.27,0-13.934-2.827a12.1,12.1,0,0,1-3.479-4.517h7.956l.993-2.977.993,2.977h4.221l4.1-12.287,4.1,12.287h4.221l.993-2.977.993,2.977h7.956A12.093,12.093,0,0,1,4329.207,2530.637Zm4.125-6.069h-7.484l-2.11-6.332-2.11,6.332h-1.985l-5.214-15.642-5.214,15.642h-1.985l-2.11-6.332-2.111,6.332h-7.484c-1.31-3.562-1.956-8.315-1.956-14.333,0-1.086.035-2.134.1-3.123h41.512c.07.987.1,2.035.1,3.123C4335.288,2516.252,4334.642,2521.005,4333.332,2524.568Zm6.7-10.387a2.244,2.244,0,0,1-2.241,2.241h-.434c.17-1.876.262-3.93.262-6.187,0-.27,0-.532-.008-.795h.181a2.244,2.244,0,0,1,2.241,2.241Z" transform="translate(-4286.499 -2478.139)" fill="#fff"/>
</svg>
