<svg width="595" height="526" viewBox="0 0 595 526" fill="none" xmlns="http://www.w3.org/2000/svg">
<g clip-path="url(#clip0_4194_124)">
<path d="M297.039 47.4358C389.333 47.4358 464.654 122.403 464.654 215.051C464.654 224.952 464.301 234.5 463.593 243.34H297.039H130.485C129.778 234.5 129.424 224.952 129.424 215.051C129.424 122.403 204.745 47.4358 297.039 47.4358ZM297.039 26.2188C192.722 26.2188 108.207 110.733 108.207 215.051C108.207 227.781 108.561 239.45 109.622 250.766C110.329 258.899 117.047 264.911 124.827 264.911H297.039H468.898C477.031 264.911 483.396 258.899 484.103 250.766C485.164 239.804 485.518 227.781 485.518 215.051C485.871 110.733 401.356 26.2188 297.039 26.2188Z" fill="white"/>
<path d="M486.225 264.553C486.932 273.393 487.286 282.941 487.286 292.842C487.286 389.38 469.251 450.203 431.768 478.846C398.528 504.66 350.789 504.66 304.819 504.66H300.929H297.039H293.149H289.26C243.289 504.66 195.551 504.66 162.311 478.846C124.827 450.203 106.793 389.38 106.793 292.842C106.793 282.941 107.146 273.393 107.854 264.553H297.039H486.225ZM491.529 243.336H297.039H102.549C94.416 243.336 88.0509 249.347 87.3437 257.481C86.2828 268.443 85.9292 280.466 85.9292 293.196C85.9292 523.401 187.771 526.23 289.613 526.23C292.089 526.23 294.918 526.23 297.393 526.23C299.868 526.23 302.697 526.23 305.172 526.23C407.014 526.23 508.856 523.401 508.856 293.196C508.856 280.466 508.503 268.796 507.442 257.481C506.381 249.347 499.662 243.336 491.529 243.336Z" fill="white"/>
<path d="M381.2 126.643C384.029 126.643 386.858 127.704 388.98 130.179C407.368 149.982 418.684 174.735 421.513 200.903H172.919C175.748 174.381 187.064 149.628 205.452 130.179C207.574 128.057 210.403 126.643 213.232 126.643H381.2ZM381.2 105.426H212.878C204.038 105.426 195.551 108.962 189.539 115.681C165.493 141.848 150.641 176.503 150.641 215.047C150.641 218.937 153.824 222.12 157.714 222.12H435.658C439.547 222.12 442.73 218.937 442.73 215.047C442.73 176.857 427.878 141.848 403.832 115.681C398.174 108.962 390.041 105.426 381.2 105.426Z" fill="white"/>
<path d="M233.388 183.215C245.106 183.215 254.605 173.716 254.605 161.998C254.605 150.28 245.106 140.781 233.388 140.781C221.67 140.781 212.171 150.28 212.171 161.998C212.171 173.716 221.67 183.215 233.388 183.215Z" fill="white"/>
<path d="M360.69 183.215C372.408 183.215 381.908 173.716 381.908 161.998C381.908 150.28 372.408 140.781 360.69 140.781C348.973 140.781 339.473 150.28 339.473 161.998C339.473 173.716 348.973 183.215 360.69 183.215Z" fill="white"/>
<path d="M140.387 124.521L129.424 113.205C122.706 106.133 118.816 96.5854 119.169 86.684C119.523 76.7827 123.413 67.5887 130.485 60.5163L153.47 38.592C168.322 24.4473 192.015 24.8009 206.159 39.6528L217.122 50.9686L201.562 65.8206L190.6 54.5048C184.589 48.1397 174.334 47.7861 167.969 54.1512L144.984 76.0755C141.801 78.9044 140.033 83.1479 140.033 87.3913C140.033 91.6347 141.447 95.8781 144.63 98.7071L155.592 110.023L140.387 124.521Z" fill="white"/>
<path d="M127.44 19.548L112.149 34.2578L141.569 64.8401L156.86 50.1303L127.44 19.548Z" fill="white"/>
<path d="M114.926 42.8326C126.644 42.8326 136.143 33.3334 136.143 21.6155C136.143 9.89765 126.644 0.398438 114.926 0.398438C103.208 0.398438 93.709 9.89765 93.709 21.6155C93.709 33.3334 103.208 42.8326 114.926 42.8326Z" fill="white"/>
<path d="M536.439 431.472C525.83 431.472 515.222 427.583 507.089 419.449L496.48 408.841L511.332 393.989L521.941 404.597C530.074 412.731 542.804 412.731 550.937 404.597L567.204 388.331C571.093 384.441 573.215 379.491 573.215 373.833C573.215 368.175 571.093 363.224 567.204 359.334L554.12 346.25L568.972 331.398L582.056 344.482C589.835 352.262 594.432 362.87 594.432 373.833C594.432 384.795 590.189 395.403 582.056 403.183L565.789 419.449C557.656 427.583 547.047 431.472 536.439 431.472Z" fill="white"/>
<path d="M57.6399 431.472C47.0313 431.472 36.4228 427.583 28.2896 419.449L12.0231 403.183C4.24352 395.403 -0.353516 384.795 -0.353516 373.833C-0.353516 362.87 3.8899 352.262 12.0231 344.482L25.107 331.398L39.959 346.25L26.8751 359.334C23.3389 363.224 21.2172 368.175 21.2172 373.833C21.2172 379.491 23.3389 384.441 27.2287 388.331L43.4951 404.597C51.6284 412.731 64.3586 412.731 72.4918 404.597L83.1004 393.989L97.9523 408.841L87.3438 419.449C79.2106 427.583 68.602 431.472 57.6399 431.472Z" fill="white"/>
<path d="M453.692 124.521L438.486 110.023L449.448 98.7071C452.277 95.5245 454.045 91.6347 454.045 87.3913C454.045 83.1479 452.277 79.2581 449.095 76.0755L426.11 54.1512C419.744 48.1397 409.49 48.1397 403.478 54.5048L392.516 65.8206L377.31 50.9686L388.272 39.6528C402.417 24.8009 426.11 24.4473 440.962 38.592L463.947 60.5163C471.019 67.2351 475.263 76.7827 475.263 86.684C475.616 96.5854 471.726 106.133 465.008 113.205L453.692 124.521Z" fill="white"/>
<path d="M466.81 19.3712L437.391 49.9492L452.68 64.659L482.1 34.081L466.81 19.3712Z" fill="white"/>
<path d="M479.152 42.8326C490.87 42.8326 500.369 33.3334 500.369 21.6155C500.369 9.89765 490.87 0.398438 479.152 0.398438C467.435 0.398438 457.935 9.89765 457.935 21.6155C457.935 33.3334 467.435 42.8326 479.152 42.8326Z" fill="white"/>
<path d="M297.039 317.604C166.2 317.604 120.937 262.794 119.169 260.672L135.789 247.234C136.143 247.588 177.516 296.387 297.393 296.387C417.269 296.387 458.643 247.588 458.996 247.234L475.616 260.672C473.141 262.794 427.878 317.604 297.039 317.604Z" fill="white"/>
<path d="M102.195 416.968L33.2399 348.013C22.2778 337.051 22.2778 319.016 33.2399 308.054L91.5869 249.707L106.439 264.559L48.4455 323.26C45.6166 326.089 45.6166 330.332 48.4455 333.161L117.401 402.116L102.195 416.968Z" fill="white"/>
<path d="M492.236 416.974L477.385 402.122L546.34 333.167C549.169 330.338 549.169 326.094 546.34 323.265L487.993 264.918L502.845 250.066L561.192 308.06C572.154 319.022 572.154 337.056 561.192 348.019L492.236 416.974Z" fill="white"/>
<path d="M495.066 340.241C473.849 344.838 459.704 358.629 459.35 359.336C459.35 359.336 444.145 373.834 424.342 373.834C404.539 373.834 389.687 359.336 389.334 359.336C388.273 358.275 368.117 338.473 339.474 338.473C310.831 338.473 290.321 358.275 289.614 359.336C289.614 359.336 274.408 373.834 254.605 373.834C234.803 373.834 219.951 359.336 219.597 359.336C218.536 358.275 198.38 338.473 169.737 338.473C141.094 338.473 120.584 358.275 119.877 359.336C119.877 359.336 112.804 366.408 101.842 370.652L103.964 392.223C122.352 386.565 134.022 374.895 134.729 374.542C134.729 374.542 149.934 360.043 169.737 360.043C189.54 360.043 204.392 374.542 204.745 374.542C205.452 375.249 225.962 395.405 254.605 395.405C283.248 395.405 303.758 375.603 304.465 374.542C304.465 374.542 319.671 360.043 339.474 360.043C359.276 360.043 374.128 374.542 374.482 374.542C375.189 375.249 395.699 395.405 424.342 395.405C452.985 395.405 473.495 375.603 474.202 374.542C474.202 374.542 480.921 368.177 491.176 363.933L495.066 340.241Z" fill="white"/>
</g>
<defs>
<clipPath id="clip0_4194_124">
<rect width="594.078" height="525.477" fill="white" transform="translate(0 0.40625)"/>
</clipPath>
</defs>
</svg>
