<svg id="steady_eddy" data-name="steady eddy" xmlns="http://www.w3.org/2000/svg" width="55.857" height="66.692" viewBox="0 0 55.857 66.692">
  <circle id="Ellipse_148" data-name="Ellipse 148" cx="2.327" cy="2.327" r="2.327" transform="translate(18.619 24.438)" fill="#fff"/>
  <circle id="Ellipse_149" data-name="Ellipse 149" cx="2.327" cy="2.327" r="2.327" transform="translate(32.584 24.438)" fill="#fff"/>
  <path id="Path_508" data-name="Path 508" d="M4877.788,2492.845h-.272c-.018-.263-.036-.524-.059-.78a1.685,1.685,0,0,0-1.677-1.548h-.755c.065-.987.1-2.025.1-3.123a20.6,20.6,0,0,0-3.539-11.578l.3-.04v-2a1.1,1.1,0,0,0-1.1-1.1h-.452a15.9,15.9,0,0,0-8.146-13.882v-1.538a1.259,1.259,0,0,0-1.26-1.259h-2.643a1.407,1.407,0,0,0-1.384-1.164h-4.941a1.405,1.405,0,0,0-1.383,1.164h-2.644a1.26,1.26,0,0,0-1.26,1.259v1.538a15.9,15.9,0,0,0-8.146,13.882h-.452a1.1,1.1,0,0,0-1.1,1.1v2l.3.04a20.6,20.6,0,0,0-3.539,11.578c0,1.1.035,2.136.1,3.123h-.755a1.686,1.686,0,0,0-1.677,1.548c-.022.255-.041.517-.058.78h-.272a4.574,4.574,0,0,0-4.569,4.568v2.5a4.574,4.574,0,0,0,4.569,4.568h.7c2.336,16.8,12.087,17.041,21.816,17.041h1.689c9.731,0,19.48-.238,21.816-17.041h.7a4.573,4.573,0,0,0,4.568-4.568v-2.5A4.573,4.573,0,0,0,4877.788,2492.845Zm-43.934,9.5H4875a38.909,38.909,0,0,1-.809,5.043h-39.53A38.738,38.738,0,0,1,4833.854,2502.349Zm10.294-9.5v7.564h-2.716v-7.564Zm20.559,7.564v-7.564h2.715v7.564Zm-1.939,0h-16.68v-7.564h16.68Zm12.521-4.441q0,2.349-.133,4.441h-5.793v-7.564h5.821C4875.253,2493.832,4875.288,2494.88,4875.288,2495.968Zm-28.618-34.428v.662a1.164,1.164,0,0,0,2.327,0v-3.879h1.552v8.534a1.164,1.164,0,1,0,2.327,0v-9.7h3.1v9.7a1.164,1.164,0,1,0,2.327,0v-8.534h1.552v3.879a1.164,1.164,0,0,0,2.327,0v-.662a13.584,13.584,0,0,1,5.766,9.971H4840.9A13.584,13.584,0,0,1,4846.67,2461.54Zm-5.818,12.3H4868v.109l-10.822,1.443h-5.51l-10.821-1.443Zm22.791,3.879a1.157,1.157,0,0,1,.846.372,13.669,13.669,0,0,1,3.569,7.774H4840.8a13.668,13.668,0,0,1,3.57-7.774,1.157,1.157,0,0,1,.846-.372h6.306l2.466.329a3.327,3.327,0,0,0,.885,0l2.467-.329Zm-27.585,9.678a18.277,18.277,0,0,1,3.845-11.227l-2.019-.269,4.754.634a15.976,15.976,0,0,0-4.252,10.862v.008a.787.787,0,0,0,.787.787h30.5a.794.794,0,0,0,.794-.794h0a15.978,15.978,0,0,0-4.252-10.862l2.734-.365a18.273,18.273,0,0,1,3.845,11.227c0,1.088-.035,2.135-.1,3.123h-36.531C4836.093,2489.531,4836.058,2488.483,4836.058,2487.4Zm-2.386,5.45h5.821v7.564H4833.7q-.131-2.094-.132-4.441C4833.567,2494.881,4833.6,2493.833,4833.672,2492.845Zm-2.6,9.31a2.244,2.244,0,0,1-2.242-2.241v-2.5a2.244,2.244,0,0,1,2.242-2.241h.18c0,.263-.007.526-.007.8,0,2.256.091,4.311.262,6.187Zm38.139,14.215c-3.664,2.826-8.885,2.826-13.935,2.826h-1.689c-5.049,0-10.27,0-13.934-2.826a13.809,13.809,0,0,1-4.456-7.039h38.468A13.814,13.814,0,0,1,4869.207,2516.37Zm10.822-16.456a2.243,2.243,0,0,1-2.241,2.241h-.435c.171-1.876.262-3.93.262-6.187,0-.27,0-.533-.007-.8h.18a2.243,2.243,0,0,1,2.241,2.241Z" transform="translate(-4826.499 -2454.831)" fill="#fff"/>
</svg>
