<svg id="straight_no_chaser" data-name="straight no chaser" xmlns="http://www.w3.org/2000/svg" width="55.857" height="67.949" viewBox="0 0 55.857 67.949">
  <path id="Path_458" data-name="Path 458" d="M2568.974,2584.909h0a15.978,15.978,0,0,0-4.275-10.888,3.482,3.482,0,0,0-2.553-1.118h-18.429a3.481,3.481,0,0,0-2.553,1.118,15.976,15.976,0,0,0-4.275,10.888v.008a.787.787,0,0,0,.787.787h30.5A.794.794,0,0,0,2568.974,2584.909Zm-29.672-1.533a13.661,13.661,0,0,1,3.57-7.774,1.156,1.156,0,0,1,.845-.372h18.429a1.157,1.157,0,0,1,.846.372,13.663,13.663,0,0,1,3.569,7.774Z" transform="translate(-2525.003 -2551.087)" fill="#fff"/>
  <circle id="Ellipse_136" data-name="Ellipse 136" cx="2.327" cy="2.327" r="2.327" transform="translate(18.619 25.694)" fill="#fff"/>
  <circle id="Ellipse_137" data-name="Ellipse 137" cx="2.327" cy="2.327" r="2.327" transform="translate(32.583 25.694)" fill="#fff"/>
  <path id="Path_459" data-name="Path 459" d="M2557.536,2555.933h-.273c-.018-.263-.036-.524-.058-.779a1.685,1.685,0,0,0-1.677-1.548h-.756c.065-.987.1-2.025.1-3.123a20.646,20.646,0,0,0-7.5-15.934l.98-.153a10.622,10.622,0,0,0,8.111-6.353l.243-.581a1.3,1.3,0,1,0-2.4-1l-.243.581a8,8,0,0,1-6.111,4.787l-2.793.436-3.057-12.812a3.489,3.489,0,0,0-1.753-2.269l-.2-.106a3.489,3.489,0,0,0-2.746-.231l-2.128.709a3.493,3.493,0,0,1-2.207,0l-2.128-.709a3.489,3.489,0,0,0-2.746.231l-.2.106a3.489,3.489,0,0,0-1.753,2.269l-3.057,12.812-2.793-.436a8,8,0,0,1-6.112-4.787l-.243-.581a1.3,1.3,0,0,0-2.4,1l.243.581a10.622,10.622,0,0,0,8.11,6.353l.98.153a20.644,20.644,0,0,0-7.5,15.934c0,1.1.035,2.136.1,3.123h-.756a1.686,1.686,0,0,0-1.677,1.548c-.022.255-.04.516-.058.779h-.273a4.574,4.574,0,0,0-4.568,4.569v2.5a4.574,4.574,0,0,0,4.568,4.568h.7c2.336,16.8,12.086,17.042,21.816,17.042h1.689c9.731,0,19.48-.239,21.816-17.042h.7A4.573,4.573,0,0,0,2562.1,2563v-2.5A4.574,4.574,0,0,0,2557.536,2555.933Zm-11.768-21.133.044.187-.044-.187Zm-16.991-14.748a.887.887,0,0,1,.446-.577l.2-.106a.9.9,0,0,1,.418-.1.885.885,0,0,1,.281.045l2.129.709a6.089,6.089,0,0,0,3.853,0l2.129-.709a.891.891,0,0,1,.7.059l.2.106a.887.887,0,0,1,.446.577l3.039,12.736-3.97.53a33.807,33.807,0,0,1-8.934,0l-3.97-.53Zm-12.972,30.43a18.366,18.366,0,0,1,8.216-15.3l5.343.712a36.369,36.369,0,0,0,9.622,0l5.343-.712a18.365,18.365,0,0,1,8.216,15.3c0,1.088-.035,2.135-.1,3.123H2515.91C2515.841,2552.618,2515.806,2551.57,2515.806,2550.483Zm-4.99,14.759a2.243,2.243,0,0,1-2.241-2.241v-2.5a2.244,2.244,0,0,1,2.241-2.242h.18c0,.263-.008.526-.008.8,0,2.257.092,4.311.262,6.187Zm16.378,8.146h-11.922a25.215,25.215,0,0,1-.906-3.1h12.828Zm21.761,6.069c-3.663,2.826-8.885,2.826-13.934,2.826h-1.689c-5.049,0-10.27,0-13.934-2.827a11.622,11.622,0,0,1-3.083-3.742h11.23a1.847,1.847,0,0,0,1.5.776H2539.3a1.847,1.847,0,0,0,1.5-.776h11.231A11.614,11.614,0,0,1,2548.955,2579.458Zm-19.434-5.293v-4.655h9.31v4.655Zm11.637-3.88h12.828a25.089,25.089,0,0,1-.905,3.1h-11.922Zm13.272-2.327h-13.623a1.848,1.848,0,0,0-1.5-.775h-10.258a1.848,1.848,0,0,0-1.5.775h-13.622a57.992,57.992,0,0,1-.606-8.9c0-1.088.035-2.135.1-3.122h41.512c.069.987.1,2.035.1,3.122A57.961,57.961,0,0,1,2554.43,2567.957Zm5.347-4.956a2.243,2.243,0,0,1-2.241,2.241h-.434c.171-1.876.262-3.93.262-6.187,0-.27,0-.533-.008-.8h.181a2.244,2.244,0,0,1,2.241,2.242Z" transform="translate(-2506.247 -2516.662)" fill="#fff"/>
</svg>
