<svg id="tech_titan" data-name="tech titan" xmlns="http://www.w3.org/2000/svg" width="55.858" height="62.037" viewBox="0 0 55.858 62.037">
  <path id="Path_509" data-name="Path 509" d="M5045.789,2500.19h-.273c-.017-.263-.036-.524-.058-.78a1.685,1.685,0,0,0-1.676-1.548h-2.1l-1.232-14.292a12.7,12.7,0,0,0-.67-3.1l.838-.872a4.08,4.08,0,0,0-.112-5.769l-.414-.4,1.568-1.63a2.327,2.327,0,1,0-1.678-1.614l-1.568,1.63-.414-.4a4,4,0,0,0-2.908-1.138,4.057,4.057,0,0,0-2.862,1.25l-.63.656-9.172-5.352-9.172,5.352-.631-.656a4.057,4.057,0,0,0-2.862-1.25,4.013,4.013,0,0,0-2.908,1.138l-.414.4-1.568-1.63a2.327,2.327,0,1,0-1.678,1.614l1.569,1.63-.414.4a4.085,4.085,0,0,0-.112,5.769l.838.872a12.672,12.672,0,0,0-.669,3.1l-1.232,14.292h-2.1a1.686,1.686,0,0,0-1.676,1.548c-.022.255-.041.517-.058.78h-.272a4.574,4.574,0,0,0-4.569,4.568v2.5a4.574,4.574,0,0,0,4.569,4.568h.7c2.336,16.8,12.087,17.041,21.815,17.041h1.691c9.729,0,19.48-.239,21.816-17.041h.7a4.573,4.573,0,0,0,4.568-4.568v-2.5A4.573,4.573,0,0,0,5045.789,2500.19Zm-11.88-27.049a1.754,1.754,0,0,1,2.478-.048l2.505,2.41a1.752,1.752,0,0,1,.048,2.478l-.215.224a12.675,12.675,0,0,0-4.523-4.5l-.532-.311Zm-.88,2.569a10.376,10.376,0,0,1,5.1,8.061l1.2,13.916-10.447,2.359-1.078-12.571,5.035-1.928a3.771,3.771,0,0,0,2.364-4.114l-.1-.623a3.742,3.742,0,0,0-3.708-3.152H5013.46a3.742,3.742,0,0,0-3.708,3.151l-.1.623a3.771,3.771,0,0,0,2.364,4.113l5.034,1.928-1.077,12.571-10.447-2.359,1.2-13.916a10.377,10.377,0,0,1,5.1-8.061l10.6-6.186Zm-27.112,2.271a1.754,1.754,0,0,1,.048-2.478l2.505-2.41a1.753,1.753,0,0,1,2.478.048l.239.249-.532.311a12.68,12.68,0,0,0-4.523,4.5Zm-6.848,31.518a2.243,2.243,0,0,1-2.241-2.241v-2.5a2.243,2.243,0,0,1,2.241-2.241h.179c0,.262-.007.526-.007.8,0,2.257.091,4.311.262,6.187Zm38.139,14.217c-3.662,2.824-8.883,2.824-13.934,2.824h-1.691c-5.046,0-10.268,0-13.934-2.828-4.092-3.154-6.082-9.829-6.082-20.4,0-1.09.035-2.137.1-3.123h4.372l12.021,2.716,1.455-16.977-6.671-2.554a1.431,1.431,0,0,1-.9-1.566l.1-.622a1.429,1.429,0,0,1,1.41-1.2H5031.4a1.429,1.429,0,0,1,1.411,1.2l.1.622a1.43,1.43,0,0,1-.9,1.566l-6.67,2.554,1.455,16.977,12.021-2.716h4.371c.07.985.1,2.032.1,3.123C5043.289,2513.884,5041.3,2520.559,5037.207,2523.717Zm10.822-16.458a2.244,2.244,0,0,1-2.241,2.241h-.434c.17-1.876.262-3.93.262-6.187,0-.269,0-.533-.008-.8h.18a2.244,2.244,0,0,1,2.241,2.241Z" transform="translate(-4994.499 -2466.831)" fill="#fff"/>
  <path id="Path_510" data-name="Path 510" d="M5058.912,2567.831H5046.5v6.206h3.1v-3.1h3.1v9.31h-3.1v3.1h9.31v-3.1h-3.1v-9.31h3.1v3.1h3.1v-6.206h-3.1Z" transform="translate(-5026.328 -2528.653)" fill="#fff"/>
</svg>
