<svg id="trend_stalker" data-name="trend stalker" xmlns="http://www.w3.org/2000/svg" width="73.313" height="57.651" viewBox="0 0 73.313 57.651">
  <path id="Path_455" data-name="Path 455" d="M2150.013,2579.289h0a15.976,15.976,0,0,0-4.274-10.888,3.482,3.482,0,0,0-2.553-1.118h-18.429a3.482,3.482,0,0,0-2.553,1.118,15.976,15.976,0,0,0-4.275,10.888v.008a.788.788,0,0,0,.788.787h30.5A.794.794,0,0,0,2150.013,2579.289Zm-29.672-1.534a13.663,13.663,0,0,1,3.569-7.774,1.155,1.155,0,0,1,.845-.372h18.429a1.156,1.156,0,0,1,.846.372,13.663,13.663,0,0,1,3.569,7.774Z" transform="translate(-2088.586 -2555.764)" fill="#fff"/>
  <circle id="Ellipse_134" data-name="Ellipse 134" cx="2.327" cy="2.327" r="2.327" transform="translate(36.075 15.397)" fill="#fff"/>
  <circle id="Ellipse_135" data-name="Ellipse 135" cx="2.327" cy="2.327" r="2.327" transform="translate(50.039 15.397)" fill="#fff"/>
  <path id="Path_456" data-name="Path 456" d="M2111.03,2566.562h-.272c-.018-.262-.036-.524-.059-.78a1.685,1.685,0,0,0-1.677-1.547h-.755c.065-.986.1-2.025.1-3.123a20.6,20.6,0,0,0-2.889-10.546l.578-.6a4.081,4.081,0,0,0-.112-5.77l-.414-.4,1.568-1.63a2.328,2.328,0,1,0-1.677-1.614l-1.569,1.63-.414-.4a4.086,4.086,0,0,0-5.769.112l-.7.726a20.685,20.685,0,0,0-18.6,0l-.7-.726a4.086,4.086,0,0,0-5.769-.112l-.414.4-1.569-1.63a2.327,2.327,0,1,0-1.677,1.614l1.569,1.63-.414.4a4.081,4.081,0,0,0-.111,5.769l.577.6a20.6,20.6,0,0,0-2.889,10.546c0,1.1.035,2.136.1,3.123h-.755a1.686,1.686,0,0,0-1.677,1.547c-.022.256-.04.517-.058.78h-.273a4.541,4.541,0,0,0-1.6.294,11.1,11.1,0,0,0-.73-1.174,10.866,10.866,0,1,0,.367,12.07,4.535,4.535,0,0,0,1.959.448h.7c2.336,16.8,12.086,17.042,21.816,17.042h1.689c9.73,0,19.48-.238,21.816-17.042h.7a4.574,4.574,0,0,0,4.569-4.568v-2.5A4.574,4.574,0,0,0,2111.03,2566.562Zm-11.683-23.05a1.755,1.755,0,0,1,2.478-.048l2.506,2.41a1.753,1.753,0,0,1,.048,2.479l-.23.24a20.809,20.809,0,0,0-5.1-4.768Zm-28.385,4.841a1.755,1.755,0,0,1,.048-2.478l2.506-2.41a1.756,1.756,0,0,1,2.478.048l.3.313a20.809,20.809,0,0,0-5.1,4.768Zm-1.662,12.76a18.37,18.37,0,0,1,36.741,0c0,1.087-.035,2.135-.1,3.123H2069.4C2069.335,2563.247,2069.3,2562.2,2069.3,2561.113Zm-10.7,18.515a9.378,9.378,0,1,1,2.832-12.038,4.562,4.562,0,0,0-1.687,3.542v2.5a4.553,4.553,0,0,0,1.395,3.279A9.327,9.327,0,0,1,2058.6,2579.627Zm5.713-3.755a2.243,2.243,0,0,1-2.241-2.241v-2.5a2.244,2.244,0,0,1,2.241-2.241h.18c0,.262-.008.526-.008.8,0,2.257.091,4.311.262,6.187Zm38.139,14.215c-3.663,2.826-8.885,2.826-13.934,2.826h-1.689c-5.049,0-10.27,0-13.934-2.827a11.923,11.923,0,0,1-3.342-4.24l7.257-7.227,9.876,9.876,12.414-12.414,2.318,2.318,2.547-9.51-9.51,2.547,2.318,2.318-10.086,10.087-9.872-9.871-8.547,8.512a46.838,46.838,0,0,1-1.455-12.8c0-1.088.035-2.135.1-3.123h41.512c.069.987.1,2.035.1,3.123C2108.531,2580.257,2106.542,2586.93,2102.449,2590.087Zm10.823-16.456a2.244,2.244,0,0,1-2.242,2.241h-.434c.171-1.876.261-3.93.261-6.187,0-.27,0-.533-.008-.8h.18a2.244,2.244,0,0,1,2.242,2.241Z" transform="translate(-2042.286 -2537.59)" fill="#fff"/>
  <path id="Path_457" data-name="Path 457" d="M2064.893,2613.895l-6.7-4.954a.411.411,0,0,0-.637.455l2.515,7.943h0l6.7,4.955a.4.4,0,0,0,.243.083.413.413,0,0,0,.394-.538Zm-3.509,2.572-.014-.055,2.225-1.589.048.031,1.358,4.289Z" transform="translate(-2051.622 -2581.213)" fill="#fff"/>
</svg>
