<svg width="716" height="590" viewBox="0 0 716 590" fill="none" xmlns="http://www.w3.org/2000/svg">
<g clip-path="url(#clip0_4194_248)">
<path d="M358.319 110.733C450.614 110.733 525.934 185.7 525.934 278.348C525.934 288.249 525.581 297.797 524.874 306.637H358.319H191.765C191.058 297.797 190.704 288.249 190.704 278.348C191.058 186.053 266.025 110.733 358.319 110.733ZM358.319 89.5156C254.002 89.5156 169.487 174.03 169.487 278.348C169.487 291.078 169.841 302.747 170.902 314.063C171.609 322.196 178.328 328.208 186.107 328.208H357.966H529.824C537.957 328.208 544.323 322.196 545.03 314.063C546.091 303.101 546.444 291.078 546.444 278.348C547.151 174.03 462.637 89.5156 358.319 89.5156Z" fill="white"/>
<path d="M547.505 327.85C548.212 336.69 548.566 346.238 548.566 356.139C548.566 452.677 530.531 513.499 493.048 542.142C459.808 567.957 412.069 567.957 366.099 567.957H362.209H358.319H354.43H350.54C304.569 567.957 256.831 567.957 223.591 542.142C186.107 513.499 168.073 452.677 168.073 356.139C168.073 346.238 168.426 336.69 169.134 327.85H358.319H547.505ZM553.163 306.633H358.673H164.183C156.05 306.633 149.685 312.644 148.977 320.778C147.917 331.74 147.563 343.763 147.563 356.493C147.563 586.698 249.405 589.527 351.247 589.527C353.722 589.527 356.551 589.527 359.027 589.527C361.502 589.527 364.331 589.527 366.806 589.527C468.648 589.527 570.49 586.698 570.49 356.493C570.49 343.763 570.137 332.093 569.076 320.778C567.661 312.998 560.943 306.633 553.163 306.633Z" fill="white"/>
<path d="M442.481 189.94C445.31 189.94 448.138 191.001 450.26 193.476C468.648 213.279 479.964 238.032 482.793 264.2H234.199C237.028 237.678 248.344 212.925 266.732 193.476C268.854 191.354 271.683 189.94 274.512 189.94H442.481ZM442.481 168.723H274.512C265.671 168.723 257.185 172.259 251.173 178.978C227.127 205.145 212.275 239.8 212.275 278.344C212.275 282.234 215.458 285.417 219.348 285.417H497.291C501.181 285.417 504.364 282.234 504.364 278.344C504.364 240.154 489.512 205.145 465.466 178.978C459.808 172.612 451.321 168.723 442.481 168.723Z" fill="white"/>
<path d="M294.668 246.524C306.386 246.524 315.885 237.025 315.885 225.307C315.885 213.589 306.386 204.09 294.668 204.09C282.95 204.09 273.451 213.589 273.451 225.307C273.451 237.025 282.95 246.524 294.668 246.524Z" fill="white"/>
<path d="M421.971 246.524C433.689 246.524 443.188 237.025 443.188 225.307C443.188 213.589 433.689 204.09 421.971 204.09C410.253 204.09 400.754 213.589 400.754 225.307C400.754 237.025 410.253 246.524 421.971 246.524Z" fill="white"/>
<path d="M571.197 433.937H556.346V412.72H571.197C582.513 412.72 591.707 403.526 591.707 392.21V369.579C591.707 358.263 582.513 349.069 571.197 349.069H552.809V327.852H571.197C594.183 327.852 612.924 346.593 612.924 369.579V392.21C612.924 415.549 594.183 433.937 571.197 433.937Z" fill="white"/>
<path d="M160.293 433.937H145.441C122.456 433.937 103.714 415.195 103.714 392.21V369.579C103.714 346.593 122.456 327.852 145.441 327.852H163.829V349.069H145.441C134.126 349.069 124.931 358.263 124.931 369.579V392.21C124.931 403.526 134.126 412.72 145.441 412.72H160.293V433.937Z" fill="white"/>
<path d="M358.319 53.7927C372.967 53.7927 384.841 41.9187 384.841 27.2714C384.841 12.624 372.967 0.75 358.319 0.75C343.672 0.75 331.798 12.624 331.798 27.2714C331.798 41.9187 343.672 53.7927 358.319 53.7927Z" fill="white"/>
<path d="M368.928 43.1914H347.711V102.246H368.928V43.1914Z" fill="white"/>
<path d="M119.627 357.905L122.102 356.137L51.0252 317.946C29.1009 306.277 17.0779 281.877 21.3213 257.124L24.1503 240.15L89.9232 275.159C92.3986 276.219 94.8739 276.573 97.3492 275.866C99.8245 275.159 101.946 273.39 103.007 271.269C105.482 266.672 103.714 260.66 99.1173 257.831L81.0828 248.284C59.1585 236.614 47.1354 211.861 51.3789 187.461L54.2078 170.488L114.323 202.667C116.798 204.081 119.274 204.081 121.749 203.374C124.224 202.667 126.346 200.899 127.407 198.777C128.821 196.302 128.821 193.826 128.114 191.351C127.407 188.876 125.639 186.754 123.517 185.693L100.178 172.963C78.2538 161.294 66.2308 136.54 70.4742 112.141L73.3032 95.1669L217.226 172.256L227.834 155.636L58.4512 65.1094L51.0252 108.958C48.9035 122.396 49.9644 136.187 54.5614 148.917L39.7095 140.43L31.9299 184.279C29.8081 197.716 30.869 211.507 35.466 224.238L9.2983 210.093L1.87232 253.588C-3.78557 286.474 12.1272 319.361 41.8312 335.274L112.908 373.464L119.627 357.905Z" fill="white"/>
<path d="M714.766 253.588L707.34 210.093L681.173 224.238C685.77 211.507 687.184 197.716 684.709 184.279L677.283 140.784L662.077 148.917C666.674 136.187 668.089 122.396 665.613 108.958L658.187 65.1094L488.097 156.343C493.401 162.001 498.352 167.305 501.888 171.195L643.336 95.1669L646.164 112.141C650.408 136.894 638.385 161.294 616.461 172.963L593.122 185.693C590.646 187.108 589.232 188.876 588.525 191.351C587.817 193.826 588.171 196.655 589.232 198.777C590.646 201.252 592.415 202.667 594.89 203.374C597.365 204.081 600.194 203.728 602.316 202.667L662.431 170.488L665.26 187.461C669.503 212.215 657.48 236.614 635.556 248.284L617.521 257.831C612.571 260.307 610.803 266.318 613.632 271.269C615.046 273.744 616.814 275.159 619.289 275.866C621.765 276.573 624.594 276.219 626.715 275.159L692.488 240.15L695.317 257.124C699.561 281.877 687.538 306.277 665.613 317.946L598.072 354.369L605.498 372.757L674.808 335.627C704.511 319.714 720.424 286.828 714.766 253.588Z" fill="white"/>
</g>
<defs>
<clipPath id="clip0_4194_248">
<rect width="715.016" height="588.774" fill="white" transform="translate(0.811523 0.75)"/>
</clipPath>
</defs>
</svg>
