<svg id="wild_catter" data-name="wild catter" xmlns="http://www.w3.org/2000/svg" width="55.857" height="59.322" viewBox="0 0 55.857 59.322">
  <circle id="Ellipse_156" data-name="Ellipse 156" cx="2.327" cy="2.327" r="2.327" transform="translate(18.619 15.516)" fill="#fff"/>
  <circle id="Ellipse_157" data-name="Ellipse 157" cx="2.327" cy="2.327" r="2.327" transform="translate(32.584 15.516)" fill="#fff"/>
  <path id="Path_523" data-name="Path 523" d="M5885.788,2504.475h-.272c-.018-.263-.036-.525-.058-.78a1.687,1.687,0,0,0-1.677-1.548h-.755q.07-1.076.091-2.24l2.378.661a.768.768,0,0,0,.208.029.776.776,0,0,0,.208-1.524l-2.8-.779q-.034-.995-.162-1.965h4.7a.776.776,0,0,0,0-1.552h-4.954a20.565,20.565,0,0,0-2.188-5.84c2.692-7.75-5.437-15.106-5.437-15.106a17.014,17.014,0,0,0-5,5.957,20.711,20.711,0,0,0-15.6.129,16.959,16.959,0,0,0-5.06-6.086s-8.146,7.37-5.431,15.128c.049.138.1.269.154.4a20.527,20.527,0,0,0-1.96,5.422h-4.954a.776.776,0,0,0,0,1.552h4.7c-.083.646-.139,1.3-.162,1.965l-2.8.779a.776.776,0,1,0,.416,1.5l2.377-.661q.019,1.165.091,2.24h-.755a1.686,1.686,0,0,0-1.678,1.548c-.021.255-.041.517-.058.78h-.273a4.573,4.573,0,0,0-4.568,4.568v2.5a4.573,4.573,0,0,0,4.568,4.568h.7c2.336,16.8,12.086,17.041,21.816,17.041h1.688c9.731,0,19.481-.238,21.816-17.041h.7a4.573,4.573,0,0,0,4.568-4.568v-2.5A4.573,4.573,0,0,0,5885.788,2504.475Zm-10.9-27.428c1.63,1.923,4.067,5.468,3.8,9.19a20.788,20.788,0,0,0-6.519-5.471A13.687,13.687,0,0,1,5874.892,2477.047Zm-25.315,0a13.516,13.516,0,0,1,2.8,3.889,20.792,20.792,0,0,0-6.555,5.742C5845.317,2482.8,5847.882,2479.045,5849.576,2477.047Zm-5.517,22.216,2.284-.634a.776.776,0,0,0-.415-1.5l-1.813.5c.033-.44.079-.877.142-1.308h1.879a.776.776,0,1,0,0-1.552h-1.577a18.365,18.365,0,0,1,35.737,0h-1.577a.776.776,0,0,0,0,1.552h1.879c.063.431.109.868.142,1.308l-1.813-.5a.776.776,0,0,0-.415,1.5l2.284.634c0,1-.039,1.97-.1,2.885h-36.532C5844.1,2501.233,5844.064,2500.265,5844.059,2499.262Zm-4.992,14.522a2.243,2.243,0,0,1-2.241-2.241v-2.5a2.243,2.243,0,0,1,2.241-2.241h.18c0,.263-.007.526-.007.8,0,2.257.091,4.311.262,6.187ZM5877.207,2528c-3.663,2.826-8.885,2.826-13.935,2.826h-1.688c-5.049,0-10.27,0-13.935-2.826-4.092-3.158-6.082-9.831-6.082-20.4,0-1.086.035-2.135.1-3.123h41.512c.069.987.1,2.035.1,3.123C5883.288,2518.169,5881.3,2524.843,5877.207,2528Zm10.823-16.456a2.244,2.244,0,0,1-2.241,2.241h-.434c.171-1.876.262-3.93.262-6.187,0-.27,0-.532-.008-.8h.181a2.244,2.244,0,0,1,2.241,2.241Z" transform="translate(-5834.499 -2473.831)" fill="#fff"/>
  <path id="Path_524" data-name="Path 524" d="M5891.024,2534.124a5.627,5.627,0,0,0,7.206,0l1.548-1.291a.776.776,0,1,0-.993-1.192l-1.548,1.291a4.078,4.078,0,0,1-5.22,0l-2.044-1.7-2.167,1.806a4.054,4.054,0,0,1-5.095.1l-1.962-1.51a.776.776,0,1,0-.947,1.229l1.963,1.51a5.6,5.6,0,0,0,7.034-.137l1.173-.978Z" transform="translate(-5862.043 -2508.964)" fill="#fff"/>
</svg>
