<svg width="99" height="71" viewBox="0 0 99 71" fill="none" xmlns="http://www.w3.org/2000/svg">
<g clip-path="url(#clip0_4328_406)">
<g clip-path="url(#clip1_4328_406)">
<path d="M12.4 21.9999C12.4 33.9999 12.4 45.9999 12.4 57.9999C36.4 61.6999 60.4 39.6999 84.4 53.6999C84.4 41.6999 84.4 29.6999 84.4 17.6999C60.4 3.69986 36.4 25.6999 12.4 21.9999ZM81.4 49.0999C59.4 38.9999 37.4 56.8999 15.4 55.2999C15.4 45.2999 15.4 35.2999 15.4 25.2999C37.4 26.8999 59.4 8.99986 81.4 19.0999C81.4 29.0999 81.4 39.0999 81.4 49.0999Z" fill="white"/>
<path d="M48.4 45.9998C55 44.0998 60.4 37.9998 60.4 31.3998C60.4 24.6998 55 20.0998 48.4 21.9998C41.8 23.8998 36.4 30.7998 36.4 37.3998C36.4 44.0998 41.8 47.8998 48.4 45.9998ZM48.4 24.9998C53.4 23.5998 57.4 26.8998 57.4 31.8998C57.4 36.8998 53.4 41.5998 48.4 42.9998C43.4 44.3998 39.4 41.5998 39.4 36.5998C39.4 31.5998 43.4 26.3998 48.4 24.9998Z" fill="white"/>
<path d="M26.4 45.6998C29.7 45.1998 32.4 41.7998 32.4 38.4998C32.4 35.1998 29.7 33.1998 26.4 33.6998C23.1 34.2998 20.4 37.0998 20.4 40.3998C20.4 43.6998 23.1 46.2998 26.4 45.6998ZM26.4 36.6998C28.1 36.3998 29.4 37.4998 29.4 39.0998C29.4 40.7998 28.1 42.3998 26.4 42.6998C24.7 42.9998 23.4 41.7998 23.4 40.0998C23.4 38.4998 24.7 36.9998 26.4 36.6998Z" fill="white"/>
<path d="M70.4 37.1999C73.7 37.4999 76.4 35.5999 76.4 32.2999C76.4 28.9999 73.7 25.4999 70.4 25.1999C67.1 24.8999 64.4 27.7999 64.4 31.0999C64.4 34.3999 67.1 36.8999 70.4 37.1999ZM70.4 28.1999C72.1 28.3999 73.4 29.9999 73.4 31.5999C73.4 33.2999 72.1 34.2999 70.4 34.1999C68.7 33.9999 67.4 32.6999 67.4 30.9999C67.4 29.3999 68.7 27.9999 70.4 28.1999Z" fill="white"/>
<path d="M9.39999 18.3999C31.4 23.8999 53.4 5.59987 75.4 10.9999C75.4 11.6999 75.4 12.2999 75.4 12.9999C76.4 13.1999 77.4 13.4999 78.4 13.8999C78.4 12.1999 78.4 10.5999 78.4 8.89987C54.4 0.499868 30.4 22.8999 6.39999 14.4999C6.39999 26.4999 6.39999 38.4999 6.39999 50.4999C8.09999 51.0999 9.69999 51.4999 11.4 51.7999C11.4 50.7999 11.4 49.7999 11.4 48.7999C10.7 48.6999 10.1 48.4999 9.39999 48.3999C9.39999 38.3999 9.39999 28.3999 9.39999 18.3999Z" fill="white"/>
<path d="M3.39999 10.2999C25.4 20.4999 47.4 2.59985 69.4 4.09985C69.4 4.79985 69.4 5.39986 69.4 6.09985C70.4 6.19985 71.4 6.29986 72.4 6.39986C72.4 4.69986 72.4 3.09985 72.4 1.39985C48.4 -2.30015 24.4 19.6999 0.399994 5.69985C0.399994 17.6999 0.399994 29.6999 0.399994 41.6999C2.09999 42.6999 3.69999 43.4999 5.39999 44.0999C5.39999 43.0999 5.39999 42.0999 5.39999 41.0999C4.69999 40.7999 4.09999 40.5999 3.39999 40.2999C3.39999 30.2999 3.39999 20.2999 3.39999 10.2999Z" fill="white"/>
<path d="M84.4 35.8999L70.2 42.9999V51.5999V53.5999V60.1999V62.1999V70.7999L84.4 63.6999L98.6 70.7999V62.1999V60.1999V53.5999V51.5999V42.9999L84.4 35.8999Z" fill="#231F20"/>
<path d="M72.2 50.2999V44.1999L84.4 38.0999L96.6 44.1999V50.2999L84.4 44.1999L72.2 50.2999Z" fill="#39B54A"/>
<path d="M72.2 58.8999V52.7999L84.4 46.7999L96.6 52.7999V58.8999L84.4 52.7999L72.2 58.8999Z" fill="#39B54A"/>
<path d="M72.2 67.4999V61.4999L84.4 55.3999L96.6 61.4999V67.4999L84.4 61.4999L72.2 67.4999Z" fill="#39B54A"/>
</g>
</g>
<defs>
<clipPath id="clip0_4328_406">
<rect width="98.2" height="69.8" fill="white" transform="translate(0.399994 0.599976)"/>
</clipPath>
<clipPath id="clip1_4328_406">
<rect width="98.2" height="69.8" fill="white" transform="translate(0.399994 0.999878)"/>
</clipPath>
</defs>
</svg>
