<svg width="99" height="71" viewBox="0 0 99 71" fill="none" xmlns="http://www.w3.org/2000/svg">
<g clip-path="url(#clip0_4328_1318)">
<path d="M12.4 21.6C12.4 33.6 12.4 45.6 12.4 57.6C36.4 61.3 60.4 39.3 84.4 53.3C84.4 41.3 84.4 29.3 84.4 17.3C60.4 3.29996 36.4 25.3 12.4 21.6ZM81.4 48.7C59.4 38.6 37.4 56.5 15.4 54.9C15.4 44.9 15.4 34.9 15.4 24.9C37.4 26.5 59.4 8.59996 81.4 18.7C81.4 28.7 81.4 38.7 81.4 48.7Z" fill="white"/>
<path d="M48.4 45.5999C55 43.6999 60.4 37.5999 60.4 30.9999C60.4 24.2999 55 19.6999 48.4 21.5999C41.8 23.4999 36.4 30.3999 36.4 36.9999C36.4 43.6999 41.8 47.4999 48.4 45.5999ZM48.4 24.5999C53.4 23.1999 57.4 26.4999 57.4 31.4999C57.4 36.4999 53.4 41.1999 48.4 42.5999C43.4 43.9999 39.4 41.1999 39.4 36.1999C39.4 31.1999 43.4 25.9999 48.4 24.5999Z" fill="white"/>
<path d="M26.4 45.2999C29.7 44.7999 32.4 41.3999 32.4 38.0999C32.4 34.7999 29.7 32.7999 26.4 33.2999C23.1 33.8999 20.4 36.6999 20.4 39.9999C20.4 43.2999 23.1 45.8999 26.4 45.2999ZM26.4 36.2999C28.1 35.9999 29.4 37.0999 29.4 38.6999C29.4 40.3999 28.1 41.9999 26.4 42.2999C24.7 42.5999 23.4 41.3999 23.4 39.6999C23.4 38.0999 24.7 36.5999 26.4 36.2999Z" fill="white"/>
<path d="M70.4 36.8C73.7 37.1 76.4 35.2 76.4 31.9C76.4 28.6 73.7 25.1 70.4 24.8C67.1 24.5 64.4 27.4 64.4 30.7C64.4 34 67.1 36.5 70.4 36.8ZM70.4 27.8C72.1 28 73.4 29.6 73.4 31.2C73.4 32.9 72.1 33.9 70.4 33.8C68.7 33.6 67.4 32.3 67.4 30.6C67.4 29 68.7 27.6 70.4 27.8Z" fill="white"/>
<path d="M9.40002 18C31.4 23.5 53.4 5.19997 75.4 10.6C75.4 11.3 75.4 11.9 75.4 12.6C76.4 12.8 77.4 13.1 78.4 13.5C78.4 11.8 78.4 10.2 78.4 8.49997C54.4 0.0999656 30.4 22.5 6.40002 14.1C6.40002 26.1 6.40002 38.1 6.40002 50.1C8.10002 50.7 9.70002 51.1 11.4 51.4C11.4 50.4 11.4 49.4 11.4 48.4C10.7 48.3 10.1 48.1 9.40002 48C9.40002 38 9.40002 28 9.40002 18Z" fill="white"/>
<path d="M3.40002 9.89995C25.4 20.1 47.4 2.19995 69.4 3.69995C69.4 4.39995 69.4 4.99995 69.4 5.69995C70.4 5.79995 71.4 5.89995 72.4 5.99995C72.4 4.29995 72.4 2.69995 72.4 0.999952C48.4 -2.70005 24.4 19.3 0.400024 5.29995C0.400024 17.3 0.400024 29.3 0.400024 41.3C2.10002 42.3 3.70002 43.1 5.40002 43.7C5.40002 42.7 5.40002 41.7 5.40002 40.7C4.70002 40.4 4.10002 40.2 3.40002 39.9C3.40002 29.9 3.40002 19.9 3.40002 9.89995Z" fill="white"/>
<path d="M84.4 35.5L70.2 42.6V51.2V53.2V59.8V61.8V70.4L84.4 63.3L98.6 70.4V61.8V59.8V53.2V51.2V42.6L84.4 35.5Z" fill="#231F20"/>
<path opacity="0.3" d="M72.2 49.9V43.8L84.4 37.7L96.6 43.8V49.9L84.4 43.8L72.2 49.9Z" fill="white"/>
<path opacity="0.3" d="M72.2 58.5V52.4L84.4 46.4L96.6 52.4V58.5L84.4 52.4L72.2 58.5Z" fill="white"/>
<path d="M72.2 67.1V61.1L84.4 55L96.6 61.1V67.1L84.4 61.1L72.2 67.1Z" fill="#39B54A"/>
<path d="M72.2 61.1V67.1L84.4 61.1L96.6 67.1V61.1L84.4 55L72.2 61.1Z" fill="#528AD6"/>
</g>
<defs>
<clipPath id="clip0_4328_1318">
<rect width="98.2" height="69.8" fill="white" transform="translate(0.400024 0.599976)"/>
</clipPath>
</defs>
</svg>
