<svg width="99" height="71" viewBox="0 0 99 71" fill="none" xmlns="http://www.w3.org/2000/svg">
<g clip-path="url(#clip0_4328_1403)">
<g clip-path="url(#clip1_4328_1403)">
<path d="M12.4 21.7999C12.4 33.7999 12.4 45.7999 12.4 57.7999C36.4 61.4999 60.4 39.4999 84.4 53.4999C84.4 41.4999 84.4 29.4999 84.4 17.4999C60.4 3.49991 36.4 25.4999 12.4 21.7999ZM81.4 48.8999C59.4 38.7999 37.4 56.6999 15.4 55.0999C15.4 45.0999 15.4 35.0999 15.4 25.0999C37.4 26.6999 59.4 8.79991 81.4 18.8999C81.4 28.8999 81.4 38.8999 81.4 48.8999Z" fill="white"/>
<path d="M48.4 45.7999C55 43.8999 60.4 37.7999 60.4 31.1999C60.4 24.4999 55 19.8999 48.4 21.7999C41.8 23.6999 36.4 30.5999 36.4 37.1999C36.4 43.8999 41.8 47.6999 48.4 45.7999ZM48.4 24.7999C53.4 23.3999 57.4 26.6999 57.4 31.6999C57.4 36.6999 53.4 41.3999 48.4 42.7999C43.4 44.1999 39.4 41.3999 39.4 36.3999C39.4 31.3999 43.4 26.1999 48.4 24.7999Z" fill="white"/>
<path d="M26.4 45.4999C29.7 44.9999 32.4 41.5999 32.4 38.2999C32.4 34.9999 29.7 32.9999 26.4 33.4999C23.1 34.0999 20.4 36.8999 20.4 40.1999C20.4 43.4999 23.1 46.0999 26.4 45.4999ZM26.4 36.4999C28.1 36.1999 29.4 37.2999 29.4 38.8999C29.4 40.5999 28.1 42.1999 26.4 42.4999C24.7 42.7999 23.4 41.5999 23.4 39.8999C23.4 38.2999 24.7 36.7999 26.4 36.4999Z" fill="white"/>
<path d="M70.4 36.9999C73.7 37.2999 76.4 35.3999 76.4 32.0999C76.4 28.7999 73.7 25.2999 70.4 24.9999C67.1 24.6999 64.4 27.5999 64.4 30.8999C64.4 34.1999 67.1 36.6999 70.4 36.9999ZM70.4 27.9999C72.1 28.1999 73.4 29.7999 73.4 31.3999C73.4 33.0999 72.1 34.0999 70.4 33.9999C68.7 33.7999 67.4 32.4999 67.4 30.7999C67.4 29.1999 68.7 27.7999 70.4 27.9999Z" fill="white"/>
<path d="M9.40002 18.1999C31.4 23.6999 53.4 5.39992 75.4 10.7999C75.4 11.4999 75.4 12.0999 75.4 12.7999C76.4 12.9999 77.4 13.2999 78.4 13.6999C78.4 11.9999 78.4 10.3999 78.4 8.69992C54.4 0.299917 30.4 22.6999 6.40002 14.2999C6.40002 26.2999 6.40002 38.2999 6.40002 50.2999C8.10002 50.8999 9.70002 51.2999 11.4 51.5999C11.4 50.5999 11.4 49.5999 11.4 48.5999C10.7 48.4999 10.1 48.2999 9.40002 48.1999C9.40002 38.1999 9.40002 28.1999 9.40002 18.1999Z" fill="white"/>
<path d="M3.40002 10.0999C25.4 20.2999 47.4 2.3999 69.4 3.8999C69.4 4.5999 69.4 5.1999 69.4 5.8999C70.4 5.9999 71.4 6.0999 72.4 6.1999C72.4 4.4999 72.4 2.8999 72.4 1.1999C48.4 -2.5001 24.4 19.4999 0.400024 5.4999C0.400024 17.4999 0.400024 29.4999 0.400024 41.4999C2.10002 42.4999 3.70002 43.2999 5.40002 43.8999C5.40002 42.8999 5.40002 41.8999 5.40002 40.8999C4.70002 40.5999 4.10002 40.3999 3.40002 40.0999C3.40002 30.0999 3.40002 20.0999 3.40002 10.0999Z" fill="white"/>
<path d="M84.4 35.7L70.2 42.7999V51.3999V53.3999V60V62V70.6L84.4 63.5L98.6 70.6V62V60V53.3999V51.3999V42.7999L84.4 35.7Z" fill="#231F20"/>
<path opacity="0.3" d="M72.2 50.1V44L84.4 37.9L96.6 44V50.1L84.4 44L72.2 50.1Z" fill="white"/>
<path d="M72.2 58.7V52.6L84.4 46.6L96.6 52.6V58.7L84.4 52.6L72.2 58.7Z" fill="#FBB040"/>
<path d="M72.2 67.2999V61.2999L84.4 55.2L96.6 61.2999V67.2999L84.4 61.2999L72.2 67.2999Z" fill="#FBB040"/>
</g>
</g>
<defs>
<clipPath id="clip0_4328_1403">
<rect width="98.2" height="69.8" fill="white" transform="translate(0.400024 0.599976)"/>
</clipPath>
<clipPath id="clip1_4328_1403">
<rect width="98.2" height="69.8" fill="white" transform="translate(0.400024 0.799927)"/>
</clipPath>
</defs>
</svg>
