<svg width="73" height="71" viewBox="0 0 73 71" fill="none" xmlns="http://www.w3.org/2000/svg">
<g clip-path="url(#clip0_4430_2833)">
<path d="M66.6 40.5V64.8H42.3V40.5H66.6ZM69.6 37.5H39.3V67.8H69.6V37.5Z" fill="white"/>
<path d="M18.2 38.7L32.1 52.6L18.2 66.6L4.2 52.6L18.2 38.7ZM18.2 34.5L0 52.6L18.2 70.8L36.4 52.6L18.2 34.5Z" fill="white"/>
<path d="M54.4001 6L67.4001 28.4H41.5L54.4001 6ZM54.4001 0L36.3 31.4H72.6L54.4001 0Z" fill="white"/>
<path d="M18.1 4.20001C24.8 4.20001 30.2 9.60001 30.2 16.3C30.2 23 24.8 28.4 18.1 28.4C11.4 28.4 6 23 6 16.3C6 9.60001 11.4 4.20001 18.1 4.20001ZM18.1 1.20001C9.8 1.20001 3 8.00001 3 16.3C3 24.6 9.8 31.4 18.1 31.4C26.4 31.4 33.2 24.6 33.2 16.3C33.2 8.00001 26.5 1.20001 18.1 1.20001Z" fill="white"/>
</g>
<defs>
<clipPath id="clip0_4430_2833">
<rect width="72.6" height="70.8" fill="white"/>
</clipPath>
</defs>
</svg>
