<svg width="99" height="75" viewBox="0 0 99 75" fill="none" xmlns="http://www.w3.org/2000/svg">
<g clip-path="url(#clip0_4455_12336)">
<path d="M71.7 19.4C75.6 13.2 75.6 5.8 72.3 0.1C71.8 0 71.2 0 70.6 0C64.6 0 58.6 3.1 55 8.7C51.4 14.3 51.1 21 53.6 26.4L51.3 29.9C49.1 33.3 47.8 37 47.4 41C47.1 40.3 46.7 39.7 46.3 39.1L44 35.6C46.5 30.2 46.1 23.5 42.6 17.9C39 12.3 33 9.2 27 9.2C26.4 9.2 25.9 9.2 25.3 9.3C22.1 14.9 22.1 22.4 26 28.5C29.6 34.1 35.6 37.2 41.6 37.2L43.8 40.6C44.5 41.7 45.1 42.9 45.6 44.1H44.8C42.8 44.1 41.2 45.7 41.2 47.7V71C41.2 73 42.8 74.5 44.8 74.5H52.1C54.1 74.5 55.7 72.9 55.7 71V47.7C55.7 45.7 54.1 44.1 52.1 44.1H50.3V43.4C50.3 39.2 51.5 35.1 53.8 31.5L56 28.1C62.1 28.1 68.1 25 71.7 19.4ZM28.6 26.9C25.7 22.4 25.3 16.8 27.3 12.1C32.5 12.2 37.3 14.9 40.2 19.4C42.7 23.3 43.4 28.1 42.1 32.3L31.9 16.6C31.4 15.9 30.5 15.7 29.8 16.2C29.1 16.7 28.9 17.6 29.4 18.3L39.7 34.1C35.2 33.5 31.1 30.9 28.6 26.9ZM52.1 47.1C52.4 47.1 52.7 47.4 52.7 47.7V71C52.7 71.3 52.5 71.5 52.1 71.5H44.8C44.5 71.5 44.2 71.2 44.2 71V47.7C44.2 47.4 44.5 47.1 44.8 47.1H46.7H47.4H49.8H50.4H52.1ZM58.1 25L68.4 9.1C68.9 8.4 68.7 7.5 68 7C67.3 6.5 66.4 6.7 65.9 7.4L55.6 23.3C54.4 19.1 55 14.3 57.5 10.4C60.4 5.8 65.2 3.1 70.4 3.1C72.5 7.7 72 13.4 69.1 17.9C66.6 21.8 62.6 24.4 58.1 25Z" fill="white"/>
<path d="M35.4 53.2H28C26.1 53.2 24.4 54.8 24.4 56.7V71C24.4 73 26 74.5 28 74.5H35.3C37.3 74.5 38.8 72.9 38.8 71V56.7999C38.9 54.7999 37.3 53.2 35.4 53.2ZM35.9 71C35.9 71.3 35.6 71.5 35.4 71.5H28C27.7 71.5 27.4 71.2 27.4 71V56.7999C27.4 56.4999 27.7 56.2999 28 56.2999H35.3C35.6 56.2999 35.8 56.4999 35.8 56.7999V71H35.9Z" fill="white"/>
<path d="M68.9 35H61.6C59.6 35 58 36.6 58 38.6V71C58 73 59.6 74.5 61.6 74.5H68.9C70.9 74.5 72.5 72.9 72.5 71V38.5C72.5 36.6 70.9 35 68.9 35ZM69.5 71C69.5 71.3 69.3 71.5 68.9 71.5H61.6C61.3 71.5 61 71.2 61 71V38.5C61 38.2 61.3 37.9 61.6 37.9H68.9C69.2 37.9 69.5 38.2 69.5 38.5V71Z" fill="white"/>
</g>
<defs>
<clipPath id="clip0_4455_12336">
<rect width="51.7" height="74.5" fill="white" transform="translate(23)"/>
</clipPath>
</defs>
</svg>
