<svg width="99" height="71" viewBox="0 0 99 71" fill="none" xmlns="http://www.w3.org/2000/svg">
<g clip-path="url(#clip0_4402_2463)">
<path d="M52.3 22.7L53.9 24.3V22.7H52.3ZM52.3 22.7L53.9 24.3V22.7H52.3ZM52.3 22.7L53.9 24.3V22.7H52.3ZM50.9 39.3V43.6L52.3 45H50.9V48H53.9V42.3L50.9 39.3ZM60.8 4.59998L49.6 15.8L39.7 25.7H43.9L51.7 17.9L60.7 8.89998L74.5 22.7H67.6V63.6H50.9V66.6H70.7V25.7H81.9L60.8 4.59998ZM52.3 22.7L53.9 24.3V22.7H52.3ZM52.3 22.7L53.9 24.3V22.7H52.3Z" fill="white"/>
<path d="M41.2 33.8L42.8 35.4V33.8H41.2ZM41.2 33.8L42.8 35.4V33.8H41.2ZM41.2 33.8L42.8 35.4V33.8H41.2ZM49.6 15.8L39.7 25.7L38.5 26.9L28.6 36.8H32.8L40.6 29L44 25.6L49.7 19.9L52.4 22.6L54 24.2L63.6 33.8H56.7V63.6H39.7V66.6H59.5V36.8H70.7L49.6 15.8ZM41.2 33.8L42.8 35.4V33.8H41.2ZM41.2 33.8L42.8 35.4V33.8H41.2Z" fill="white"/>
<path d="M38.5 26.9L28.6 36.8L17.4 48H28.6V66.6H48.4V48H59.6L38.5 26.9ZM45.4 45V63.6H31.6V45H24.6L32.8 36.8L38.5 31.1L52.3 44.9H45.4V45Z" fill="white"/>
</g>
<defs>
<clipPath id="clip0_4402_2463">
<rect width="64.5" height="62" fill="white" transform="translate(17.4 4.59998)"/>
</clipPath>
</defs>
</svg>
