<svg width="99" height="74" viewBox="0 0 99 74" fill="none" xmlns="http://www.w3.org/2000/svg">
<g clip-path="url(#clip0_4328_780)">
<path d="M48.4 14.3998V22.3998C48.4 25.6998 45.7 28.3998 42.4 28.3998C39.1 28.3998 36.4 25.6998 36.4 22.3998V14.3998H48.4ZM51.4 11.3998H33.4V22.3998C33.4 27.3998 37.4 31.3998 42.4 31.3998C47.4 31.3998 51.4 27.3998 51.4 22.3998V11.3998Z" fill="white"/>
<path d="M27.4 18.3998V48.3998H23.4V18.3998H27.4ZM30.4 15.3998H20.4V51.3998H30.4V15.3998Z" fill="white"/>
<path d="M61.4 18.3998V48.3998H57.4V18.3998H61.4ZM64.4 15.3998H54.4V51.3998H64.4V15.3998Z" fill="white"/>
<path d="M9.40002 42.8998C12 43.7998 14 45.7998 14.9 48.3998H9.40002V42.8998ZM6.40002 39.3998V51.3998H18.4C18.4 44.7998 13 39.3998 6.40002 39.3998Z" fill="white"/>
<path d="M75.4 42.8998V48.3998H69.9C70.8 45.7998 72.8 43.7998 75.4 42.8998ZM78.4 39.3998C71.8 39.3998 66.4 44.7998 66.4 51.3998H78.4V39.3998Z" fill="white"/>
<path d="M14.9 18.3998C14 20.9998 12 22.9998 9.40002 23.8998V18.3998H14.9ZM18.4 15.3998H6.40002V27.3998C13 27.3998 18.4 21.9998 18.4 15.3998Z" fill="white"/>
<path d="M75.4 18.3998V23.8998C72.8 22.9998 70.8 20.9998 69.9 18.3998H75.4ZM78.4 15.3998H66.4C66.4 21.9998 71.8 27.3998 78.4 27.3998V15.3998Z" fill="white"/>
<path d="M67.5 0.39978H17.3C11.3 0.39978 6.40002 5.29978 6.40002 11.2998V18.3998H35.4V15.3998H9.40002V11.2998C9.40002 6.89978 12.9 3.39978 17.3 3.39978H67.6C71.9 3.39978 75.5 6.89978 75.5 11.2998V15.3998H49.4V18.3998H78.4V11.2998C78.4 5.29978 73.5 0.39978 67.5 0.39978Z" fill="white"/>
<path d="M50.4 15.3998V18.3998H75.4V48.3998H9.40002V18.3998H35.4V15.3998H6.40002V51.3998H78.4V15.3998H50.4Z" fill="white"/>
<path d="M78.4 38.1998L64.2 45.2998V53.8998V55.8998V62.4998V64.4998V73.0998L78.4 65.9998L92.6 73.0998V64.4998V62.4998V55.8998V53.8998V45.2998L78.4 38.1998Z" fill="#231F20"/>
<path opacity="0.3" d="M66.2 52.5998V46.4998L78.4 40.3998L90.6 46.4998V52.5998L78.4 46.4998L66.2 52.5998Z" fill="white"/>
<path d="M66.2 61.1998V55.0998L78.4 49.0998L90.6 55.0998V61.1998L78.4 55.0998L66.2 61.1998Z" fill="#FBB040"/>
<path d="M66.2 69.7998V63.7998L78.4 57.6998L90.6 63.7998V69.7998L78.4 63.7998L66.2 69.7998Z" fill="#FBB040"/>
</g>
<defs>
<clipPath id="clip0_4328_780">
<rect width="86.2" height="72.7" fill="white" transform="translate(6.40002 0.39978)"/>
</clipPath>
</defs>
</svg>
