<svg width="99" height="73" viewBox="0 0 99 73" fill="none" xmlns="http://www.w3.org/2000/svg">
<g clip-path="url(#clip0_4328_691)">
<path d="M48.4 14.1998V22.1998C48.4 25.4998 45.7 28.1998 42.4 28.1998C39.1 28.1998 36.4 25.4998 36.4 22.1998V14.1998H48.4ZM51.4 11.1998H33.4V22.1998C33.4 27.1998 37.4 31.1998 42.4 31.1998C47.4 31.1998 51.4 27.1998 51.4 22.1998V11.1998Z" fill="white"/>
<path d="M27.4 18.1998V48.1998H23.4V18.1998H27.4ZM30.4 15.1998H20.4V51.1998H30.4V15.1998Z" fill="white"/>
<path d="M61.4 18.1998V48.1998H57.4V18.1998H61.4ZM64.4 15.1998H54.4V51.1998H64.4V15.1998Z" fill="white"/>
<path d="M9.40002 42.6998C12 43.5998 14 45.5998 14.9 48.1998H9.40002V42.6998ZM6.40002 39.1998V51.1998H18.4C18.4 44.5998 13 39.1998 6.40002 39.1998Z" fill="white"/>
<path d="M75.4 42.6998V48.1998H69.9C70.8 45.5998 72.8 43.5998 75.4 42.6998ZM78.4 39.1998C71.8 39.1998 66.4 44.5998 66.4 51.1998H78.4V39.1998Z" fill="white"/>
<path d="M14.9 18.1998C14 20.7998 12 22.7998 9.40002 23.6998V18.1998H14.9ZM18.4 15.1998H6.40002V27.1998C13 27.1998 18.4 21.7998 18.4 15.1998Z" fill="white"/>
<path d="M75.4 18.1998V23.6998C72.8 22.7998 70.8 20.7998 69.9 18.1998H75.4ZM78.4 15.1998H66.4C66.4 21.7998 71.8 27.1998 78.4 27.1998V15.1998Z" fill="white"/>
<path d="M67.5 0.199829H17.3C11.3 0.199829 6.40002 5.09983 6.40002 11.0998V18.1998H35.4V15.1998H9.40002V11.0998C9.40002 6.69983 12.9 3.19983 17.3 3.19983H67.6C71.9 3.19983 75.5 6.69983 75.5 11.0998V15.1998H49.4V18.1998H78.4V11.0998C78.4 5.09983 73.5 0.199829 67.5 0.199829Z" fill="white"/>
<path d="M50.4 15.1998V18.1998H75.4V48.1998H9.40002V18.1998H35.4V15.1998H6.40002V51.1998H78.4V15.1998H50.4Z" fill="white"/>
<path d="M78.4001 37.9998L64.2001 45.0998V53.6998V55.6998V62.2998V64.2998V72.8998L78.4001 65.7998L92.6001 72.8998V64.2998V62.2998V55.6998V53.6998V45.0998L78.4001 37.9998Z" fill="#231F20"/>
<path opacity="0.3" d="M66.2001 52.3998V46.2998L78.4001 40.1998L90.6001 46.2998V52.3998L78.4001 46.2998L66.2001 52.3998Z" fill="white"/>
<path opacity="0.3" d="M66.2001 60.9998V54.8998L78.4001 48.8998L90.6001 54.8998V60.9998L78.4001 54.8998L66.2001 60.9998Z" fill="white"/>
<path d="M66.2001 69.5998V63.5998L78.4001 57.4998L90.6001 63.5998V69.5998L78.4001 63.5998L66.2001 69.5998Z" fill="#39B54A"/>
<path d="M66.2001 63.5998V69.5998L78.4001 63.5998L90.6001 69.5998V63.5998L78.4001 57.4998L66.2001 63.5998Z" fill="#528AD6"/>
</g>
<defs>
<clipPath id="clip0_4328_691">
<rect width="86.2" height="72.7" fill="white" transform="translate(6.40002 0.199829)"/>
</clipPath>
</defs>
</svg>
