<svg width="99" height="74" viewBox="0 0 99 74" fill="none" xmlns="http://www.w3.org/2000/svg">
<g clip-path="url(#clip0_4328_460)">
<path d="M48.4 14.5997V22.5997C48.4 25.8997 45.7 28.5997 42.4 28.5997C39.1 28.5997 36.4 25.8997 36.4 22.5997V14.5997H48.4ZM51.4 11.5997H33.4V22.5997C33.4 27.5997 37.4 31.5997 42.4 31.5997C47.4 31.5997 51.4 27.5997 51.4 22.5997V11.5997Z" fill="white"/>
<path d="M27.4 18.5997V48.5997H23.4V18.5997H27.4ZM30.4 15.5997H20.4V51.5997H30.4V15.5997Z" fill="white"/>
<path d="M61.4 18.5997V48.5997H57.4V18.5997H61.4ZM64.4 15.5997H54.4V51.5997H64.4V15.5997Z" fill="white"/>
<path d="M9.40002 43.0997C12 43.9997 14 45.9997 14.9 48.5997H9.40002V43.0997ZM6.40002 39.5997V51.5997H18.4C18.4 44.9997 13 39.5997 6.40002 39.5997Z" fill="white"/>
<path d="M75.4 43.0997V48.5997H69.9C70.8 45.9997 72.8 43.9997 75.4 43.0997ZM78.4 39.5997C71.8 39.5997 66.4 44.9997 66.4 51.5997H78.4V39.5997Z" fill="white"/>
<path d="M14.9 18.5997C14 21.1997 12 23.1997 9.40002 24.0997V18.5997H14.9ZM18.4 15.5997H6.40002V27.5997C13 27.5997 18.4 22.1997 18.4 15.5997Z" fill="white"/>
<path d="M75.4 18.5997V24.0997C72.8 23.1997 70.8 21.1997 69.9 18.5997H75.4ZM78.4 15.5997H66.4C66.4 22.1997 71.8 27.5997 78.4 27.5997V15.5997Z" fill="white"/>
<path d="M67.5 0.599731H17.3C11.3 0.599731 6.40002 5.49973 6.40002 11.4997V18.5997H35.4V15.5997H9.40002V11.4997C9.40002 7.09973 12.9 3.59973 17.3 3.59973H67.6C71.9 3.59973 75.5 7.09973 75.5 11.4997V15.5997H49.4V18.5997H78.4V11.4997C78.4 5.49973 73.5 0.599731 67.5 0.599731Z" fill="white"/>
<path d="M50.4 15.5997V18.5997H75.4V48.5997H9.40002V18.5997H35.4V15.5997H6.40002V51.5997H78.4V15.5997H50.4Z" fill="white"/>
<path d="M78.4 38.3997L64.2 45.4997V54.0997V56.0997V62.6997V64.6997V73.2997L78.4 66.1997L92.6 73.2997V64.6997V62.6997V56.0997V54.0997V45.4997L78.4 38.3997Z" fill="#231F20"/>
<path d="M66.2 52.7997V46.6997L78.4 40.5997L90.6 46.6997V52.7997L78.4 46.6997L66.2 52.7997Z" fill="#39B54A"/>
<path d="M66.2 61.3997V55.2997L78.4 49.2997L90.6 55.2997V61.3997L78.4 55.2997L66.2 61.3997Z" fill="#39B54A"/>
<path d="M66.2 69.9997V63.9997L78.4 57.8997L90.6 63.9997V69.9997L78.4 63.9997L66.2 69.9997Z" fill="#39B54A"/>
</g>
<defs>
<clipPath id="clip0_4328_460">
<rect width="86.2" height="72.7" fill="white" transform="translate(6.40002 0.599731)"/>
</clipPath>
</defs>
</svg>
