<svg xmlns="http://www.w3.org/2000/svg" width="54" height="54" viewBox="0 0 54 54">
    <g id="bot" transform="translate(2821 -3555)">
        <circle id="Ellipse_45" data-name="Ellipse 45" cx="27" cy="27" r="27" transform="translate(-2821 3555)" fill="#8096ad"/>
        <g id="Group_313" data-name="Group 313" transform="translate(-3225.963 2319.5)">
            <path id="Path_190" data-name="Path 190" d="M436.642,1265.1q0,1.16.088,2.17a.938.938,0,0,0,.933.861h20.979a.938.938,0,0,0,.933-.861q.087-1.011.088-2.17a11.51,11.51,0,1,0-23.02,0Zm6.386-6.677h10.249a1.935,1.935,0,0,1,1.42.622,8.884,8.884,0,0,1,2.377,6.055h0a.441.441,0,0,1-.442.441H439.668a.438.438,0,0,1-.438-.438v0a8.884,8.884,0,0,1,2.377-6.055A1.935,1.935,0,0,1,443.028,1258.426Z" transform="translate(-16.189 -6.739)" fill="#fff"/>
            <circle id="Ellipse_51" data-name="Ellipse 51" cx="1.442" cy="1.442" r="1.442" transform="translate(426.197 1253.65)" fill="#fff"/>
            <circle id="Ellipse_52" data-name="Ellipse 52" cx="1.442" cy="1.442" r="1.442" transform="translate(434.846 1253.65)" fill="#fff"/>
            <path id="Path_191" data-name="Path 191" d="M432.766,1247.546l.872.908-.231.22a2.273,2.273,0,0,0-.078,3.193,12.458,12.458,0,0,1,4.72-4.426l-.041-.043a2.271,2.271,0,0,0-3.208-.062l-.231.222-.872-.908a1.295,1.295,0,1,0-.932.9Z" transform="translate(-11.893 0)" fill="#fff"/>
            <path id="Path_192" data-name="Path 192" d="M552.709,1331.08c.034.548.052,1.124.052,1.719a36.1,36.1,0,0,1-.28,4.733,2.54,2.54,0,0,0,2.485-2.539V1333.6A2.541,2.541,0,0,0,552.709,1331.08Z" transform="translate(-107.039 -67.511)" fill="#fff"/>
            <path id="Path_193" data-name="Path 193" d="M418.256,1331.08A2.541,2.541,0,0,0,416,1333.6v1.389a2.54,2.54,0,0,0,2.485,2.539,36.093,36.093,0,0,1-.28-4.733C418.2,1332.2,418.222,1331.628,418.256,1331.08Z" transform="translate(0 -67.511)" fill="#fff"/>
            <path id="Path_194" data-name="Path 194" d="M521.64,1251.866a2.273,2.273,0,0,0-.078-3.193l-.231-.22.872-.908a1.294,1.294,0,1,0-.932-.9l-.871.908-.231-.222a2.271,2.271,0,0,0-3.208.063l-.041.043A12.459,12.459,0,0,1,521.64,1251.866Z" transform="translate(-79.15 0)" fill="#fff"/>
            <path id="Path_195" data-name="Path 195" d="M454.992,1325H431.243a.937.937,0,0,0-.932.861q-.087,1.012-.088,2.17c0,14.393,6.538,14.212,12.9,14.212s12.9.182,12.9-14.212q0-1.16-.088-2.17A.938.938,0,0,0,454.992,1325Zm-10.917,14.4a1.906,1.906,0,0,1-2.632.009,1.862,1.862,0,0,1,0-2.605,1.8,1.8,0,0,1,1.311-.522,1.829,1.829,0,0,1,1.32.522,1.829,1.829,0,0,1,0,2.6Zm3.358-7.461a5.115,5.115,0,0,1-1.311,1.205,7.88,7.88,0,0,0-1.249,1,1.361,1.361,0,0,0-.328.948v.3H441v-.336a3.636,3.636,0,0,1,.319-1.542,2.854,2.854,0,0,1,.975-1.152l.514-.337a4.772,4.772,0,0,0,.815-.611.781.781,0,0,0,.23-.558q0-.8-1.489-.8a6.618,6.618,0,0,0-3.207.85V1327.8a8.626,8.626,0,0,1,3.792-.78,6.1,6.1,0,0,1,3.562.921,2.948,2.948,0,0,1,1.311,2.552A2.511,2.511,0,0,1,447.433,1331.942Z" transform="translate(-11.154 -62.743)" fill="#fff"/>
        </g>
    </g>
</svg>