<?xml version="1.0" standalone="no"?>
<!DOCTYPE svg PUBLIC "-//W3C//DTD SVG 20010904//EN"
 "http://www.w3.org/TR/2001/REC-SVG-20010904/DTD/svg10.dtd">
<svg version="1.0" xmlns="http://www.w3.org/2000/svg"
 width="260.000000pt" height="260.000000pt" viewBox="0 0 260.000000 260.000000"
 preserveAspectRatio="xMidYMid meet">
<metadata>
Created by potrace 1.14, written by Peter Selinger 2001-2017
</metadata>
<g transform="translate(0.000000,260.000000) scale(0.100000,-0.100000)"
fill="#000000" stroke="none">
<path d="M433 2580 c-212 -56 -371 -221 -418 -435 -14 -61 -15 -177 -13 -875
3 -803 3 -805 25 -871 59 -173 206 -318 378 -372 70 -22 71 -22 895 -22 824 0
825 0 895 22 175 55 323 203 378 378 22 70 22 71 22 895 0 824 0 825 -22 895
-54 172 -199 319 -372 378 -66 22 -66 22 -881 24 -771 2 -819 1 -887 -17z
m590 -204 c71 -30 118 -120 99 -190 -10 -33 -8 -35 84 -127 l94 -94 94 94 c91
90 94 95 85 125 -15 52 6 120 51 160 67 60 153 60 219 0 73 -65 75 -169 6
-239 -39 -38 -83 -51 -149 -42 -42 6 -42 6 -130 -82 -49 -49 -84 -91 -80 -93
5 -3 30 -9 57 -12 162 -24 333 -119 463 -259 138 -149 208 -312 221 -517 15
-246 -68 -461 -247 -640 -165 -165 -365 -250 -590 -250 -225 0 -425 85 -590
250 -179 179 -262 394 -247 640 13 205 83 368 221 517 130 140 301 235 463
259 27 3 52 9 57 12 4 2 -31 44 -80 93 -88 88 -88 88 -130 82 -66 -9 -110 4
-149 42 -127 128 13 342 178 271z"/>
<path d="M985 1414 c-5 -1 -22 -5 -38 -8 -43 -10 -105 -72 -118 -118 -28 -107
52 -218 160 -220 74 -1 130 31 161 92 52 102 -4 223 -116 248 -21 5 -43 8 -49
6z"/>
<path d="M1566 1408 c-170 -37 -183 -281 -17 -333 131 -41 257 81 222 213 -13
46 -75 108 -118 118 -16 3 -32 7 -38 8 -5 2 -27 -1 -49 -6z"/>
</g>
</svg>
